<svg id="_18" data-name="18" xmlns="http://www.w3.org/2000/svg" xmlns:xlink="http://www.w3.org/1999/xlink" width="572" height="527.868" viewBox="0 0 572 527.868">
  <defs>
    <clipPath id="clip-path">
      <rect id="Rectangle_44942" data-name="Rectangle 44942" width="572" height="527.868" fill="none"/>
    </clipPath>
    <clipPath id="clip-path-3">
      <rect id="Rectangle_44931" data-name="Rectangle 44931" width="77.432" height="30.712" transform="translate(216.998 71.981)" fill="none"/>
    </clipPath>
    <clipPath id="clip-path-4">
      <rect id="Rectangle_44932" data-name="Rectangle 44932" width="30.405" height="31.337" transform="translate(264.025 1.471)" fill="none"/>
    </clipPath>
    <clipPath id="clip-path-5">
      <rect id="Rectangle_44933" data-name="Rectangle 44933" width="30.09" height="11.618" transform="translate(264.34 27.714)" fill="none"/>
    </clipPath>
    <clipPath id="clip-path-6">
      <rect id="Rectangle_44934" data-name="Rectangle 44934" width="78.602" height="31.176" transform="translate(302.672 133.749)" fill="none"/>
    </clipPath>
    <clipPath id="clip-path-7">
      <rect id="Rectangle_44935" data-name="Rectangle 44935" width="30.864" height="31.811" transform="translate(350.41 62.173)" fill="none"/>
    </clipPath>
    <clipPath id="clip-path-8">
      <rect id="Rectangle_44936" data-name="Rectangle 44936" width="30.544" height="11.794" transform="translate(350.73 88.813)" fill="none"/>
    </clipPath>
    <clipPath id="clip-path-9">
      <rect id="Rectangle_44939" data-name="Rectangle 44939" width="98.193" height="129.175" transform="translate(396.882 389.264)" fill="none"/>
    </clipPath>
    <clipPath id="clip-path-10">
      <rect id="Rectangle_44940" data-name="Rectangle 44940" width="17.173" height="75.498" transform="translate(394.919 382.925)" fill="none"/>
    </clipPath>
  </defs>
  <g id="Group_146885" data-name="Group 146885" clip-path="url(#clip-path)">
    <g id="Group_146884" data-name="Group 146884">
      <g id="Group_146883" data-name="Group 146883" clip-path="url(#clip-path)">
        <path id="Path_203411" data-name="Path 203411" d="M18.927,159.006a22.282,22.282,0,0,1,5.431-2.361l1.119-5.377,9.086-.159,1.307,5.334a22.2,22.2,0,0,1,5.513,2.169l4.591-3.01,6.538,6.311-2.846,4.694a22.247,22.247,0,0,1,2.361,5.434L57.4,173.16l.16,9.085-5.334,1.308a22.354,22.354,0,0,1-2.168,5.512l3.008,4.592-6.311,6.537-4.694-2.847a22.233,22.233,0,0,1-5.432,2.361l-1.121,5.378-9.084.159-1.308-5.335a22.278,22.278,0,0,1-5.511-2.168l-4.592,3.009L8.479,194.44l2.846-4.694a22.24,22.24,0,0,1-2.361-5.433l-5.377-1.119-.159-9.085L8.762,172.8a22.249,22.249,0,0,1,2.169-5.512L7.921,162.7l6.311-6.537Zm4.843,12.1a9.747,9.747,0,1,0,13.782-.242,9.749,9.749,0,0,0-13.782.242" fill="#f5f5f5"/>
        <path id="Path_203412" data-name="Path 203412" d="M333.725,6.722a18.953,18.953,0,0,1,4.624-2.009L339.3.136,347.034,0l1.113,4.54a18.969,18.969,0,0,1,4.693,1.846l3.908-2.562L362.312,9.2l-2.423,4a18.957,18.957,0,0,1,2.01,4.625l4.577.953.135,7.733-4.54,1.113a18.917,18.917,0,0,1-1.846,4.691l2.562,3.909-5.372,5.564-4-2.422a18.97,18.97,0,0,1-4.624,2.009l-.953,4.577-7.733.136L339,41.539a18.924,18.924,0,0,1-4.692-1.846L330.4,42.255l-5.564-5.372,2.422-4a18.935,18.935,0,0,1-2.01-4.624l-4.576-.953-.136-7.733,4.54-1.113a19,19,0,0,1,1.846-4.692l-2.561-3.908L329.728,4.3Zm4.122,10.3a8.3,8.3,0,1,0,11.732-.206,8.3,8.3,0,0,0-11.732.206" fill="#f5f5f5"/>
        <path id="Path_203413" data-name="Path 203413" d="M72.27,11.979a30.788,30.788,0,0,1,7.511-3.264L81.328,1.28l12.561-.22L95.7,8.435a30.746,30.746,0,0,1,7.621,3l6.348-4.161L118.7,16l-3.935,6.489A30.782,30.782,0,0,1,118.034,30l7.433,1.547.221,12.561-7.375,1.808a30.8,30.8,0,0,1-3,7.621l4.16,6.348-8.725,9.038-6.49-3.935a30.756,30.756,0,0,1-7.512,3.264L95.2,75.687l-12.56.22-1.808-7.375a30.787,30.787,0,0,1-7.621-3l-6.348,4.162-9.038-8.727,3.935-6.489A30.773,30.773,0,0,1,58.5,46.967L51.061,45.42l-.22-12.561,7.375-1.808a30.824,30.824,0,0,1,3-7.621l-4.16-6.348,8.725-9.038Zm6.7,16.733a13.477,13.477,0,1,0,19.056-.335,13.476,13.476,0,0,0-19.056.335" fill="#f5f5f5"/>
        <path id="Path_203414" data-name="Path 203414" d="M274.866,227.059A22.288,22.288,0,0,1,280.3,224.7l1.119-5.377,9.086-.159,1.307,5.334a22.252,22.252,0,0,1,5.513,2.168l4.591-3.01,6.537,6.312-2.846,4.694a22.209,22.209,0,0,1,2.361,5.434l5.377,1.119.16,9.085-5.335,1.308A22.277,22.277,0,0,1,306,257.118l3.009,4.591-6.311,6.538L298,265.4a22.278,22.278,0,0,1-5.433,2.361l-1.12,5.377-9.085.16-1.307-5.335a22.25,22.25,0,0,1-5.512-2.169l-4.592,3.01-6.537-6.311,2.846-4.694a22.23,22.23,0,0,1-2.361-5.434l-5.377-1.119-.159-9.084,5.334-1.309a22.258,22.258,0,0,1,2.169-5.511l-3.01-4.592,6.311-6.537Zm4.843,12.1a9.748,9.748,0,1,0,13.783-.242,9.748,9.748,0,0,0-13.783.242" fill="#f5f5f5"/>
        <path id="Path_203415" data-name="Path 203415" d="M300.458,389.658a22.272,22.272,0,0,1,5.432-2.361l1.119-5.377,9.086-.159L317.4,387.1a22.232,22.232,0,0,1,5.513,2.169l4.591-3.01,6.537,6.311-2.846,4.694a22.209,22.209,0,0,1,2.361,5.434l5.377,1.119.159,9.085L333.76,414.2a22.277,22.277,0,0,1-2.168,5.512l3.009,4.592-6.311,6.537L323.6,428a22.24,22.24,0,0,1-5.433,2.361l-1.12,5.377-9.085.16-1.307-5.335a22.286,22.286,0,0,1-5.512-2.168l-4.592,3.009-6.537-6.311,2.846-4.694a22.241,22.241,0,0,1-2.361-5.433l-5.377-1.12-.16-9.084,5.335-1.308a22.284,22.284,0,0,1,2.168-5.512l-3.009-4.592,6.311-6.537Zm4.843,12.1a9.748,9.748,0,1,0,13.783-.242,9.748,9.748,0,0,0-13.783.242" fill="#f5f5f5"/>
        <path id="Path_203416" data-name="Path 203416" d="M82.335,287.909A15.061,15.061,0,0,1,86,286.317l.755-3.626,6.126-.107.882,3.6a15,15,0,0,1,3.717,1.462l3.1-2.029,4.408,4.256-1.92,3.164a15.031,15.031,0,0,1,1.593,3.664l3.625.755.107,6.126-3.6.882a15.033,15.033,0,0,1-1.463,3.716l2.03,3.1-4.256,4.408-3.165-1.919a14.994,14.994,0,0,1-3.664,1.592l-.754,3.626-6.126.107-.882-3.6a15,15,0,0,1-3.717-1.462l-3.1,2.029L75.29,311.8l1.92-3.166a14.988,14.988,0,0,1-1.592-3.663l-3.626-.755-.108-6.125,3.6-.882a15.024,15.024,0,0,1,1.463-3.717l-2.03-3.1,4.256-4.408ZM85.6,296.07a6.573,6.573,0,1,0,9.294-.163,6.574,6.574,0,0,0-9.294.163" fill="#f5f5f5"/>
        <path id="Path_203417" data-name="Path 203417" d="M91.432,335.116a27.37,27.37,0,0,1,6.677-2.9l1.376-6.61,11.167-.2,1.607,6.556a27.3,27.3,0,0,1,6.776,2.666l5.644-3.7,8.035,7.758-3.5,5.769a27.324,27.324,0,0,1,2.9,6.679l6.609,1.376.2,11.167-6.556,1.607a27.371,27.371,0,0,1-2.666,6.775l3.7,5.644-7.757,8.035-5.77-3.5a27.393,27.393,0,0,1-6.678,2.9l-1.376,6.609-11.167.2-1.607-6.557a27.371,27.371,0,0,1-6.775-2.666l-5.644,3.7-8.035-7.758,3.5-5.77a27.322,27.322,0,0,1-2.9-6.678l-6.609-1.375-.2-11.167,6.557-1.608A27.368,27.368,0,0,1,81.6,345.3l-3.7-5.644,7.757-8.035Zm5.953,14.876a11.981,11.981,0,1,0,16.941-.3,11.981,11.981,0,0,0-16.941.3" fill="#f5f5f5"/>
        <path id="Path_203418" data-name="Path 203418" d="M191.74,73.972H155.215a4.57,4.57,0,0,1-4.57-4.57V18.847a4.57,4.57,0,0,1,4.57-4.57h23.164L196.31,32.758V69.4a4.57,4.57,0,0,1-4.57,4.57" fill="#f5f5f5"/>
        <path id="Path_203419" data-name="Path 203419" d="M191.782,73.972H155.175a4.529,4.529,0,0,1-4.529-4.529V55.859h45.665V69.443a4.529,4.529,0,0,1-4.529,4.529" fill="#e0e0e0"/>
        <path id="Path_203420" data-name="Path 203420" d="M166.829,67.542l1.149-1.379a2.053,2.053,0,0,0,1.66.983c.83,0,1.264-.5,1.264-1.481V61.414h-3.141v-1.66h5.2v5.8c0,2.208-1.11,3.293-3.217,3.293a3.593,3.593,0,0,1-2.911-1.3" fill="#fafafa"/>
        <path id="Path_203421" data-name="Path 203421" d="M174.193,68.053l.664-1.43a4.7,4.7,0,0,0,2.388.664c.919,0,1.264-.242,1.264-.626,0-1.123-4.15.026-4.15-2.719,0-1.3,1.175-2.222,3.179-2.222a5.648,5.648,0,0,1,2.643.6l-.664,1.417a3.943,3.943,0,0,0-1.979-.511c-.894,0-1.277.281-1.277.638,0,1.175,4.15.039,4.15,2.745,0,1.277-1.188,2.184-3.243,2.184a5.892,5.892,0,0,1-2.975-.741" fill="#fafafa"/>
        <path id="Path_203422" data-name="Path 203422" d="M160.32,46.352l1.432-1.679a4.31,4.31,0,0,0,3.6,2.049c1.951,0,2.963-1.185,2.963-3.505v-9.7h-6.246V31.367h8.69V43.093c0,3.852-1.876,5.752-5.407,5.752a6.024,6.024,0,0,1-5.036-2.493" fill="#fafafa"/>
        <path id="Path_203423" data-name="Path 203423" d="M173.8,47.265l.987-1.876a8.41,8.41,0,0,0,4.592,1.358c2.2,0,3.111-.667,3.111-1.778,0-2.937-8.27-.4-8.27-5.6,0-2.345,2.1-3.925,5.456-3.925a9.514,9.514,0,0,1,4.764,1.185L183.43,38.5a6.835,6.835,0,0,0-3.777-1.037c-2.074,0-3.086.765-3.086,1.8,0,3.086,8.295.568,8.295,5.654,0,2.37-2.173,3.876-5.654,3.876a9.442,9.442,0,0,1-5.406-1.531" fill="#fafafa"/>
        <path id="Path_203424" data-name="Path 203424" d="M178.38,14.277V28.5a4.25,4.25,0,0,0,4.25,4.251l13.681,0Z" fill="#ebebeb"/>
        <path id="Path_203425" data-name="Path 203425" d="M178.566,29.753a4.725,4.725,0,0,0,3.749,4.585,4.289,4.289,0,0,0,.449.1c1.787.319,13.546,2.411,13.546,2.141V32.757H182.629s-3.415-.116-4.063-3" fill="#e0e0e0"/>
        <path id="Path_203426" data-name="Path 203426" d="M.647,509.87,65.7,465.943l315.184-1.506,14.427,46.092Z" fill="#455a64"/>
        <path id="Path_203427" data-name="Path 203427" d="M394.488,527.868,0,527.581v-18.57l394.661,1.233Z" fill="#455a64"/>
        <path id="Path_203428" data-name="Path 203428" d="M384.812,510.138c0,.177-85.185.28-190.242.23-105.093-.05-190.26-.234-190.26-.411s85.167-.28,190.261-.23c105.056.05,190.241.234,190.241.411" fill="#263238"/>
        <path id="Path_203429" data-name="Path 203429" d="M286.681,102.693H224.748A7.749,7.749,0,0,1,217,94.944V9.22a7.749,7.749,0,0,1,7.749-7.749h39.277l30.4,31.337V94.944a7.749,7.749,0,0,1-7.749,7.749" fill="#4dd0e1"/>
        <g id="Group_146861" data-name="Group 146861" opacity="0.2">
          <g id="Group_146860" data-name="Group 146860">
            <g id="Group_146859" data-name="Group 146859" clip-path="url(#clip-path-3)">
              <path id="Path_203430" data-name="Path 203430" d="M287.951,102.693H223.476A6.478,6.478,0,0,1,217,96.214V73.219a1.239,1.239,0,0,1,1.239-1.238h74.954a1.238,1.238,0,0,1,1.238,1.238V96.214a6.478,6.478,0,0,1-6.478,6.479"/>
            </g>
          </g>
        </g>
        <g id="Group_146864" data-name="Group 146864" opacity="0.2">
          <g id="Group_146863" data-name="Group 146863">
            <g id="Group_146862" data-name="Group 146862" clip-path="url(#clip-path-4)">
              <path id="Path_203431" data-name="Path 203431" d="M264.025,1.471V25.6a7.208,7.208,0,0,0,7.206,7.208l23.2,0Z" fill="#fff"/>
            </g>
          </g>
        </g>
        <g id="Group_146867" data-name="Group 146867" opacity="0.2">
          <g id="Group_146866" data-name="Group 146866">
            <g id="Group_146865" data-name="Group 146865" clip-path="url(#clip-path-5)">
              <path id="Path_203432" data-name="Path 203432" d="M264.342,27.714s-.305,5.851,6.356,7.775a7.645,7.645,0,0,0,.763.172c3.029.542,22.969,4.088,22.969,3.63V32.808h-23.2s-5.792-.2-6.89-5.094"/>
            </g>
          </g>
        </g>
        <path id="Path_203433" data-name="Path 203433" d="M243.1,46.388c1.273.387,1.854,1.189,1.854,3.1v4.426a1.82,1.82,0,0,0,2.019,2.047h.5v3.375h-1.6c-3.459,0-5.229-1.771-5.229-4.953V49.376a1.133,1.133,0,0,0-1.216-1.3h-.914V44.7h.914a1.133,1.133,0,0,0,1.216-1.3V38.392c0-3.181,1.77-4.951,5.229-4.951h1.6v3.375h-.5a1.819,1.819,0,0,0-2.019,2.047v4.426c0,1.91-.581,2.712-1.854,3.1" fill="#fafafa"/>
        <path id="Path_203434" data-name="Path 203434" d="M272.923,44.7v3.374h-.914a1.133,1.133,0,0,0-1.216,1.3v5.007c0,3.181-1.77,4.952-5.229,4.952h-1.6V55.961h.5a1.82,1.82,0,0,0,2.019-2.048V49.487c0-1.909.581-2.711,1.854-3.1-1.273-.387-1.854-1.189-1.854-3.1V38.863a1.82,1.82,0,0,0-2.019-2.047h-.5V33.441h1.6c3.459,0,5.229,1.77,5.229,4.952V43.4a1.133,1.133,0,0,0,1.216,1.3Z" fill="#fafafa"/>
        <path id="Path_203435" data-name="Path 203435" d="M373.408,164.925H310.539a7.867,7.867,0,0,1-7.867-7.866V70.039a7.867,7.867,0,0,1,7.867-7.866H350.41l30.864,31.811v63.075a7.866,7.866,0,0,1-7.866,7.866" fill="#4dd0e1"/>
        <g id="Group_146870" data-name="Group 146870" opacity="0.2">
          <g id="Group_146869" data-name="Group 146869">
            <g id="Group_146868" data-name="Group 146868" clip-path="url(#clip-path-6)">
              <path id="Path_203436" data-name="Path 203436" d="M374.378,164.925H309.569a6.9,6.9,0,0,1-6.9-6.9v-24.28h78.6v24.28a6.9,6.9,0,0,1-6.9,6.9"/>
            </g>
          </g>
        </g>
        <g id="Group_146873" data-name="Group 146873" opacity="0.2">
          <g id="Group_146872" data-name="Group 146872">
            <g id="Group_146871" data-name="Group 146871" clip-path="url(#clip-path-7)">
              <path id="Path_203437" data-name="Path 203437" d="M350.41,62.173V86.664a7.316,7.316,0,0,0,7.315,7.316l23.549,0Z" fill="#fff"/>
            </g>
          </g>
        </g>
        <g id="Group_146876" data-name="Group 146876" opacity="0.2">
          <g id="Group_146875" data-name="Group 146875">
            <g id="Group_146874" data-name="Group 146874" clip-path="url(#clip-path-8)">
              <path id="Path_203438" data-name="Path 203438" d="M350.732,88.813s-.31,5.94,6.452,7.893a7.589,7.589,0,0,0,.774.174c3.075.55,23.317,4.15,23.317,3.685V93.984H357.726s-5.88-.2-6.994-5.171"/>
            </g>
          </g>
        </g>
        <path id="Path_203439" data-name="Path 203439" d="M334.953,108l-9.436,3.457,9.436,3.428v3.543L321.465,113.3v-3.683l13.488-5.13Z" fill="#fafafa"/>
        <path id="Path_203440" data-name="Path 203440" d="M345.092,97.519h3.939l-9.351,26.692h-3.939Z" fill="#fafafa"/>
        <path id="Path_203441" data-name="Path 203441" d="M363.025,109.619V113.3l-13.488,5.128v-3.542l9.436-3.429L349.537,108V104.49Z" fill="#fafafa"/>
        <path id="Path_203442" data-name="Path 203442" d="M331.743,145.35v10.564H329.3v-4.331h-4.8v4.331h-2.444V145.35H324.5v4.165h4.8V145.35Z" fill="#fafafa"/>
        <path id="Path_203443" data-name="Path 203443" d="M336.435,147.342h-3.381V145.35h9.207v1.992H338.88v8.572h-2.445Z" fill="#fafafa"/>
        <path id="Path_203444" data-name="Path 203444" d="M353.185,155.914l-.015-6.339-3.109,5.222h-1.1l-3.093-5.086v6.2h-2.294V145.35h2.022l3.954,6.565,3.893-6.565h2.008l.03,10.564Z" fill="#fafafa"/>
        <path id="Path_203445" data-name="Path 203445" d="M357.981,145.35h2.444v8.572h5.3v1.992h-7.742Z" fill="#fafafa"/>
        <path id="Path_203446" data-name="Path 203446" d="M152.741,290.574H37.172a3.058,3.058,0,0,1-3.057-3.058V97.494a3.058,3.058,0,0,1,3.057-3.058H152.741a3.058,3.058,0,0,1,3.058,3.058V287.516a3.058,3.058,0,0,1-3.058,3.058" fill="#fff"/>
        <path id="Path_203447" data-name="Path 203447" d="M155.8,116.352H34.115V98.044a3.607,3.607,0,0,1,3.607-3.607h114.6a3.471,3.471,0,0,1,3.472,3.471Z" fill="#e0e0e0"/>
        <path id="Path_203448" data-name="Path 203448" d="M151.717,290.574a4.719,4.719,0,0,0,1.568-.348,4.163,4.163,0,0,0,1.559-1.189,4.073,4.073,0,0,0,.889-2.522c-.014-4.2-.034-10.37-.059-18.315-.024-15.917-.059-38.928-.1-67.361-.02-28.443-.043-62.306-.069-99.905V99.169a5.707,5.707,0,0,0-.145-1.676,3.792,3.792,0,0,0-3.694-2.758h-1.792l-3.6,0-14.6,0-30.12.008-63.337.007a3.758,3.758,0,0,0-3.76,3.452c-.032.623-.009,1.336-.016,2v8.063q0,8.039,0,15.966,0,15.852,0,31.213c-.007,20.463-.013,40.2-.019,59.006s-.02,36.671-.03,53.394q0,6.271-.009,12.324,0,3.025,0,5.994a3.886,3.886,0,0,0,3.031,4.075,21.162,21.162,0,0,0,2.839.087l2.866,0,5.642.005,10.916.011,67.358.1,18.313.06,4.762.032c1.073.011,1.623.033,1.623.033s-.55.022-1.623.033l-4.762.032-18.313.06-67.358.1-10.916.01-5.642.006-2.866,0a20.7,20.7,0,0,1-2.942-.093,4.343,4.343,0,0,1-2.559-1.634,4.453,4.453,0,0,1-.874-2.925q0-2.969-.005-5.994,0-6.051-.009-12.324c-.009-16.723-.019-34.591-.029-53.394s-.013-38.543-.019-59.006q0-15.348-.005-31.213,0-7.926,0-15.966,0-4.018,0-8.063c.008-.685-.017-1.323.018-2.049a4.4,4.4,0,0,1,4.4-4.043l63.337.007,30.12.008,14.6.005h5.392a4.387,4.387,0,0,1,4.266,3.195,6.249,6.249,0,0,1,.166,1.837v1.765c-.026,37.6-.049,71.462-.068,99.905-.044,28.433-.078,51.444-.1,67.361-.027,7.945-.048,14.117-.062,18.316a4.119,4.119,0,0,1-2.551,3.77,4.253,4.253,0,0,1-1.184.284c-.273.008-.41,0-.41,0" fill="#263238"/>
        <path id="Path_203449" data-name="Path 203449" d="M52.05,107.1a3.59,3.59,0,1,1-3.59-3.59,3.59,3.59,0,0,1,3.59,3.59" fill="#fff"/>
        <path id="Path_203450" data-name="Path 203450" d="M63.1,107.1a3.59,3.59,0,1,1-3.59-3.59,3.59,3.59,0,0,1,3.59,3.59" fill="#fff"/>
        <path id="Path_203451" data-name="Path 203451" d="M74.141,107.1a3.59,3.59,0,1,1-3.59-3.59,3.59,3.59,0,0,1,3.59,3.59" fill="#fff"/>
        <path id="Path_203452" data-name="Path 203452" d="M87.064,146.068H64.655a2.431,2.431,0,1,1,0-4.862H87.064a2.431,2.431,0,1,1,0,4.862" fill="#263238"/>
        <path id="Path_203453" data-name="Path 203453" d="M87.064,158.8H64.655a2.432,2.432,0,1,1,0-4.863H87.064a2.432,2.432,0,0,1,0,4.863" fill="#e0e0e0"/>
        <path id="Path_203454" data-name="Path 203454" d="M87.705,193.657H65.3a2.431,2.431,0,1,1,0-4.863H87.705a2.431,2.431,0,0,1,0,4.863" fill="#e0e0e0"/>
        <path id="Path_203455" data-name="Path 203455" d="M87.064,171.948H64.655a2.431,2.431,0,1,1,0-4.863H87.064a2.431,2.431,0,0,1,0,4.863" fill="#4dd0e1"/>
        <path id="Path_203456" data-name="Path 203456" d="M87.064,245.291H64.655a2.432,2.432,0,1,1,0-4.863H87.064a2.432,2.432,0,0,1,0,4.863" fill="#4dd0e1"/>
        <path id="Path_203457" data-name="Path 203457" d="M122.965,146.068H100.556a2.431,2.431,0,1,1,0-4.862h22.409a2.431,2.431,0,1,1,0,4.862" fill="#455a64"/>
        <path id="Path_203458" data-name="Path 203458" d="M147.23,158.8H100.347a2.441,2.441,0,0,1,0-4.863H147.23a2.441,2.441,0,0,1,0,4.863" fill="#263238"/>
        <path id="Path_203459" data-name="Path 203459" d="M145.969,171.948H98.762a2.436,2.436,0,0,1,0-4.863h47.207a2.436,2.436,0,0,1,0,4.863" fill="#e0e0e0"/>
        <path id="Path_203460" data-name="Path 203460" d="M111.867,182.584H64.66a2.436,2.436,0,0,1,0-4.863h47.207a2.436,2.436,0,0,1,0,4.863" fill="#e0e0e0"/>
        <path id="Path_203461" data-name="Path 203461" d="M53.67,143.637a2.469,2.469,0,1,1-2.47-2.47,2.47,2.47,0,0,1,2.47,2.47" fill="#455a64"/>
        <path id="Path_203462" data-name="Path 203462" d="M53.67,131.458a2.469,2.469,0,1,1-2.47-2.47,2.47,2.47,0,0,1,2.47,2.47" fill="#455a64"/>
        <path id="Path_203463" data-name="Path 203463" d="M53.67,156.326a2.469,2.469,0,1,1-2.47-2.47,2.47,2.47,0,0,1,2.47,2.47" fill="#455a64"/>
        <path id="Path_203464" data-name="Path 203464" d="M53.67,169.516a2.469,2.469,0,1,1-2.47-2.469,2.47,2.47,0,0,1,2.47,2.469" fill="#455a64"/>
        <path id="Path_203465" data-name="Path 203465" d="M87.705,229.25H65.3a2.432,2.432,0,1,1,0-4.863H87.705a2.432,2.432,0,0,1,0,4.863" fill="#e0e0e0"/>
        <path id="Path_203466" data-name="Path 203466" d="M87.064,207.541H64.655a2.432,2.432,0,1,1,0-4.863H87.064a2.432,2.432,0,0,1,0,4.863" fill="#4dd0e1"/>
        <path id="Path_203467" data-name="Path 203467" d="M145.969,207.541H98.762a2.436,2.436,0,0,1,0-4.863h47.207a2.436,2.436,0,0,1,0,4.863" fill="#e0e0e0"/>
        <path id="Path_203468" data-name="Path 203468" d="M111.867,218.177H64.66a2.436,2.436,0,0,1,0-4.863h47.207a2.436,2.436,0,0,1,0,4.863" fill="#e0e0e0"/>
        <path id="Path_203469" data-name="Path 203469" d="M53.67,205.11a2.469,2.469,0,1,1-2.47-2.47,2.47,2.47,0,0,1,2.47,2.47" fill="#455a64"/>
        <path id="Path_203470" data-name="Path 203470" d="M77.789,134.4H63.314a.958.958,0,0,1-.958-.958v-2.774a.958.958,0,0,1,.958-.958H77.789a.958.958,0,0,1,.958.958v2.774a.958.958,0,0,1-.958.958" fill="#455a64"/>
        <path id="Path_203471" data-name="Path 203471" d="M87.064,258.25H64.655a2.432,2.432,0,1,1,0-4.863H87.064a2.432,2.432,0,0,1,0,4.863" fill="#263238"/>
        <path id="Path_203472" data-name="Path 203472" d="M122.965,258.25H100.556a2.432,2.432,0,1,1,0-4.863h22.409a2.432,2.432,0,0,1,0,4.863" fill="#455a64"/>
        <path id="Path_203473" data-name="Path 203473" d="M53.67,255.819a2.469,2.469,0,1,1-2.47-2.47,2.47,2.47,0,0,1,2.47,2.47" fill="#455a64"/>
        <path id="Path_203474" data-name="Path 203474" d="M53.67,267.531a2.469,2.469,0,1,1-2.47-2.47,2.47,2.47,0,0,1,2.47,2.47" fill="#455a64"/>
        <path id="Path_203475" data-name="Path 203475" d="M77.789,270.468H63.314a.958.958,0,0,1-.958-.958v-2.774a.958.958,0,0,1,.958-.958H77.789a.958.958,0,0,1,.958.958v2.774a.958.958,0,0,1-.958.958" fill="#455a64"/>
        <rect id="Rectangle_44937" data-name="Rectangle 44937" width="222.264" height="141.384" transform="translate(163.925 260.299)" fill="#fff"/>
        <rect id="Rectangle_44938" data-name="Rectangle 44938" width="40.031" height="141.384" transform="translate(163.925 260.299)" fill="#ebebeb"/>
        <path id="Path_203476" data-name="Path 203476" d="M181.518,275.558a2.721,2.721,0,0,1,.666-.289l.138-.66,1.114-.02.161.655a2.71,2.71,0,0,1,.676.266l.563-.369.8.774-.349.576a2.724,2.724,0,0,1,.29.666l.659.138.02,1.114-.654.161a2.751,2.751,0,0,1-.267.676l.37.563-.775.8-.575-.349a2.77,2.77,0,0,1-.667.29l-.137.659-1.115.02-.16-.654a2.742,2.742,0,0,1-.677-.267l-.563.37-.8-.775.349-.576a2.746,2.746,0,0,1-.29-.666l-.659-.137-.02-1.115.655-.16a2.7,2.7,0,0,1,.266-.677l-.369-.563.774-.8Zm.594,1.485a1.2,1.2,0,1,0,1.691-.03,1.2,1.2,0,0,0-1.691.03" fill="#e0e0e0"/>
        <path id="Path_203477" data-name="Path 203477" d="M190.766,306.792h-17.45a1.794,1.794,0,1,1,0-3.587h17.45a1.794,1.794,0,0,1,0,3.587" fill="#e0e0e0"/>
        <path id="Path_203478" data-name="Path 203478" d="M190.766,297.656h-17.45a1.794,1.794,0,1,1,0-3.587h17.45a1.794,1.794,0,0,1,0,3.587" fill="#e0e0e0"/>
        <path id="Path_203479" data-name="Path 203479" d="M190.766,289.3h-17.45a1.794,1.794,0,1,1,0-3.587h17.45a1.794,1.794,0,0,1,0,3.587" fill="#e0e0e0"/>
        <path id="Path_203480" data-name="Path 203480" d="M237.652,281.187h-16.53a1.794,1.794,0,0,1,0-3.587h16.53a1.794,1.794,0,0,1,0,3.587" fill="#263238"/>
        <path id="Path_203481" data-name="Path 203481" d="M237.652,290.574h-16.53a1.794,1.794,0,0,1,0-3.587h16.53a1.794,1.794,0,0,1,0,3.587" fill="#e0e0e0"/>
        <path id="Path_203482" data-name="Path 203482" d="M237.652,300.275h-16.53a1.794,1.794,0,0,1,0-3.587h16.53a1.794,1.794,0,0,1,0,3.587" fill="#4dd0e1"/>
        <path id="Path_203483" data-name="Path 203483" d="M230.6,319.031h-9.478a1.794,1.794,0,0,1,0-3.587H230.6a1.794,1.794,0,0,1,0,3.587" fill="#263238"/>
        <path id="Path_203484" data-name="Path 203484" d="M230.6,328.753h-9.478a1.794,1.794,0,0,1,0-3.587H230.6a1.794,1.794,0,0,1,0,3.587" fill="#263238"/>
        <path id="Path_203485" data-name="Path 203485" d="M258.769,328.753H241.39a1.794,1.794,0,1,1,0-3.587h17.379a1.794,1.794,0,0,1,0,3.587" fill="#e0e0e0"/>
        <path id="Path_203486" data-name="Path 203486" d="M248.939,337.4H231.56a1.793,1.793,0,1,1,0-3.587h17.379a1.793,1.793,0,0,1,0,3.587" fill="#4dd0e1"/>
        <path id="Path_203487" data-name="Path 203487" d="M253.02,347.26h-12.4a.994.994,0,0,1-.993-.993v-1.6a.994.994,0,0,1,.993-.994h12.4a.993.993,0,0,1,.993.994v1.6a.993.993,0,0,1-.993.993" fill="#4dd0e1"/>
        <path id="Path_203488" data-name="Path 203488" d="M252.221,366.587h-10.8a1.794,1.794,0,0,1,0-3.587h10.8a1.794,1.794,0,0,1,0,3.587" fill="#4dd0e1"/>
        <path id="Path_203489" data-name="Path 203489" d="M252.221,387h-10.8a1.794,1.794,0,0,1,0-3.587h10.8a1.794,1.794,0,0,1,0,3.587" fill="#4dd0e1"/>
        <path id="Path_203490" data-name="Path 203490" d="M278.767,387H259.835a1.794,1.794,0,0,1,0-3.587h18.932a1.794,1.794,0,0,1,0,3.587" fill="#455a64"/>
        <path id="Path_203491" data-name="Path 203491" d="M292.019,387h-2.727a1.794,1.794,0,1,1,0-3.587h2.727a1.794,1.794,0,0,1,0,3.587" fill="#e0e0e0"/>
        <path id="Path_203492" data-name="Path 203492" d="M277.633,366.587h-16a1.794,1.794,0,0,1,0-3.587h16a1.794,1.794,0,0,1,0,3.587" fill="#e0e0e0"/>
        <path id="Path_203493" data-name="Path 203493" d="M312.717,375.548H261.634a1.794,1.794,0,0,1,0-3.587h51.083a1.794,1.794,0,0,1,0,3.587" fill="#e0e0e0"/>
        <path id="Path_203494" data-name="Path 203494" d="M318.618,366.587H286A1.794,1.794,0,0,1,286,363h32.615a1.794,1.794,0,0,1,0,3.587" fill="#455a64"/>
        <path id="Path_203495" data-name="Path 203495" d="M274.817,347.26H259.7a.994.994,0,0,1-.993-.993v-1.6a.994.994,0,0,1,.993-.994h15.112a.993.993,0,0,1,.993.994v1.6a.993.993,0,0,1-.993.993" fill="#455a64"/>
        <path id="Path_203496" data-name="Path 203496" d="M286.512,347.26h-4.957a.994.994,0,0,1-.994-.993v-1.6a.994.994,0,0,1,.994-.994h4.957a.993.993,0,0,1,.993.994v1.6a.993.993,0,0,1-.993.993" fill="#e0e0e0"/>
        <path id="Path_203497" data-name="Path 203497" d="M312.274,347.26H293.78a.994.994,0,0,1-.994-.993v-1.6a.994.994,0,0,1,.994-.994h18.494a.993.993,0,0,1,.993.994v1.6a.993.993,0,0,1-.993.993" fill="#e0e0e0"/>
        <path id="Path_203498" data-name="Path 203498" d="M260.711,337.4h-3.872a1.793,1.793,0,0,1,0-3.587h3.872a1.793,1.793,0,0,1,0,3.587" fill="#263238"/>
        <path id="Path_203499" data-name="Path 203499" d="M293.521,337.4H268.863a1.793,1.793,0,0,1,0-3.587h24.658a1.793,1.793,0,0,1,0,3.587" fill="#e0e0e0"/>
        <path id="Path_203500" data-name="Path 203500" d="M264.132,281.187H247.6a1.794,1.794,0,0,1,0-3.587h16.529a1.794,1.794,0,0,1,0,3.587" fill="#455a64"/>
        <path id="Path_203501" data-name="Path 203501" d="M285.429,290.574H247.6a1.794,1.794,0,0,1,0-3.587h37.826a1.794,1.794,0,0,1,0,3.587" fill="#263238"/>
        <path id="Path_203502" data-name="Path 203502" d="M326.154,300.275H247.6a1.794,1.794,0,0,1,0-3.587h78.551a1.794,1.794,0,0,1,0,3.587" fill="#e0e0e0"/>
        <path id="Path_203503" data-name="Path 203503" d="M284.641,307.108H247.6a1.794,1.794,0,0,1,0-3.587h37.038a1.794,1.794,0,0,1,0,3.587" fill="#e0e0e0"/>
        <path id="Path_203504" data-name="Path 203504" d="M277.064,319.031H240.026a1.794,1.794,0,0,1,0-3.587h37.038a1.794,1.794,0,0,1,0,3.587" fill="#455a64"/>
        <path id="Path_203505" data-name="Path 203505" d="M297.8,319.031H285.384a1.794,1.794,0,0,1,0-3.587H297.8a1.794,1.794,0,0,1,0,3.587" fill="#4dd0e1"/>
        <path id="Path_203506" data-name="Path 203506" d="M329.54,318.973H306.089a1.794,1.794,0,0,1,0-3.587H329.54a1.794,1.794,0,0,1,0,3.587" fill="#263238"/>
        <path id="Path_203507" data-name="Path 203507" d="M361.454,318.973H338a1.794,1.794,0,0,1,0-3.587h23.451a1.794,1.794,0,0,1,0,3.587" fill="#e0e0e0"/>
        <path id="Path_203508" data-name="Path 203508" d="M183.208,316.463h-9.893a1.794,1.794,0,0,1,0-3.587h9.893a1.794,1.794,0,0,1,0,3.587" fill="#e0e0e0"/>
        <path id="Path_203509" data-name="Path 203509" d="M180.247,345.477h-6.932a1.793,1.793,0,0,1,0-3.587h6.932a1.793,1.793,0,0,1,0,3.587" fill="#e0e0e0"/>
        <path id="Path_203510" data-name="Path 203510" d="M192.559,326.134H173.315a1.794,1.794,0,0,1,0-3.587h19.244a1.794,1.794,0,0,1,0,3.587" fill="#e0e0e0"/>
        <path id="Path_203511" data-name="Path 203511" d="M189.183,335.8H173.316a1.794,1.794,0,1,1,0-3.587h15.867a1.794,1.794,0,0,1,0,3.587" fill="#e0e0e0"/>
        <path id="Path_203512" data-name="Path 203512" d="M213.02,279.394a1.822,1.822,0,1,1-1.822-1.822,1.822,1.822,0,0,1,1.822,1.822" fill="#455a64"/>
        <path id="Path_203513" data-name="Path 203513" d="M213.02,269.826A1.822,1.822,0,1,1,211.2,268a1.822,1.822,0,0,1,1.822,1.822" fill="#455a64"/>
        <path id="Path_203514" data-name="Path 203514" d="M213.02,288.753a1.822,1.822,0,1,1-1.822-1.822,1.822,1.822,0,0,1,1.822,1.822" fill="#455a64"/>
        <path id="Path_203515" data-name="Path 203515" d="M213.02,298.482a1.822,1.822,0,1,1-1.822-1.822,1.822,1.822,0,0,1,1.822,1.822" fill="#455a64"/>
        <path id="Path_203516" data-name="Path 203516" d="M213.02,308.211a1.822,1.822,0,1,1-1.822-1.822,1.822,1.822,0,0,1,1.822,1.822" fill="#455a64"/>
        <path id="Path_203517" data-name="Path 203517" d="M213.02,317.94a1.822,1.822,0,1,1-1.822-1.822,1.822,1.822,0,0,1,1.822,1.822" fill="#455a64"/>
        <path id="Path_203518" data-name="Path 203518" d="M213.02,327.67a1.822,1.822,0,1,1-1.822-1.822,1.822,1.822,0,0,1,1.822,1.822" fill="#455a64"/>
        <path id="Path_203519" data-name="Path 203519" d="M213.02,337.4a1.822,1.822,0,1,1-1.822-1.822,1.822,1.822,0,0,1,1.822,1.822" fill="#455a64"/>
        <path id="Path_203520" data-name="Path 203520" d="M213.02,347.128a1.822,1.822,0,1,1-1.822-1.822,1.822,1.822,0,0,1,1.822,1.822" fill="#455a64"/>
        <path id="Path_203521" data-name="Path 203521" d="M213.02,356.858a1.822,1.822,0,1,1-1.822-1.822,1.822,1.822,0,0,1,1.822,1.822" fill="#455a64"/>
        <path id="Path_203522" data-name="Path 203522" d="M213.02,366.587a1.822,1.822,0,1,1-1.822-1.822,1.822,1.822,0,0,1,1.822,1.822" fill="#455a64"/>
        <path id="Path_203523" data-name="Path 203523" d="M213.02,376.316a1.822,1.822,0,1,1-1.822-1.822,1.822,1.822,0,0,1,1.822,1.822" fill="#455a64"/>
        <path id="Path_203524" data-name="Path 203524" d="M213.02,386.045a1.822,1.822,0,1,1-1.822-1.822,1.822,1.822,0,0,1,1.822,1.822" fill="#455a64"/>
        <path id="Path_203525" data-name="Path 203525" d="M382.354,241.022H169.327a5.4,5.4,0,0,0-5.4,5.4V260.3H386.189V244.857a3.835,3.835,0,0,0-3.835-3.835" fill="#e0e0e0"/>
        <path id="Path_203526" data-name="Path 203526" d="M178.058,251.244a2.648,2.648,0,1,1-2.648-2.648,2.648,2.648,0,0,1,2.648,2.648" fill="#fff"/>
        <path id="Path_203527" data-name="Path 203527" d="M186.205,251.244a2.648,2.648,0,1,1-2.648-2.648,2.648,2.648,0,0,1,2.648,2.648" fill="#fff"/>
        <path id="Path_203528" data-name="Path 203528" d="M194.352,251.244A2.648,2.648,0,1,1,191.7,248.6a2.648,2.648,0,0,1,2.648,2.648" fill="#fff"/>
        <path id="Path_203529" data-name="Path 203529" d="M211.2,399.477l18.787,20.31,17.054-20.31Z" fill="#fff"/>
        <path id="Path_203530" data-name="Path 203530" d="M380.161,401.683a7.046,7.046,0,0,0,1.945-.362,6.017,6.017,0,0,0,3.8-4.077,6.573,6.573,0,0,0,.212-2q0-1.077-.007-2.267-.008-2.381-.016-5.2c-.008-3.76-.018-8.1-.029-12.975-.024-19.535-.059-47.786-.1-82.692q-.011-13.093-.021-27.4,0-7.146-.009-14.576c-.017-1.225.033-2.511-.037-3.7a5.792,5.792,0,0,0-4.546-5.018,25.918,25.918,0,0,0-3.769-.122l-65.539.03-72.421.018-38.306.005H171.826c-.813.013-1.688-.029-2.451.029a5.632,5.632,0,0,0-2.227.711,5.743,5.743,0,0,0-2.749,3.67,17.409,17.409,0,0,0-.154,3.395v10.4q0,6.907,0,13.753,0,13.688,0,27.1c0,17.87-.006,35.337-.009,52.3q0,12.725-.007,25.062,0,6.167,0,12.227c.007,2.012-.019,4.05.016,6.016a5.719,5.719,0,0,0,5.569,5.379l2.947.009,5.866,0,11.555,0,22.375.011h.118l.081.085,17.205,18.113-.386.012,15.214-18.093.073-.087h.114l98.8.107,26.969.065,7.026.035c1.584.012,2.4.036,2.4.036s-.812.024-2.4.036l-7.026.035-26.969.065-98.8.107.186-.086q-7.308,8.712-15.19,18.113l-.186.222-.2-.21-17.226-18.094.2.085-22.375.011-11.555,0-5.866,0-2.961-.007a6.306,6.306,0,0,1-6.145-5.928c-.039-2.036-.012-4.023-.021-6.051q0-6.06,0-12.227,0-12.331-.007-25.062c0-16.967-.006-34.434-.009-52.3q0-13.4,0-27.1V259.545q0-3.455,0-6.924v-5.212a7.4,7.4,0,0,1,.171-1.8,6.382,6.382,0,0,1,3.058-4.084,6.29,6.29,0,0,1,2.479-.791c.891-.064,1.674-.017,2.515-.032h9.895l19.593,0,38.306,0,72.421.018,65.539.03a25.76,25.76,0,0,1,3.878.137,6.317,6.317,0,0,1,4.953,5.479c.074,1.3.019,2.508.035,3.758q0,7.428-.01,14.576-.011,14.291-.02,27.4c-.043,34.906-.078,63.157-.1,82.692-.011,4.88-.021,9.215-.03,12.975q-.008,2.818-.015,5.2,0,1.189-.008,2.267a6.637,6.637,0,0,1-.233,2.038,6.013,6.013,0,0,1-1.784,2.869,5.951,5.951,0,0,1-3.58,1.527c-.335.012-.5.009-.5.009" fill="#263238"/>
        <path id="Path_203531" data-name="Path 203531" d="M349.4,212.262H180.642a3.169,3.169,0,0,1-3.169-3.169V122.4a3.169,3.169,0,0,1,3.169-3.169H350.025a3.169,3.169,0,0,1,3.169,3.169v86.069a3.789,3.789,0,0,1-3.789,3.789" fill="#fff"/>
        <path id="Path_203532" data-name="Path 203532" d="M353.194,139.211H177.474v-16.5a3.472,3.472,0,0,1,3.473-3.473H349.721a3.473,3.473,0,0,1,3.473,3.473Z" fill="#e0e0e0"/>
        <path id="Path_203533" data-name="Path 203533" d="M348.25,212.262a7.286,7.286,0,0,0,1.341-.223,4.943,4.943,0,0,0,2.98-2.46,5.4,5.4,0,0,0,.543-2.836q-.008-1.633-.016-3.569c-.008-2.582-.018-5.558-.029-8.906-.024-13.416-.059-32.805-.1-56.76q-.006-4.494-.011-9.2,0-2.352-.005-4.754a3.751,3.751,0,0,0-2.136-3.73,4.779,4.779,0,0,0-2.306-.342l-2.489,0-5.051,0-10.383.008-44.986.03-103.079.025a6.712,6.712,0,0,0-1.63.113,4.023,4.023,0,0,0-3.041,3.278,11.749,11.749,0,0,0-.056,1.648v5.092q0,6.772,0,13.453,0,13.356,0,26.3t-.008,25.385q0,6.22-.005,12.307a4.673,4.673,0,0,0,2.9,4.491,6.828,6.828,0,0,0,2.84.343h2.98l84.187.069,56.757.1,15.431.06,4.013.032c.9.011,1.367.033,1.367.033s-.463.022-1.367.033l-4.013.032-15.431.06-56.757.1-84.187.069h-2.98a7.377,7.377,0,0,1-3.064-.383,5.28,5.28,0,0,1-3.279-5.045q0-6.085,0-12.307,0-12.441-.008-25.385t0-26.3q0-6.68,0-13.453v-5.092a12.039,12.039,0,0,1,.063-1.749,4.665,4.665,0,0,1,3.527-3.8,7.324,7.324,0,0,1,1.778-.13l103.079.026,44.986.029,10.383.009,5.051.005,2.489,0a5.277,5.277,0,0,1,2.515.393,4.248,4.248,0,0,1,2.412,4.179q0,2.4-.005,4.754,0,4.7-.01,9.2c-.043,23.955-.078,43.344-.1,56.76-.011,3.348-.021,6.324-.03,8.906q-.008,1.934-.015,3.569a7.88,7.88,0,0,1-.106,1.564,5.288,5.288,0,0,1-.482,1.332,4.971,4.971,0,0,1-3.077,2.463,4.06,4.06,0,0,1-1.359.16" fill="#263238"/>
        <path id="Path_203534" data-name="Path 203534" d="M193.823,130.781a3.272,3.272,0,1,1-3.272-3.272,3.272,3.272,0,0,1,3.272,3.272" fill="#fff"/>
        <path id="Path_203535" data-name="Path 203535" d="M203.891,130.781a3.272,3.272,0,1,1-3.272-3.272,3.272,3.272,0,0,1,3.272,3.272" fill="#fff"/>
        <path id="Path_203536" data-name="Path 203536" d="M213.96,130.781a3.273,3.273,0,1,1-3.272-3.272,3.273,3.273,0,0,1,3.272,3.272" fill="#fff"/>
        <path id="Path_203537" data-name="Path 203537" d="M228.106,167.364H207.679a2.216,2.216,0,1,1,0-4.432h20.427a2.216,2.216,0,1,1,0,4.432" fill="#263238"/>
        <path id="Path_203538" data-name="Path 203538" d="M228.106,178.965H207.679a2.216,2.216,0,1,1,0-4.432h20.427a2.216,2.216,0,1,1,0,4.432" fill="#e0e0e0"/>
        <path id="Path_203539" data-name="Path 203539" d="M335.938,167.364H276.689a2.216,2.216,0,1,1,0-4.432h59.249a2.216,2.216,0,1,1,0,4.432" fill="#e0e0e0"/>
        <path id="Path_203540" data-name="Path 203540" d="M228.106,190.954H207.679a2.216,2.216,0,1,1,0-4.432h20.427a2.216,2.216,0,1,1,0,4.432" fill="#4dd0e1"/>
        <path id="Path_203541" data-name="Path 203541" d="M321.8,178.965H301.377a2.216,2.216,0,1,1,0-4.433H321.8a2.216,2.216,0,0,1,0,4.433" fill="#4dd0e1"/>
        <path id="Path_203542" data-name="Path 203542" d="M260.832,167.364H240.4a2.216,2.216,0,1,1,0-4.432h20.427a2.216,2.216,0,1,1,0,4.432" fill="#455a64"/>
        <path id="Path_203543" data-name="Path 203543" d="M287.152,178.965H240.4a2.216,2.216,0,1,1,0-4.432h46.747a2.216,2.216,0,1,1,0,4.432" fill="#263238"/>
        <path id="Path_203544" data-name="Path 203544" d="M333,190.954H240.3a2.218,2.218,0,0,1,0-4.432H333a2.218,2.218,0,0,1,0,4.432" fill="#e0e0e0"/>
        <path id="Path_203545" data-name="Path 203545" d="M286.178,199.4H240.4a2.216,2.216,0,1,1,0-4.433h45.773a2.216,2.216,0,0,1,0,4.433" fill="#e0e0e0"/>
        <path id="Path_203546" data-name="Path 203546" d="M197.666,165.147a2.251,2.251,0,1,1-2.251-2.251,2.251,2.251,0,0,1,2.251,2.251" fill="#455a64"/>
        <path id="Path_203547" data-name="Path 203547" d="M197.666,154.045a2.251,2.251,0,1,1-2.251-2.251,2.251,2.251,0,0,1,2.251,2.251" fill="#455a64"/>
        <path id="Path_203548" data-name="Path 203548" d="M197.666,176.714a2.251,2.251,0,1,1-2.251-2.251,2.251,2.251,0,0,1,2.251,2.251" fill="#455a64"/>
        <path id="Path_203549" data-name="Path 203549" d="M197.666,188.738a2.251,2.251,0,1,1-2.251-2.251,2.251,2.251,0,0,1,2.251,2.251" fill="#455a64"/>
        <path id="Path_203550" data-name="Path 203550" d="M219.91,155.658H206.885a.958.958,0,0,1-.958-.958v-2.359a.958.958,0,0,1,.958-.958H219.91a.958.958,0,0,1,.958.958V154.7a.958.958,0,0,1-.958.958" fill="#455a64"/>
        <path id="Path_203551" data-name="Path 203551" d="M91.421,501.923c-10.279,4.476-20.184,4.888-29.6,0L54.95,444.329H97.659Z" fill="#6f4439"/>
        <path id="Path_203552" data-name="Path 203552" d="M94.832,440.988l-1.285-4.113-32.172-3.929a1.87,1.87,0,0,0-1.995,1.248l-2.335,6.794H52.933v7.455c16.156,2.847,31.622,3.015,46.269,0v-7.455Z" fill="#e0e0e0"/>
        <path id="Path_203553" data-name="Path 203553" d="M94.832,440.988a1.491,1.491,0,0,1,.3-.026l.847-.03,3.222-.065.12,0v.124c.019,1.923.043,4.439.072,7.454v.157l-.155.033a107.956,107.956,0,0,1-19.86,2.27,136.087,136.087,0,0,1-26.326-2.114l-.178-.029-.266-.045v-.272c0-2.531,0-5.023,0-7.454v-.318h.319l4.112,0-.3.212,2.3-6.661a2.218,2.218,0,0,1,1.25-1.42,2.194,2.194,0,0,1,.955-.168c.321.026.566.067.851.1l3.251.4,11.815,1.486,16.39,2.129.08.01.021.073c.376,1.3.67,2.311.885,3.053.089.324.162.588.222.8a1.584,1.584,0,0,1,.063.291.919.919,0,0,1-.1-.241c-.073-.207-.161-.459-.27-.768q-.375-1.117-1.027-3.068l.1.084-16.42-1.879-11.826-1.4-3.253-.389a2.7,2.7,0,0,0-1.5.033,1.606,1.606,0,0,0-.912,1.065q-1.11,3.246-2.281,6.667l-.072.212h-.225l-4.112,0,.318-.318c0,2.431,0,4.923,0,7.454l-.265-.315.178.029a139.51,139.51,0,0,0,26.2,2.174,112.838,112.838,0,0,0,19.794-2.076l-.154.188c.029-3.015.053-5.531.071-7.454l.122.121-3.279-.065-.826-.03a.936.936,0,0,1-.265-.026" fill="#263238"/>
        <path id="Path_203554" data-name="Path 203554" d="M94.433,482.831c-11.159,1.8-23.476,1.542-36.512,0l-1.776-17.459a181.013,181.013,0,0,0,40.442,0Z" fill="#ae7461"/>
        <path id="Path_203555" data-name="Path 203555" d="M73.893,470.977a3.88,3.88,0,0,0-1.507,4.949l1.162,2.5a3.878,3.878,0,0,0,4.752,2.042Z" fill="#6f4439"/>
        <path id="Path_203556" data-name="Path 203556" d="M74.671,470.616l4.408,9.492a3.879,3.879,0,0,0,1.506-4.949l-1.161-2.5a3.88,3.88,0,0,0-4.753-2.043" fill="#6f4439"/>
        <path id="Path_203557" data-name="Path 203557" d="M95.195,441.1a6.916,6.916,0,0,1-1.454.439c-.945.249-2.329.545-4.049.851a78.275,78.275,0,0,1-27.194-.058c-1.719-.314-3.1-.616-4.044-.869A6.923,6.923,0,0,1,57,441.015a6.938,6.938,0,0,1,1.505.2c.957.178,2.347.41,4.066.665a92.322,92.322,0,0,0,27.049.058c1.72-.248,3.11-.474,4.068-.647a6.976,6.976,0,0,1,1.506-.2" fill="#263238"/>
        <path id="Path_203558" data-name="Path 203558" d="M117.143,355.454s-7.036,1.515-8.258,6.511,9.8,124.467,10.242,127.377c.7,4.572,4.551,10.379,13.238,10.067,7.569-.272,110.734-.032,136.71.029,3.452.008,5.526-2.932,5.982-6.429l-127.732-7.54Z" fill="#e0e0e0"/>
        <path id="Path_203559" data-name="Path 203559" d="M113.94,359.439,125,488.282a4.171,4.171,0,0,0,4.081,3.752l145.972.655-28.042-27.826-94.827-.669L142.047,363.253a3.165,3.165,0,0,0-2.43-2.751l-21.242-4.952a3.631,3.631,0,0,0-4.435,3.889" fill="#e0e0e0"/>
        <path id="Path_203560" data-name="Path 203560" d="M113.94,359.439a2.873,2.873,0,0,1-.024-.622,3.466,3.466,0,0,1,.569-1.742,3.663,3.663,0,0,1,2.482-1.635,4.425,4.425,0,0,1,1.941.158l2.161.494,11.276,2.587,7.148,1.647a3.344,3.344,0,0,1,2.7,2.873l.438,4.259c2.374,23.348,5.763,56.686,9.832,96.709l-.272-.248,94.827.628h.129l.092.09,28.044,27.823.557.553-.784,0-6.466-.029-107.007-.506-24.03-.121-5.8-.03c-.965-.01-1.9,0-2.881-.027a4.426,4.426,0,0,1-4.108-3.78c-.107-.958-.167-1.871-.252-2.8q-.235-2.778-.468-5.511c-1.238-14.57-2.39-28.143-3.442-40.535-2.084-24.776-3.771-44.827-4.938-58.7-.569-6.922-1.01-12.3-1.311-15.962-.142-1.816-.25-3.2-.324-4.152s-.089-1.417-.089-1.417.063.477.154,1.411.218,2.333.388,4.146c.328,3.66.81,9.034,1.43,15.951,1.215,13.868,2.972,33.912,5.142,58.68,1.076,12.389,2.254,25.96,3.519,40.528q.237,2.732.478,5.51c.085.919.15,1.87.252,2.774a3.876,3.876,0,0,0,3.6,3.306c.924.026,1.9.014,2.853.022l5.8.022,24.029.1,107.005.455,6.466.029-.227.549-28.039-27.829.221.091-94.827-.709-.248,0-.024-.246c-3.974-40.032-7.285-73.378-9.6-96.731q-.216-2.187-.42-4.257a3.047,3.047,0,0,0-2.463-2.63l-7.14-1.683-11.257-2.665-2.157-.513a4.292,4.292,0,0,0-1.887-.177,3.588,3.588,0,0,0-2.43,1.556,3.512,3.512,0,0,0-.6,1.7c-.032.408,0,.619-.019.619" fill="#263238"/>
        <path id="Path_203561" data-name="Path 203561" d="M220.787,489.342h13.569L217.2,467.09h-8.054Z" fill="#263238"/>
        <path id="Path_203562" data-name="Path 203562" d="M118.956,365.263,129.318,477.21l19.306-15.355-8.311-94.318a1.639,1.639,0,0,0-1.4-1.475l-18.1-2.588a1.637,1.637,0,0,0-1.86,1.789" fill="#263238"/>
        <path id="Path_203563" data-name="Path 203563" d="M139.69,489.342h14l14.231-22.252h-8.054Z" fill="#263238"/>
        <path id="Path_203564" data-name="Path 203564" d="M156.878,489.342h13.568l7.436-22.252h-8.053Z" fill="#263238"/>
        <path id="Path_203565" data-name="Path 203565" d="M173.486,489.342h13.568l.731-22.252h-8.053Z" fill="#263238"/>
        <path id="Path_203566" data-name="Path 203566" d="M188.885,489.342h13.568l-5.008-22.252h-8.054Z" fill="#263238"/>
        <path id="Path_203567" data-name="Path 203567" d="M204.937,489.342h13.569L207.451,467.09H199.4Z" fill="#263238"/>
        <path id="Path_203568" data-name="Path 203568" d="M233.672,485.005c0,.106-20.691.193-46.208.193s-46.212-.087-46.212-.193,20.686-.193,46.212-.193,46.208.087,46.208.193" fill="#e0e0e0"/>
        <path id="Path_203569" data-name="Path 203569" d="M231.213,480.924c0,.106-19.65.193-43.883.193s-43.888-.087-43.888-.193,19.646-.193,43.888-.193,43.883.087,43.883.193" fill="#e0e0e0"/>
        <path id="Path_203570" data-name="Path 203570" d="M231.213,477.222c0,.213-18.49.385-41.292.385s-41.3-.172-41.3-.385,18.486-.385,41.3-.385,41.292.172,41.292.385" fill="#e0e0e0"/>
        <path id="Path_203571" data-name="Path 203571" d="M231.782,473.843c0,.213-18.092.385-40.4.385s-40.408-.172-40.408-.385,18.088-.385,40.408-.385,40.4.172,40.4.385" fill="#e0e0e0"/>
        <path id="Path_203572" data-name="Path 203572" d="M233.672,471.375c0,.213-18.21.385-40.667.385s-40.671-.172-40.671-.385,18.205-.385,40.671-.385,40.667.172,40.667.385" fill="#e0e0e0"/>
        <path id="Path_203573" data-name="Path 203573" d="M235.676,468.8c0,.213-18.551.385-41.43.385s-41.434-.172-41.434-.385,18.547-.385,41.434-.385,41.43.172,41.43.385" fill="#e0e0e0"/>
        <path id="Path_203574" data-name="Path 203574" d="M127.045,488.282l25.288-23.66" fill="#e0e0e0"/>
        <path id="Path_203575" data-name="Path 203575" d="M152.333,464.622c.121.129-5.442,5.531-12.424,12.064s-12.743,11.725-12.864,11.6,5.441-5.53,12.425-12.065,12.742-11.724,12.863-11.6" fill="#263238"/>
        <path id="Path_203576" data-name="Path 203576" d="M570.8,376.495s-1.239-13.08-33.839-21.451c-15.741-4.042-53.313-5.984-57.571,18.438-.138.79-18.7,154.386-18.7,154.386h69.464Z" fill="#455a64"/>
        <path id="Path_203577" data-name="Path 203577" d="M559.8,527.868H527.749l10.7-150.484c.783-7.322,8.362-12.6,16.927-11.791l2.869.271c8.565.81,13.989,9.061,13.744,18.46Z" fill="#455a64"/>
        <path id="Path_203578" data-name="Path 203578" d="M530.153,522.45c-.177-.014,2.087-29.657,5.055-66.2s5.519-66.169,5.7-66.155-2.086,29.651-5.055,66.207-5.518,66.162-5.7,66.148" fill="#263238"/>
        <path id="Path_203579" data-name="Path 203579" d="M564.647,369.387a33.148,33.148,0,0,0-4.5-1.059,16.867,16.867,0,0,0-17.881,10.258,33.1,33.1,0,0,0-1.359,4.423,4.086,4.086,0,0,1,.063-1.261,14.819,14.819,0,0,1,.876-3.334,16.649,16.649,0,0,1,18.365-10.536,14.881,14.881,0,0,1,3.32.927,4.046,4.046,0,0,1,1.12.582" fill="#263238"/>
        <path id="Path_203580" data-name="Path 203580" d="M463.463,181.249c.321-8.81-5.65-10-10.246-8.985a15.586,15.586,0,0,0-19.167,1.046,13.863,13.863,0,0,0-20.5,12.071,11.584,11.584,0,0,0-9.419,19.868,11.134,11.134,0,0,0,5.456,21.473l54.057-36c3.242-3.413-.353-4.77-.181-9.474" fill="#263238"/>
        <path id="Path_203581" data-name="Path 203581" d="M408.025,228.339a47.239,47.239,0,0,1,45.519-45.088l2.445-.088c26.416.6,40.662,23.375,39.329,49.765l-.7,87.92-.173,16.7-60.4,14.358-.614-34.8s-25.483-3.039-26.7-28.366c-.586-12.232.256-37.518,1.285-60.394" fill="#ae7461"/>
        <path id="Path_203582" data-name="Path 203582" d="M433.226,317.071s16.215.4,32.855-10.9c0,0-7.16,18.513-32.524,17.13Z" fill="#6f4439"/>
        <path id="Path_203583" data-name="Path 203583" d="M415.4,253.894a3.622,3.622,0,0,0,3.619,3.527,3.464,3.464,0,0,0,3.614-3.395,3.622,3.622,0,0,0-3.615-3.529,3.466,3.466,0,0,0-3.618,3.4" fill="#263238"/>
        <path id="Path_203584" data-name="Path 203584" d="M413.675,241.84c.465.456,3.133-1.671,7.028-1.8,3.888-.185,6.817,1.717,7.222,1.226.2-.219-.288-1.055-1.564-1.916a9.926,9.926,0,0,0-5.8-1.565,9.551,9.551,0,0,0-5.574,2.02c-1.165.962-1.539,1.83-1.31,2.033" fill="#263238"/>
        <path id="Path_203585" data-name="Path 203585" d="M446.7,253.092a3.62,3.62,0,0,0,3.619,3.526,3.463,3.463,0,0,0,3.614-3.4,3.624,3.624,0,0,0-3.616-3.528,3.466,3.466,0,0,0-3.617,3.4" fill="#263238"/>
        <path id="Path_203586" data-name="Path 203586" d="M450.906,239.973c.466.456,3.139-1.67,7.03-1.8,3.887-.184,6.817,1.717,7.222,1.225.2-.218-.283-1.054-1.565-1.915a9.928,9.928,0,0,0-5.8-1.566,9.545,9.545,0,0,0-5.574,2.021c-1.161.961-1.539,1.829-1.312,2.032" fill="#263238"/>
        <path id="Path_203587" data-name="Path 203587" d="M439.107,269.287c.01-.223-2.425-.555-6.364-.917-1-.066-1.946-.231-2.138-.9-.26-.71.118-1.8.559-2.971q1.273-3.658,2.671-7.676c3.7-10.924,6.34-19.893,5.9-20.038s-3.8,8.592-7.5,19.517q-1.332,4.039-2.545,7.717c-.336,1.143-.938,2.448-.378,3.92a2.5,2.5,0,0,0,1.687,1.4,6.734,6.734,0,0,0,1.7.174c3.954.072,6.4,0,6.41-.218" fill="#263238"/>
        <path id="Path_203588" data-name="Path 203588" d="M450.663,271.573c-.634-.014-.492,4.212-4,7.341s-8.027,2.824-8.039,3.415c-.048.268,1.034.785,2.937.77a10.525,10.525,0,0,0,6.718-2.612,9.17,9.17,0,0,0,3.086-6.146c.1-1.773-.41-2.8-.7-2.768" fill="#263238"/>
        <path id="Path_203589" data-name="Path 203589" d="M450.461,228.853c.5.994,3.82-.032,7.9-.11,4.074-.171,7.5.65,7.883-.372.166-.486-.548-1.383-2.008-2.194a12.174,12.174,0,0,0-6.1-1.378,11.708,11.708,0,0,0-5.921,1.746c-1.363.9-1.972,1.834-1.75,2.308" fill="#263238"/>
        <path id="Path_203590" data-name="Path 203590" d="M414.178,231.13c.643.916,3.367.123,6.593.23,3.23-.006,5.927.872,6.6-.024.3-.436-.092-1.342-1.246-2.234a9.555,9.555,0,0,0-10.63-.166c-1.18.856-1.6,1.749-1.315,2.194" fill="#263238"/>
        <path id="Path_203591" data-name="Path 203591" d="M410.049,216.632s6.119-16.105,13.638-20.08c9.1-4.812,13.453,5.213,22.193,2.432s17.429-7.4,26.694-.894c10.139,7.118,5.7,12.522,6.709,23.743,4.094,45.493,12.876,58.087,14.48,36.533.176-2.361,6.637-4.465,7.252-14.436.8-12.932.734-28.6-2.466-37.639-2.7-7.622-7.283-12.791-15.372-18.382-12.771-8.826-29.866-8.418-41.43-6.837s-33.462,15.729-31.7,35.56" fill="#263238"/>
        <path id="Path_203592" data-name="Path 203592" d="M492.124,257.734a6.88,6.88,0,0,1,7.189-6.892c4.742.281,10.1,2.777,10.131,12.554.063,17.342-17.362,13.827-17.393,13.33-.022-.338.034-11.735.073-18.992" fill="#ae7461"/>
        <path id="Path_203593" data-name="Path 203593" d="M495.8,270.188c.076-.056.3.211.815.443a3.018,3.018,0,0,0,2.258.038c1.83-.679,3.362-3.593,3.435-6.72a9.977,9.977,0,0,0-.862-4.321,3.486,3.486,0,0,0-2.28-2.311,1.537,1.537,0,0,0-1.78.834c-.231.486-.12.831-.211.862-.049.044-.373-.29-.237-1.007a1.931,1.931,0,0,1,.679-1.088,2.277,2.277,0,0,1,1.669-.448,4.247,4.247,0,0,1,3.166,2.678,10.257,10.257,0,0,1,1.064,4.829c-.1,3.5-1.875,6.772-4.38,7.505a3.238,3.238,0,0,1-2.765-.448c-.538-.427-.63-.814-.571-.846" fill="#6f4439"/>
        <path id="Path_203594" data-name="Path 203594" d="M490.591,224.183c-2.2,1.616-4.516,3.284-7.217,3.648s-5.856-1.082-6.409-3.751c-.248-1.2,0-2.608-.829-3.511-.986-1.079-2.719-.668-4.165-.463a11.064,11.064,0,0,1-11.758-7.519c-1.216,1.969-4.217,1.992-6.205.808s-3.313-3.191-4.9-4.878-3.773-3.171-6.051-2.764c-1.275.227-2.446,1.033-3.739.964-2.282-.121-3.487-2.746-3.911-4.991s-.787-4.87-2.757-6.03c-1.826-1.073-4.116-.333-6.2.05s-4.8-.013-5.413-2.042a4.118,4.118,0,0,1,.663-3.169,11.227,11.227,0,0,1,13.093-4.718,15.216,15.216,0,0,1,27.834-3.941,15.443,15.443,0,0,1,24.87,4.75,11.192,11.192,0,0,1,13.19,15.822c3.177,1.669,5.953,4.668,6.145,8.251s-3.174,7.281-6.668,6.46a6.2,6.2,0,0,1-10.495,6.56" fill="#263238"/>
        <path id="Path_203595" data-name="Path 203595" d="M501.437,217.076c.058-.048.371,1.444-.961,3.368a5.563,5.563,0,0,1-3.4,2.193,6,6,0,0,1-4.989-1.259l.729-.136a17.33,17.33,0,0,1-3.3,4.443,9.945,9.945,0,0,1-3.086,2.074,7.7,7.7,0,0,1-8.577-2.241,10.016,10.016,0,0,1-1.53-3.554,3.4,3.4,0,0,1-.183-1.4c.074-.019.238.451.554,1.281a11.687,11.687,0,0,0,1.717,3.237c1.731,2.427,7.126,3.5,10.419-.126a17.406,17.406,0,0,0,3.153-4.166l.287-.521.443.385a5.262,5.262,0,0,0,4.224,1.183,5.114,5.114,0,0,0,3.076-1.764,8.438,8.438,0,0,0,1.427-3" fill="#455a64"/>
        <path id="Path_203596" data-name="Path 203596" d="M296.6,443.928s-32.693-.98-34.652-1.592a20.566,20.566,0,0,0-9.061,0c-2.326.735-11.632,4.041-11.632,4.041l-19.75,5.265s-19.848,12.982-19.432,15.58,2.571,4.378,6.122,3.032,21.47-10.653,21.47-10.653l19.668-2.082s26.9,9.663,32.329,9.184,19.346-2.834,19.346-2.834,1.959-13.941.979-16.145-5.387-3.8-5.387-3.8" fill="#ae7461"/>
        <path id="Path_203597" data-name="Path 203597" d="M203.5,478.769S220.064,461,224.655,458.608s30.141-6.587,30.141-6.587,8.184-3.393,11.178-2.2,34.733,5.989,36.13,6.188-6.787,27.946-6.787,27.946a64.692,64.692,0,0,1-23.753-1c-12.776-2.994-17.167-6.986-17.167-6.986l-12.753-3.35-7.8,2.977s-1.4,11.551-6.991,10.952l-2.594-1.8,2-12.775-8.184,3.394s-6.388,9.581-11.179,8.184-3.393-4.791-3.393-4.791" fill="#ae7461"/>
        <path id="Path_203598" data-name="Path 203598" d="M203.5,478.769a3.866,3.866,0,0,0-.127,1.386,3.074,3.074,0,0,0,.618,1.56,4.549,4.549,0,0,0,1.875,1.366,4.727,4.727,0,0,0,2.876.412,8.794,8.794,0,0,0,3.17-1.609,28.937,28.937,0,0,0,6.015-6.605l.031-.044.047-.02,8.173-3.421.334-.14-.055.36c-.591,3.844-1.253,8.157-1.963,12.78l-.1-.231,2.6,1.79-.112-.042a3.736,3.736,0,0,0,2.879-1.056,8.505,8.505,0,0,0,1.9-2.772,25.068,25.068,0,0,0,1.913-6.914l.023-.162.149-.057,7.8-2.988.084-.032.088.023,12.757,3.334.057.015.067.053a33.217,33.217,0,0,0,8.823,4.5,74.147,74.147,0,0,0,10.05,2.794,63.856,63.856,0,0,0,10.722,1.21,60.879,60.879,0,0,0,11.068-.612l-.25.224c.565-1.958,1.171-4.063,1.781-6.18,1.752-6.277,3.515-12.457,4.8-18.564a21.213,21.213,0,0,0,.348-2.275,2.7,2.7,0,0,0,0-.517c.013-.08-.076-.127.051-.024a.142.142,0,0,0,.071.018l-.032,0-.073-.011-.144-.021-1.151-.173-4.561-.7-8.93-1.406c-5.864-.947-11.545-1.875-16.994-2.916-1.365-.284-2.7-.512-4.05-.927a7.466,7.466,0,0,0-3.834-.116,39,39,0,0,0-7.388,2.218l-.032.013-.028,0c-8.932,1.5-17.1,2.971-24.227,4.681a43.812,43.812,0,0,0-5.077,1.486,15.49,15.49,0,0,0-4.028,2.724c-2.411,2.046-4.506,4.069-6.395,5.893-3.767,3.66-6.634,6.624-8.6,8.63l-2.236,2.3c-.508.52-.782.772-.782.772s.236-.294.722-.83l2.178-2.351c1.928-2.044,4.759-5.042,8.5-8.74,1.875-1.843,3.956-3.884,6.369-5.959.6-.517,1.228-1.038,1.9-1.531a8.946,8.946,0,0,1,2.217-1.283,43.817,43.817,0,0,1,5.126-1.533c7.144-1.754,15.306-3.256,24.246-4.787l-.06.017a39.365,39.365,0,0,1,7.5-2.274,8,8,0,0,1,4.122.131c1.245.378,2.623.619,3.967.894,5.435,1.025,11.119,1.943,16.98,2.88l8.928,1.395,4.56.694,1.148.171.144.022.071.01.04.006a.562.562,0,0,1,.135.052.61.61,0,0,1,.273.491,3.279,3.279,0,0,1,0,.648,21.76,21.76,0,0,1-.357,2.354c-1.288,6.161-3.047,12.328-4.8,18.617l-1.784,6.186-.056.195-.194.03a61.13,61.13,0,0,1-11.2.617,64.277,64.277,0,0,1-10.826-1.231,74.406,74.406,0,0,1-10.137-2.833,48.063,48.063,0,0,1-4.712-1.995,22.561,22.561,0,0,1-4.3-2.637l.124.067L241.573,472.9l.172-.009-7.807,2.964.171-.219a25.536,25.536,0,0,1-1.982,7.068,8.994,8.994,0,0,1-2.034,2.925,4.237,4.237,0,0,1-3.268,1.169l-.062-.006-.051-.036-2.591-1.8-.123-.085.024-.146c.734-4.62,1.418-8.929,2.029-12.77l.279.219-8.2,3.366.078-.064a28.934,28.934,0,0,1-6.145,6.629,8.975,8.975,0,0,1-3.285,1.615,4.908,4.908,0,0,1-3-.467,4.656,4.656,0,0,1-1.913-1.451,3.141,3.141,0,0,1-.6-1.635,2.635,2.635,0,0,1,.221-1.394" fill="#6f4439"/>
        <path id="Path_203599" data-name="Path 203599" d="M253.671,463.734a4.749,4.749,0,0,1-1.258-.031c-.8-.062-1.967-.173-3.4-.323l-5.033-.559-1.453-.171a4.8,4.8,0,0,0-1.448.03,29.428,29.428,0,0,0-3.1.645c-4.156,1.207-8.313,2.009-9.915,4.474a9.329,9.329,0,0,0-1.479,2.979,12.323,12.323,0,0,1-.327,1.2,2.956,2.956,0,0,1,.085-1.263,8.479,8.479,0,0,1,1.355-3.188,7.733,7.733,0,0,1,1.694-1.737,9.8,9.8,0,0,1,2.474-1.255c1.8-.658,3.811-1.285,5.956-1.836a27.811,27.811,0,0,1,3.183-.647,5.435,5.435,0,0,1,1.6-.016l1.452.193,5.02.7c1.428.208,2.582.387,3.378.525a4.763,4.763,0,0,1,1.227.279" fill="#6f4439"/>
        <path id="Path_203600" data-name="Path 203600" d="M209.178,472.861a10.222,10.222,0,0,1,1.37-1.38c.92-.848,2.275-2.048,3.994-3.48s3.795-3.1,6.192-4.841c1.2-.864,2.486-1.748,3.875-2.585a20.425,20.425,0,0,1,2.208-1.154,19.641,19.641,0,0,1,2.442-.784c6.619-1.824,12.814-2.3,17.224-2.962l5.251-.653a11.172,11.172,0,0,1,1.937-.152,11.411,11.411,0,0,1-1.9.4l-5.22.854c-4.4.777-10.57,1.325-17.121,3.133a19.136,19.136,0,0,0-2.361.752,20.355,20.355,0,0,0-2.137,1.107c-1.368.814-2.646,1.681-3.851,2.525-2.4,1.7-4.5,3.332-6.251,4.713l-4.115,3.315a12.466,12.466,0,0,1-1.534,1.192" fill="#6f4439"/>
        <path id="Path_203601" data-name="Path 203601" d="M415.643,357.1a190.738,190.738,0,0,0-15.622,26.348c-5.919,12.325-25.077,54.283-25.077,54.283l-78.043,4.1,1.152,30.152s75.378,26.854,92.253,21.674,34.849-24.636,34.849-24.636l8.07-127.184s-6.7-1.262-17.582,15.267" fill="#feca2e"/>
        <path id="Path_203602" data-name="Path 203602" d="M431.959,342.123s-20.011,45.388-22.935,64.615c-5.8,38.17-7.754,62.06-7.754,62.06l-6.8,59.07H527.749s4.414-109.476,1.579-146.183c-2.124-27.5-23.187-44.63-31.8-54.038-.519-.566-2.892-8.265-2.892-8.265l-62.109,15.907Z" fill="#feca2e"/>
        <path id="Path_203603" data-name="Path 203603" d="M425.514,349.021a2.41,2.41,0,0,1-.154.431c-.127.308-.295.718-.509,1.237-.471,1.12-1.139,2.711-1.994,4.743-1.714,4.123-4.185,10.1-6.671,17.688a210.85,210.85,0,0,0-6.891,27.151c-1.983,10.366-3.588,21.869-4.928,33.98-2.456,24.249-4.679,46.2-6.293,62.127-.824,7.919-1.493,14.34-1.96,18.821-.242,2.192-.432,3.907-.565,5.114-.068.557-.122,1-.163,1.328a2.233,2.233,0,0,1-.078.45,2.581,2.581,0,0,1,.013-.457c.025-.333.057-.775.1-1.335.106-1.21.255-2.93.446-5.127.418-4.487,1.018-10.915,1.757-18.843,1.541-15.907,3.577-37.885,6.106-62.149,1.341-12.121,2.966-23.639,4.985-34.021a205.266,205.266,0,0,1,7.041-27.182c2.548-7.585,5.086-13.547,6.872-17.643.882-2.054,1.618-3.626,2.1-4.7.239-.509.427-.91.568-1.212a2.471,2.471,0,0,1,.214-.4" fill="#263238"/>
        <g id="Group_146879" data-name="Group 146879" opacity="0.3">
          <g id="Group_146878" data-name="Group 146878">
            <g id="Group_146877" data-name="Group 146877" clip-path="url(#clip-path-9)">
              <path id="Path_203604" data-name="Path 203604" d="M494.758,420.472c-1.227-12.093-6.66-24.224-16.608-31.208L396.881,505.315c14.348,7.736,30.277,15.725,46.216,12.316,8.575-1.834,16.2-6.891,22.382-13.109C478.33,491.6,485.3,473.988,490.2,456.433c3.268-11.708,5.782-23.868,4.555-35.961"/>
            </g>
          </g>
        </g>
        <path id="Path_203605" data-name="Path 203605" d="M503.971,406.452c-10.125,35.83-32.913,79.548-39.911,88.331a54.328,54.328,0,0,1-42.52,20.863c-9.168,0-86.664-15.091-109.629-19.6a9.836,9.836,0,0,1-7.729-7.634l-.2-.951-10.339-2.784,5.5-27.741,1.1-1.537,110.834,3.487,32.243-89.8c.608-1.026,9.92-31.161,35.167-29.792" fill="#feca2e"/>
        <path id="Path_203606" data-name="Path 203606" d="M478.493,339.29s-.283.012-.838.011a24.468,24.468,0,0,0-2.47.06,27.892,27.892,0,0,0-9.313,2.213,33.8,33.8,0,0,0-12.163,9.382,60.894,60.894,0,0,0-10.229,18.219l.015-.031c-8.143,22.753-19.2,53.651-32.149,89.833l-.069.192-.2-.007-110.834-3.446.269-.134-1.1,1.538.053-.124c-1.591,8.023-3.285,16.558-5,25.185-.173.875-.347,1.75-.507,2.556l-.231-.372,10.338,2.784.2.054.029.19a10,10,0,0,0,3.046,5.972,9.3,9.3,0,0,0,2.833,1.816,16.521,16.521,0,0,0,3.31.845l13.564,2.649,26.5,5.1c17.366,3.291,34.1,6.42,50.054,9.12,3.991.662,7.934,1.295,11.831,1.846,1.951.244,3.89.517,5.8.6a45.1,45.1,0,0,0,5.74-.287,54.432,54.432,0,0,0,20.947-6.719A55.668,55.668,0,0,0,463.554,495a73.452,73.452,0,0,0,5.377-8.111q2.421-4.117,4.58-8.142a438.457,438.457,0,0,0,23.765-52.364c2.345-6.361,4.013-11.349,5.075-14.75.522-1.694.921-2.988,1.194-3.872s.427-1.313.427-1.313-.114.454-.366,1.331-.639,2.189-1.135,3.891c-1.023,3.415-2.655,8.419-4.968,14.8a429.234,429.234,0,0,1-23.6,52.491q-2.158,4.029-4.571,8.168a73.787,73.787,0,0,1-5.4,8.18,56.151,56.151,0,0,1-15.75,13.482,54.938,54.938,0,0,1-21.146,6.817,45.869,45.869,0,0,1-5.807.3c-1.972-.087-3.911-.361-5.871-.6-3.908-.548-7.856-1.177-11.851-1.835-15.971-2.686-32.7-5.8-50.074-9.083l-26.5-5.086-13.566-2.646a17.077,17.077,0,0,1-3.431-.881,9.934,9.934,0,0,1-3.025-1.938,10.653,10.653,0,0,1-3.238-6.309l.231.243-10.339-2.784-.29-.078.059-.294c.16-.806.333-1.681.507-2.556,1.713-8.627,3.407-17.162,5-25.184l.014-.068.04-.056,1.1-1.537.1-.139.171.005L411.091,458.6l-.272.185,32.336-89.766.015-.031A60.8,60.8,0,0,1,453.5,350.775a33.857,33.857,0,0,1,12.3-9.378,27.487,27.487,0,0,1,9.384-2.134,21.287,21.287,0,0,1,2.477-.011c.555.017.836.038.836.038" fill="#263238"/>
        <path id="Path_203607" data-name="Path 203607" d="M386.661,451.773c-.191.1-1.724-4-5.344-7.843-3.575-3.883-7.557-5.7-7.445-5.886a8.69,8.69,0,0,1,2.579,1.168,23.721,23.721,0,0,1,9.228,9.906,8.669,8.669,0,0,1,.982,2.655" fill="#263238"/>
        <path id="Path_203608" data-name="Path 203608" d="M424.484,480.61c-.11.016-.325-1.421-.968-3.657a33.781,33.781,0,0,0-9.341-15.3c-1.695-1.594-2.874-2.442-2.81-2.533a3.186,3.186,0,0,1,.894.5,20.766,20.766,0,0,1,2.22,1.691,29.87,29.87,0,0,1,9.475,15.521,20.874,20.874,0,0,1,.491,2.748,3.165,3.165,0,0,1,.039,1.025" fill="#263238"/>
        <g id="Group_146882" data-name="Group 146882" opacity="0.3">
          <g id="Group_146881" data-name="Group 146881">
            <g id="Group_146880" data-name="Group 146880" clip-path="url(#clip-path-10)">
              <path id="Path_203609" data-name="Path 203609" d="M394.919,458.184l6.451.239c1.04-25.315,6.258-50.558,10.722-75.5-11.376,23.233-14.358,49.544-17.173,75.259"/>
            </g>
          </g>
        </g>
        <path id="Path_203610" data-name="Path 203610" d="M495.36,327.648a2.43,2.43,0,0,1-.609.212l-1.773.486-6.534,1.738c-5.517,1.466-13.12,3.568-21.572,5.7s-16.185,3.781-21.827,4.708c-2.82.466-5.11.795-6.7.958l-1.831.185a2.437,2.437,0,0,1-.643.021,2.442,2.442,0,0,1,.627-.15l1.813-.3c1.577-.238,3.852-.635,6.656-1.157,5.609-1.039,13.3-2.749,21.749-4.884s16.066-4.162,21.616-5.517c2.773-.684,5.026-1.205,6.588-1.541l1.8-.369a2.432,2.432,0,0,1,.638-.086" fill="#263238"/>
      </g>
    </g>
  </g>
</svg>
