<svg xmlns="http://www.w3.org/2000/svg" xmlns:xlink="http://www.w3.org/1999/xlink" width="150" height="150" viewBox="0 0 150 150">
  <defs>
    <clipPath id="clip-path">
      <rect id="Rectangle_53181" data-name="Rectangle 53181" width="70" height="70" fill="#fff"/>
    </clipPath>
  </defs>
  <g id="_9" data-name="9" transform="translate(-7153.687 9059.087)">
    <g id="Group_171859" data-name="Group 171859" transform="translate(1012.187 1326.927)">
      <circle id="Ellipse_4809" data-name="Ellipse 4809" cx="75" cy="75" r="75" transform="translate(6141.5 -10386.014)" fill="#0f2771"/>
    </g>
    <g id="Group_171873" data-name="Group 171873" transform="translate(38.763 34.913)">
      <rect id="Rectangle_44967" data-name="Rectangle 44967" width="80" height="80" transform="translate(7150 -9059)" fill="none"/>
      <g id="Group_171871" data-name="Group 171871" transform="translate(7155 -9054)">
        <rect id="Rectangle_53167" data-name="Rectangle 53167" width="11.667" height="2.333" transform="translate(29.167 11.667)" fill="#fff"/>
        <rect id="Rectangle_53168" data-name="Rectangle 53168" width="11.667" height="2.333" transform="translate(29.167 16.333)" fill="#fff"/>
        <g id="Group_171872" data-name="Group 171872">
          <g id="Group_171871-2" data-name="Group 171871" clip-path="url(#clip-path)">
            <path id="Path_204346" data-name="Path 204346" d="M64.167,60.667V51.333a1.168,1.168,0,0,0-.84-1.12l-27.16-7.921V28h8.167A1.166,1.166,0,0,0,45.5,26.833V8.167a1.163,1.163,0,0,0-.341-.825l-7-7A1.161,1.161,0,0,0,37.334,0H25.667A1.166,1.166,0,0,0,24.5,1.166V26.833A1.167,1.167,0,0,0,25.667,28h8.167V42.292L6.674,50.213a1.166,1.166,0,0,0-.84,1.12v9.334a1.165,1.165,0,0,0,.84,1.119l28,8.167a1.158,1.158,0,0,0,.653,0l28-8.167a1.166,1.166,0,0,0,.84-1.119M38.5,3.983,41.517,7H38.5ZM26.834,2.333h9.333V8.167a1.166,1.166,0,0,0,1.167,1.166h5.833V25.667H26.834Zm7,42.389V50.85l-2.675-2.675-1.65,1.65,4.667,4.666a1.165,1.165,0,0,0,1.649,0l4.667-4.666-1.65-1.65L36.167,50.85V44.722l22.667,6.611L35,58.284,11.167,51.333ZM8.167,52.888l25.667,7.487v6.9L8.167,59.792Zm28,14.39v-6.9l25.667-7.487v6.9Z" fill="#fff"/>
            <rect id="Rectangle_53169" data-name="Rectangle 53169" width="4.667" height="2.333" transform="translate(29.167 7)" fill="#fff"/>
            <path id="Path_204347" data-name="Path 204347" d="M1.166,28H9.333a5.84,5.84,0,0,0,5.833,5.833h3.5a3.5,3.5,0,0,1,3.5,3.5v1.85l-2.675-2.675-1.65,1.65,4.667,4.667a1.168,1.168,0,0,0,1.65,0l4.667-4.667-1.65-1.65L24.5,39.183v-1.85A5.84,5.84,0,0,0,18.666,31.5h-3.5a3.505,3.505,0,0,1-3.5-3.5h8.167A1.167,1.167,0,0,0,21,26.833V8.166a1.167,1.167,0,0,0-.342-.825l-7-7A1.163,1.163,0,0,0,12.833,0H1.166A1.165,1.165,0,0,0,0,1.166V26.833A1.166,1.166,0,0,0,1.166,28ZM14,3.983,17.017,7H14ZM2.333,2.333h9.333V8.166a1.167,1.167,0,0,0,1.167,1.167h5.833V25.666H2.333Z" fill="#fff"/>
            <rect id="Rectangle_53170" data-name="Rectangle 53170" width="11.667" height="2.333" transform="translate(4.667 11.667)" fill="#fff"/>
            <rect id="Rectangle_53171" data-name="Rectangle 53171" width="11.667" height="2.333" transform="translate(4.667 16.333)" fill="#fff"/>
            <rect id="Rectangle_53172" data-name="Rectangle 53172" width="11.667" height="2.333" transform="translate(4.667 21)" fill="#fff"/>
            <rect id="Rectangle_53173" data-name="Rectangle 53173" width="4.667" height="2.333" transform="translate(4.667 7)" fill="#fff"/>
            <path id="Path_204348" data-name="Path 204348" d="M70,26.834V8.167a1.166,1.166,0,0,0-.342-.825l-7-7A1.164,1.164,0,0,0,61.833,0H50.166A1.166,1.166,0,0,0,49,1.167V26.834A1.165,1.165,0,0,0,50.166,28h8.167a3.5,3.5,0,0,1-3.5,3.5h-3.5A5.84,5.84,0,0,0,45.5,37.334v1.85l-2.675-2.675-1.65,1.65,4.666,4.666a1.166,1.166,0,0,0,1.65,0l4.667-4.666-1.65-1.65-2.675,2.675v-1.85a3.5,3.5,0,0,1,3.5-3.5h3.5A5.84,5.84,0,0,0,60.666,28h8.167A1.166,1.166,0,0,0,70,26.834M63,3.983,66.017,7H63ZM51.333,25.667V2.334h9.333V8.167a1.167,1.167,0,0,0,1.167,1.167h5.833V25.667Z" fill="#fff"/>
            <rect id="Rectangle_53174" data-name="Rectangle 53174" width="11.667" height="2.333" transform="translate(53.667 11.667)" fill="#fff"/>
            <rect id="Rectangle_53175" data-name="Rectangle 53175" width="11.667" height="2.333" transform="translate(53.667 16.333)" fill="#fff"/>
            <rect id="Rectangle_53176" data-name="Rectangle 53176" width="11.667" height="2.333" transform="translate(53.667 21)" fill="#fff"/>
            <rect id="Rectangle_53177" data-name="Rectangle 53177" width="4.667" height="2.333" transform="translate(53.667 7)" fill="#fff"/>
            <rect id="Rectangle_53178" data-name="Rectangle 53178" width="2.333" height="2.333" transform="translate(29.167 21)" fill="#fff"/>
            <rect id="Rectangle_53179" data-name="Rectangle 53179" width="2.333" height="2.333" transform="translate(33.833 21)" fill="#fff"/>
            <rect id="Rectangle_53180" data-name="Rectangle 53180" width="2.333" height="2.333" transform="translate(38.5 21)" fill="#fff"/>
          </g>
        </g>
      </g>
    </g>
  </g>
</svg>
