<svg id="_14" data-name="14" xmlns="http://www.w3.org/2000/svg" xmlns:xlink="http://www.w3.org/1999/xlink" width="62.44" height="62.44" viewBox="0 0 62.44 62.44">
  <defs>
    <clipPath id="clip-path">
      <rect id="Rectangle_53010" data-name="Rectangle 53010" width="62.44" height="62.44" fill="#4dd0e1"/>
    </clipPath>
  </defs>
  <g id="Group_147012" data-name="Group 147012" clip-path="url(#clip-path)">
    <path id="Path_204063" data-name="Path 204063" d="M59.318,0H3.122A3.122,3.122,0,0,0,0,3.122v56.2A3.122,3.122,0,0,0,3.122,62.44h56.2a3.122,3.122,0,0,0,3.122-3.122V3.122A3.122,3.122,0,0,0,59.318,0m1.041,59.318a1.041,1.041,0,0,1-1.041,1.041H3.122a1.041,1.041,0,0,1-1.041-1.041V10.407H60.359V59.318Zm0-50.993H2.081v-5.2A1.041,1.041,0,0,1,3.122,2.081h56.2a1.041,1.041,0,0,1,1.041,1.041Z" fill="#4dd0e1"/>
    <path id="Path_204064" data-name="Path 204064" d="M44.748,34.133H43.708a1.041,1.041,0,0,0,0,2.081h1.041a1.041,1.041,0,0,0,0-2.081" transform="translate(-37.464 -29.97)" fill="#4dd0e1"/>
    <path id="Path_204065" data-name="Path 204065" d="M87.415,34.133H86.375a1.041,1.041,0,1,0,0,2.081h1.041a1.041,1.041,0,1,0,0-2.081" transform="translate(-74.927 -29.97)" fill="#4dd0e1"/>
    <path id="Path_204066" data-name="Path 204066" d="M130.082,34.133h-1.041a1.041,1.041,0,0,0,0,2.081h1.041a1.041,1.041,0,0,0,0-2.081" transform="translate(-112.391 -29.97)" fill="#4dd0e1"/>
    <path id="Path_204067" data-name="Path 204067" d="M445.815,34.133h-1.041a1.041,1.041,0,0,0,0,2.081h1.041a1.041,1.041,0,1,0,0-2.081" transform="translate(-389.619 -29.97)" fill="#4dd0e1"/>
    <path id="Path_204068" data-name="Path 204068" d="M45.789,123.421H58.277A3.122,3.122,0,0,0,61.4,120.3v-6.244a3.122,3.122,0,0,0-3.122-3.122H45.789a3.122,3.122,0,0,0-3.122,3.122V120.3a3.122,3.122,0,0,0,3.122,3.122m4.163-10.407h8.325a1.041,1.041,0,0,1,1.041,1.041V120.3a1.041,1.041,0,0,1-1.041,1.041H49.952Zm-5.2,1.041a1.041,1.041,0,0,1,1.041-1.041H47.87v8.325H45.789a1.041,1.041,0,0,1-1.041-1.041v-6.244Z" transform="translate(-37.464 -97.404)" fill="#4dd0e1"/>
    <path id="Path_204069" data-name="Path 204069" d="M123.63,153.6h-3.122a1.041,1.041,0,1,0,0,2.081h3.122a1.041,1.041,0,1,0,0-2.081" transform="translate(-104.898 -134.868)" fill="#4dd0e1"/>
    <path id="Path_204070" data-name="Path 204070" d="M45.789,251.421H58.277A3.122,3.122,0,0,0,61.4,248.3v-6.244a3.122,3.122,0,0,0-3.122-3.122H45.789a3.122,3.122,0,0,0-3.122,3.122V248.3a3.122,3.122,0,0,0,3.122,3.122m4.163-10.407h8.325a1.041,1.041,0,0,1,1.041,1.041V248.3a1.041,1.041,0,0,1-1.041,1.041H49.952Zm-5.2,1.041a1.041,1.041,0,0,1,1.041-1.041H47.87v8.325H45.789a1.041,1.041,0,0,1-1.041-1.041v-6.244Z" transform="translate(-37.464 -209.794)" fill="#4dd0e1"/>
    <path id="Path_204071" data-name="Path 204071" d="M123.63,281.6h-3.122a1.041,1.041,0,0,0,0,2.081h3.122a1.041,1.041,0,0,0,0-2.081" transform="translate(-104.898 -247.258)" fill="#4dd0e1"/>
    <path id="Path_204072" data-name="Path 204072" d="M45.789,379.421H58.277A3.122,3.122,0,0,0,61.4,376.3v-6.244a3.122,3.122,0,0,0-3.122-3.122H45.789a3.122,3.122,0,0,0-3.122,3.122V376.3a3.122,3.122,0,0,0,3.122,3.122m4.163-10.407h8.325a1.041,1.041,0,0,1,1.041,1.041V376.3a1.041,1.041,0,0,1-1.041,1.041H49.952Zm-5.2,1.041a1.041,1.041,0,0,1,1.041-1.041H47.87v8.325H45.789a1.041,1.041,0,0,1-1.041-1.041v-6.244Z" transform="translate(-37.464 -322.184)" fill="#4dd0e1"/>
    <path id="Path_204073" data-name="Path 204073" d="M123.63,409.6h-3.122a1.041,1.041,0,0,0,0,2.081h3.122a1.041,1.041,0,0,0,0-2.081" transform="translate(-104.898 -359.648)" fill="#4dd0e1"/>
    <path id="Path_204074" data-name="Path 204074" d="M222.908,155.682h13.529a1.041,1.041,0,1,0,0-2.081H222.908a1.041,1.041,0,0,0,0,2.081" transform="translate(-194.81 -134.869)" fill="#4dd0e1"/>
    <path id="Path_204075" data-name="Path 204075" d="M222.908,283.682h13.529a1.041,1.041,0,1,0,0-2.081H222.908a1.041,1.041,0,0,0,0,2.081" transform="translate(-194.81 -247.259)" fill="#4dd0e1"/>
    <path id="Path_204076" data-name="Path 204076" d="M222.908,411.682h13.529a1.041,1.041,0,1,0,0-2.081H222.908a1.041,1.041,0,0,0,0,2.081" transform="translate(-194.81 -359.649)" fill="#4dd0e1"/>
    <path id="Path_204077" data-name="Path 204077" d="M377.945,135.071a1.041,1.041,0,0,0,1.471,0l5.2-5.2a1.041,1.041,0,0,0-1.471-1.471l-4.468,4.468-1.346-1.346a1.041,1.041,0,0,0-1.471,1.471Z" transform="translate(-329.769 -112.482)" fill="#4dd0e1"/>
    <path id="Path_204078" data-name="Path 204078" d="M377.945,263.071a1.041,1.041,0,0,0,1.471,0l5.2-5.2a1.041,1.041,0,0,0-1.471-1.471l-4.468,4.468-1.346-1.346a1.041,1.041,0,0,0-1.471,1.471Z" transform="translate(-329.769 -224.872)" fill="#4dd0e1"/>
    <path id="Path_204079" data-name="Path 204079" d="M377.945,391.071a1.041,1.041,0,0,0,1.471,0l5.2-5.2a1.041,1.041,0,0,0-1.471-1.471l-4.468,4.468-1.346-1.346a1.041,1.041,0,0,0-1.471,1.471Z" transform="translate(-329.769 -337.262)" fill="#4dd0e1"/>
  </g>
</svg>
