<svg id="_8" data-name="8" xmlns="http://www.w3.org/2000/svg" xmlns:xlink="http://www.w3.org/1999/xlink" width="62.44" height="62.44" viewBox="0 0 62.44 62.44">
  <defs>
    <clipPath id="clip-path">
      <rect id="Rectangle_53004" data-name="Rectangle 53004" width="62.44" height="62.44" transform="translate(0 0)" fill="#4dd0e1"/>
    </clipPath>
  </defs>
  <g id="Group_147000" data-name="Group 147000" clip-path="url(#clip-path)">
    <path id="Path_203996" data-name="Path 203996" d="M38.27,26.184H59.419a3.024,3.024,0,0,0,3.021-3.021V3.021A3.024,3.024,0,0,0,59.419,0H29.206a3.024,3.024,0,0,0-3.021,3.021v9.538a51.745,51.745,0,0,0-7.05-.474C9.859,12.085,0,14.555,0,19.135v24.17c0,4.579,9.859,7.05,19.135,7.05a51.4,51.4,0,0,0,7.05-.476v9.54a3.025,3.025,0,0,0,3.021,3.021H59.419a3.025,3.025,0,0,0,3.021-3.021V39.277a3.025,3.025,0,0,0-3.021-3.022H38.27ZM28.2,3.021a1.008,1.008,0,0,1,1.007-1.007H59.419a1.008,1.008,0,0,1,1.007,1.007V23.163a1.008,1.008,0,0,1-1.007,1.007H29.206A1.008,1.008,0,0,1,28.2,23.163ZM26.185,19.543a36.952,36.952,0,0,1-7.05.6,28.247,28.247,0,0,1-8.558-1.007,28.247,28.247,0,0,1,8.558-1.007,36.871,36.871,0,0,1,7.05.6ZM19.135,14.1a49.169,49.169,0,0,1,7.05.495v2.084a39.78,39.78,0,0,0-7.05-.565c-10.279,0-11.078,2.313-11.078,3.022s.8,3.021,11.078,3.021a39.685,39.685,0,0,0,7.05-.565v1.572a2.99,2.99,0,0,0,.051.5,49.858,49.858,0,0,1-7.1.5c-10.607,0-17.121-2.932-17.121-5.035S8.528,14.1,19.135,14.1m0,34.242c-10.607,0-17.121-2.933-17.121-5.036V38.532C5.369,41,12.4,42.3,19.135,42.3a51.56,51.56,0,0,0,7.05-.475v6.023a49.314,49.314,0,0,1-7.05.495m41.291-9.064V59.419a1.007,1.007,0,0,1-1.007,1.007H29.206A1.007,1.007,0,0,1,28.2,59.419V39.277a1.007,1.007,0,0,1,1.007-1.007H59.419a1.007,1.007,0,0,1,1.007,1.007m-31.22-3.022a3.025,3.025,0,0,0-3.021,3.022v.512a49.169,49.169,0,0,1-7.05.495c-10.607,0-17.121-2.933-17.121-5.036V30.476c3.355,2.463,10.39,3.765,17.121,3.765s13.766-1.3,17.121-3.765v5.779ZM19.135,32.227c-10.607,0-17.121-2.933-17.121-5.035V22.419c3.355,2.463,10.39,3.765,17.121,3.765a50.964,50.964,0,0,0,8.22-.651,2.988,2.988,0,0,0,1.851.651h7.05v1.008c0,2.1-6.514,5.035-17.121,5.035" fill="#4dd0e1"/>
    <path id="Path_203997" data-name="Path 203997" d="M38.27,4.028H30.213v8.057H38.27Zm-2.015,6.043H32.227V6.043h4.028Z" fill="#4dd0e1"/>
    <path id="Path_203998" data-name="Path 203998" d="M48.341,4.028H40.284v8.057h8.057Zm-2.015,6.043H42.3V6.043h4.028Z" fill="#4dd0e1"/>
    <path id="Path_203999" data-name="Path 203999" d="M58.412,4.028H50.355v8.057h8.057ZM56.4,10.071H52.369V6.043H56.4Z" fill="#4dd0e1"/>
    <path id="Path_204000" data-name="Path 204000" d="M38.27,14.1H30.213v8.057H38.27Zm-2.015,6.043H32.227V16.114h4.028Z" fill="#4dd0e1"/>
    <path id="Path_204001" data-name="Path 204001" d="M48.341,14.1H40.284v8.057h8.057Zm-2.015,6.043H42.3V16.114h4.028Z" fill="#4dd0e1"/>
    <path id="Path_204002" data-name="Path 204002" d="M58.412,14.1H50.355v8.057h8.057ZM56.4,20.142H52.369V16.114H56.4Z" fill="#4dd0e1"/>
    <path id="Path_204003" data-name="Path 204003" d="M44.312,40.284H38.27v4.028H34.241v4.029H30.213V58.412h14.1ZM32.227,50.355h2.014V56.4H32.227Zm4.028-4.029h2.014V56.4H36.255ZM42.3,56.4H40.284V42.3H42.3Z" fill="#4dd0e1"/>
    <rect id="Rectangle_52998" data-name="Rectangle 52998" width="12.085" height="2.014" transform="translate(46.326 44.312)" fill="#4dd0e1"/>
    <rect id="Rectangle_52999" data-name="Rectangle 52999" width="12.085" height="2.014" transform="translate(46.326 40.284)" fill="#4dd0e1"/>
    <rect id="Rectangle_53000" data-name="Rectangle 53000" width="12.085" height="2.014" transform="translate(46.326 48.341)" fill="#4dd0e1"/>
    <rect id="Rectangle_53001" data-name="Rectangle 53001" width="2.014" height="2.014" transform="translate(56.397 52.369)" fill="#4dd0e1"/>
    <rect id="Rectangle_53002" data-name="Rectangle 53002" width="8.057" height="2.014" transform="translate(46.326 52.369)" fill="#4dd0e1"/>
    <rect id="Rectangle_53003" data-name="Rectangle 53003" width="12.085" height="2.014" transform="translate(46.326 56.397)" fill="#4dd0e1"/>
  </g>
</svg>
