<svg xmlns="http://www.w3.org/2000/svg" xmlns:xlink="http://www.w3.org/1999/xlink" width="190" height="115" viewBox="0 0 190 115">
  <defs>
    <clipPath id="clip-path">
      <rect id="Rectangle_44497" data-name="Rectangle 44497" width="100" height="100" fill="#0f2771"/>
    </clipPath>
  </defs>
  <g id="_1" data-name="1" transform="translate(-180 -399)">
    <rect id="Rectangle_43992" data-name="Rectangle 43992" width="190" height="115" transform="translate(180 399)" fill="none"/>
    <g id="Group_146381" data-name="Group 146381">
      <rect id="Rectangle_41430" data-name="Rectangle 41430" width="85" height="28" rx="14" transform="translate(285 407)" fill="#feca2e" opacity="0.2"/>
      <rect id="Rectangle_41431" data-name="Rectangle 41431" width="85" height="28" rx="14" transform="translate(180 468)" fill="#4dd0e1" opacity="0.2"/>
    </g>
    <g id="Group_146383" data-name="Group 146383" transform="translate(225 407)">
      <g id="Group_146382" data-name="Group 146382" clip-path="url(#clip-path)">
        <path id="Path_202288" data-name="Path 202288" d="M100,47.011A10.3,10.3,0,0,0,96.292,39.1a9.343,9.343,0,0,0,.178-1.8,9.239,9.239,0,0,0-6.645-8.854A9.163,9.163,0,0,0,80.8,21.1a9.372,9.372,0,0,0-8.956,7.083H67.864V20.82a4.454,4.454,0,1,0-2.834,0V29.6a1.416,1.416,0,0,0,1.417,1.417H71.58v9.389H57.3V8.675a4.453,4.453,0,1,0-2.834,0V41.826a1.418,1.418,0,0,0,1.417,1.417H71.58v5.34H65.388a4.454,4.454,0,1,0,0,2.834H71.58v5.341H55.887a1.417,1.417,0,0,0-1.417,1.417V91.326a4.454,4.454,0,1,0,2.834,0V59.592H71.58v9.389H66.447A1.416,1.416,0,0,0,65.03,70.4V79.18a4.453,4.453,0,1,0,2.834,0V71.815h3.971a9.239,9.239,0,0,0,2.441,4.341A9.132,9.132,0,0,0,80.8,78.9a9.23,9.23,0,0,0,9.219-9.219c0-.037,0-.075,0-.113a10.412,10.412,0,0,0,7.533-15.89A10.347,10.347,0,0,0,100,47.011ZM66.447,14.98a1.62,1.62,0,1,1-1.62,1.619,1.62,1.62,0,0,1,1.62-1.619M55.887,2.834a1.619,1.619,0,1,1-1.619,1.62,1.621,1.621,0,0,1,1.619-1.62m5.28,48.786A1.619,1.619,0,1,1,62.786,50a1.621,1.621,0,0,1-1.619,1.62m-5.28,45.546a1.619,1.619,0,1,1,1.619-1.619,1.621,1.621,0,0,1-1.619,1.619M66.447,85.02A1.619,1.619,0,1,1,68.066,83.4a1.621,1.621,0,0,1-1.619,1.619M88.731,66.814A7.541,7.541,0,0,1,83.369,64.6a1.417,1.417,0,1,0-2,2,10.345,10.345,0,0,0,5.811,2.932c0,.048.006.1.006.145A6.392,6.392,0,0,1,80.8,76.064a6.471,6.471,0,0,1-6.385-6.385V30.321A6.553,6.553,0,0,1,80.8,23.936a6.349,6.349,0,0,1,5.987,4.152,9.147,9.147,0,0,0-6.1,2.731A1.417,1.417,0,1,0,82.7,32.81a6.389,6.389,0,1,1,8.447,9.55A1.417,1.417,0,0,0,92.88,44.6,9.257,9.257,0,0,0,95.2,41.969a7.465,7.465,0,0,1,.485,9.5,10.381,10.381,0,0,0-6.958-2.67,1.417,1.417,0,0,0,0,2.834,7.59,7.59,0,1,1,0,15.179ZM47.425,72.25V58.175a1.417,1.417,0,0,0-1.417-1.417H30.315V51.417h6.192a4.453,4.453,0,1,0,0-2.834H30.315V43.242H46.008a1.417,1.417,0,0,0,1.417-1.417V27.751a4.454,4.454,0,1,0-2.834,0V40.408H30.315V40.35A1.418,1.418,0,0,0,28.9,38.933a11.067,11.067,0,0,0,0,22.134,1.417,1.417,0,0,0,1.417-1.417v-.058H44.591V72.25a4.453,4.453,0,1,0,2.834,0m-6.7-23.869A1.619,1.619,0,1,1,39.108,50a1.62,1.62,0,0,1,1.62-1.619m5.28-26.471a1.62,1.62,0,1,1-1.62,1.62,1.621,1.621,0,0,1,1.62-1.62m-18.527,36.2a8.234,8.234,0,0,1,0-16.222ZM46.008,78.09a1.619,1.619,0,1,1,1.619-1.619,1.621,1.621,0,0,1-1.619,1.619M36.865,91.326V70.4a1.416,1.416,0,0,0-1.417-1.417H30.315V63.43A1.417,1.417,0,0,0,28.9,62.013a12.013,12.013,0,1,1,0-24.025,1.418,1.418,0,0,0,1.417-1.417V31.019h5.133A1.416,1.416,0,0,0,36.865,29.6V8.675a4.453,4.453,0,1,0-2.834,0V28.186H30.315V22.519A1.418,1.418,0,0,0,28.9,21.1H26.15a3.226,3.226,0,0,0-3.222,3.222,4.668,4.668,0,0,1-7.964,3.3,3.222,3.222,0,0,0-4.557,0L6.521,31.509a3.226,3.226,0,0,0,0,4.558A4.6,4.6,0,0,1,7.532,41.15a4.6,4.6,0,0,1-4.31,2.88A3.225,3.225,0,0,0,0,47.252v5.5A3.225,3.225,0,0,0,3.222,55.97a4.6,4.6,0,0,1,4.305,2.882A4.6,4.6,0,0,1,6.52,63.934a3.227,3.227,0,0,0,0,4.557l3.887,3.886a3.222,3.222,0,0,0,4.557,0,4.667,4.667,0,0,1,7.963,3.3,3.228,3.228,0,0,0,3.23,3.222l2.748-.014a1.417,1.417,0,0,0,1.409-1.417V71.814h3.717V91.326a4.453,4.453,0,1,0,2.834,0ZM35.448,2.834a1.619,1.619,0,1,1-1.619,1.62,1.621,1.621,0,0,1,1.619-1.62M27.481,76.058l-1.331.006a.388.388,0,0,1-.388-.388,7.383,7.383,0,0,0-4.631-6.924,7.619,7.619,0,0,0-2.921-.591,7.388,7.388,0,0,0-5.25,2.213.39.39,0,0,1-.549,0L8.525,66.488a.391.391,0,0,1,0-.55,7.382,7.382,0,0,0,1.621-8.171,7.38,7.38,0,0,0-6.924-4.63.389.389,0,0,1-.388-.389v-5.5a.389.389,0,0,1,.388-.389,7.382,7.382,0,0,0,6.928-4.629,7.383,7.383,0,0,0-1.625-8.172.389.389,0,0,1,0-.549l3.886-3.887a.39.39,0,0,1,.549,0,7.5,7.5,0,0,0,12.8-5.3.388.388,0,0,1,.388-.388h1.331V35.221a14.847,14.847,0,0,0,0,29.559Zm7.967,21.108a1.619,1.619,0,1,1,1.619-1.619,1.621,1.621,0,0,1-1.619,1.619" fill="#0f2771"/>
      </g>
    </g>
  </g>
</svg>
