<svg xmlns="http://www.w3.org/2000/svg" xmlns:xlink="http://www.w3.org/1999/xlink" width="190" height="115" viewBox="0 0 190 115">
  <defs>
    <clipPath id="clip-path">
      <rect id="Rectangle_53208" data-name="Rectangle 53208" width="100" height="100" fill="#0f2771"/>
    </clipPath>
  </defs>
  <g id="_10" data-name="10" transform="translate(-180 -3265)">
    <rect id="Rectangle_43992" data-name="Rectangle 43992" width="190" height="115" transform="translate(180 3265)" fill="none"/>
    <g id="Group_146381" data-name="Group 146381" transform="translate(0 2871)">
      <rect id="Rectangle_41430" data-name="Rectangle 41430" width="85" height="28" rx="14" transform="translate(285 407)" fill="#feca2e" opacity="0.2"/>
      <rect id="Rectangle_41431" data-name="Rectangle 41431" width="85" height="28" rx="14" transform="translate(180 468)" fill="#4dd0e1" opacity="0.2"/>
    </g>
    <g id="Group_171875" data-name="Group 171875" transform="translate(225 3273)">
      <rect id="Rectangle_53182" data-name="Rectangle 53182" width="3.125" height="3.125" transform="translate(12.5 84.375)" fill="#0f2771"/>
      <rect id="Rectangle_53183" data-name="Rectangle 53183" width="3.125" height="3.125" transform="translate(18.75 84.375)" fill="#0f2771"/>
      <rect id="Rectangle_53184" data-name="Rectangle 53184" width="3.125" height="3.125" transform="translate(6.25 84.375)" fill="#0f2771"/>
      <rect id="Rectangle_53185" data-name="Rectangle 53185" width="3.125" height="3.125" transform="translate(12.5 71.875)" fill="#0f2771"/>
      <rect id="Rectangle_53186" data-name="Rectangle 53186" width="3.125" height="3.125" transform="translate(18.75 71.875)" fill="#0f2771"/>
      <rect id="Rectangle_53187" data-name="Rectangle 53187" width="3.125" height="3.125" transform="translate(6.25 71.875)" fill="#0f2771"/>
      <rect id="Rectangle_53188" data-name="Rectangle 53188" width="3.125" height="3.125" transform="translate(12.5 59.375)" fill="#0f2771"/>
      <rect id="Rectangle_53189" data-name="Rectangle 53189" width="3.125" height="3.125" transform="translate(6.25 59.375)" fill="#0f2771"/>
      <rect id="Rectangle_53190" data-name="Rectangle 53190" width="3.125" height="3.125" transform="translate(18.75 59.375)" fill="#0f2771"/>
      <rect id="Rectangle_53191" data-name="Rectangle 53191" width="3.125" height="3.125" transform="translate(25 59.375)" fill="#0f2771"/>
      <rect id="Rectangle_53192" data-name="Rectangle 53192" width="3.125" height="3.125" transform="translate(12.5 46.875)" fill="#0f2771"/>
      <rect id="Rectangle_53193" data-name="Rectangle 53193" width="3.125" height="3.125" transform="translate(6.25 46.875)" fill="#0f2771"/>
      <rect id="Rectangle_53194" data-name="Rectangle 53194" width="3.125" height="3.125" transform="translate(18.75 46.875)" fill="#0f2771"/>
      <rect id="Rectangle_53195" data-name="Rectangle 53195" width="3.125" height="3.125" transform="translate(25 46.875)" fill="#0f2771"/>
      <rect id="Rectangle_53196" data-name="Rectangle 53196" width="3.125" height="3.125" transform="translate(12.5 21.875)" fill="#0f2771"/>
      <rect id="Rectangle_53197" data-name="Rectangle 53197" width="3.125" height="3.125" transform="translate(6.25 21.875)" fill="#0f2771"/>
      <rect id="Rectangle_53198" data-name="Rectangle 53198" width="3.125" height="3.125" transform="translate(18.75 21.875)" fill="#0f2771"/>
      <rect id="Rectangle_53199" data-name="Rectangle 53199" width="3.125" height="3.125" transform="translate(25 21.875)" fill="#0f2771"/>
      <rect id="Rectangle_53200" data-name="Rectangle 53200" width="3.125" height="3.125" transform="translate(12.5 34.375)" fill="#0f2771"/>
      <rect id="Rectangle_53201" data-name="Rectangle 53201" width="3.125" height="3.125" transform="translate(6.25 34.375)" fill="#0f2771"/>
      <rect id="Rectangle_53202" data-name="Rectangle 53202" width="3.125" height="3.125" transform="translate(18.75 34.375)" fill="#0f2771"/>
      <rect id="Rectangle_53203" data-name="Rectangle 53203" width="3.125" height="3.125" transform="translate(25 34.375)" fill="#0f2771"/>
      <rect id="Rectangle_53204" data-name="Rectangle 53204" width="9.375" height="3.125" transform="translate(3.125 96.875)" fill="#0f2771"/>
      <rect id="Rectangle_53205" data-name="Rectangle 53205" width="37.5" height="3.125" transform="translate(9.375 6.25)" fill="#0f2771"/>
      <rect id="Rectangle_53206" data-name="Rectangle 53206" width="3.125" height="18.75" transform="translate(37.5 81.25)" fill="#0f2771"/>
      <rect id="Rectangle_53207" data-name="Rectangle 53207" width="3.125" height="18.75" transform="translate(84.375 81.25)" fill="#0f2771"/>
      <g id="Group_171876" data-name="Group 171876">
        <g id="Group_171875-2" data-name="Group 171875" clip-path="url(#clip-path)">
          <path id="Path_204349" data-name="Path 204349" d="M94.392,65.938,73.437,59.769V53.962l4.688-3.125V46.563l.793-.968a10.35,10.35,0,0,0,2.332-6.532,4.7,4.7,0,0,0-3.125-4.42V25a6.259,6.259,0,0,0-5.312-6.18c-2.277-2.992-9.867-5.083-16.563-4.531V0H0V93.75H25V100h3.125V73.427a4.721,4.721,0,0,1,3.364-4.5l20.073-5.9V100h3.125V67.813a10.928,10.928,0,0,0,15.625,0V100h3.125V63.025l20.074,5.9a4.721,4.721,0,0,1,3.364,4.5V100H100V73.427a7.856,7.856,0,0,0-5.608-7.489m-24-45.131.355,1.068h1.127A3.126,3.126,0,0,1,75,25v4.42A4.7,4.7,0,0,1,71.875,25H68.75a2.657,2.657,0,0,1-.781,2.042c-2.2,2.131-8.549,1.939-14.16,1.765a49.551,49.551,0,0,0-9.95.293c.813-7.954,6.162-10.64,10.706-11.461,7.54-1.369,15.31,1.784,15.828,3.167M64.062,34.376V37.5H60.937V34.376H50V31.844c1.208.013,2.461.049,3.708.088,6.49.2,13.19.4,16.367-2.583A7.824,7.824,0,0,0,75,32.641v1.735Zm7.813,6.249H67.188V37.5h4.687Zm-14.063,0H53.125V37.5h4.687ZM3.125,9.375H6.25V6.25H3.125V3.125h50V6.25H50V9.375h3.125v5.374A19.219,19.219,0,0,0,50,15.727v-.1H3.125Zm0,9.375H45.283a13.578,13.578,0,0,0-2.459,3.125H31.25V25H41.486a19.322,19.322,0,0,0-.644,3.125H3.125Zm0,12.5h37.5v2.528l2.261-1.13a11.015,11.015,0,0,1,3.989-.75v2.477H31.25V37.5H44.025a4.672,4.672,0,0,0-.275,1.563,10.094,10.094,0,0,0,.136,1.562H3.125Zm0,12.5H44.908A10.186,10.186,0,0,0,46.081,45.6l.794.967v.313H31.25V50H46.875v.836l3.438,2.289H3.125ZM25,90.625H3.125V81.25H25Zm0-17.2v4.7H3.125V68.75H26.562A7.818,7.818,0,0,0,25,73.427M51.562,59.375H31.25V62.5H42.275L31.65,65.625H3.125V56.25H51.562Zm18.75,1.375-.037.157a7.812,7.812,0,0,1-15.55,0l-.038-.109V56.045l2.657,1.768H67.656l2.656-1.768Zm-3.593-6.062H58.281L50,49.164V45.45l-1.5-1.832a7.2,7.2,0,0,1-1.627-4.555A1.563,1.563,0,0,1,48.437,37.5H50v6.25H60.937V40.625h3.125V43.75H75V37.5h1.562a1.563,1.563,0,0,1,1.563,1.563A7.207,7.207,0,0,1,76.5,43.618L75,45.45v3.714Z" fill="#0f2771"/>
        </g>
      </g>
    </g>
  </g>
</svg>
