<svg id="_12" data-name="12" xmlns="http://www.w3.org/2000/svg" xmlns:xlink="http://www.w3.org/1999/xlink" width="86.717" height="62.44" viewBox="0 0 86.717 62.44">
  <defs>
    <clipPath id="clip-path">
      <rect id="Rectangle_53006" data-name="Rectangle 53006" width="86.717" height="62.44" fill="#4dd0e1"/>
    </clipPath>
  </defs>
  <g id="Group_147003" data-name="Group 147003" clip-path="url(#clip-path)">
    <path id="Path_204037" data-name="Path 204037" d="M123.33,76.822a2.814,2.814,0,0,0,2.811-2.81V37.661a2.814,2.814,0,0,0-2.811-2.81H61.193a2.814,2.814,0,0,0-2.81,2.81v36.35a2.813,2.813,0,0,0,2.81,2.81ZM60.9,74.011V44.638h44.136a1.257,1.257,0,1,0,0-2.514H60.9V37.661a.3.3,0,0,1,.3-.3H123.33a.3.3,0,0,1,.3.3v4.463H111.014a1.257,1.257,0,1,0,0,2.514h12.613V74.011a.3.3,0,0,1-.3.3H61.193a.3.3,0,0,1-.3-.3" transform="translate(-48.495 -28.948)" fill="#4dd0e1"/>
    <path id="Path_204038" data-name="Path 204038" d="M84.651,51.119h-1.1V6.228A6.234,6.234,0,0,0,77.321,0H10.213a6.194,6.194,0,0,0-5.3,2.949A1.257,1.257,0,1,0,7.054,4.274a3.7,3.7,0,0,1,3.159-1.76H77.321a3.718,3.718,0,0,1,3.714,3.714V51.119h-.364a1.257,1.257,0,0,0,0,2.513H84.2v.512a5.788,5.788,0,0,1-5.782,5.782H8.3a5.788,5.788,0,0,1-5.782-5.782v-.51l72.384.248h0a1.257,1.257,0,0,0,0-2.514L6.5,51.134V9.275a1.257,1.257,0,0,0-2.514,0v41.85l-1.919-.007A2.067,2.067,0,0,0,0,53.184v.96a8.305,8.305,0,0,0,8.3,8.3H78.421a8.305,8.305,0,0,0,8.3-8.3v-.96a2.067,2.067,0,0,0-2.065-2.065" fill="#4dd0e1"/>
    <path id="Path_204039" data-name="Path 204039" d="M122.653,107.713H123.7V110.8c0,.422.163.714.617.714s.617-.292.617-.714v-4.615c0-.438-.211-.552-.471-.552-.69,0-.439.926-1.34,1.121l-.3.065c-.423.081-.585.163-.585.463,0,.333.146.431.414.431" transform="translate(-101.536 -87.742)" fill="#4dd0e1"/>
    <path id="Path_204040" data-name="Path 204040" d="M155.825,111.515c1.714,0,2.169-1.576,2.169-3.014,0-1.917-.853-2.867-2.169-2.867s-2.169.951-2.169,2.867c0,1.438.455,3.014,2.169,3.014m0-4.906c.715,0,.983.747.983,1.966,0,1.454-.357,1.966-.983,1.966s-.983-.512-.983-1.966c0-1.219.268-1.966.983-1.966" transform="translate(-127.632 -87.742)" fill="#4dd0e1"/>
    <path id="Path_204041" data-name="Path 204041" d="M194.774,111.515c1.714,0,2.169-1.576,2.169-3.014,0-1.917-.853-2.867-2.169-2.867s-2.169.951-2.169,2.867c0,1.438.455,3.014,2.169,3.014m0-4.906c.715,0,.983.747.983,1.966,0,1.454-.357,1.966-.983,1.966s-.983-.512-.983-1.966c0-1.219.268-1.966.983-1.966" transform="translate(-159.984 -87.742)" fill="#4dd0e1"/>
    <path id="Path_204042" data-name="Path 204042" d="M229.668,107.713h1.048V110.8c0,.422.162.714.617.714s.617-.292.617-.714v-4.615c0-.438-.211-.552-.471-.552-.691,0-.439.926-1.34,1.121l-.3.065c-.423.081-.585.163-.585.463,0,.333.146.431.414.431" transform="translate(-190.426 -87.742)" fill="#4dd0e1"/>
    <path id="Path_204043" data-name="Path 204043" d="M262.841,111.515c1.714,0,2.169-1.576,2.169-3.014,0-1.917-.853-2.867-2.169-2.867s-2.169.951-2.169,2.867c0,1.438.455,3.014,2.169,3.014m0-4.906c.715,0,.983.747.983,1.966,0,1.454-.357,1.966-.983,1.966s-.983-.512-.983-1.966c0-1.219.269-1.966.983-1.966" transform="translate(-216.522 -87.742)" fill="#4dd0e1"/>
    <path id="Path_204044" data-name="Path 204044" d="M297.731,107.713h1.048V110.8c0,.422.163.714.618.714s.617-.292.617-.714v-4.615c0-.438-.212-.552-.471-.552-.691,0-.439.926-1.34,1.121l-.3.065c-.422.081-.585.163-.585.463,0,.333.146.431.414.431" transform="translate(-246.961 -87.742)" fill="#4dd0e1"/>
    <path id="Path_204045" data-name="Path 204045" d="M330.9,111.515c1.714,0,2.169-1.576,2.169-3.014,0-1.917-.853-2.867-2.169-2.867s-2.169.951-2.169,2.867c0,1.438.455,3.014,2.169,3.014m0-4.906c.715,0,.983.747.983,1.966,0,1.454-.358,1.966-.983,1.966s-.983-.512-.983-1.966c0-1.219.268-1.966.983-1.966" transform="translate(-273.057 -87.742)" fill="#4dd0e1"/>
    <path id="Path_204046" data-name="Path 204046" d="M369.852,111.515c1.714,0,2.169-1.576,2.169-3.014,0-1.917-.853-2.867-2.169-2.867s-2.169.951-2.169,2.867c0,1.438.455,3.014,2.169,3.014m0-4.906c.715,0,.983.747.983,1.966,0,1.454-.357,1.966-.983,1.966s-.982-.512-.982-1.966c0-1.219.268-1.966.982-1.966" transform="translate(-305.409 -87.742)" fill="#4dd0e1"/>
    <path id="Path_204047" data-name="Path 204047" d="M124.539,161.114c0,1.438.455,3.014,2.169,3.014s2.169-1.576,2.169-3.014c0-1.917-.853-2.868-2.169-2.868s-2.169.951-2.169,2.868m3.152.073c0,1.454-.358,1.966-.983,1.966s-.983-.511-.983-1.966c0-1.219.268-1.966.983-1.966s.983.748.983,1.966" transform="translate(-103.446 -131.444)" fill="#4dd0e1"/>
    <path id="Path_204048" data-name="Path 204048" d="M163.267,164.128c.455,0,.618-.293.618-.715V158.8c0-.439-.212-.552-.472-.552-.69,0-.439.926-1.34,1.121l-.3.065c-.422.081-.585.163-.585.463,0,.333.146.43.414.43h1.048v3.087c0,.423.163.715.617.715" transform="translate(-133.888 -131.444)" fill="#4dd0e1"/>
    <path id="Path_204049" data-name="Path 204049" d="M194.774,164.128c1.714,0,2.169-1.576,2.169-3.014,0-1.917-.853-2.868-2.169-2.868s-2.169.951-2.169,2.868c0,1.438.455,3.014,2.169,3.014m0-4.906c.715,0,.983.747.983,1.966,0,1.454-.357,1.966-.983,1.966s-.983-.512-.983-1.966c0-1.219.268-1.966.983-1.966" transform="translate(-159.984 -131.444)" fill="#4dd0e1"/>
    <path id="Path_204050" data-name="Path 204050" d="M229.668,160.326h1.048v3.087c0,.422.162.714.617.714s.617-.292.617-.714V158.8c0-.439-.211-.552-.471-.552-.691,0-.439.926-1.34,1.121l-.3.066c-.423.081-.585.163-.585.463,0,.333.146.431.414.431" transform="translate(-190.426 -131.444)" fill="#4dd0e1"/>
    <path id="Path_204051" data-name="Path 204051" d="M262.841,164.128c1.714,0,2.169-1.576,2.169-3.014,0-1.917-.853-2.868-2.169-2.868s-2.169.951-2.169,2.868c0,1.438.455,3.014,2.169,3.014m0-4.906c.715,0,.983.747.983,1.966,0,1.454-.357,1.966-.983,1.966s-.983-.512-.983-1.966c0-1.219.269-1.966.983-1.966" transform="translate(-216.522 -131.444)" fill="#4dd0e1"/>
    <path id="Path_204052" data-name="Path 204052" d="M299.617,161.114c0,1.438.455,3.014,2.169,3.014s2.169-1.576,2.169-3.014c0-1.917-.853-2.868-2.169-2.868s-2.169.951-2.169,2.868m3.152.073c0,1.454-.358,1.966-.983,1.966s-.983-.511-.983-1.966c0-1.219.268-1.966.983-1.966s.983.748.983,1.966" transform="translate(-248.871 -131.444)" fill="#4dd0e1"/>
    <path id="Path_204053" data-name="Path 204053" d="M338.567,161.114c0,1.438.455,3.014,2.169,3.014s2.169-1.576,2.169-3.014c0-1.917-.853-2.868-2.169-2.868s-2.169.951-2.169,2.868m3.152.073c0,1.454-.358,1.966-.983,1.966s-.983-.511-.983-1.966c0-1.219.268-1.966.983-1.966s.983.748.983,1.966" transform="translate(-281.224 -131.444)" fill="#4dd0e1"/>
    <path id="Path_204054" data-name="Path 204054" d="M377.294,164.128c.455,0,.617-.293.617-.715V158.8c0-.439-.211-.552-.471-.552-.691,0-.439.926-1.34,1.121l-.3.065c-.423.081-.585.163-.585.463,0,.333.146.43.414.43h1.048v3.087c0,.423.163.715.617.715" transform="translate(-311.665 -131.444)" fill="#4dd0e1"/>
    <path id="Path_204055" data-name="Path 204055" d="M122.653,212.939H123.7v3.087c0,.423.163.715.617.715s.617-.292.617-.715v-4.614c0-.439-.211-.552-.471-.552-.69,0-.439.926-1.34,1.121l-.3.066c-.423.081-.585.162-.585.463,0,.333.146.43.414.43" transform="translate(-101.536 -175.147)" fill="#4dd0e1"/>
    <path id="Path_204056" data-name="Path 204056" d="M155.825,216.741c1.714,0,2.169-1.576,2.169-3.014,0-1.917-.853-2.867-2.169-2.867s-2.169.951-2.169,2.867c0,1.438.455,3.014,2.169,3.014m0-4.907c.715,0,.983.748.983,1.966,0,1.454-.357,1.966-.983,1.966s-.983-.512-.983-1.966c0-1.219.268-1.966.983-1.966" transform="translate(-127.632 -175.146)" fill="#4dd0e1"/>
    <path id="Path_204057" data-name="Path 204057" d="M190.719,212.939h1.048v3.087c0,.423.163.715.617.715s.618-.292.618-.715v-4.614c0-.439-.212-.552-.472-.552-.69,0-.439.926-1.34,1.121l-.3.066c-.422.081-.585.162-.585.463,0,.333.146.43.414.43" transform="translate(-158.073 -175.147)" fill="#4dd0e1"/>
    <path id="Path_204058" data-name="Path 204058" d="M223.891,216.741c1.714,0,2.169-1.576,2.169-3.014,0-1.917-.853-2.867-2.169-2.867s-2.169.951-2.169,2.867c0,1.438.455,3.014,2.169,3.014m0-4.907c.715,0,.983.748.983,1.966,0,1.454-.357,1.966-.983,1.966s-.983-.512-.983-1.966c0-1.219.269-1.966.983-1.966" transform="translate(-184.169 -175.146)" fill="#4dd0e1"/>
    <path id="Path_204059" data-name="Path 204059" d="M262.841,216.741c1.714,0,2.169-1.576,2.169-3.014,0-1.917-.853-2.867-2.169-2.867s-2.169.951-2.169,2.867c0,1.438.455,3.014,2.169,3.014m0-4.907c.715,0,.983.748.983,1.966,0,1.454-.357,1.966-.983,1.966s-.983-.512-.983-1.966c0-1.219.269-1.966.983-1.966" transform="translate(-216.522 -175.146)" fill="#4dd0e1"/>
    <path id="Path_204060" data-name="Path 204060" d="M297.731,212.939h1.048v3.087c0,.423.163.715.618.715s.617-.292.617-.715v-4.614c0-.439-.212-.552-.471-.552-.691,0-.439.926-1.34,1.121l-.3.066c-.422.081-.585.162-.585.463,0,.333.146.43.414.43" transform="translate(-246.961 -175.147)" fill="#4dd0e1"/>
    <path id="Path_204061" data-name="Path 204061" d="M330.9,216.741c1.714,0,2.169-1.576,2.169-3.014,0-1.917-.853-2.867-2.169-2.867s-2.169.951-2.169,2.867c0,1.438.455,3.014,2.169,3.014m0-4.907c.715,0,.983.748.983,1.966,0,1.454-.358,1.966-.983,1.966s-.983-.512-.983-1.966c0-1.219.268-1.966.983-1.966" transform="translate(-273.057 -175.146)" fill="#4dd0e1"/>
    <path id="Path_204062" data-name="Path 204062" d="M369.852,216.741c1.714,0,2.169-1.576,2.169-3.014,0-1.917-.853-2.867-2.169-2.867s-2.169.951-2.169,2.867c0,1.438.455,3.014,2.169,3.014m0-4.907c.715,0,.983.748.983,1.966,0,1.454-.357,1.966-.983,1.966s-.982-.512-.982-1.966c0-1.219.268-1.966.982-1.966" transform="translate(-305.409 -175.146)" fill="#4dd0e1"/>
  </g>
</svg>
