<svg id="_14" data-name="14" xmlns="http://www.w3.org/2000/svg" xmlns:xlink="http://www.w3.org/1999/xlink" width="81.318" height="81.23" viewBox="0 0 81.318 81.23">
  <defs>
    <clipPath id="clip-path">
      <rect id="Rectangle_44876" data-name="Rectangle 44876" width="81.318" height="81.23" fill="none"/>
    </clipPath>
  </defs>
  <g id="Group_146727" data-name="Group 146727" clip-path="url(#clip-path)">
    <path id="Path_202644" data-name="Path 202644" d="M82.278,73.157H11.526A4.048,4.048,0,0,1,7.478,69.11V11.525a4.048,4.048,0,0,1,4.048-4.048H82.278a4.048,4.048,0,0,1,4.048,4.048V69.11a4.048,4.048,0,0,1-4.048,4.048" transform="translate(-6.288 -6.287)" fill="#feca2e"/>
    <path id="Path_202645" data-name="Path 202645" d="M86.325,358.928H7.477v5.7a4.048,4.048,0,0,0,4.048,4.048H82.277a4.048,4.048,0,0,0,4.048-4.048Z" transform="translate(-6.287 -301.81)" fill="#abb3cd"/>
    <path id="Path_202646" data-name="Path 202646" d="M86.881,21.285H8.031V11.525a4.048,4.048,0,0,1,4.047-4.048H82.834a4.048,4.048,0,0,1,4.048,4.048Z" transform="translate(-6.753 -6.287)" fill="#abb3cd"/>
    <rect id="Rectangle_44873" data-name="Rectangle 44873" width="22.057" height="6.648" transform="translate(29.585 66.87)" fill="#abb3cd"/>
    <path id="Path_202647" data-name="Path 202647" d="M173.16,468.51H136.809a.794.794,0,0,1-.793-.793v-2.571a3.158,3.158,0,0,1,3.157-3.157H170.8a3.157,3.157,0,0,1,3.157,3.157v2.571a.793.793,0,0,1-.793.793" transform="translate(-114.371 -388.47)" fill="#abb3cd"/>
    <path id="Path_202648" data-name="Path 202648" d="M338.75,465.148v2.572a.794.794,0,0,1-.793.793h-2.8v-3.366A3.157,3.157,0,0,0,332,461.992h3.594a3.156,3.156,0,0,1,3.156,3.156" transform="translate(-279.167 -388.473)" fill="#8d92a5"/>
    <rect id="Rectangle_44874" data-name="Rectangle 44874" width="25.771" height="4.884" transform="translate(46.929 43.695)" fill="#3da6b4"/>
    <rect id="Rectangle_44875" data-name="Rectangle 44875" width="25.771" height="4.885" transform="translate(46.929 56.664)" fill="#3da6b4"/>
    <path id="Path_202649" data-name="Path 202649" d="M305.451,231.855H275.413a1.151,1.151,0,0,1-1.151-1.15v-5.784a1.151,1.151,0,0,1,1.151-1.151h30.038a1.151,1.151,0,0,1,1.151,1.151V230.7a1.151,1.151,0,0,1-1.151,1.15" transform="translate(-230.617 -188.16)" fill="#4dd0e1"/>
    <path id="Path_202650" data-name="Path 202650" d="M305.451,313.356H275.413a1.151,1.151,0,0,1-1.151-1.15v-5.784a1.151,1.151,0,0,1,1.151-1.151h30.038a1.151,1.151,0,0,1,1.151,1.151v5.784a1.151,1.151,0,0,1-1.151,1.15" transform="translate(-230.617 -256.692)" fill="#4dd0e1"/>
    <path id="Path_202651" data-name="Path 202651" d="M305.451,394.857H275.413a1.151,1.151,0,0,1-1.151-1.15v-5.784a1.151,1.151,0,0,1,1.151-1.151h30.038a1.151,1.151,0,0,1,1.151,1.151v5.784a1.151,1.151,0,0,1-1.151,1.15" transform="translate(-230.617 -325.223)" fill="#4dd0e1"/>
    <path id="Path_202652" data-name="Path 202652" d="M45.291,38.485a2.3,2.3,0,1,1-2.3-2.3,2.3,2.3,0,0,1,2.3,2.3" transform="translate(-34.211 -30.425)" fill="#ff6b81"/>
    <path id="Path_202653" data-name="Path 202653" d="M101.166,38.485a2.3,2.3,0,1,1-2.3-2.3,2.3,2.3,0,0,1,2.3,2.3" transform="translate(-81.195 -30.425)" fill="#ffd86e"/>
    <path id="Path_202654" data-name="Path 202654" d="M157.045,38.485a2.3,2.3,0,1,1-2.3-2.3,2.3,2.3,0,0,1,2.3,2.3" transform="translate(-128.182 -30.425)" fill="#80e0dc"/>
    <path id="Path_202655" data-name="Path 202655" d="M49.066,38.49a2.3,2.3,0,0,1-3.889,1.665,2.3,2.3,0,0,0,1.534-3.966.515.515,0,0,1,.054,0,2.3,2.3,0,0,1,2.3,2.3" transform="translate(-37.988 -30.428)" fill="#ff435f"/>
    <path id="Path_202656" data-name="Path 202656" d="M104.94,38.49a2.3,2.3,0,0,1-3.891,1.665,2.3,2.3,0,0,0,1.536-3.966.474.474,0,0,1,.052,0,2.3,2.3,0,0,1,2.3,2.3" transform="translate(-84.969 -30.428)" fill="#ffb509"/>
    <path id="Path_202657" data-name="Path 202657" d="M160.819,38.49a2.3,2.3,0,0,1-3.891,1.665,2.3,2.3,0,0,0,1.534-3.966.515.515,0,0,1,.054,0,2.3,2.3,0,0,1,2.3,2.3" transform="translate(-131.955 -30.428)" fill="#00a8b0"/>
    <path id="Path_202658" data-name="Path 202658" d="M37.289,136.017a1.19,1.19,0,0,0,1.683-1.683l-2.89-2.89,2.89-2.889a1.19,1.19,0,1,0-1.683-1.683L33.558,130.6a1.19,1.19,0,0,0,0,1.683Z" transform="translate(-27.924 -106.389)"/>
    <path id="Path_202659" data-name="Path 202659" d="M115.949,131.441l-2.89,2.89a1.19,1.19,0,1,0,1.683,1.683l3.732-3.732a1.19,1.19,0,0,0,0-1.683l-3.732-3.732a1.19,1.19,0,0,0-1.683,1.683Z" transform="translate(-94.774 -106.385)"/>
    <path id="Path_202660" data-name="Path 202660" d="M77.024,136.278a1.19,1.19,0,0,0,1.543-.673l2.931-7.463a1.19,1.19,0,1,0-2.215-.87l-2.932,7.463a1.19,1.19,0,0,0,.673,1.543" transform="translate(-64.132 -106.383)"/>
    <path id="Path_202661" data-name="Path 202661" d="M38.632,219.67H46.65a1.19,1.19,0,0,0,0-2.38H38.632a1.19,1.19,0,0,0,0,2.38" transform="translate(-31.484 -182.712)"/>
    <path id="Path_202662" data-name="Path 202662" d="M130.572,217.29h-14.1a1.19,1.19,0,0,0,0,2.38h14.1a1.19,1.19,0,1,0,0-2.38" transform="translate(-96.94 -182.712)"/>
    <path id="Path_202663" data-name="Path 202663" d="M38.632,251.214h3.415a1.19,1.19,0,0,0,0-2.38H38.632a1.19,1.19,0,0,0,0,2.38" transform="translate(-31.484 -209.236)"/>
    <path id="Path_202664" data-name="Path 202664" d="M177.692,248.834a1.19,1.19,0,0,0,0,2.38h2.08a1.19,1.19,0,1,0,0-2.38Z" transform="translate(-148.414 -209.236)"/>
    <path id="Path_202665" data-name="Path 202665" d="M97.742,250.023a1.19,1.19,0,0,0-1.19-1.19H86.336a1.19,1.19,0,0,0,0,2.38H96.552a1.19,1.19,0,0,0,1.19-1.19" transform="translate(-71.596 -209.235)"/>
    <path id="Path_202666" data-name="Path 202666" d="M213.287,250.023a1.19,1.19,0,0,0,1.19,1.19h3.9a1.19,1.19,0,1,0,0-2.38h-3.9a1.19,1.19,0,0,0-1.19,1.19" transform="translate(-179.346 -209.235)"/>
    <path id="Path_202667" data-name="Path 202667" d="M166.266,150.867h4.109a1.19,1.19,0,1,0,0-2.38h-4.109a1.19,1.19,0,1,0,0,2.38" transform="translate(-138.807 -124.858)"/>
    <path id="Path_202668" data-name="Path 202668" d="M221.007,150.867h25.071a1.19,1.19,0,0,0,0-2.38H221.007a1.19,1.19,0,1,0,0,2.38" transform="translate(-184.836 -124.858)"/>
    <path id="Path_202669" data-name="Path 202669" d="M300.964,181.391H290.808a1.19,1.19,0,0,0,0,2.381h10.156a1.19,1.19,0,0,0,0-2.381" transform="translate(-243.53 -152.525)"/>
    <path id="Path_202670" data-name="Path 202670" d="M248.432,181.391h-3.491a1.19,1.19,0,0,0,0,2.381h3.491a1.19,1.19,0,0,0,0-2.381" transform="translate(-204.962 -152.525)"/>
    <path id="Path_202671" data-name="Path 202671" d="M166.266,183.772h8.552a1.19,1.19,0,0,0,0-2.38h-8.552a1.19,1.19,0,1,0,0,2.38" transform="translate(-138.807 -152.526)"/>
    <path id="Path_202672" data-name="Path 202672" d="M108.26,280.113h-8.017a1.19,1.19,0,1,0,0,2.38h8.017a1.19,1.19,0,1,0,0-2.38" transform="translate(-83.289 -235.537)"/>
    <path id="Path_202673" data-name="Path 202673" d="M44.792,280.113H38.633a1.19,1.19,0,0,0,0,2.38h6.159a1.19,1.19,0,1,0,0-2.38" transform="translate(-31.485 -235.537)"/>
    <path id="Path_202674" data-name="Path 202674" d="M186.611,280.113H176.138a1.19,1.19,0,0,0,0,2.38h10.473a1.19,1.19,0,1,0,0-2.38" transform="translate(-147.108 -235.537)"/>
    <path id="Path_202675" data-name="Path 202675" d="M300.691,241.7h-5.727a1.19,1.19,0,0,0,0,2.38h5.727a1.19,1.19,0,0,0,0-2.38" transform="translate(-247.024 -203.233)"/>
    <path id="Path_202676" data-name="Path 202676" d="M393.4,244.076h8.085a1.19,1.19,0,1,0,0-2.381H393.4a1.19,1.19,0,0,0,0,2.381" transform="translate(-329.796 -203.234)"/>
    <path id="Path_202677" data-name="Path 202677" d="M358.205,241.7h-1.852a1.19,1.19,0,1,0,0,2.38h1.852a1.19,1.19,0,0,0,0-2.38" transform="translate(-298.643 -203.233)"/>
    <path id="Path_202678" data-name="Path 202678" d="M294.963,325.577h5.727a1.19,1.19,0,1,0,0-2.38h-5.727a1.19,1.19,0,1,0,0,2.38" transform="translate(-247.024 -271.765)"/>
    <path id="Path_202679" data-name="Path 202679" d="M393.4,325.577h8.085a1.19,1.19,0,1,0,0-2.38H393.4a1.19,1.19,0,1,0,0,2.38" transform="translate(-329.796 -271.765)"/>
    <path id="Path_202680" data-name="Path 202680" d="M356.355,325.577h1.853a1.19,1.19,0,1,0,0-2.38h-1.853a1.19,1.19,0,1,0,0,2.38" transform="translate(-298.646 -271.765)"/>
    <path id="Path_202681" data-name="Path 202681" d="M300.691,404.7h-5.727a1.19,1.19,0,1,0,0,2.38h5.727a1.19,1.19,0,1,0,0-2.38" transform="translate(-247.024 -340.296)"/>
    <path id="Path_202682" data-name="Path 202682" d="M401.485,404.7H393.4a1.19,1.19,0,1,0,0,2.38h8.085a1.19,1.19,0,1,0,0-2.38" transform="translate(-329.796 -340.296)"/>
    <path id="Path_202683" data-name="Path 202683" d="M358.205,404.7h-1.852a1.19,1.19,0,1,0,0,2.38h1.852a1.19,1.19,0,1,0,0-2.38" transform="translate(-298.643 -340.296)"/>
    <path id="Path_202684" data-name="Path 202684" d="M76.081,0H5.238A5.244,5.244,0,0,0,0,5.237V62.822a5.244,5.244,0,0,0,5.238,5.237H9.717a1.19,1.19,0,0,0,0-2.38H5.238A2.861,2.861,0,0,1,2.38,62.822V58.307H45.739v2.051H44.8A2.343,2.343,0,0,0,42.455,62.7v2.98h-25.5a1.19,1.19,0,1,0,0,2.38H28.4v4.268H24.8a4.352,4.352,0,0,0-4.347,4.347v2.571a1.985,1.985,0,0,0,1.983,1.983H58.789a1.985,1.985,0,0,0,1.983-1.983V76.675a4.352,4.352,0,0,0-4.347-4.347H52.832v-1.5h22a2.343,2.343,0,0,0,2.34-2.341v-.56a5.245,5.245,0,0,0,4.054-5.1l.09-57.585A5.242,5.242,0,0,0,76.081,0M44.835,49.769H74.794v5.7H44.835Zm3.284-4.884H71.51v2.5H48.119ZM71.51,60.358H48.119v-2.5H71.51Zm-40.734,7.7H42.455v.424a2.343,2.343,0,0,0,2.341,2.34h5.657v1.5H30.775Zm25.651,6.649a1.969,1.969,0,0,1,1.967,1.967v2.174H22.835V76.675A1.969,1.969,0,0,1,24.8,74.708Zm18.368-6.265H44.835v-5.7H74.794Zm4.054-5.621a2.858,2.858,0,0,1-1.673,2.6V62.7a2.343,2.343,0,0,0-2.341-2.34H73.89V58.307h4.958Zm0-6.895H77.135c.024-.135.039-6.2.039-6.2a2.343,2.343,0,0,0-2.341-2.341H73.89v-2.5h.944a2.344,2.344,0,0,0,2.341-2.341V36.759a2.344,2.344,0,0,0-2.341-2.341H68.112a1.19,1.19,0,0,0,0,2.38h6.682v5.7H44.835V36.8H60.706a1.19,1.19,0,0,0,0-2.38H44.8a2.343,2.343,0,0,0-2.341,2.341v5.784A2.344,2.344,0,0,0,44.8,44.884h.944v2.5H44.8a2.344,2.344,0,0,0-2.341,2.341s.015,6.063.039,6.2H2.38V16.188H78.848Zm0-42.119H2.468V5.236A2.861,2.861,0,0,1,5.326,2.379H75.99a2.861,2.861,0,0,1,2.858,2.858Z" transform="translate(0 0.001)"/>
    <path id="Path_202685" data-name="Path 202685" d="M36.7,28.7A3.493,3.493,0,1,0,40.194,32.2,3.5,3.5,0,0,0,36.7,28.7m0,4.6A1.112,1.112,0,1,1,37.814,32.2,1.114,1.114,0,0,1,36.7,33.31" transform="translate(-27.924 -24.137)"/>
    <path id="Path_202686" data-name="Path 202686" d="M92.577,28.7A3.493,3.493,0,1,0,96.069,32.2,3.5,3.5,0,0,0,92.577,28.7m0,4.6A1.112,1.112,0,1,1,93.689,32.2a1.113,1.113,0,0,1-1.112,1.112" transform="translate(-74.908 -24.137)"/>
    <path id="Path_202687" data-name="Path 202687" d="M148.455,28.7a3.493,3.493,0,1,0,3.493,3.492,3.5,3.5,0,0,0-3.493-3.492m0,4.6a1.112,1.112,0,1,1,1.112-1.112,1.114,1.114,0,0,1-1.112,1.112" transform="translate(-121.894 -24.137)"/>
  </g>
</svg>
