<svg xmlns="http://www.w3.org/2000/svg" xmlns:xlink="http://www.w3.org/1999/xlink" width="503.114" height="237" viewBox="0 0 503.114 237">
  <defs>
    <linearGradient id="linear-gradient" x1="-0.277" y1="-3.449" x2="0.707" y2="1.437" gradientUnits="objectBoundingBox">
      <stop offset="0" stop-color="#ffc444"/>
      <stop offset="0.996" stop-color="#f3593b"/>
    </linearGradient>
    <linearGradient id="linear-gradient-2" y1="0.5" x2="1" y2="0.5" gradientUnits="objectBoundingBox">
      <stop offset="0" stop-color="#13658c"/>
      <stop offset="0.996" stop-color="#06224f"/>
    </linearGradient>
    <linearGradient id="linear-gradient-3" x1="0.49" y1="2.208" x2="0.498" y2="1.016" gradientUnits="objectBoundingBox">
      <stop offset="0.004" stop-color="#40cfe3"/>
      <stop offset="1" stop-color="#54c4f6"/>
    </linearGradient>
    <linearGradient id="linear-gradient-5" x1="0" y1="0.5" x2="1" y2="0.5" xlink:href="#linear-gradient-3"/>
    <linearGradient id="linear-gradient-6" x1="0.25" y1="-0.207" x2="0.716" y2="1.162" xlink:href="#linear-gradient-2"/>
    <linearGradient id="linear-gradient-7" x1="0.394" y1="-6.047" x2="0.816" y2="19.969" xlink:href="#linear-gradient-3"/>
    <linearGradient id="linear-gradient-8" y1="0.5" x2="1" y2="0.5" gradientUnits="objectBoundingBox">
      <stop offset="0" stop-color="#ff5f28"/>
      <stop offset="1" stop-color="#fbe46f"/>
    </linearGradient>
    <linearGradient id="linear-gradient-11" x1="0.255" y1="-16.683" x2="0.687" y2="13.672" xlink:href="#linear-gradient-3"/>
    <linearGradient id="linear-gradient-16" x1="0.079" y1="-22.232" x2="0.392" y2="-5.321" xlink:href="#linear-gradient-3"/>
    <linearGradient id="linear-gradient-22" x1="0.141" y1="-22.92" x2="0.533" y2="2.635" xlink:href="#linear-gradient-3"/>
    <linearGradient id="linear-gradient-26" x1="0.181" y1="-17.686" x2="0.734" y2="13.893" xlink:href="#linear-gradient-3"/>
    <linearGradient id="linear-gradient-27" x1="-6.945" y1="-0.378" x2="-5.627" y2="2.004" gradientUnits="objectBoundingBox">
      <stop offset="0" stop-color="#ffcca5"/>
      <stop offset="0.996" stop-color="#f3d7c5"/>
    </linearGradient>
    <linearGradient id="linear-gradient-28" x1="-26.667" y1="-4.084" x2="-25.616" y2="-2.635" xlink:href="#linear-gradient-2"/>
    <linearGradient id="linear-gradient-29" x1="-88.065" y1="-0.449" x2="-88.065" y2="-1.801" xlink:href="#linear-gradient-27"/>
    <linearGradient id="linear-gradient-30" x1="-34.281" y1="-5.503" x2="-32.948" y2="-3.714" xlink:href="#linear-gradient-2"/>
    <linearGradient id="linear-gradient-31" x1="-18.118" y1="-0.515" x2="-17.023" y2="0.793" xlink:href="#linear-gradient-2"/>
    <linearGradient id="linear-gradient-32" x1="-97.318" y1="1.222" x2="-97.318" y2="-0.193" xlink:href="#linear-gradient-27"/>
    <linearGradient id="linear-gradient-33" x1="-23.011" y1="-1.298" x2="-21.651" y2="0.479" xlink:href="#linear-gradient-2"/>
    <linearGradient id="linear-gradient-34" x1="-7.858" y1="0.884" x2="-7.34" y2="-0.213" xlink:href="#linear-gradient-27"/>
    <linearGradient id="linear-gradient-35" x1="0.49" y1="0.185" x2="0.583" y2="2.5" gradientUnits="objectBoundingBox">
      <stop offset="0" stop-color="#ab5903"/>
      <stop offset="1" stop-color="#794948"/>
    </linearGradient>
    <linearGradient id="linear-gradient-36" x1="-51.833" y1="-2.784" x2="-35.83" y2="10.461" xlink:href="#linear-gradient-27"/>
    <linearGradient id="linear-gradient-37" x1="0.405" y1="-1.347" x2="0.689" y2="4.864" xlink:href="#linear-gradient-35"/>
  </defs>
  <g id="_14" data-name="14" transform="translate(-811.886 -4183)">
    <rect id="BG" width="503.114" height="237" transform="translate(811.886 4183)" fill="#e8e8e8" opacity="0.949"/>
    <g id="Group_171890" data-name="Group 171890" transform="translate(9.832 19)">
      <g id="Group_171889" data-name="Group 171889" transform="translate(56 -13)">
        <ellipse id="Ellipse_5029" data-name="Ellipse 5029" cx="88.026" cy="86.5" rx="88.026" ry="86.5" transform="translate(1000 4209)" fill="#bddcf6" opacity="0.59"/>
        <g id="Group_171888" data-name="Group 171888" transform="translate(1011.168 4222.796)">
          <g id="Group_86894" data-name="Group 86894" transform="translate(-38 0)">
            <path id="Path_140468" data-name="Path 140468" d="M505.276,1638.623l-2.474-.021a19.263,19.263,0,0,0-.874-3.256l2.146-1.216a1.215,1.215,0,0,0,.448-1.666l-2.116-3.685a1.238,1.238,0,0,0-1.677-.47l-2.174,1.224a19.823,19.823,0,0,0-2.386-2.4l1.261-2.158a1.235,1.235,0,0,0-.451-1.683l-3.692-2.178a1.23,1.23,0,0,0-1.69.423l-1.27,2.165a19.737,19.737,0,0,0-3.275-.911v-2.535A1.264,1.264,0,0,0,485.81,1619l-4.306-.073a1.218,1.218,0,0,0-1.25,1.215v2.543a19.5,19.5,0,0,0-3.3.816l-1.286-2.218a1.279,1.279,0,0,0-1.716-.481l-3.767,2.084a1.22,1.22,0,0,0-.462,1.69l1.291,2.219a19.449,19.449,0,0,0-2.444,2.366l-2.236-1.3a1.269,1.269,0,0,0-1.73.433l-2.191,3.7a1.241,1.241,0,0,0,.465,1.707l2.22,1.281a19.042,19.042,0,0,0-.9,3.293l-2.564-.021a1.247,1.247,0,0,0-1.271,1.236v4.306a1.267,1.267,0,0,0,1.271,1.254l2.544.014a19.228,19.228,0,0,0,.89,3.324l-2.187,1.231a1.23,1.23,0,0,0-.465,1.7l2.191,3.729a1.28,1.28,0,0,0,1.73.457l2.171-1.229a19.826,19.826,0,0,0,2.466,2.437l-1.247,2.126a1.23,1.23,0,0,0,.462,1.7l3.767,2.136a1.268,1.268,0,0,0,1.716-.457l1.231-2.107a19.735,19.735,0,0,0,3.359.88v2.432a1.238,1.238,0,0,0,1.25,1.232l4.306-.013a1.243,1.243,0,0,0,1.244-1.236v-2.425a19.529,19.529,0,0,0,3.329-.884l1.216,2.09a1.24,1.24,0,0,0,1.69.447l3.692-2.127a1.225,1.225,0,0,0,.451-1.677l-1.219-2.1a19.424,19.424,0,0,0,2.407-2.4l2.111,1.218a1.228,1.228,0,0,0,1.677-.447l2.116-3.656a1.225,1.225,0,0,0-.448-1.672l-2.114-1.227a19.024,19.024,0,0,0,.861-3.262l2.455.014a1.215,1.215,0,0,0,1.223-1.215v-4.221A1.235,1.235,0,0,0,505.276,1638.623Zm-21.618-9.225a12.636,12.636,0,0,1,12.522,12.552,12.427,12.427,0,0,1-12.522,12.379A12.63,12.63,0,0,1,471,1641.776,12.422,12.422,0,0,1,483.659,1629.4Z" transform="translate(-456.715 -1558.822)" fill="#feca2e"/>
            <g id="Group_86893" data-name="Group 86893" transform="translate(20.274)">
              <path id="Path_140469" data-name="Path 140469" d="M741.587,1273.245l-2.239-.061a16.856,16.856,0,0,0-.791-2.886l1.943-1.033a1.043,1.043,0,0,0,.406-1.46l-1.916-3.289a1.155,1.155,0,0,0-1.519-.447l-1.972,1.038a18.326,18.326,0,0,0-2.166-2.165l1.146-1.88a1.089,1.089,0,0,0-.41-1.495l-3.355-2a1.124,1.124,0,0,0-1.538.339l-1.156,1.887a18.75,18.75,0,0,0-2.986-.873v-2.244a1.169,1.169,0,0,0-1.135-1.136l-3.934-.157a1.068,1.068,0,0,0-1.143,1.05v2.254a18.1,18.1,0,0,0-3.026.654l-1.179-1.995a1.213,1.213,0,0,0-1.575-.463l-3.46,1.771a1.05,1.05,0,0,0-.425,1.491l1.187,2a17.063,17.063,0,0,0-2.247,2.053l-2.059-1.2a1.18,1.18,0,0,0-1.594.351l-2.021,3.248a1.1,1.1,0,0,0,.429,1.528l2.048,1.181a16.22,16.22,0,0,0-.832,2.913l-2.366-.065a1.107,1.107,0,0,0-1.174,1.078v3.835a1.176,1.176,0,0,0,1.174,1.137l2.347.054a16.844,16.844,0,0,0,.821,2.972l-2.017,1.062a1.064,1.064,0,0,0-.429,1.506l2.021,3.35a1.215,1.215,0,0,0,1.594.431l2-1.062a18.373,18.373,0,0,0,2.268,2.2l-1.147,1.872a1.083,1.083,0,0,0,.425,1.513l3.46,1.945a1.175,1.175,0,0,0,1.575-.384l1.129-1.853a18.754,18.754,0,0,0,3.076.824v2.156a1.134,1.134,0,0,0,1.143,1.107l3.934.041a1.1,1.1,0,0,0,1.135-1.079v-2.146a18.066,18.066,0,0,0,3.035-.738l1.107,1.863a1.156,1.156,0,0,0,1.538.416l3.355-1.832a1.056,1.056,0,0,0,.41-1.474l-1.107-1.872a17,17,0,0,0,2.185-2.088l1.914,1.1a1.12,1.12,0,0,0,1.519-.37l1.916-3.193a1.075,1.075,0,0,0-.406-1.48l-1.914-1.114a16.2,16.2,0,0,0,.78-2.863l2.221.051a1.061,1.061,0,0,0,1.106-1.051v-3.718A1.128,1.128,0,0,0,741.587,1273.245Zm-19.652-8.548a11.63,11.63,0,0,1,11.407,11.327,10.943,10.943,0,0,1-11.407,10.752,11.628,11.628,0,0,1-11.6-11.332A10.945,10.945,0,0,1,721.934,1264.7Z" transform="translate(-686.163 -1242.191)" fill="#feca2e"/>
              <g id="Group_86892" data-name="Group 86892">
                <path id="Path_140470" data-name="Path 140470" d="M625.011,1153.228c-19.527-.971-35.772,13.591-35.772,32.55s16.245,34.34,35.772,34.353c18.984.013,33.99-14.58,33.99-32.595S643.994,1154.171,625.011,1153.228Zm0,58.9c-14.807-.1-27.048-11.8-27.048-26.134s12.241-25.42,27.048-24.771c14.492.635,26.017,12.319,26.017,26.108S639.5,1212.227,625.011,1212.132Z" transform="translate(-589.239 -1153.182)" fill="#fff" opacity="0.74"/>
                <g id="Group_86891" data-name="Group 86891" transform="translate(0 0.001)">
                  <path id="Path_140471" data-name="Path 140471" d="M631.9,1503.8l-7.514,3.969a35.593,35.593,0,0,0,12.13,12.338l4.281-7A27.029,27.029,0,0,1,631.9,1503.8Z" transform="translate(-619.846 -1458.552)" fill="#feca2e"/>
                  <path id="Path_140472" data-name="Path 140472" d="M976.018,1208.539l6.983-3.68a35.751,35.751,0,0,0-11.23-10.726l-4.08,6.679A27.237,27.237,0,0,1,976.018,1208.539Z" transform="translate(-918.849 -1188.849)" fill="#feca2e"/>
                  <path id="Path_140473" data-name="Path 140473" d="M644.487,1196.085a25.383,25.383,0,0,1,8.764-7.259l-4.267-7.2a33.347,33.347,0,0,0-12.019,10.088Z" transform="translate(-630.806 -1177.956)" fill="#feca2e"/>
                  <path id="Path_140474" data-name="Path 140474" d="M597.963,1399.764c0-.307.013-.61.024-.914l-8.735-.226q-.013.458-.013.92a32.786,32.786,0,0,0,3.769,15.237l7.546-3.977A24.912,24.912,0,0,1,597.963,1399.764Z" transform="translate(-589.239 -1366.949)" fill="#feca2e"/>
                  <path id="Path_140475" data-name="Path 140475" d="M1051.765,1411.877a24.1,24.1,0,0,1-2.406,10.535l6.958,4.043a31.672,31.672,0,0,0,3.421-14.377q0-.439-.012-.875l-7.984-.207C1051.753,1411.29,1051.765,1411.582,1051.765,1411.877Z" transform="translate(-989.977 -1377.725)" fill="#feca2e" opacity="0.25"/>
                  <path id="Path_140476" data-name="Path 140476" d="M987.258,1509.695a25.025,25.025,0,0,1-8.416,8.833l4.076,6.886a32.928,32.928,0,0,0,11.284-11.693Z" transform="translate(-928.561 -1463.685)" opacity="0.25" fill="url(#linear-gradient)"/>
                  <path id="Path_140477" data-name="Path 140477" d="M1038.753,1290.86a25.171,25.171,0,0,1,3.658,10.815l8,.216a33.021,33.021,0,0,0-4.708-14.7Z" transform="translate(-980.74 -1269.893)" fill="#feca2e"/>
                  <path id="Path_140478" data-name="Path 140478" d="M746.036,1585.841a27.758,27.758,0,0,1-12.663-3.545l-4.267,6.984a36.509,36.509,0,0,0,16.93,4.574Z" transform="translate(-711.055 -1526.917)" fill="#feca2e" opacity="0.25"/>
                  <path id="Path_140479" data-name="Path 140479" d="M884.936,1584.171a26.667,26.667,0,0,1-12.4,3.313v8a35.07,35.07,0,0,0,16.483-4.435Z" transform="translate(-835.971 -1528.55)" fill="#feca2e" opacity="0.25"/>
                  <path id="Path_140480" data-name="Path 140480" d="M745.376,1163.4a26.91,26.91,0,0,1,11.117-2.177v-8.013a35.394,35.394,0,0,0-15.381,2.986Z" transform="translate(-721.512 -1153.192)" fill="#feca2e"/>
                  <path id="Path_140481" data-name="Path 140481" d="M598.736,1284.989a24.048,24.048,0,0,1,3.93-10.971l-7.51-4.354a31.613,31.613,0,0,0-5.175,15.09Z" transform="translate(-589.886 -1254.631)" fill="#feca2e"/>
                  <path id="Path_140482" data-name="Path 140482" d="M872.532,1161.92a27.783,27.783,0,0,1,10.914,3.1l4.093-6.691a36.536,36.536,0,0,0-15.007-4.41Z" transform="translate(-835.971 -1153.823)" fill="#feca2e"/>
                </g>
              </g>
            </g>
            <path id="Path_140483" data-name="Path 140483" d="M451.878,1457.453l-1.092.009a7.85,7.85,0,0,0-.385-1.379l.947-.533a.513.513,0,0,0,.2-.713l-.934-1.553a.552.552,0,0,0-.74-.187l-.959.538a8.362,8.362,0,0,0-1.052-1l.556-.928a.51.51,0,0,0-.2-.712l-1.626-.9a.558.558,0,0,0-.744.193l-.559.93a8.8,8.8,0,0,0-1.441-.361v-1.078a.534.534,0,0,0-.547-.522l-1.892,0a.539.539,0,0,0-.549.526v1.08a8.92,8.92,0,0,0-1.45.373l-.564-.931a.565.565,0,0,0-.753-.19l-1.651.914a.514.514,0,0,0-.2.72l.565.931a8.62,8.62,0,0,0-1.07,1.022l-.979-.533a.572.572,0,0,0-.757.2l-.958,1.584a.512.512,0,0,0,.2.72l.971.527a7.981,7.981,0,0,0-.395,1.4l-1.121.009a.548.548,0,0,0-.556.533v1.825a.536.536,0,0,0,.556.522l1.113-.011a7.858,7.858,0,0,0,.389,1.4l-.957.536a.518.518,0,0,0-.2.724l.958,1.566a.565.565,0,0,0,.757.183l.95-.535a8.381,8.381,0,0,0,1.08,1.018l-.546.91a.509.509,0,0,0,.2.716l1.651.883a.571.571,0,0,0,.753-.2l.54-.9a8.848,8.848,0,0,0,1.474.353v1.033a.527.527,0,0,0,.549.516l1.892-.031a.547.547,0,0,0,.547-.533v-1.03a8.937,8.937,0,0,0,1.464-.4l.535.881a.552.552,0,0,0,.744.18l1.626-.927a.516.516,0,0,0,.2-.716l-.537-.887a8.6,8.6,0,0,0,1.061-1.038l.931.5a.558.558,0,0,0,.74-.2l.934-1.57a.507.507,0,0,0-.2-.709l-.933-.508a7.975,7.975,0,0,0,.38-1.394l1.084-.011a.537.537,0,0,0,.54-.526v-1.8A.525.525,0,0,0,451.878,1457.453Zm-9.522-3.763a5.357,5.357,0,0,1,5.51,5.244,5.479,5.479,0,0,1-5.51,5.346,5.357,5.357,0,0,1-5.555-5.243A5.478,5.478,0,0,1,442.355,1453.69Z" transform="translate(-432.143 -1411.046)" fill="#feca2e"/>
          </g>
          <g id="Group_86899" data-name="Group 86899" transform="translate(23.229 35.939)">
            <g id="Group_86895" data-name="Group 86895" transform="translate(51.097 78.715)">
              <path id="Path_140484" data-name="Path 140484" d="M1041.882,2064.668a5.731,5.731,0,0,1-3.8-4.315l-2.825-13.979-24.162.858-2.974,14.564c-.417,2.039,1.251,4.086,3.171,4.836l10.109,3.955a13.142,13.142,0,0,0,5.91.857l21.364-1.828a1.325,1.325,0,0,0,1.2-1.174c.073-.63.51-1.337-.085-1.535Z" transform="translate(-1008.057 -2045.754)" fill="url(#linear-gradient-2)"/>
              <path id="Path_140485" data-name="Path 140485" d="M1047.618,2059.632a5.681,5.681,0,0,1-3.8-4.26l-2.822-13.8-23.573.848-2.97,14.38a4.207,4.207,0,0,0,2.6,4.775l10.1,3.906a13.271,13.271,0,0,0,5.9.846l21.342-1.8a1.317,1.317,0,0,0,.3-2.563Z" transform="translate(-1013.555 -2041.568)" fill="url(#linear-gradient-3)"/>
            </g>
            <g id="Group_86898" data-name="Group 86898" transform="translate(0 0)">
              <g id="Group_86896" data-name="Group 86896">
                <path id="Path_140486" data-name="Path 140486" d="M616.9,1520.276c-2.62.156-4.764-1.544-4.764-3.79v-80.963c0-2.247,2.144-3.981,4.764-3.868l121.7,8.425c1.924.084,2.956-1.47,2.956.441v68.859a3.737,3.737,0,0,1-3.481,3.673Z" transform="translate(-612.133 -1431.65)" fill="url(#linear-gradient-2)"/>
                <path id="Path_140487" data-name="Path 140487" d="M625.335,1520.276c-2.62.156-4.764-1.544-4.764-3.79v-80.963c0-2.247,2.144-3.981,4.764-3.868l121.173,5.25a3.663,3.663,0,0,1,3.481,3.616v68.859a3.737,3.737,0,0,1-3.481,3.673Z" transform="translate(-619.482 -1431.65)" fill="url(#linear-gradient-5)"/>
                <path id="Path_140488" data-name="Path 140488" d="M761.518,1451.273l-121.173-4.985a2.265,2.265,0,0,0-2.54,2.067v80.756a2.223,2.223,0,0,0,2.54,2.026l121.173-6.958a2,2,0,0,0,1.865-1.963v-69.01A1.955,1.955,0,0,0,761.518,1451.273Z" transform="translate(-634.492 -1444.396)" fill="#d8dee8" opacity="0.3" style="mix-blend-mode: multiply;isolation: isolate"/>
              </g>
              <g id="Group_86897" data-name="Group 86897" transform="translate(4.903 3.146)">
                <path id="Path_140489" data-name="Path 140489" d="M771.344,1526.837l-118.959,5.872a2.006,2.006,0,0,1-2.263-1.844V1457.9a2.035,2.035,0,0,1,2.263-1.871l118.959,4.416a1.764,1.764,0,0,1,1.689,1.748v62.876A1.791,1.791,0,0,1,771.344,1526.837Z" transform="translate(-650.121 -1456.028)" fill="url(#linear-gradient-6)"/>
                <path id="Path_140490" data-name="Path 140490" d="M714.264,1492.876l-27.168-.8v-2.59l27.168.879Z" transform="translate(-682.324 -1485.169)" fill="#fff" opacity="0.6" style="mix-blend-mode: soft-light;isolation: isolate"/>
                <path id="Path_140491" data-name="Path 140491" d="M954.384,1499.888l-6.276-.19v-1.77l6.276.2Z" transform="translate(-909.651 -1492.521)" fill="#fff" opacity="0.36" style="mix-blend-mode: soft-light;isolation: isolate"/>
                <path id="Path_140492" data-name="Path 140492" d="M954.384,1518.922l-6.276-.172v-1.77l6.276.185Z" transform="translate(-909.651 -1509.114)" fill="#fff" opacity="0.36" style="mix-blend-mode: soft-light;isolation: isolate"/>
                <path id="Path_140493" data-name="Path 140493" d="M1074.765,1522.4l-24.348-.666v-1.742l24.348.717Z" transform="translate(-998.756 -1511.738)" fill="url(#linear-gradient-7)"/>
                <path id="Path_140494" data-name="Path 140494" d="M1107.335,1541.945l-24.106-.59v-1.734l24.106.64Z" transform="translate(-1027.333 -1528.833)" opacity="0.5" fill="url(#linear-gradient-8)"/>
                <path id="Path_140495" data-name="Path 140495" d="M1107.335,1560.536l-24.106-.521v-1.733l24.106.571Z" transform="translate(-1027.333 -1545.085)" opacity="0.5" fill="url(#linear-gradient-8)"/>
                <path id="Path_140496" data-name="Path 140496" d="M1107.335,1579.127l-24.106-.451v-1.733l24.106.5Z" transform="translate(-1027.333 -1561.338)" fill="#fff" opacity="0.6" style="mix-blend-mode: soft-light;isolation: isolate"/>
                <path id="Path_140497" data-name="Path 140497" d="M954.384,1537.956l-6.276-.154v-1.77l6.276.167Z" transform="translate(-909.651 -1525.707)" fill="#fff" opacity="0.36" style="mix-blend-mode: soft-light;isolation: isolate"/>
                <path id="Path_140498" data-name="Path 140498" d="M954.384,1556.99l-6.276-.136v-1.77l6.276.148Z" transform="translate(-909.651 -1542.3)" fill="#fff" opacity="0.36" style="mix-blend-mode: soft-light;isolation: isolate"/>
                <path id="Path_140499" data-name="Path 140499" d="M954.384,1576.023l-6.276-.117v-1.77l6.276.13Z" transform="translate(-909.651 -1558.893)" fill="#fff" opacity="0.36" style="mix-blend-mode: soft-light;isolation: isolate"/>
                <path id="Path_140500" data-name="Path 140500" d="M954.384,1595.056l-6.276-.1v-1.77l6.276.112Z" transform="translate(-909.651 -1575.486)" fill="#fff" opacity="0.36" style="mix-blend-mode: soft-light;isolation: isolate"/>
                <path id="Path_140501" data-name="Path 140501" d="M1022.8,1596.245l-15.448-.244v-1.754l15.448.276Z" transform="translate(-961.246 -1576.409)" fill="#fff" opacity="0.6" style="mix-blend-mode: soft-light;isolation: isolate"/>
                <path id="Path_140502" data-name="Path 140502" d="M954.384,1614.09l-6.276-.081v-1.77l6.276.094Z" transform="translate(-909.651 -1592.079)" fill="#fff" opacity="0.36" style="mix-blend-mode: soft-light;isolation: isolate"/>
                <path id="Path_140503" data-name="Path 140503" d="M954.384,1633.123l-6.276-.063v-1.77l6.276.076Z" transform="translate(-909.651 -1608.672)" fill="#fff" opacity="0.36" style="mix-blend-mode: soft-light;isolation: isolate"/>
                <path id="Path_140504" data-name="Path 140504" d="M954.384,1652.157l-6.276-.045v-1.77l6.276.058Z" transform="translate(-909.651 -1625.265)" fill="#fff" opacity="0.36" style="mix-blend-mode: soft-light;isolation: isolate"/>
                <path id="Path_140505" data-name="Path 140505" d="M1067.545,1615.737l-17.127-.221v-1.742l17.127.257Z" transform="translate(-998.756 -1593.415)" opacity="0.5" fill="url(#linear-gradient-8)"/>
                <path id="Path_140506" data-name="Path 140506" d="M1105.02,1634.878l-21.791-.219v-1.733l21.791.264Z" transform="translate(-1027.333 -1610.096)" fill="#fff" opacity="0.6" style="mix-blend-mode: soft-light;isolation: isolate"/>
                <path id="Path_140507" data-name="Path 140507" d="M1105.02,1653.477l-21.791-.156v-1.733l21.791.2Z" transform="translate(-1027.333 -1626.349)" fill="url(#linear-gradient-11)"/>
                <path id="Path_140508" data-name="Path 140508" d="M954.384,1671.191l-6.276-.026v-1.77l6.276.04Z" transform="translate(-909.651 -1641.858)" fill="#fff" opacity="0.36" style="mix-blend-mode: soft-light;isolation: isolate"/>
                <path id="Path_140509" data-name="Path 140509" d="M954.384,1690.224l-6.276-.008v-1.77l6.276.022Z" transform="translate(-909.651 -1658.451)" fill="#fff" opacity="0.36" style="mix-blend-mode: soft-light;isolation: isolate"/>
                <path id="Path_140510" data-name="Path 140510" d="M954.384,1709.258l-6.276.01v-1.77l6.276,0Z" transform="translate(-909.651 -1675.044)" fill="#fff" opacity="0.36" style="mix-blend-mode: soft-light;isolation: isolate"/>
                <path id="Path_140511" data-name="Path 140511" d="M954.384,1728.192l-6.276.028v-1.77l6.276-.015Z" transform="translate(-909.651 -1691.537)" fill="#fff" opacity="0.36" style="mix-blend-mode: soft-light;isolation: isolate"/>
                <path id="Path_140512" data-name="Path 140512" d="M954.384,1747.1l-6.276.046v-1.77l6.276-.033Z" transform="translate(-909.651 -1708.008)" fill="#fff" opacity="0.36" style="mix-blend-mode: soft-light;isolation: isolate"/>
                <path id="Path_140513" data-name="Path 140513" d="M954.384,1766.015l-6.276.064v-1.77l6.276-.051Z" transform="translate(-909.651 -1724.478)" fill="#fff" opacity="0.36" style="mix-blend-mode: soft-light;isolation: isolate"/>
                <path id="Path_140514" data-name="Path 140514" d="M954.384,1784.926l-6.276.082v-1.77l6.276-.069Z" transform="translate(-909.651 -1740.949)" fill="#fff" opacity="0.36" style="mix-blend-mode: soft-light;isolation: isolate"/>
                <path id="Path_140515" data-name="Path 140515" d="M954.384,1803.837l-6.276.1v-1.77l6.276-.087Z" transform="translate(-909.651 -1757.42)" fill="#fff" opacity="0.36" style="mix-blend-mode: soft-light;isolation: isolate"/>
                <path id="Path_140516" data-name="Path 140516" d="M954.384,1822.748l-6.276.119v-1.77l6.276-.106Z" transform="translate(-909.651 -1773.89)" fill="#fff" opacity="0.36" style="mix-blend-mode: soft-light;isolation: isolate"/>
                <path id="Path_140517" data-name="Path 140517" d="M954.384,1841.659l-6.276.137v-1.77l6.276-.124Z" transform="translate(-909.651 -1790.36)" fill="#fff" opacity="0.36" style="mix-blend-mode: soft-light;isolation: isolate"/>
                <path id="Path_140518" data-name="Path 140518" d="M954.384,1860.57l-6.276.155v-1.77l6.276-.142Z" transform="translate(-909.651 -1806.831)" fill="#fff" opacity="0.36" style="mix-blend-mode: soft-light;isolation: isolate"/>
                <path id="Path_140519" data-name="Path 140519" d="M954.384,1879.482l-6.276.173v-1.77l6.276-.16Z" transform="translate(-909.651 -1823.302)" fill="#fff" opacity="0.36" style="mix-blend-mode: soft-light;isolation: isolate"/>
                <path id="Path_140520" data-name="Path 140520" d="M954.384,1898.393l-6.276.191v-1.77l6.276-.178Z" transform="translate(-909.651 -1839.772)" fill="#fff" opacity="0.36" style="mix-blend-mode: soft-light;isolation: isolate"/>
                <path id="Path_140521" data-name="Path 140521" d="M954.384,1917.3l-6.276.209v-1.77l6.276-.2Z" transform="translate(-909.651 -1856.243)" fill="#fff" opacity="0.36" style="mix-blend-mode: soft-light;isolation: isolate"/>
                <path id="Path_140522" data-name="Path 140522" d="M954.384,1936.215l-6.276.228v-1.77l6.276-.214Z" transform="translate(-909.651 -1872.713)" fill="#fff" opacity="0.36" style="mix-blend-mode: soft-light;isolation: isolate"/>
                <path id="Path_140523" data-name="Path 140523" d="M954.384,1955.126l-6.276.246v-1.77l6.276-.232Z" transform="translate(-909.651 -1889.184)" fill="#fff" opacity="0.36" style="mix-blend-mode: soft-light;isolation: isolate"/>
                <path id="Path_140524" data-name="Path 140524" d="M954.384,1974.037l-6.276.264v-1.77l6.276-.251Z" transform="translate(-909.651 -1905.654)" fill="#fff" opacity="0.36" style="mix-blend-mode: soft-light;isolation: isolate"/>
                <path id="Path_140525" data-name="Path 140525" d="M954.384,1992.948l-6.276.282v-1.77l6.276-.269Z" transform="translate(-909.651 -1922.125)" fill="#fff" opacity="0.36" style="mix-blend-mode: soft-light;isolation: isolate"/>
                <path id="Path_140526" data-name="Path 140526" d="M1024.135,1502.106l-17.116-.518v-1.754l17.116.553Z" transform="translate(-960.958 -1494.181)" opacity="0.5" fill="url(#linear-gradient-8)"/>
                <path id="Path_140527" data-name="Path 140527" d="M1074.765,1891.452l-24.348.741v-1.742l24.348-.691Z" transform="translate(-998.756 -1833.784)" fill="#fff" opacity="0.6" style="mix-blend-mode: soft-light;isolation: isolate"/>
                <path id="Path_140528" data-name="Path 140528" d="M1107.335,1908.688l-24.106.8v-1.733l24.106-.754Z" transform="translate(-1027.333 -1848.802)" opacity="0.5" fill="url(#linear-gradient-8)"/>
                <path id="Path_140529" data-name="Path 140529" d="M1107.335,1926.808l-24.106.874v-1.734l24.106-.823Z" transform="translate(-1027.333 -1864.585)" opacity="0.5" fill="url(#linear-gradient-8)"/>
                <path id="Path_140530" data-name="Path 140530" d="M1192.037,1941.927l-23.482.919v-1.711l23.482-.87Z" transform="translate(-1101.647 -1877.77)" opacity="0.5" fill="url(#linear-gradient-8)"/>
                <path id="Path_140531" data-name="Path 140531" d="M1192.037,1959.815l-23.482.987v-1.71l23.482-.938Z" transform="translate(-1101.647 -1893.35)" fill="url(#linear-gradient-16)"/>
                <path id="Path_140532" data-name="Path 140532" d="M1192.037,1977.7l-23.482,1.055v-1.711l23.482-1.006Z" transform="translate(-1101.647 -1908.929)" fill="#fff" opacity="0.6" style="mix-blend-mode: soft-light;isolation: isolate"/>
                <path id="Path_140533" data-name="Path 140533" d="M1024.135,1875.8l-17.116.472v-1.754l17.116-.436Z" transform="translate(-960.958 -1820.13)" opacity="0.5" fill="url(#linear-gradient-8)"/>
                <path id="Path_140534" data-name="Path 140534" d="M1074.765,1690.573l-24.348-.033V1688.8l24.348.083Z" transform="translate(-998.756 -1658.757)" opacity="0.5" fill="url(#linear-gradient-8)"/>
                <path id="Path_140535" data-name="Path 140535" d="M1107.335,1709.267l-24.106.037v-1.733l24.106.013Z" transform="translate(-1027.333 -1675.107)" fill="#fff" opacity="0.6" style="mix-blend-mode: soft-light;isolation: isolate"/>
                <path id="Path_140536" data-name="Path 140536" d="M1107.335,1727.476l-24.106.107v-1.733l24.106-.057Z" transform="translate(-1027.333 -1690.978)" opacity="0.5" fill="url(#linear-gradient-8)"/>
                <path id="Path_140537" data-name="Path 140537" d="M1107.335,1745.6l-24.106.176v-1.733l24.106-.126Z" transform="translate(-1027.333 -1706.76)" opacity="0.5" fill="url(#linear-gradient-8)"/>
                <path id="Path_140538" data-name="Path 140538" d="M1022.8,1764.92l-15.448.158v-1.754l15.448-.126Z" transform="translate(-961.246 -1723.555)" opacity="0.5" fill="url(#linear-gradient-8)"/>
                <path id="Path_140539" data-name="Path 140539" d="M1067.545,1782.821l-17.127.224V1781.3l17.127-.189Z" transform="translate(-998.756 -1739.159)" fill="#fff" opacity="0.6" style="mix-blend-mode: soft-light;isolation: isolate"/>
                <path id="Path_140540" data-name="Path 140540" d="M1105.02,1800.215l-21.791.349v-1.734l21.791-.3Z" transform="translate(-1027.333 -1754.325)" fill="url(#linear-gradient-22)"/>
                <path id="Path_140541" data-name="Path 140541" d="M1105.02,1818.388l-21.791.412v-1.733l21.791-.366Z" transform="translate(-1027.333 -1770.153)" opacity="0.5" fill="url(#linear-gradient-8)"/>
                <path id="Path_140542" data-name="Path 140542" d="M1144.22,1835.814l-21.528.469v-1.723l21.528-.424Z" transform="translate(-1061.703 -1785.338)" opacity="0.5" fill="url(#linear-gradient-8)"/>
                <path id="Path_140543" data-name="Path 140543" d="M1144.22,1853.878l-21.528.531v-1.723l21.528-.486Z" transform="translate(-1061.703 -1801.071)" opacity="0.5" fill="url(#linear-gradient-8)"/>
                <path id="Path_140544" data-name="Path 140544" d="M1024.135,1671.594l-17.116-.073v-1.754l17.116.108Z" transform="translate(-960.958 -1642.182)" fill="url(#linear-gradient-26)"/>
                <path id="Path_140545" data-name="Path 140545" d="M792.663,1526.289l-15.55-.386v-2.556l15.55.432Z" transform="translate(-760.724 -1514.659)" fill="#fff" style="mix-blend-mode: soft-light;isolation: isolate"/>
                <path id="Path_140546" data-name="Path 140546" d="M745.949,1525.049l2.929.073v-2.559l-2.929-.081Z" transform="translate(-733.581 -1513.905)" fill="#fff" opacity="0.6" style="mix-blend-mode: soft-light;isolation: isolate"/>
                <path id="Path_140547" data-name="Path 140547" d="M792.663,1554.7l-15.55-.321v-2.556l15.55.366Z" transform="translate(-760.724 -1539.456)" fill="#fff" opacity="0.6" style="mix-blend-mode: soft-light;isolation: isolate"/>
                <path id="Path_140548" data-name="Path 140548" d="M745.949,1553.652l2.929.061v-2.559l-2.929-.069Z" transform="translate(-733.581 -1538.817)" fill="#fff" opacity="0.6" style="mix-blend-mode: soft-light;isolation: isolate"/>
                <path id="Path_140549" data-name="Path 140549" d="M792.663,1583.1l-15.55-.255v-2.556l15.55.3Z" transform="translate(-760.724 -1564.254)" fill="#fff" opacity="0.6" style="mix-blend-mode: soft-light;isolation: isolate"/>
                <path id="Path_140550" data-name="Path 140550" d="M745.949,1582.256l2.929.048v-2.559l-2.929-.057Z" transform="translate(-733.581 -1563.729)" fill="#fff" opacity="0.6" style="mix-blend-mode: soft-light;isolation: isolate"/>
                <path id="Path_140551" data-name="Path 140551" d="M714.264,1783.633,687.1,1784v-2.59l27.168-.287Z" transform="translate(-682.324 -1739.166)" fill="#fff" style="mix-blend-mode: soft-light;isolation: isolate"/>
                <path id="Path_140552" data-name="Path 140552" d="M792.663,1814.03l-15.55.281v-2.556l15.55-.235Z" transform="translate(-760.724 -1765.64)" fill="#fff" opacity="0.6" style="mix-blend-mode: soft-light;isolation: isolate"/>
                <path id="Path_140553" data-name="Path 140553" d="M745.949,1816.082l2.929-.053v-2.56l-2.929.045Z" transform="translate(-733.581 -1767.339)" fill="#fff" opacity="0.6" style="mix-blend-mode: soft-light;isolation: isolate"/>
                <path id="Path_140554" data-name="Path 140554" d="M792.663,1841.994l-15.55.346v-2.556l15.55-.3Z" transform="translate(-760.724 -1789.995)" fill="#fff" opacity="0.6" style="mix-blend-mode: soft-light;isolation: isolate"/>
                <path id="Path_140555" data-name="Path 140555" d="M745.949,1844.6l2.929-.065v-2.559l-2.929.057Z" transform="translate(-733.581 -1792.167)" fill="#fff" opacity="0.6" style="mix-blend-mode: soft-light;isolation: isolate"/>
                <path id="Path_140556" data-name="Path 140556" d="M792.663,1869.959l-15.55.412v-2.556l15.55-.366Z" transform="translate(-760.724 -1814.351)" fill="#fff" opacity="0.6" style="mix-blend-mode: soft-light;isolation: isolate"/>
                <path id="Path_140557" data-name="Path 140557" d="M745.949,1873.122l2.929-.077v-2.56l-2.929.069Z" transform="translate(-733.581 -1816.996)" fill="#fff" opacity="0.6" style="mix-blend-mode: soft-light;isolation: isolate"/>
                <path id="Path_140558" data-name="Path 140558" d="M714.264,1610.517l-27.168-.331v-2.59l27.168.41Z" transform="translate(-682.324 -1588.035)" fill="#fff" style="mix-blend-mode: soft-light;isolation: isolate"/>
                <path id="Path_140559" data-name="Path 140559" d="M792.663,1642.578l-15.55-.118V1639.9l15.55.164Z" transform="translate(-760.724 -1616.173)" fill="#fff" opacity="0.6" style="mix-blend-mode: soft-light;isolation: isolate"/>
                <path id="Path_140560" data-name="Path 140560" d="M745.949,1642.144l2.929.022v-2.559l-2.929-.031Z" transform="translate(-733.581 -1615.887)" fill="#fff" opacity="0.6" style="mix-blend-mode: soft-light;isolation: isolate"/>
                <path id="Path_140561" data-name="Path 140561" d="M792.663,1670.985l-15.55-.052v-2.556l15.55.1Z" transform="translate(-760.724 -1640.971)" fill="#fff" opacity="0.6" style="mix-blend-mode: soft-light;isolation: isolate"/>
                <path id="Path_140562" data-name="Path 140562" d="M745.949,1670.747l2.929.01V1668.2l-2.929-.018Z" transform="translate(-733.581 -1640.8)" fill="#fff" opacity="0.6" style="mix-blend-mode: soft-light;isolation: isolate"/>
                <path id="Path_140563" data-name="Path 140563" d="M792.663,1727.94l-15.55.079v-2.556l15.55-.034Z" transform="translate(-760.724 -1690.661)" fill="#fff" opacity="0.6" style="mix-blend-mode: soft-light;isolation: isolate"/>
                <path id="Path_140564" data-name="Path 140564" d="M745.949,1728.283l2.929-.015v-2.559l-2.929.006Z" transform="translate(-733.581 -1690.904)" fill="#fff" opacity="0.6" style="mix-blend-mode: soft-light;isolation: isolate"/>
                <path id="Path_140565" data-name="Path 140565" d="M792.663,1755.9l-15.55.145v-2.556l15.55-.1Z" transform="translate(-760.724 -1715.017)" fill="#fff" opacity="0.6" style="mix-blend-mode: soft-light;isolation: isolate"/>
                <path id="Path_140566" data-name="Path 140566" d="M745.949,1756.8l2.929-.027v-2.56l-2.929.019Z" transform="translate(-733.581 -1715.733)" fill="#fff" opacity="0.6" style="mix-blend-mode: soft-light;isolation: isolate"/>
                <path id="Path_140567" data-name="Path 140567" d="M792.663,1699.392l-15.55.013v-2.556l15.55.033Z" transform="translate(-760.724 -1665.768)" fill="#fff" opacity="0.6" style="mix-blend-mode: soft-light;isolation: isolate"/>
                <path id="Path_140568" data-name="Path 140568" d="M745.949,1699.351l2.929,0v-2.559l-2.929-.006Z" transform="translate(-733.581 -1665.711)" fill="#fff" opacity="0.6" style="mix-blend-mode: soft-light;isolation: isolate"/>
                <path id="Path_140569" data-name="Path 140569" d="M714.264,1897.914l-27.168.834v-2.59l27.168-.754Z" transform="translate(-682.324 -1838.698)" fill="#fff" style="mix-blend-mode: soft-light;isolation: isolate"/>
                <path id="Path_140570" data-name="Path 140570" d="M792.663,1928.311l-15.55.549V1926.3l15.55-.5Z" transform="translate(-760.724 -1865.172)" fill="#fff" opacity="0.6" style="mix-blend-mode: soft-light;isolation: isolate"/>
                <path id="Path_140571" data-name="Path 140571" d="M745.949,1932.633l2.929-.1v-2.56l-2.929.095Z" transform="translate(-733.581 -1868.804)" fill="#fff" opacity="0.6" style="mix-blend-mode: soft-light;isolation: isolate"/>
                <path id="Path_140572" data-name="Path 140572" d="M792.663,1956.276l-15.55.614v-2.556l15.55-.569Z" transform="translate(-760.724 -1889.528)" fill="#fff" opacity="0.6" style="mix-blend-mode: soft-light;isolation: isolate"/>
                <path id="Path_140573" data-name="Path 140573" d="M745.949,1961.153l2.929-.115v-2.559l-2.929.107Z" transform="translate(-733.581 -1893.633)" fill="#fff" opacity="0.6" style="mix-blend-mode: soft-light;isolation: isolate"/>
                <path id="Path_140574" data-name="Path 140574" d="M792.663,1984.24l-15.55.68v-2.556l15.55-.634Z" transform="translate(-760.724 -1913.884)" fill="#fff" opacity="0.6" style="mix-blend-mode: soft-light;isolation: isolate"/>
                <path id="Path_140575" data-name="Path 140575" d="M745.949,1989.673l2.929-.128v-2.559l-2.929.119Z" transform="translate(-733.581 -1918.462)" fill="#fff" opacity="0.6" style="mix-blend-mode: soft-light;isolation: isolate"/>
                <path id="Path_140576" data-name="Path 140576" d="M919.146,1561.913l-.6.026v-64.967l.6.019Z" transform="translate(-883.905 -1491.688)" fill="#fff" opacity="0.6" style="mix-blend-mode: soft-light;isolation: isolate"/>
              </g>
              <path id="Path_140577" data-name="Path 140577" d="M733.858,1508.042c-26.378.552-32.309,4.318-39.8-.2-10.3-6.2-5.609-17.232-15.643-23.018-12.616-7.274-27.161,6.048-33.745-.447-6.557-6.468,5.83-21.692-1.341-38.661a33.989,33.989,0,0,0-11.162-13.769l-6.828-.3c-2.62-.114-4.764,1.621-4.764,3.867v80.964c0,2.246,2.143,3.946,4.764,3.79l121.173-7.224a3.737,3.737,0,0,0,3.481-3.672v-1.224C746.357,1508.028,740.732,1507.9,733.858,1508.042Z" transform="translate(-619.482 -1431.651)" fill="#fff" opacity="0.6" style="mix-blend-mode: soft-light;isolation: isolate"/>
            </g>
          </g>
          <g id="Group_86902" data-name="Group 86902" transform="translate(120.131 46.951)">
            <g id="Group_86901" data-name="Group 86901" transform="translate(0)">
              <path id="Path_140578" data-name="Path 140578" d="M1183.793,1692.727l-1.7-1.855a6.3,6.3,0,0,0-1.512-1.3c-1.368-.839-3.25-1.25-3.532-.771-.32.543,1.468,2.153,2.077,2.684l2.522,1.832Z" transform="translate(-1177.011 -1666.446)" fill="url(#linear-gradient-27)"/>
              <path id="Path_140579" data-name="Path 140579" d="M1420.787,1622.926c.462.175,7.5,2.975,8.951,10.325.117.594,1.248,6.908-3.034,11.369-4.8,5-14.048,4.878-17.718.7a7.5,7.5,0,0,1-1.56-2.964h0l.967-2.569a6.3,6.3,0,0,1,3.645-1.973c2.115-.521,3.712.421,4.924-.6a3.189,3.189,0,0,0,.922-2.1c.405-2.471-.99-3.993-1.091-5.517-.076-1.139-.475-3.636,1.012-5.264A4.8,4.8,0,0,1,1420.787,1622.926Z" transform="translate(-1377.688 -1609.253)" fill="#feca2e"/>
              <path id="Path_140580" data-name="Path 140580" d="M1532.2,2253.811c.082-.453,1.544-.862,2.267-.256.359.3.606.911.4,1.187-.076.1.234.276-.063.28C1533.818,2255.032,1532.117,2254.26,1532.2,2253.811Z" transform="translate(-1486.357 -2158.229)" fill="url(#linear-gradient-28)"/>
              <path id="Path_140581" data-name="Path 140581" d="M1539.614,2233.768l1.5-.213c-.7-.838-.567-3.507-.567-3.507l-1.6.356s.182.733.491,1.814A7.074,7.074,0,0,1,1539.614,2233.768Z" transform="translate(-1492.24 -2138.021)" fill="url(#linear-gradient-29)"/>
              <path id="Path_140582" data-name="Path 140582" d="M1542.878,2256.063s1.809-.417,2-.058.348,1.32-.8,1.289S1542.776,2256.368,1542.878,2256.063Z" transform="translate(-1495.637 -2160.501)" fill="url(#linear-gradient-30)"/>
              <path id="Path_140583" data-name="Path 140583" d="M1372.39,2268.069c.145-.437,1.649-.638,2.28.063.314.348.473.987.229,1.23-.089.089.193.307-.1.269C1373.821,2269.5,1372.246,2268.5,1372.39,2268.069Z" transform="translate(-1347.167 -2170.789)" fill="url(#linear-gradient-31)"/>
              <path id="Path_140584" data-name="Path 140584" d="M1382.772,2249.694h1.518c-.572-.927-.071-3.552-.071-3.552l-1.632.129s.078.751.233,1.865A7.085,7.085,0,0,1,1382.772,2249.694Z" transform="translate(-1356.056 -2152.037)" fill="url(#linear-gradient-32)"/>
              <path id="Path_140585" data-name="Path 140585" d="M1334.3,1820.653a70.213,70.213,0,0,0-2.354,10.77c-1.843,13.409,2.075,13.837,1.343,28.7-.234,4.743,4.109,15.681,4.492,15.922a4.691,4.691,0,0,0,.6.024,5.97,5.97,0,0,0,1.53-.255c.688-.118,3.168-6.837,2.593-10.831-.407-2.827-.289-5.861-.053-11.928.038-.983,2.554-19.128,2.554-19.128h0c.765,6.716,1.645,12.423,2.408,16.848,2.451,14.215,10.421,22.819,10.836,22.957a1.686,1.686,0,0,0,1.441-.1.993.993,0,0,0,.365-.411c.214-.167-.063-14.192-2.494-24.748-3.528-15.321-1.992-18.906-3.11-25.749C1353.488,1816.8,1334.3,1820.653,1334.3,1820.653Z" transform="translate(-1311.519 -1780.388)" fill="#0f2771"/>
              <path id="Path_140586" data-name="Path 140586" d="M1356.637,1612.484c-2.343-.069-7.727-.9-10.693,1.773-.052.046.556.371.257.721a19.424,19.424,0,0,0-2.094,3,20.2,20.2,0,0,0-1.76,4.353,37.386,37.386,0,0,0-1.389,7.595c-.542,7.13,0,10.419.483,12.656a24.675,24.675,0,0,0,14.078,2.067,21.965,21.965,0,0,0,7.018-2.312c-1.687-5.109-.363-7.843.261-10.363.89-3.593.905-3.321,1.638-6.176,1.21-4.709,1.408-9.522.577-10.506C1362.773,1612.642,1358.734,1612.546,1356.637,1612.484Z" transform="translate(-1319.602 -1600.007)" fill="#feca2e"/>
              <path id="Path_140587" data-name="Path 140587" d="M1382.794,2271.879s1.85-.16,1.993.223.159,1.356-.973,1.164S1382.65,2272.167,1382.794,2271.879Z" transform="translate(-1356.183 -2174.425)" fill="url(#linear-gradient-33)"/>
              <g id="Group_86900" data-name="Group 86900" transform="translate(28.996)">
                <path id="Path_140588" data-name="Path 140588" d="M1403.13,1555.941a4.073,4.073,0,0,1-.329-2.931c.305-1.268.419-1.46.654-1.729l.333-.352.043-.03a4.767,4.767,0,0,1,1.282-.427c.6-.03,1.808,2.107,2.5,5.4q.085.177.168.356c.344.747.64,1.482.893,2.2,4.026.34,4.585.813,4.6,1.086.038.574-2.256,1.238-3.982,1.49-3.763.551-7.631-.442-7.613-1.143.008-.305.755-.7,3.945-1.121q-.112-.792-.224-1.584A3.588,3.588,0,0,1,1403.13,1555.941Z" transform="translate(-1401.684 -1546.149)" fill="url(#linear-gradient-34)"/>
                <path id="Path_140589" data-name="Path 140589" d="M1406.167,1521.15a3.91,3.91,0,0,0,1.319,2.061,1.725,1.725,0,0,1,.47.3.526.526,0,0,1,.089.1c.39.575-.42,1.59-.15,1.822.2.168.808-.29.936-.134s-.355.645-.215.822c.106.134.42-.1.7.075.141.086.133.186.344.508a3.283,3.283,0,0,0,.374.478c.5.5,1.547.451,1.674.165.035-.08-.025-.123-.03-.359a1.829,1.829,0,0,1,.075-.493,4.75,4.75,0,0,1,.941-1.255,3.372,3.372,0,0,0,.866-1.747c.008-.075.012-.13.013-.171a3.869,3.869,0,0,0-.76-2.475c-.857-.973-1.975-.1-3.3-.941-1.531-.965-1.29-2.907-1.987-2.929C1406.759,1516.957,1405.666,1519.292,1406.167,1521.15Z" transform="translate(-1405.478 -1516.981)" fill="url(#linear-gradient-35)"/>
                <path id="Path_140590" data-name="Path 140590" d="M1421.68,1578.454c.156-.4.674-.2.793.236a.827.827,0,0,1-.619,1.03C1421.42,1579.743,1421.47,1579,1421.68,1578.454Z" transform="translate(-1418.963 -1570.33)" fill="url(#linear-gradient-36)"/>
              </g>
              <path id="Path_140591" data-name="Path 140591" d="M1503.021,1732.975a.054.054,0,0,1-.054-.049,14.252,14.252,0,0,1,.7-5.947c.112-.392.218-.763.31-1.134.506-2.042.728-2.83.962-3.665.152-.542.31-1.1.554-2.039a.055.055,0,1,1,.106.028c-.244.937-.4,1.5-.554,2.04-.234.834-.455,1.621-.961,3.662-.093.372-.2.744-.311,1.138a14.161,14.161,0,0,0-.7,5.9.055.055,0,0,1-.048.06Z" transform="translate(-1460.831 -1693.887)" fill="#4d309b"/>
              <path id="Path_140592" data-name="Path 140592" d="M1409.563,1573.834l-.374.9s-.374,1.076-.867.672c-.4-.329-.477-.3-.49-.278,0,0,0,.009,0,.009s-.011-.215-.015-.4a3.465,3.465,0,0,0-.209,1.181,1.924,1.924,0,0,0,.389,1.434,1.476,1.476,0,0,0,1.016.433,3.9,3.9,0,0,0,1.076-.4,5.2,5.2,0,0,1-1.225-.613c-.162-.447.406-.864.628-1.928A3.9,3.9,0,0,0,1409.563,1573.834Z" transform="translate(-1377.845 -1566.497)" fill="url(#linear-gradient-37)"/>
              <path id="Path_140593" data-name="Path 140593" d="M1211.9,1636.417a4.693,4.693,0,0,0-1.537,1.912,14.2,14.2,0,0,0,4.959,6.177,14.6,14.6,0,0,0,16.719-.35c5.849-4.469,6.827-13.038,4.37-16.708a4.094,4.094,0,0,0-2.656-1.971c-.912-.1-2.152.276-4.113,2.571-4.085,4.783-2.642,7.769-5.055,9.168C1220.965,1639.314,1215.587,1633.835,1211.9,1636.417Z" transform="translate(-1206.056 -1611.462)" fill="#feca2e"/>
              <path id="Path_140594" data-name="Path 140594" d="M1349.491,1728.437a.054.054,0,0,1-.011-.108c.057-.012,5.732-1.32,8.288-8.37a.055.055,0,1,1,.1.037,13.958,13.958,0,0,1-5.158,6.915,10.2,10.2,0,0,1-3.209,1.525Z" transform="translate(-1327.184 -1693.732)" fill="#4d309b"/>
            </g>
          </g>
        </g>
      </g>
    </g>
  </g>
</svg>
