<svg xmlns="http://www.w3.org/2000/svg" width="62.188" height="62.44" viewBox="0 0 62.188 62.44">
  <g id="_15" data-name="15" transform="translate(-216.162 -215.999)">
    <path id="Path_196685" data-name="Path 196685" d="M255.9,264.059l.319-2.665a9.88,9.88,0,0,0,2.52-1.458l2.469,1.057a2.06,2.06,0,0,0,2.6-.863l1.3-2.25a2.062,2.062,0,0,0-.549-2.679h0l-2.149-1.609a10.07,10.07,0,0,0,0-2.911l2.149-1.609a2.059,2.059,0,0,0,.55-2.679l-1.3-2.249a2.06,2.06,0,0,0-2.594-.864l-2.469,1.058a9.879,9.879,0,0,0-2.52-1.458l-.319-2.665a2.06,2.06,0,0,0-2.045-1.815h-2.6a2.062,2.062,0,0,0-2.045,1.815l-.318,2.665a9.847,9.847,0,0,0-2.521,1.458l-2.469-1.058a2.061,2.061,0,0,0-2.594.863l-1.3,2.25a2.059,2.059,0,0,0,.549,2.678l2.15,1.609a10.035,10.035,0,0,0,0,2.911l-2.151,1.61a2.06,2.06,0,0,0-.549,2.678l1.3,2.252a2.062,2.062,0,0,0,2.594.862l2.469-1.058a9.825,9.825,0,0,0,2.521,1.458l.318,2.667a2.061,2.061,0,0,0,2.045,1.812h2.6a2.059,2.059,0,0,0,2.045-1.813Zm-4.873-.218-.385-3.224a.915.915,0,0,0-.623-.761,8.057,8.057,0,0,1-2.879-1.665.915.915,0,0,0-.61-.233.905.905,0,0,0-.36.073l-2.987,1.279a.232.232,0,0,1-.29-.1l-1.3-2.252a.23.23,0,0,1,.061-.3l2.6-1.947a.914.914,0,0,0,.347-.919,8.2,8.2,0,0,1,0-3.328.916.916,0,0,0-.348-.919l-2.6-1.947a.23.23,0,0,1-.06-.3l1.3-2.25a.231.231,0,0,1,.29-.1l2.987,1.279a.917.917,0,0,0,.97-.159,8.057,8.057,0,0,1,2.879-1.665.915.915,0,0,0,.623-.761l.385-3.223a.232.232,0,0,1,.229-.2h2.6a.231.231,0,0,1,.229.2l.386,3.225a.913.913,0,0,0,.622.759,8.068,8.068,0,0,1,2.878,1.666.917.917,0,0,0,.97.159l2.988-1.279a.229.229,0,0,1,.29.1l1.3,2.249a.23.23,0,0,1-.061.3l-2.6,1.947a.915.915,0,0,0-.347.919,8.185,8.185,0,0,1,0,3.328.916.916,0,0,0,.347.919l2.6,1.947a.23.23,0,0,1,.062.3l-1.3,2.25a.229.229,0,0,1-.29.1l-2.988-1.279a.915.915,0,0,0-.97.159,8.065,8.065,0,0,1-2.878,1.665.914.914,0,0,0-.622.76l-.386,3.225a.23.23,0,0,1-.229.2h-2.6a.231.231,0,0,1-.229-.2Z" transform="translate(-5.174 -4.917)" fill="#4dd0e1"/>
    <path id="Path_196686" data-name="Path 196686" d="M260.2,254.418a5.625,5.625,0,1,0-5.623,5.625A5.631,5.631,0,0,0,260.2,254.418Zm-5.623,3.8a3.8,3.8,0,1,1,3.795-3.8A3.8,3.8,0,0,1,254.58,258.213Z" transform="translate(-7.198 -7.198)" fill="#4dd0e1"/>
    <path id="Path_196687" data-name="Path 196687" d="M241.978,278.272v-4.036a2.983,2.983,0,0,0-2.979-2.98H219.142a2.984,2.984,0,0,0-2.98,2.98v4.036a2.965,2.965,0,0,0,.835,2.064,2.969,2.969,0,0,0-.835,2.065v4.036a2.983,2.983,0,0,0,2.979,2.979h10.65a.915.915,0,1,0,0-1.829h-10.65a1.151,1.151,0,0,1-1.15-1.15V282.4a1.151,1.151,0,0,1,1.15-1.15H239a1.151,1.151,0,0,1,1.15,1.15v4.036a1.151,1.151,0,0,1-1.15,1.15H234.06a.915.915,0,1,0,0,1.829H239a2.983,2.983,0,0,0,2.979-2.979V282.4a2.971,2.971,0,0,0-.834-2.065,2.968,2.968,0,0,0,.834-2.064Zm-23.986-4.036a1.152,1.152,0,0,1,1.15-1.15H239a1.152,1.152,0,0,1,1.15,1.15v4.036a1.151,1.151,0,0,1-1.15,1.15H219.142a1.151,1.151,0,0,1-1.15-1.15Z" transform="translate(0 -12.129)" fill="#4dd0e1"/>
    <path id="Path_196688" data-name="Path 196688" d="M222.436,279.555a2.637,2.637,0,1,0-2.637-2.637A2.64,2.64,0,0,0,222.436,279.555Zm0-3.445a.808.808,0,1,1-.808.808A.808.808,0,0,1,222.436,276.109Z" transform="translate(-0.798 -12.793)" fill="#4dd0e1"/>
    <path id="Path_196689" data-name="Path 196689" d="M229.752,279.555a2.637,2.637,0,1,0-2.637-2.637A2.64,2.64,0,0,0,229.752,279.555Zm0-3.445a.808.808,0,1,1-.808.808A.808.808,0,0,1,229.752,276.109Z" transform="translate(-2.404 -12.793)" fill="#4dd0e1"/>
    <path id="Path_196690" data-name="Path 196690" d="M219.8,287.379a2.637,2.637,0,1,0,2.637-2.637A2.64,2.64,0,0,0,219.8,287.379Zm3.445,0a.808.808,0,1,1-.808-.808A.808.808,0,0,1,223.244,287.379Z" transform="translate(-0.798 -15.089)" fill="#4dd0e1"/>
    <path id="Path_196691" data-name="Path 196691" d="M227.115,287.379a2.637,2.637,0,1,0,2.637-2.637A2.64,2.64,0,0,0,227.115,287.379Zm3.444,0a.807.807,0,1,1-.807-.808A.808.808,0,0,1,230.559,287.379Z" transform="translate(-2.404 -15.089)" fill="#4dd0e1"/>
    <path id="Path_196692" data-name="Path 196692" d="M236.9,278.316h5.4a.915.915,0,1,0,0-1.829h-5.4a.915.915,0,1,0,0,1.829Z" transform="translate(-4.351 -13.277)" fill="#4dd0e1"/>
    <path id="Path_196693" data-name="Path 196693" d="M243.215,287.864a.915.915,0,0,0-.915-.915h-5.4a.915.915,0,1,0,0,1.829h5.4A.915.915,0,0,0,243.215,287.864Z" transform="translate(-4.351 -15.574)" fill="#4dd0e1"/>
    <path id="Path_196694" data-name="Path 196694" d="M288.137,216h-5.352a5.675,5.675,0,0,0-4.039,1.673l-5.233,5.234a5.678,5.678,0,0,0-1.673,4.038v9.879a2.438,2.438,0,0,0,2.435,2.436h6.809a.915.915,0,1,0,0-1.829h-6.809a.606.606,0,0,1-.606-.606v-9.446a1.508,1.508,0,0,1,1.506-1.506h4.1a2.437,2.437,0,0,0,2.434-2.434v-4.1a1.508,1.508,0,0,1,1.5-1.506h4.927a.606.606,0,0,1,.606.6v18.391a.606.606,0,0,1-.606.606h-2.784a.915.915,0,1,0,0,1.829h2.784a2.438,2.438,0,0,0,2.435-2.435V218.434A2.438,2.438,0,0,0,288.137,216Zm-8.253,7.439a.607.607,0,0,1-.606.606h-4.1c-.074,0-.148,0-.221.008l4.937-4.938c0,.073-.008.147-.008.22Z" transform="translate(-12.221 0)" fill="#4dd0e1"/>
    <path id="Path_196695" data-name="Path 196695" d="M278.7,233.751h7.622a.915.915,0,0,0,0-1.829H278.7a.915.915,0,1,0,0,1.829Z" transform="translate(-13.526 -3.495)" fill="#4dd0e1"/>
    <path id="Path_196696" data-name="Path 196696" d="M278.7,238.634h7.622a.915.915,0,0,0,0-1.829H278.7a.915.915,0,1,0,0,1.829Z" transform="translate(-13.526 -4.567)" fill="#4dd0e1"/>
    <path id="Path_196697" data-name="Path 196697" d="M285.7,250.59a2.729,2.729,0,1,0-5.415.678,24.335,24.335,0,0,1,.187,3.019,24.086,24.086,0,0,1-4.912,14.652,24.368,24.368,0,0,1-9.73,7.65l-.119-.708a1.869,1.869,0,0,0-3.034-1.129l-5.817,4.808a1.868,1.868,0,0,0,.538,3.191l7.072,2.635a1.888,1.888,0,0,0,.659.12,1.873,1.873,0,0,0,1.837-2.182l-.206-1.222a30.2,30.2,0,0,0,13.152-9.869,29.507,29.507,0,0,0,6.018-17.947,30.148,30.148,0,0,0-.229-3.7Zm-7.248,20.54a28.321,28.321,0,0,1-13.025,9.514.915.915,0,0,0-.6,1.015l.333,1.97a.04.04,0,0,1-.053.044l-7.072-2.635a.032.032,0,0,1-.025-.03.033.033,0,0,1,.014-.037l5.817-4.808a.032.032,0,0,1,.022-.01.058.058,0,0,1,.017,0,.031.031,0,0,1,.025.03l.31,1.834a.914.914,0,0,0,1.227.7,26.207,26.207,0,0,0,11.575-8.679,25.9,25.9,0,0,0,5.282-15.757,26.353,26.353,0,0,0-.2-3.247.9.9,0,0,1,1.784-.223,28,28,0,0,1,.215,3.47,27.689,27.689,0,0,1-5.648,16.842Z" transform="translate(-8.783 -7.068)" fill="#4dd0e1"/>
    <path id="Path_196698" data-name="Path 196698" d="M220.967,253.307a2.769,2.769,0,0,0,.341-.022,2.73,2.73,0,0,0,2.369-3.048,24.214,24.214,0,0,1,8.138-21.321.915.915,0,0,0-1.2-1.381,26.144,26.144,0,0,0-8.752,22.929.9.9,0,0,1-.782,1.005.94.94,0,0,1-.113.007.9.9,0,0,1-.89-.788,28.1,28.1,0,0,1-.215-3.47,27.691,27.691,0,0,1,5.646-16.842,28.325,28.325,0,0,1,13.025-9.515.914.914,0,0,0,.6-1.015l-.332-1.971a.031.031,0,0,1,.014-.037.033.033,0,0,1,.039-.007l7.072,2.636a.031.031,0,0,1,.025.03.033.033,0,0,1-.014.037l-5.816,4.809a.035.035,0,0,1-.04.006.032.032,0,0,1-.025-.03l-.31-1.834a.915.915,0,0,0-1.228-.7,26.044,26.044,0,0,0-4.34,2.138.914.914,0,1,0,.957,1.559,24.338,24.338,0,0,1,3-1.563l.119.708a1.87,1.87,0,0,0,3.034,1.13l5.818-4.809a1.869,1.869,0,0,0-.539-3.191l-7.072-2.636a1.869,1.869,0,0,0-2.5,2.061l.206,1.223a30.2,30.2,0,0,0-13.151,9.87,29.789,29.789,0,0,0-5.788,21.643,2.732,2.732,0,0,0,2.705,2.391Z" transform="translate(-0.41)" fill="#4dd0e1"/>
  </g>
</svg>
