<svg id="_16" data-name="16" xmlns="http://www.w3.org/2000/svg" xmlns:xlink="http://www.w3.org/1999/xlink" width="62.44" height="62.44" viewBox="0 0 62.44 62.44">
  <defs>
    <clipPath id="clip-path">
      <rect id="Rectangle_45077" data-name="Rectangle 45077" width="62.44" height="62.44" fill="#4dd0e1"/>
    </clipPath>
  </defs>
  <g id="Group_147036" data-name="Group 147036" clip-path="url(#clip-path)">
    <path id="Path_204082" data-name="Path 204082" d="M22.675,14.115a1.041,1.041,0,0,0,1.444.288l3.122-2.082a1.04,1.04,0,0,0,0-1.731L24.118,8.509a1.041,1.041,0,1,0-1.155,1.732l1.826,1.215-1.823,1.215a1.042,1.042,0,0,0-.292,1.442h0" transform="translate(5.598 2.073)" fill="#4dd0e1"/>
    <path id="Path_204083" data-name="Path 204083" d="M17.186,15.9a1.028,1.028,0,0,0,.521.137,1.04,1.04,0,0,0,.9-.521l4.162-7.284a1.041,1.041,0,1,0-1.782-1.075c-.009.014-.016.029-.024.042L16.8,14.484a1.041,1.041,0,0,0,.382,1.415" transform="translate(4.147 1.655)" fill="#4dd0e1"/>
    <path id="Path_204084" data-name="Path 204084" d="M16.874,17.915h2.082a1.041,1.041,0,0,0,0-2.082H16.874a1.041,1.041,0,0,0,0,2.082" transform="translate(3.939 3.939)" fill="#4dd0e1"/>
    <path id="Path_204085" data-name="Path 204085" d="M16.874,21.248h14.57a1.041,1.041,0,0,0,0-2.082H16.874a1.041,1.041,0,0,0,0,2.082" transform="translate(3.939 4.769)" fill="#4dd0e1"/>
    <path id="Path_204086" data-name="Path 204086" d="M20.833,16.874a1.04,1.04,0,0,0,1.04,1.04h14.57a1.04,1.04,0,1,0,0-2.081H21.873a1.04,1.04,0,0,0-1.04,1.04" transform="translate(5.183 3.939)" fill="#4dd0e1"/>
    <path id="Path_204087" data-name="Path 204087" d="M33.955,19.167H31.873a1.041,1.041,0,0,0,0,2.082h2.082a1.041,1.041,0,0,0,0-2.082" transform="translate(7.671 4.769)" fill="#4dd0e1"/>
    <path id="Path_204088" data-name="Path 204088" d="M16.874,24.582h2.082a1.041,1.041,0,0,0,0-2.082H16.874a1.041,1.041,0,0,0,0,2.082" transform="translate(3.939 5.598)" fill="#4dd0e1"/>
    <path id="Path_204089" data-name="Path 204089" d="M36.443,22.5H21.873a1.041,1.041,0,0,0,0,2.082h14.57a1.041,1.041,0,0,0,0-2.082" transform="translate(5.183 5.598)" fill="#4dd0e1"/>
    <path id="Path_204090" data-name="Path 204090" d="M58.277,38.338V3.122A3.131,3.131,0,0,0,55.155,0H7.284A3.131,3.131,0,0,0,4.162,3.122V38.338L0,50.826v2.248A3.131,3.131,0,0,0,3.122,56.2h7.284v.177a3.075,3.075,0,0,0,.915,2.205l.864.864a1.031,1.031,0,0,1,.3.739V61.4a1.04,1.04,0,1,0,2.081,0V60.182a3.076,3.076,0,0,0-.915-2.207l-.864-.864a1.027,1.027,0,0,1-.3-.738V46.309a.52.52,0,0,1,1.04,0v3.643a1.041,1.041,0,0,0,2.082,0V44.229a.52.52,0,1,1,1.04,0v5.723a1.041,1.041,0,0,0,2.082,0V43.187a.52.52,0,0,1,1.04,0v6.765a1.041,1.041,0,0,0,2.082,0V44.229a.52.52,0,1,1,1.04,0v8.845a1.041,1.041,0,0,0,2.082,0V49.952h.52a.521.521,0,0,1,.521.521v5.9a1.029,1.029,0,0,1-.3.738l-.863.864a3.077,3.077,0,0,0-.917,2.207V61.4a1.041,1.041,0,0,0,2.082,0V60.182a1.031,1.031,0,0,1,.3-.739l.863-.864a3.076,3.076,0,0,0,.917-2.205V56.2h6.244v.177a3.075,3.075,0,0,0,.915,2.205l.864.864a1.03,1.03,0,0,1,.3.739V61.4a1.041,1.041,0,0,0,2.082,0V60.182a3.076,3.076,0,0,0-.915-2.207l-.864-.864a1.029,1.029,0,0,1-.3-.738v-5.9a.521.521,0,0,1,.521-.521h.521v3.122a1.04,1.04,0,1,0,2.081,0V44.229a.521.521,0,1,1,1.042,0v5.723a1.04,1.04,0,0,0,2.081,0V43.187a.521.521,0,0,1,1.041,0v6.765a1.04,1.04,0,0,0,2.081,0V44.229a.521.521,0,1,1,1.042,0v5.723a1.04,1.04,0,0,0,2.081,0V46.309a.521.521,0,0,1,1.042,0V56.373a1.029,1.029,0,0,1-.3.738l-.864.864a3.076,3.076,0,0,0-.915,2.207V61.4a1.041,1.041,0,0,0,2.082,0V60.182a1.03,1.03,0,0,1,.3-.739l.864-.864a3.075,3.075,0,0,0,.915-2.205V56.2h7.285a3.131,3.131,0,0,0,3.122-3.122V50.826ZM6.244,3.122a1.04,1.04,0,0,1,1.04-1.04h47.87A1.041,1.041,0,0,1,56.2,3.122V37.464H6.244Zm4.162,50.992H3.122a1.041,1.041,0,0,1-1.041-1.04v-1.04h8.326Zm23.936,0H28.1V52.033h6.244ZM49.431,43.708a2.438,2.438,0,0,0-.562.062,2.6,2.6,0,0,0-2.56-2.144,2.556,2.556,0,0,0-.927.177,2.587,2.587,0,0,0-4.391,0,2.556,2.556,0,0,0-.927-.177,2.6,2.6,0,0,0-2.6,2.6V47.87h-.521a2.6,2.6,0,0,0-2.55,2.082H28.046A2.6,2.6,0,0,0,25.5,47.87h-.52V44.229a2.6,2.6,0,0,0-2.6-2.6,2.55,2.55,0,0,0-.925.177,2.589,2.589,0,0,0-4.392,0,2.556,2.556,0,0,0-.927-.177,2.6,2.6,0,0,0-2.56,2.144,2.423,2.423,0,0,0-.562-.062,2.6,2.6,0,0,0-2.6,2.6v3.643H2.486L5.952,39.546H56.487l3.465,10.406h-7.92V46.309a2.6,2.6,0,0,0-2.6-2.6m10.927,9.366a1.04,1.04,0,0,1-1.04,1.04H52.033V52.034h8.326Z" fill="#4dd0e1"/>
    <path id="Path_204091" data-name="Path 204091" d="M51.415,3.333H7.707a1.041,1.041,0,0,0-1.04,1.041V33.513a1.04,1.04,0,0,0,1.04,1.04H51.415a1.04,1.04,0,0,0,1.04-1.04V4.374a1.041,1.041,0,0,0-1.04-1.041m-1.04,29.139H8.749V5.415H50.375Z" transform="translate(1.659 0.829)" fill="#4dd0e1"/>
    <path id="Path_204092" data-name="Path 204092" d="M7.915,33.333H6.874a1.041,1.041,0,1,0,0,2.082h1.04a1.041,1.041,0,0,0,0-2.082" transform="translate(1.451 8.293)" fill="#4dd0e1"/>
    <path id="Path_204093" data-name="Path 204093" d="M7.082,36.667H6.041a1.041,1.041,0,1,0,0,2.082h1.04a1.041,1.041,0,0,0,0-2.082" transform="translate(1.244 9.123)" fill="#4dd0e1"/>
    <path id="Path_204094" data-name="Path 204094" d="M42.707,35.415h1.04a1.041,1.041,0,1,0,0-2.082h-1.04a1.041,1.041,0,0,0,0,2.082" transform="translate(10.367 8.293)" fill="#4dd0e1"/>
    <path id="Path_204095" data-name="Path 204095" d="M43.54,36.667a1.041,1.041,0,0,0,0,2.082h1.04a1.041,1.041,0,1,0,0-2.082Z" transform="translate(10.574 9.123)" fill="#4dd0e1"/>
    <path id="Path_204096" data-name="Path 204096" d="M23.748,33.333h-1.04a1.041,1.041,0,1,0,0,2.082h1.04a1.041,1.041,0,0,0,0-2.082" transform="translate(5.391 8.293)" fill="#4dd0e1"/>
    <path id="Path_204097" data-name="Path 204097" d="M27.915,33.333h-1.04a1.041,1.041,0,1,0,0,2.082h1.04a1.041,1.041,0,0,0,0-2.082" transform="translate(6.427 8.293)" fill="#4dd0e1"/>
    <path id="Path_204098" data-name="Path 204098" d="M23.748,36.667h-1.04a1.041,1.041,0,1,0,0,2.082h1.04a1.041,1.041,0,0,0,0-2.082" transform="translate(5.391 9.123)" fill="#4dd0e1"/>
    <path id="Path_204099" data-name="Path 204099" d="M27.915,36.667h-1.04a1.041,1.041,0,1,0,0,2.082h1.04a1.041,1.041,0,0,0,0-2.082" transform="translate(6.427 9.123)" fill="#4dd0e1"/>
    <path id="Path_204100" data-name="Path 204100" d="M16.695,14.115a1.041,1.041,0,0,1-1.444.288l-3.122-2.082a1.04,1.04,0,0,1,0-1.731l3.122-2.082a1.041,1.041,0,1,1,1.155,1.732l-1.826,1.215L16.4,12.671a1.042,1.042,0,0,1,.292,1.442Z" transform="translate(2.903 2.073)" fill="#4dd0e1"/>
  </g>
</svg>
