<svg id="_17" data-name="17" xmlns="http://www.w3.org/2000/svg" xmlns:xlink="http://www.w3.org/1999/xlink" width="62.44" height="62.44" viewBox="0 0 62.44 62.44">
  <defs>
    <clipPath id="clip-path">
      <rect id="Rectangle_45292" data-name="Rectangle 45292" width="62.44" height="62.44" fill="#4dd0e1"/>
    </clipPath>
  </defs>
  <g id="Group_147207" data-name="Group 147207" clip-path="url(#clip-path)">
    <path id="Path_206223" data-name="Path 206223" d="M58.277,0H4.162A4.163,4.163,0,0,0,0,4.163V58.278A4.162,4.162,0,0,0,4.162,62.44H58.277a4.163,4.163,0,0,0,4.163-4.162V4.163A4.164,4.164,0,0,0,58.277,0m2.082,58.278a2.082,2.082,0,0,1-2.082,2.082H4.162a2.083,2.083,0,0,1-2.082-2.082V4.163A2.082,2.082,0,0,1,4.162,2.082H58.277a2.081,2.081,0,0,1,2.082,2.082Z" fill="#4dd0e1"/>
    <path id="Path_206224" data-name="Path 206224" d="M55.367,6.667H5.415A2.082,2.082,0,0,0,3.333,8.748v45.79a2.083,2.083,0,0,0,2.082,2.082H55.367a2.083,2.083,0,0,0,2.082-2.082V8.748a2.082,2.082,0,0,0-2.082-2.081m0,47.87H5.415V8.748H55.367Z" transform="translate(0.829 1.659)" fill="#4dd0e1"/>
    <path id="Path_206225" data-name="Path 206225" d="M5.207,5.415h1.04a1.041,1.041,0,1,0,0-2.082H5.207a1.041,1.041,0,0,0,0,2.082" transform="translate(1.037 0.829)" fill="#4dd0e1"/>
    <path id="Path_206226" data-name="Path 206226" d="M9.374,5.415h1.04a1.041,1.041,0,1,0,0-2.082H9.374a1.041,1.041,0,0,0,0,2.082" transform="translate(2.073 0.829)" fill="#4dd0e1"/>
    <path id="Path_206227" data-name="Path 206227" d="M13.54,5.415h1.04a1.041,1.041,0,1,0,0-2.082H13.54a1.041,1.041,0,0,0,0,2.082" transform="translate(3.11 0.829)" fill="#4dd0e1"/>
    <path id="Path_206228" data-name="Path 206228" d="M40.207,5.415h6.244a1.041,1.041,0,0,0,0-2.082H40.207a1.041,1.041,0,0,0,0,2.082" transform="translate(9.745 0.829)" fill="#4dd0e1"/>
    <path id="Path_206229" data-name="Path 206229" d="M7.707,12.915h1.04a1.041,1.041,0,1,0,0-2.082H7.707a1.041,1.041,0,0,0,0,2.082" transform="translate(1.659 2.695)" fill="#4dd0e1"/>
    <path id="Path_206230" data-name="Path 206230" d="M7.707,16.248h1.04a1.041,1.041,0,1,0,0-2.082H7.707a1.041,1.041,0,0,0,0,2.082" transform="translate(1.659 3.524)" fill="#4dd0e1"/>
    <path id="Path_206231" data-name="Path 206231" d="M7.707,19.582h1.04a1.041,1.041,0,1,0,0-2.082H7.707a1.041,1.041,0,0,0,0,2.082" transform="translate(1.659 4.354)" fill="#4dd0e1"/>
    <path id="Path_206232" data-name="Path 206232" d="M7.707,22.915h1.04a1.041,1.041,0,1,0,0-2.082H7.707a1.041,1.041,0,0,0,0,2.082" transform="translate(1.659 5.183)" fill="#4dd0e1"/>
    <path id="Path_206233" data-name="Path 206233" d="M7.707,26.248h1.04a1.041,1.041,0,1,0,0-2.082H7.707a1.041,1.041,0,0,0,0,2.082" transform="translate(1.659 6.012)" fill="#4dd0e1"/>
    <path id="Path_206234" data-name="Path 206234" d="M7.707,29.582h1.04a1.041,1.041,0,1,0,0-2.082H7.707a1.041,1.041,0,0,0,0,2.082" transform="translate(1.659 6.842)" fill="#4dd0e1"/>
    <path id="Path_206235" data-name="Path 206235" d="M7.707,32.915h1.04a1.041,1.041,0,1,0,0-2.082H7.707a1.041,1.041,0,0,0,0,2.082" transform="translate(1.659 7.671)" fill="#4dd0e1"/>
    <path id="Path_206236" data-name="Path 206236" d="M7.707,36.248h1.04a1.041,1.041,0,1,0,0-2.082H7.707a1.041,1.041,0,0,0,0,2.082" transform="translate(1.659 8.5)" fill="#4dd0e1"/>
    <path id="Path_206237" data-name="Path 206237" d="M7.707,39.582h1.04a1.041,1.041,0,1,0,0-2.082H7.707a1.041,1.041,0,0,0,0,2.082" transform="translate(1.659 9.33)" fill="#4dd0e1"/>
    <path id="Path_206238" data-name="Path 206238" d="M7.707,42.915h1.04a1.041,1.041,0,1,0,0-2.082H7.707a1.041,1.041,0,0,0,0,2.082" transform="translate(1.659 10.159)" fill="#4dd0e1"/>
    <path id="Path_206239" data-name="Path 206239" d="M11.874,12.915h7.284a1.041,1.041,0,1,0,0-2.082H11.874a1.041,1.041,0,0,0,0,2.082" transform="translate(2.695 2.695)" fill="#4dd0e1"/>
    <path id="Path_206240" data-name="Path 206240" d="M11.874,16.248h7.284a1.041,1.041,0,1,0,0-2.082H11.874a1.041,1.041,0,0,0,0,2.082" transform="translate(2.695 3.524)" fill="#4dd0e1"/>
    <path id="Path_206241" data-name="Path 206241" d="M13.333,18.54a1.04,1.04,0,0,0,1.04,1.04h7.285a1.04,1.04,0,0,0,0-2.081H14.373a1.04,1.04,0,0,0-1.04,1.04" transform="translate(3.317 4.354)" fill="#4dd0e1"/>
    <path id="Path_206242" data-name="Path 206242" d="M14.374,22.915h7.284a1.041,1.041,0,1,0,0-2.082H14.374a1.041,1.041,0,0,0,0,2.082" transform="translate(3.317 5.183)" fill="#4dd0e1"/>
    <path id="Path_206243" data-name="Path 206243" d="M14.374,26.248h7.284a1.041,1.041,0,1,0,0-2.082H14.374a1.041,1.041,0,0,0,0,2.082" transform="translate(3.317 6.012)" fill="#4dd0e1"/>
    <path id="Path_206244" data-name="Path 206244" d="M14.374,29.582H25.822a1.041,1.041,0,0,0,0-2.082H14.374a1.041,1.041,0,0,0,0,2.082" transform="translate(3.317 6.842)" fill="#4dd0e1"/>
    <path id="Path_206245" data-name="Path 206245" d="M11.874,32.915h7.284a1.041,1.041,0,1,0,0-2.082H11.874a1.041,1.041,0,0,0,0,2.082" transform="translate(2.695 7.671)" fill="#4dd0e1"/>
    <path id="Path_206246" data-name="Path 206246" d="M13.333,35.207a1.04,1.04,0,0,0,1.04,1.04H25.821a1.04,1.04,0,0,0,0-2.081H14.373a1.04,1.04,0,0,0-1.04,1.04" transform="translate(3.317 8.501)" fill="#4dd0e1"/>
    <path id="Path_206247" data-name="Path 206247" d="M21.659,37.5H14.374a1.041,1.041,0,1,0,0,2.082h7.284a1.041,1.041,0,0,0,0-2.082" transform="translate(3.317 9.33)" fill="#4dd0e1"/>
    <path id="Path_206248" data-name="Path 206248" d="M21.659,40.833H14.374a1.041,1.041,0,1,0,0,2.082h7.284a1.041,1.041,0,0,0,0-2.082" transform="translate(3.317 10.159)" fill="#4dd0e1"/>
    <path id="Path_206249" data-name="Path 206249" d="M21.04,12.915H25.2a1.041,1.041,0,1,0,0-2.082H21.04a1.041,1.041,0,0,0,0,2.082" transform="translate(4.976 2.695)" fill="#4dd0e1"/>
    <path id="Path_206250" data-name="Path 206250" d="M25.833,35.207a1.04,1.04,0,0,0,1.04,1.04H38.321a1.04,1.04,0,0,0,0-2.081H26.873a1.04,1.04,0,0,0-1.04,1.04" transform="translate(6.427 8.501)" fill="#4dd0e1"/>
    <path id="Path_206251" data-name="Path 206251" d="M33.948,37.5H23.542a1.041,1.041,0,1,0,0,2.082H33.948a1.041,1.041,0,0,0,0-2.082" transform="translate(5.598 9.33)" fill="#4dd0e1"/>
    <path id="Path_206252" data-name="Path 206252" d="M25.622,26.248a1.041,1.041,0,0,0,0-2.082H23.54a1.041,1.041,0,0,0,0,2.082Z" transform="translate(5.598 6.012)" fill="#4dd0e1"/>
    <path id="Path_206253" data-name="Path 206253" d="M22.5,21.874a1.04,1.04,0,0,0,1.04,1.04h7.285a1.04,1.04,0,0,0,0-2.081H23.54a1.04,1.04,0,0,0-1.04,1.04" transform="translate(5.598 5.183)" fill="#4dd0e1"/>
  </g>
</svg>
