<svg xmlns="http://www.w3.org/2000/svg" width="59.196" height="62.44" viewBox="0 0 59.196 62.44">
  <g id="_18" data-name="18" transform="translate(-218.079 -215.999)">
    <path id="Path_196703" data-name="Path 196703" d="M224.168,223.313h22.44a.915.915,0,0,0,0-1.829h-22.44a.915.915,0,1,0,0,1.829Z" transform="translate(-1.136 -1.204)" fill="#4dd0e1"/>
    <path id="Path_196704" data-name="Path 196704" d="M224.168,228.383h22.44a.915.915,0,0,0,0-1.829h-22.44a.915.915,0,1,0,0,1.829Z" transform="translate(-1.136 -2.317)" fill="#4dd0e1"/>
    <path id="Path_196705" data-name="Path 196705" d="M224.168,244.6h22.44a.915.915,0,0,0,0-1.83h-22.44a.915.915,0,1,0,0,1.83Z" transform="translate(-1.136 -5.877)" fill="#4dd0e1"/>
    <path id="Path_196706" data-name="Path 196706" d="M224.168,249.674h22.44a.915.915,0,0,0,0-1.829h-22.44a.915.915,0,1,0,0,1.829Z" transform="translate(-1.136 -6.99)" fill="#4dd0e1"/>
    <path id="Path_196707" data-name="Path 196707" d="M246.608,264.064h-22.44a.915.915,0,1,0,0,1.829h22.44a.915.915,0,1,0,0-1.829Z" transform="translate(-1.136 -10.55)" fill="#4dd0e1"/>
    <path id="Path_196708" data-name="Path 196708" d="M246.608,269.135h-22.44a.915.915,0,1,0,0,1.829h22.44a.915.915,0,1,0,0-1.829Z" transform="translate(-1.136 -11.663)" fill="#4dd0e1"/>
    <path id="Path_196709" data-name="Path 196709" d="M273.464,224.143a3.722,3.722,0,1,0-3.722,3.722A3.726,3.726,0,0,0,273.464,224.143Zm-5.614,0a1.892,1.892,0,1,1,1.892,1.893A1.894,1.894,0,0,1,267.849,224.143Z" transform="translate(-10.523 -0.971)" fill="#4dd0e1"/>
    <path id="Path_196710" data-name="Path 196710" d="M263.851,232.567v-2.221h.332a3.386,3.386,0,0,0,3.382-3.383v-7.583A3.385,3.385,0,0,0,264.183,216H221.462a3.386,3.386,0,0,0-3.383,3.382v1.653a.915.915,0,0,0,1.83,0v-1.653a1.555,1.555,0,0,1,1.553-1.552h42.721a1.555,1.555,0,0,1,1.553,1.552v7.583a1.555,1.555,0,0,1-1.553,1.553H221.462a1.555,1.555,0,0,1-1.553-1.553v-1.653a.915.915,0,0,0-1.83,0v1.653a3.386,3.386,0,0,0,3.383,3.383h.656v2.215h-.656a3.386,3.386,0,0,0-3.383,3.383v7.583a3.386,3.386,0,0,0,3.383,3.383h.656v2.215h-.656a3.386,3.386,0,0,0-3.383,3.383v7.583a3.386,3.386,0,0,0,3.383,3.383h18.517v4.515a1.616,1.616,0,0,0-1,1.493v1.268h-2.548a1.616,1.616,0,0,0-1.493,1h-15.33a1.529,1.529,0,0,0-1.527,1.527v2.632a1.529,1.529,0,0,0,1.527,1.527h15.33a1.616,1.616,0,0,0,1.493,1H249.1a1.617,1.617,0,0,0,1.493-1h15.441a1.529,1.529,0,0,0,1.527-1.527v-2.632a1.529,1.529,0,0,0-1.527-1.527H250.6a1.618,1.618,0,0,0-1.494-1h-2.437v-1.268a1.616,1.616,0,0,0-1-1.493v-4.515h11.077V267a1.59,1.59,0,0,0,1.587,1.589c.6,0,.56-.148,5.14-2.135l4.493,2A1.588,1.588,0,0,0,270.2,267v-8.568a13.877,13.877,0,0,0,3.2-2.467.914.914,0,1,0-1.314-1.271,11.936,11.936,0,1,1,2.289-3.351.914.914,0,1,0,1.663.76,13.811,13.811,0,0,0-12.179-19.536Zm-29.037,43.041H219.909V273.58h14.906v2.029Zm15.9-2.029h15.018v2.029H250.719Zm13.664-13.437a13.726,13.726,0,0,0,3.982-.858v7.344l-3.982-1.769Zm-5.811-.867a13.723,13.723,0,0,0,3.982.867v4.717l-3.982,1.769Zm-12.82,13.3h3.138v4.031H236.644v-4.031h3.248a.915.915,0,0,0,.915-.915V269.7h4.031v1.969A.915.915,0,0,0,245.752,272.579Zm-3.944-4.713v-4.393h2.028v4.393Zm14.934-9.446v3.223H221.462a1.555,1.555,0,0,1-1.553-1.552v-7.583a1.555,1.555,0,0,1,1.553-1.553h28.985a13.884,13.884,0,0,0,6.3,7.466Zm-32.8-9.3V246.91h25.728a13.788,13.788,0,0,0,.265,2.215Zm25.776-4.045H221.462a1.555,1.555,0,0,1-1.553-1.553v-7.583a1.555,1.555,0,0,1,1.553-1.553h35.144a13.829,13.829,0,0,0-6.883,10.689Zm12.3-12.518H223.947v-2.215h38.076Z" transform="translate(0)" fill="#4dd0e1"/>
    <path id="Path_196711" data-name="Path 196711" d="M281.779,251a1.737,1.737,0,0,0-1.645-1.214l-3.356-.052-1.086-3.176a1.758,1.758,0,0,0-3.327,0l-1.086,3.176-3.356.052a1.757,1.757,0,0,0-1.028,3.163l2.685,2.014-.988,3.208a1.758,1.758,0,0,0,2.691,1.955l2.746-1.931,2.745,1.931a1.758,1.758,0,0,0,2.691-1.955l-.988-3.208,2.685-2.014a1.738,1.738,0,0,0,.617-1.95Zm-4.44,2.53a1.762,1.762,0,0,0-.625,1.924l.942,3.056-2.616-1.84a1.762,1.762,0,0,0-2.022,0l-2.615,1.84.941-3.056a1.762,1.762,0,0,0-.625-1.924l-2.558-1.919,3.2-.048a1.762,1.762,0,0,0,1.637-1.189l1.035-3.026,1.034,3.026a1.763,1.763,0,0,0,1.637,1.189l3.2.048Z" transform="translate(-10.56 -6.446)" fill="#4dd0e1"/>
  </g>
</svg>
