<svg id="_18" data-name="18" xmlns="http://www.w3.org/2000/svg" xmlns:xlink="http://www.w3.org/1999/xlink" width="82.03" height="82.03" viewBox="0 0 82.03 82.03">
  <defs>
    <clipPath id="clip-path">
      <rect id="Rectangle_53567" data-name="Rectangle 53567" width="82.03" height="82.03" fill="none"/>
    </clipPath>
  </defs>
  <g id="Group_172602" data-name="Group 172602" clip-path="url(#clip-path)">
    <path id="Path_206255" data-name="Path 206255" d="M46.554,8A14.554,14.554,0,1,1,32,22.554,14.554,14.554,0,0,1,46.554,8" transform="translate(-26.708 -6.677)" fill="#4dd0e1"/>
    <path id="Path_206256" data-name="Path 206256" d="M296,85.231V72h31.754V85.231a2.654,2.654,0,0,1-2.646,2.646H298.646A2.654,2.654,0,0,1,296,85.231" transform="translate(-247.047 -60.092)" fill="#e6e9ed"/>
    <path id="Path_206257" data-name="Path 206257" d="M327.754,10.646v7.938H296V15.938a2.654,2.654,0,0,1,2.646-2.646h11.908l3.175-4.234A2.663,2.663,0,0,1,315.846,8h9.261a2.654,2.654,0,0,1,2.646,2.646" transform="translate(-247.047 -6.677)" fill="#dbdeea"/>
    <path id="Path_206258" data-name="Path 206258" d="M311.877,296A15.877,15.877,0,1,1,296,311.877,15.877,15.877,0,0,1,311.877,296" transform="translate(-247.047 -247.047)" fill="#4dd0e1"/>
    <path id="Path_206259" data-name="Path 206259" d="M344.939,416.163a15.879,15.879,0,0,1-23.259,0A10.585,10.585,0,0,1,331.987,408h2.646a10.585,10.585,0,0,1,10.307,8.163" transform="translate(-268.48 -340.524)" fill="#bddcf6"/>
    <path id="Path_206260" data-name="Path 206260" d="M358.615,328A6.615,6.615,0,1,1,352,334.615,6.615,6.615,0,0,1,358.615,328" transform="translate(-293.785 -273.754)" fill="#f0d0b4"/>
    <path id="Path_206261" data-name="Path 206261" d="M45.046,400v7.938c0,3.652-8.3,6.615-18.523,6.615S8,411.59,8,407.938V400c0,3.652,8.3,6.615,18.523,6.615S45.046,403.652,45.046,400" transform="translate(-6.677 -333.847)" fill="#ffeaa7"/>
    <path id="Path_206262" data-name="Path 206262" d="M26.523,303.938c10.227,0,18.523-3.559,18.523-7.938v9.261c0,3.652-8.3,6.615-18.523,6.615S8,308.913,8,305.261V296c0,4.379,8.3,7.938,18.523,7.938" transform="translate(-6.677 -247.047)" fill="#ffeaa7"/>
    <path id="Path_206263" data-name="Path 206263" d="M45.046,358.615v1.323c0,3.652-8.3,6.615-18.523,6.615S8,363.59,8,359.938V352c0,3.652,8.3,6.615,18.523,6.615S45.046,355.652,45.046,352Z" transform="translate(-6.677 -293.785)" fill="#feca2e"/>
    <path id="Path_206264" data-name="Path 206264" d="M45.046,255.938c0,4.379-8.3,7.938-18.523,7.938S8,260.318,8,255.938,16.3,248,26.523,248s18.523,3.559,18.523,7.938" transform="translate(-6.677 -206.985)" fill="#feca2e"/>
    <path id="Path_206265" data-name="Path 206265" d="M79.877,280a2.654,2.654,0,0,1,2.646,2.646,2.665,2.665,0,0,1-2.646,2.646H66.646A2.654,2.654,0,0,1,64,282.646,2.665,2.665,0,0,1,66.646,280Z" transform="translate(-53.415 -233.693)" fill="#4dd0e1"/>
    <path id="Path_206266" data-name="Path 206266" d="M59.969,279.938H73.2a3.969,3.969,0,1,0,0-7.938H59.969a3.969,3.969,0,1,0,0,7.938m0-5.292H73.2a1.323,1.323,0,1,1,0,2.646H59.969a1.323,1.323,0,1,1,0-2.646" transform="translate(-46.739 -227.016)"/>
    <path id="Path_206267" data-name="Path 206267" d="M78.061,29.107a3.974,3.974,0,0,0,3.969-3.969V3.969A3.974,3.974,0,0,0,78.061,0H68.8a3.983,3.983,0,0,0-3.174,1.588l-2.78,3.7H51.6A3.974,3.974,0,0,0,47.63,9.261v5.292H35.655A15.87,15.87,0,1,0,18.523,31.686v8.035C7.878,40.02,0,43.883,0,48.953V74.092c0,5.156,10.226,7.938,19.846,7.938s19.846-2.782,19.846-7.938V66.153H47.7A17.191,17.191,0,1,0,66.153,47.7V29.107Zm0-2.646H51.6a1.324,1.324,0,0,1-1.323-1.323V13.231H79.384V25.138a1.324,1.324,0,0,1-1.323,1.323M51.6,7.938H64.169l3.574-4.764A1.326,1.326,0,0,1,68.8,2.646h9.261a1.324,1.324,0,0,1,1.323,1.323v6.615H50.276V9.261A1.324,1.324,0,0,1,51.6,7.938M6.615,15.877a13.212,13.212,0,0,1,.61-3.969h5.082a19.882,19.882,0,0,0,0,7.938H7.225a13.212,13.212,0,0,1-.61-3.969m7.938,0a17.337,17.337,0,0,1,.468-3.969h9.653a17.474,17.474,0,0,1,.463,3.969,17.337,17.337,0,0,1-.468,3.969H15.017a17.474,17.474,0,0,1-.463-3.969m5.295-12.74a19.107,19.107,0,0,1,3.993,6.124H15.858a19.366,19.366,0,0,1,3.99-6.124m3.985,19.355a19.333,19.333,0,0,1-3.99,6.124,19.107,19.107,0,0,1-3.993-6.124Zm2.849,0h4.6a13.273,13.273,0,0,1-7.936,6.13A21.363,21.363,0,0,0,26.682,22.492Zm6.394-6.615a13.17,13.17,0,0,1-.61,3.969H27.385a20.313,20.313,0,0,0,.4-3.969,20.209,20.209,0,0,0-.4-3.969h5.082a13.129,13.129,0,0,1,.611,3.969m-1.79-6.615h-4.6a21.363,21.363,0,0,0-3.331-6.13,13.273,13.273,0,0,1,7.936,6.13M16.341,3.132a21.364,21.364,0,0,0-3.331,6.13h-4.6a13.273,13.273,0,0,1,7.936-6.13M8.405,22.492h4.6a21.364,21.364,0,0,0,3.331,6.13,13.273,13.273,0,0,1-7.936-6.13M19.846,42.338c10.136,0,17.2,3.486,17.2,6.615s-7.064,6.615-17.2,6.615-17.2-3.486-17.2-6.615,7.064-6.615,17.2-6.615M2.646,53.694c3.366,2.744,9.656,4.521,17.2,4.521s13.834-1.777,17.2-4.521v4.521c0,2.158-6.7,5.292-17.2,5.292s-17.2-3.134-17.2-5.292Zm0,8.632c3.661,2.507,10.573,3.828,17.2,3.828s13.539-1.32,17.2-3.828v3.828c0,2.158-6.7,5.292-17.2,5.292s-17.2-3.134-17.2-5.292Zm17.2,17.058c-10.5,0-17.2-3.134-17.2-5.292V70.264c3.661,2.507,10.573,3.828,17.2,3.828s13.539-1.32,17.2-3.828v3.828c0,2.158-6.7,5.292-17.2,5.292m34.863-4.117a9.2,9.2,0,0,1,8.8-6.467h2.646a9.191,9.191,0,0,1,8.8,6.467,14.5,14.5,0,0,1-20.243,0M64.83,66.153a5.292,5.292,0,1,1,5.292-5.292,5.3,5.3,0,0,1-5.292,5.292M79.384,64.83A14.479,14.479,0,0,1,76.9,72.947a11.812,11.812,0,0,0-6.834-6.138,7.939,7.939,0,1,0-10.48,0,11.825,11.825,0,0,0-6.834,6.138A14.551,14.551,0,1,1,79.384,64.83M63.507,47.7A17.2,17.2,0,0,0,47.7,63.507H39.692V48.953c0-5.07-7.878-8.933-18.523-9.232V31.686A15.885,15.885,0,0,0,35.655,17.2H47.63v7.938A3.974,3.974,0,0,0,51.6,29.107H63.507Z"/>
    <rect id="Rectangle_53560" data-name="Rectangle 53560" width="2.646" height="2.646" transform="translate(74.092 5.292)"/>
    <rect id="Rectangle_53561" data-name="Rectangle 53561" width="2.646" height="2.646" transform="translate(68.799 5.292)"/>
    <rect id="Rectangle_53562" data-name="Rectangle 53562" width="2.646" height="2.646" transform="translate(52.923 21.169)"/>
    <rect id="Rectangle_53563" data-name="Rectangle 53563" width="2.646" height="2.646" transform="translate(58.215 21.169)"/>
    <rect id="Rectangle_53564" data-name="Rectangle 53564" width="2.646" height="2.646" transform="translate(63.507 21.169)"/>
    <rect id="Rectangle_53565" data-name="Rectangle 53565" width="2.646" height="2.646" transform="translate(21.169 14.554)"/>
    <rect id="Rectangle_53566" data-name="Rectangle 53566" width="2.646" height="2.646" transform="translate(15.877 14.554)"/>
  </g>
</svg>
