<svg xmlns="http://www.w3.org/2000/svg" xmlns:xlink="http://www.w3.org/1999/xlink" width="572" height="541.354" viewBox="0 0 572 541.354">
  <defs>
    <clipPath id="clip-path">
      <rect id="Rectangle_44954" data-name="Rectangle 44954" width="572" height="541.354" fill="none"/>
    </clipPath>
    <clipPath id="clip-path-5">
      <rect id="Rectangle_44946" data-name="Rectangle 44946" width="9.992" height="79.782" transform="translate(117.761 409.873)" fill="none"/>
    </clipPath>
  </defs>
  <g id="_19" data-name="19" transform="translate(5519 4138)">
    <g id="Group_146906" data-name="Group 146906" transform="translate(-5519 -4138)">
      <g id="Group_146905" data-name="Group 146905" clip-path="url(#clip-path)">
        <g id="Group_146889" data-name="Group 146889">
          <g id="Group_146888" data-name="Group 146888" clip-path="url(#clip-path)">
            <path id="Path_203611" data-name="Path 203611" d="M451.156,3.642A3.642,3.642,0,1,1,447.514,0a3.642,3.642,0,0,1,3.642,3.642" fill="#e0e0e0"/>
            <path id="Path_203612" data-name="Path 203612" d="M470.293,249.143s-.02-.171-.029-.506c-.007-.362-.017-.854-.029-1.491-.013-1.34-.031-3.273-.055-5.76-.022-5.045-.055-12.333-.1-21.424-.028-18.248-.067-43.727-.112-72.773l.073.2-15.594-18.869-6.993-8.469-.075-.09v-.117c.042-32.384.078-61.239.1-82.029.043-10.363.077-18.713.1-24.5.026-2.859.045-5.085.059-6.625.013-.735.023-1.306.03-1.719.011-.387.032-.585.032-.585s.021.2.032.585c.007.413.017.984.03,1.719.014,1.54.033,3.766.058,6.625.024,5.79.058,14.141.1,24.5.026,20.79.062,49.645.1,82.029l-.074-.206,7,8.467,15.584,18.877.074.089v.115c-.044,29.046-.083,54.525-.111,72.773-.041,9.091-.073,16.379-.1,21.424-.023,2.487-.041,4.42-.054,5.76-.012.637-.022,1.129-.029,1.491-.009.335-.029.506-.029.506" fill="#e0e0e0"/>
            <path id="Path_203613" data-name="Path 203613" d="M512.089,227.793a6.708,6.708,0,0,1-.958,1.98,8.834,8.834,0,0,1-4.8,3.517,8.931,8.931,0,0,1-4.171.245,9.081,9.081,0,0,1-4.329-2.064,9.1,9.1,0,0,1-2.826-4.48,9.057,9.057,0,0,1,3.881-10.069,9.093,9.093,0,0,1,5.1-1.426,9.1,9.1,0,0,1,4.6,1.375,8.968,8.968,0,0,1,2.928,2.981,8.843,8.843,0,0,1,1.2,5.83,6.706,6.706,0,0,1-.619,2.111c-.06-.019.267-.745.422-2.134a8.855,8.855,0,0,0-1.309-5.618,8.678,8.678,0,0,0-7.226-4.076,8.678,8.678,0,0,0-4.823,1.377,8.6,8.6,0,0,0-3.668,9.518,8.682,8.682,0,0,0,2.652,4.257,8.676,8.676,0,0,0,8.091,1.828,8.849,8.849,0,0,0,4.741-3.286c.817-1.134,1.063-1.893,1.12-1.866" fill="#e0e0e0"/>
            <path id="Path_203614" data-name="Path 203614" d="M520.446,236.23a1.912,1.912,0,0,1,.311.027l.94.117,3.709.5-.087.052c.75-1.982,1.737-4.588,2.932-7.74l.048.153-4.165-2.767-.075-.05.01-.091a20.262,20.262,0,0,0-.152-5.352l-.017-.1.082-.061,4-3-.057.219-3.374-7.557.223.115-4.907.978-.125.025-.08-.1a20.139,20.139,0,0,0-3.873-3.675l-.107-.078.019-.132c.222-1.534.466-3.226.716-4.949l.143.245-7.727-2.967.282-.089-2.781,4.155-.081.122-.146-.016a20.206,20.206,0,0,0-5.329.139l-.147.024-.09-.12-2.991-4.011.3.079-7.565,3.36.146-.281c.306,1.551.637,3.224.969,4.909l.03.151-.12.1a20.086,20.086,0,0,0-3.671,3.854l0,0c-.109.046.242-.1-.244.1h-.015l-.019,0-.039-.006-.078-.011-.156-.023-.312-.046-.622-.09-1.24-.182-2.467-.361.274-.16-2.979,7.723-.1-.3,4.153,2.786.126.085-.017.15a20.064,20.064,0,0,0,.131,5.329l.023.148-.12.089-4.013,2.986.076-.293q1.716,3.875,3.349,7.568l-.26-.135,4.91-.962.136-.027.086.108a20.1,20.1,0,0,0,3.859,3.686l.108.079-.019.132c-.251,1.7-.494,3.34-.731,4.946l-.134-.228,7.717,2.993-.232.073,2.8-4.147.062-.092.11.012a20.19,20.19,0,0,0,5.348-.119l.1-.016.06.081,2.975,4.021-.181-.047,7.58-3.323-.065.126c-.374-1.962-.681-3.573-.937-4.914l-.009-.049.038-.031a21,21,0,0,0,2.919-2.814c.274-.333.485-.588.639-.774a1.869,1.869,0,0,1,.214-.255,2.361,2.361,0,0,1-.181.28c-.129.181-.325.454-.607.8a19.652,19.652,0,0,1-2.881,2.888l.029-.079c.273,1.337.6,2.943,1,4.9l.018.089-.084.038-7.551,3.389-.11.049-.072-.1-3-4,.161.065a20.448,20.448,0,0,1-5.441.153l.172-.08c-.884,1.324-1.8,2.7-2.775,4.161l-.086.129-.146-.056L491.16,245.9l-.158-.06.024-.168c.232-1.607.47-3.252.714-4.949l.089.21a20.478,20.478,0,0,1-3.956-3.757l.222.081-4.907.974-.184.037-.076-.172q-1.64-3.687-3.364-7.561l-.078-.177.155-.117q1.979-1.475,4.009-2.992l-.1.236a20.5,20.5,0,0,1-.139-5.46l.109.235-4.156-2.783-.167-.112.072-.188,2.975-7.725.073-.19.2.03,2.467.36,1.241.181.622.091.312.046.156.023.077.011.039.006.02,0h.014c-.485.205-.134.056-.242.1h0v0A20.548,20.548,0,0,1,491,208.161l-.091.247c-.332-1.685-.661-3.358-.967-4.909l-.039-.2.185-.082,7.567-3.353.183-.081.119.16,2.986,4.014-.236-.1a20.626,20.626,0,0,1,5.459-.133l-.227.106c.966-1.439,1.92-2.858,2.789-4.151l.106-.157.176.068,7.72,2.986.169.065-.026.18c-.254,1.722-.5,3.413-.73,4.947l-.089-.21a20.473,20.473,0,0,1,3.943,3.768l-.2-.075,4.91-.959.158-.031.064.147c1.172,2.657,2.288,5.188,3.339,7.573l.059.133-.117.086-4.02,2.978.065-.161a20.435,20.435,0,0,1,.119,5.438l-.065-.14,4.142,2.8.086.058-.037.1-3.022,7.706-.024.061-.063-.01-3.664-.578-.947-.158a2.526,2.526,0,0,1-.326-.066" fill="#e0e0e0"/>
            <path id="Path_203615" data-name="Path 203615" d="M559.5,165.207a32.029,32.029,0,0,1-5.87,6.164l1.528,7.742-11.935,5.294-4.715-6.328a32.012,32.012,0,0,1-8.51.215l-4.393,6.553-12.182-4.7,1.139-7.8a31.946,31.946,0,0,1-6.164-5.871L500.654,168l-5.294-11.933,6.328-4.716a32.01,32.01,0,0,1-.213-8.51l-6.553-4.392,4.7-12.184,7.806,1.141a31.881,31.881,0,0,1,5.87-6.164l-1.528-7.744,11.935-5.294,4.715,6.329a32.046,32.046,0,0,1,8.509-.214l4.393-6.552,12.184,4.7-1.141,7.805a31.888,31.888,0,0,1,6.164,5.871l7.743-1.528,5.295,11.934-6.329,4.715a32.012,32.012,0,0,1,.214,8.51L572,154.163l-4.7,12.183ZM546.317,151.9a14.007,14.007,0,1,0-18.106,8.032,14.007,14.007,0,0,0,18.106-8.032" fill="#ebebeb" fill-rule="evenodd"/>
            <path id="Path_203616" data-name="Path 203616" d="M90.843,209.792a3.752,3.752,0,1,1-3.752-3.752,3.752,3.752,0,0,1,3.752,3.752" fill="#e0e0e0"/>
            <path id="Path_203617" data-name="Path 203617" d="M87.092,328.859c-.18,0-.326-26.046-.326-58.168s.146-58.174.326-58.174.326,26.041.326,58.174-.146,58.168-.326,58.168" fill="#e0e0e0"/>
            <path id="Path_203618" data-name="Path 203618" d="M227.372,29.212a3.751,3.751,0,1,1-3.752-3.752,3.752,3.752,0,0,1,3.752,3.752" fill="#e0e0e0"/>
            <path id="Path_203619" data-name="Path 203619" d="M223.621,268.259c-.18,0-.326-52.907-.326-118.155,0-65.271.146-118.167.326-118.167s.326,52.9.326,118.167c0,65.248-.146,118.155-.326,118.155" fill="#e0e0e0"/>
            <path id="Path_203620" data-name="Path 203620" d="M26.969,169.333a4.018,4.018,0,1,1-4.018-4.018,4.018,4.018,0,0,1,4.018,4.018" fill="#e0e0e0"/>
            <path id="Path_203621" data-name="Path 203621" d="M23.183,169.333s.018.212.026.627c.007.434.015,1.048.026,1.849.012,1.649.028,4.055.05,7.173.021,6.282.051,15.413.089,26.9.029,23.021.069,55.478.117,93.295v.1l-.058.081C17.741,307.253,11.787,315.51,5.664,324l.06-.188c0,10.464,0,21.384.005,32.526-.01,28.48-.02,55.516-.029,79.669l-.068-.189,21.54,26.127.06.074v.094c-.047,24.085-.086,43.888-.113,57.692-.031,6.88-.055,12.261-.072,15.944-.016,1.818-.029,3.213-.038,4.176-.013.943-.04,1.428-.04,1.428s-.027-.485-.04-1.428c-.009-.963-.021-2.358-.038-4.176-.017-3.683-.041-9.064-.072-15.944-.027-13.8-.066-33.607-.113-57.692l.06.167L5.175,436.2l-.068-.082v-.107c-.009-24.153-.019-51.189-.029-79.669,0-11.142,0-22.062,0-32.526v-.1l.061-.084L22.933,299l-.058.18c.048-37.817.088-70.274.117-93.295.038-11.49.068-20.621.089-26.9.022-3.118.038-5.524.05-7.173.011-.8.019-1.415.025-1.849.009-.415.027-.627.027-.627" fill="#e0e0e0"/>
            <path id="Path_203622" data-name="Path 203622" d="M313.649,113.8a4.521,4.521,0,1,1-4.521-4.521,4.521,4.521,0,0,1,4.521,4.521" fill="#e0e0e0"/>
            <path id="Path_203623" data-name="Path 203623" d="M288.845,372.357a4.521,4.521,0,1,1-4.521-4.521,4.521,4.521,0,0,1,4.521,4.521" fill="#e0e0e0"/>
            <path id="Path_203624" data-name="Path 203624" d="M309.79,113.8a2.408,2.408,0,0,1,.025.4c.006.286.014.671.025,1.169.011,1.057.027,2.577.048,4.542.02,4,.049,9.791.085,17.1.029,14.685.07,35.45.118,59.884v.125l-.089.089-25.45,25.481.1-.229c0,4.522,0,9.313,0,14.165-.037,36.8-.071,70.111-.1,94.251-.043,12.041-.078,21.792-.1,28.562-.026,3.351-.047,5.963-.061,7.765-.014.868-.025,1.54-.032,2.02-.012.455-.034.688-.034.688s-.022-.233-.033-.688c-.008-.48-.019-1.152-.032-2.02-.015-1.8-.035-4.414-.062-7.765-.024-6.77-.059-16.521-.1-28.562-.025-24.14-.058-57.45-.1-94.251,0-4.852,0-9.643,0-14.165v-.134l.1-.1,25.482-25.45-.088.213c.048-24.434.089-45.2.117-59.884.037-7.311.066-13.106.086-17.1.021-1.965.037-3.485.048-4.542.01-.5.019-.883.025-1.169a2.271,2.271,0,0,1,.025-.4" fill="#e0e0e0"/>
          </g>
        </g>
        <g id="Group_146891" data-name="Group 146891">
          <g id="Group_146890" data-name="Group 146890" clip-path="url(#clip-path)">
            <path id="Path_203625" data-name="Path 203625" d="M174.043,369.893c-4.9-8.4-10.126-16.817-17.837-23.765-19.538-17.6-53.077-22.84-81.586-16.518-22,4.879-42.777,17.258-48.547,34.754-2.6,7.9-2.022,16.207-1.2,24.341,5.359,53.2,31.989,149.749,33.028,151.985l179.538-.733c-10.561-58.72-31.99-116.209-63.393-170.064" fill="#455a64"/>
            <path id="Path_203626" data-name="Path 203626" d="M237.436,539.958s-.111-.461-.3-1.365q-.274-1.38-.8-4.019c-.359-1.765-.758-3.958-1.306-6.534-.563-2.575-1.213-5.543-1.943-8.882a518.664,518.664,0,0,0-16.025-55.645,539.971,539.971,0,0,0-34.854-78.427l-2.917-5.357q-1.52-2.667-3.056-5.364c-2.04-3.6-4.121-7.237-6.37-10.814-4.476-7.136-9.737-14.133-16.686-19.508a27.443,27.443,0,0,0-2.638-1.962c-.909-.619-1.8-1.277-2.728-1.866-1.924-1.084-3.771-2.328-5.8-3.248L139,335.489,135.9,334.2l-1.558-.644-1.6-.552-3.208-1.1a106.68,106.68,0,0,0-27.111-4.481,114.862,114.862,0,0,0-27.4,2.431,92.827,92.827,0,0,0-25.006,9.262,62.98,62.98,0,0,0-10.735,7.333,48,48,0,0,0-8.581,9.371c-.553.892-1.156,1.752-1.665,2.662q-.715,1.394-1.425,2.779l-1.128,2.892a29.909,29.909,0,0,0-.87,2.96A46.721,46.721,0,0,0,24.5,379.238c.114,4.026.477,8,.957,11.912s.863,7.775,1.474,11.557c1.067,7.585,2.34,14.914,3.618,21.99,2.573,14.152,5.413,27.251,8.065,39.191,5.357,23.873,10.248,43.063,13.7,56.3,1.724,6.621,3.123,11.745,4.073,15.22.486,1.723.857,3.041,1.112,3.942.273.879.4,1.338.4,1.338s-.166-.44-.462-1.318c-.269-.9-.661-2.21-1.174-3.927-.991-3.463-2.43-8.578-4.192-15.19-3.53-13.221-8.49-32.4-13.906-56.266-2.682-11.938-5.55-25.036-8.147-39.194-1.291-7.079-2.576-14.413-3.654-22.007-.617-3.785-1-7.66-1.49-11.574s-.855-7.9-.974-11.962a47.289,47.289,0,0,1,1.118-12.274,30.192,30.192,0,0,1,.883-3.015q.572-1.47,1.147-2.947l1.448-2.83c.517-.926,1.128-1.8,1.691-2.707a48.583,48.583,0,0,1,8.687-9.5,63.6,63.6,0,0,1,10.833-7.409,93.378,93.378,0,0,1,25.178-9.337,115.379,115.379,0,0,1,27.558-2.449,107.156,107.156,0,0,1,27.283,4.514l3.231,1.1,1.609.557,1.571.65,3.133,1.3,3.031,1.491c2.05.929,3.916,2.185,5.857,3.28.942.6,1.837,1.261,2.754,1.887a27.863,27.863,0,0,1,2.665,1.984c7.026,5.44,12.329,12.51,16.817,19.677,2.256,3.6,4.335,7.234,6.374,10.842l3.055,5.372q1.465,2.7,2.915,5.366a535.857,535.857,0,0,1,34.76,78.561A505.089,505.089,0,0,1,233.335,519.1c.709,3.346,1.339,6.32,1.886,8.9.528,2.581.907,4.779,1.245,6.548s.571,3.11.74,4.032.23,1.377.23,1.377" fill="#263238"/>
            <path id="Path_203627" data-name="Path 203627" d="M33.326,351.865a2.91,2.91,0,0,1-.047.5c-.051.361-.118.845-.2,1.463-.18,1.286-.386,3.19-.537,5.648a97.665,97.665,0,0,0,1.508,20.774c3.023,17.384,6.727,41.5,12.145,67.871,2.723,13.186,5.7,25.668,8.854,36.9s6.459,21.2,9.471,29.492c3.105,8.255,5.865,14.842,7.882,19.343,1.008,2.221,1.8,3.959,2.347,5.174.252.571.45,1.02.6,1.353a2.768,2.768,0,0,1,.183.471,251.771,251.771,0,0,1-11.44-26.18c-3.071-8.28-6.444-18.25-9.617-29.491s-6.189-23.729-8.914-36.927c-5.423-26.4-9.054-50.521-11.962-67.933a94.381,94.381,0,0,1-1.307-20.859,50.387,50.387,0,0,1,1.042-7.6" fill="#263238"/>
            <path id="Path_203628" data-name="Path 203628" d="M56.574,394.316c.022.108-1.244.382-3.192,1.085a30.037,30.037,0,0,0-7.128,3.736c-5.207,3.67-7.727,8.351-7.9,8.205a11.105,11.105,0,0,1,1.693-2.948,25.632,25.632,0,0,1,13.192-9.43,11.111,11.111,0,0,1,3.338-.648" fill="#263238"/>
            <path id="Path_203629" data-name="Path 203629" d="M49.508,406.3c-.01.2-2.375.117-5.175.771-2.807.629-4.9,1.728-5,1.556-.1-.133,1.93-1.534,4.851-2.191,2.915-.677,5.349-.3,5.32-.136" fill="#263238"/>
            <path id="Path_203630" data-name="Path 203630" d="M44.4,466.877c-.074-.031-.044-.347.226-.768a3.161,3.161,0,0,1,3.442-1.23c.476.155.7.38.662.451-.077.166-1.137-.233-2.36.229-1.238.417-1.806,1.4-1.97,1.318" fill="#263238"/>
            <path id="Path_203631" data-name="Path 203631" d="M46.82,471.986c-.18,0-.074-1.285,1.084-2.2s2.429-.75,2.386-.575c0,.187-1.037.307-1.979,1.084-.964.749-1.31,1.738-1.491,1.693" fill="#263238"/>
          </g>
        </g>
        <g id="Group_146896" data-name="Group 146896">
          <g id="Group_146895" data-name="Group 146895" clip-path="url(#clip-path)">
            <path id="Path_203632" data-name="Path 203632" d="M278.583,491.462s-4.005-98.163-7.7-115.173c-4.7-21.641-22.92-34.712-22.92-34.712L240.982,510.4l7.258,4.342,4.273,2.251c1.921,7.177-2.044,8.931,17.591,13.977,1.575.405,32.931,5.359,32.931,5.359l3.077-31.854Z" fill="#b78876"/>
            <path id="Path_203633" data-name="Path 203633" d="M332.1,535.212s-11.338.775-15.964,2.646c-5.024,2.03-11.218.848-15.427-1.878a43.74,43.74,0,0,1-6.682-5.216l-15.454.081a18.546,18.546,0,0,1-3.415-19.079,20.7,20.7,0,0,1,3.413-6.1c1.793-2.023,2.609-3.223,7.6-4.193l20.485,3.109s28.393-2.628,33.5-.345c0,0,6.433,3.636,8.432,5.175.754.58,3.157,7.768-1.389,11.626,0,0,4.094,3.118,1.973,6.036l-1.018,1.3s2.781,3.448,1.424,5-13.376,8.941-17.763,7.333-1.329-5.223.571-6" fill="#b78876"/>
            <path id="Path_203634" data-name="Path 203634" d="M344.024,514.846a11.231,11.231,0,0,0-1.494.569c-.951.385-2.332.933-4.066,1.525-.867.3-1.824.6-2.858.9s-2.16.551-3.328.958a7.175,7.175,0,0,0-3.292,2.081,4.116,4.116,0,0,0-.806,4.079,3.2,3.2,0,0,0,1.537,1.583,5.653,5.653,0,0,0,2.034.521,16.821,16.821,0,0,0,3.854-.285,34.029,34.029,0,0,0,6.24-1.767c1.726-.65,3.085-1.261,4.023-1.684a9.585,9.585,0,0,0,1.431-.715,9.9,9.9,0,0,0-1.508.534c-.96.367-2.337.926-4.068,1.529a36.233,36.233,0,0,1-6.195,1.643,16.7,16.7,0,0,1-3.735.251,5.183,5.183,0,0,1-1.85-.476,2.709,2.709,0,0,1-1.3-1.334,3.647,3.647,0,0,1,.728-3.569,6.8,6.8,0,0,1,3.062-1.953c1.125-.4,2.254-.669,3.29-.994s1.995-.642,2.859-.961c1.73-.639,3.1-1.24,4.027-1.682a8.451,8.451,0,0,0,1.414-.749" fill="#aa6550"/>
            <path id="Path_203635" data-name="Path 203635" d="M342.751,506.114a10.807,10.807,0,0,0-1.485.574c-.946.387-2.316.946-4.036,1.56s-3.789,1.284-6.122,1.9a8.425,8.425,0,0,0-3.561,1.528,3.057,3.057,0,0,0-1.014,1.879,3.874,3.874,0,0,0,.358,2.154,5.2,5.2,0,0,0,3.226,2.631,8.375,8.375,0,0,0,3.866.225,37.18,37.18,0,0,0,6.17-1.927l4.061-1.519a9.51,9.51,0,0,0,1.467-.622,9.649,9.649,0,0,0-1.532.437l-4.115,1.367a40.141,40.141,0,0,1-6.12,1.8,7.993,7.993,0,0,1-3.646-.236,4.731,4.731,0,0,1-2.919-2.373,2.861,2.861,0,0,1,.532-3.453,8.151,8.151,0,0,1,3.347-1.445,63.686,63.686,0,0,0,6.126-2.01c1.714-.66,3.068-1.272,3.992-1.715a8.677,8.677,0,0,0,1.4-.754" fill="#aa6550"/>
            <path id="Path_203636" data-name="Path 203636" d="M336.967,508.737a14.846,14.846,0,0,0,.5-2.445,14.659,14.659,0,0,0,.565-2.431,6.041,6.041,0,0,0-1.064,4.876" fill="#aa6550"/>
            <path id="Path_203637" data-name="Path 203637" d="M294.242,510l10.708-4.386s29.683-14.619,30.206-13.872,2.145.63,1.866,4.292-17.592,11.4-18.118,12.675.529,7.66-5.826,12.381-11.009,4.918-11.009,4.918" fill="#b78876"/>
            <path id="Path_203638" data-name="Path 203638" d="M302.069,526.005a.8.8,0,0,0,.257,0c.168-.011.419-.035.745-.089a16.794,16.794,0,0,0,2.789-.732,27.15,27.15,0,0,0,9.044-5.46,13,13,0,0,0,3.548-6.388,29.536,29.536,0,0,0,.553-4.044,2.267,2.267,0,0,1,.1-.466.871.871,0,0,1,.277-.294,9.955,9.955,0,0,1,.864-.586c.606-.374,1.238-.733,1.879-1.1,2.571-1.439,5.309-2.9,8.067-4.561,1.378-.831,2.764-1.711,4.106-2.711a15.77,15.77,0,0,0,1.92-1.672,5.351,5.351,0,0,0,.8-1.058,2.269,2.269,0,0,0,.235-.678,5.051,5.051,0,0,0,.05-.666,4.741,4.741,0,0,0-.517-2.6,3.083,3.083,0,0,0-.972-.935,1.793,1.793,0,0,1-.421-.349.6.6,0,0,0-.106-.1.326.326,0,0,0-.213-.062.968.968,0,0,0-.211.021c-.115.024-.223.052-.326.083-1.613.535-3.086,1.219-4.564,1.863-2.937,1.312-5.74,2.633-8.407,3.9-5.332,2.537-10.106,4.876-14.108,6.855-1,.486-1.948.99-2.854,1.4l-2.619,1.094-4.191,1.762-2.641,1.133-.682.307a1,1,0,0,0-.226.12.891.891,0,0,0,.246-.072l.7-.26,2.679-1.046,4.227-1.686,2.637-1.059c.932-.4,1.869-.891,2.88-1.369l14.15-6.755c2.671-1.254,5.477-2.565,8.409-3.867,1.465-.636,2.968-1.326,4.505-1.833.1-.03.189-.053.278-.072a.593.593,0,0,1,.1-.012c.005-.017,0,.037.014-.041.032-.093-.007-.079.017-.123a.086.086,0,0,1,.034-.037c-.335.237-.084.077-.155.134l.031.038a2.254,2.254,0,0,0,.532.453,2.6,2.6,0,0,1,.83.788,4.29,4.29,0,0,1,.44,2.317,2.221,2.221,0,0,1-.226,1.119,4.934,4.934,0,0,1-.723.952,15.519,15.519,0,0,1-1.854,1.614c-1.317.984-2.692,1.861-4.061,2.69-2.739,1.66-5.467,3.124-8.039,4.579-.642.366-1.276.729-1.891,1.114a10.438,10.438,0,0,0-.9.62,1.247,1.247,0,0,0-.413.489,2.659,2.659,0,0,0-.119.562,29.486,29.486,0,0,1-.521,4.011,12.678,12.678,0,0,1-3.393,6.231,24.914,24.914,0,0,1-4.786,3.558A25.877,25.877,0,0,1,305.793,525a19.335,19.335,0,0,1-2.741.817c-.32.07-.566.109-.732.138a1.145,1.145,0,0,0-.251.048" fill="#aa6550"/>
            <path id="Path_203639" data-name="Path 203639" d="M335.159,526.72a3.741,3.741,0,0,0-1.14.358,11.313,11.313,0,0,0-2.793,1.693,10.279,10.279,0,0,0-1.6,1.619,3.444,3.444,0,0,0-.818,2.542,2.8,2.8,0,0,0,2.043,2.118,5.4,5.4,0,0,0,3.139-.165,57.662,57.662,0,0,0,9.855-4.2,31.783,31.783,0,0,0,2.76-1.711,4.878,4.878,0,0,0,.937-.738,6.056,6.056,0,0,0-1.043.572c-.656.389-1.612.938-2.822,1.562a69.131,69.131,0,0,1-9.831,4.029,4.975,4.975,0,0,1-2.849.176,2.334,2.334,0,0,1-1.729-1.72,3.045,3.045,0,0,1,.7-2.217,10.325,10.325,0,0,1,1.494-1.595,17.018,17.018,0,0,1,3.7-2.324" fill="#aa6550"/>
            <path id="Path_203640" data-name="Path 203640" d="M113.73,238.74c-2.767-.591-3.8-4.83-1.607-6.623-2.026-1.113-1.453-4.315.134-6s3.854-2.714,5.089-4.668a4.743,4.743,0,0,1-5.667-4.1,3.87,3.87,0,0,1-2.452-7.1c-2.165-.184-1.981-3.764-.172-4.968s4.194-1.117,6.16-2.042a25.577,25.577,0,0,1,13.58-7.967l-8.863-6.6a5.1,5.1,0,0,1-1.784-1.883c-.772-1.76.607-3.7,2.067-4.953a20.746,20.746,0,0,1,11.014-4.815c1.3-.151,2.956.046,3.369,1.284,2.753-1.3,5.938-1.163,8.978-1,1.705.091,3.572.251,4.787,1.449-.648-1.571-2-2.72-3.16-3.96s-2.225-2.8-2.055-4.494,2.213-3.155,3.619-2.2c-1.574-.741-1.366-3.27-.027-4.38s3.224-1.2,4.963-1.242c1.213-.027,2.757.174,3.089,1.341.552-2.714,5.188-3.092,6.173-.5a4.2,4.2,0,0,1,6.05.475,5.4,5.4,0,0,1,7.638,2.84l-4.711-7.9c-.889-1.492-1.043-4.287.684-4.108-2.48.01-3.9-3.379-2.688-5.544s4.014-2.985,6.475-2.682l2.153,3.116a4.906,4.906,0,0,1,7.5,5.463c1-1.067,2.935-.484,3.725.744a7.307,7.307,0,0,1,.714,4.251c2.407-2.027,6.842.332,6.506,3.461a13.7,13.7,0,0,1,7.12-1.474,4.824,4.824,0,0,1,6.279-6.85,4.756,4.756,0,0,1,6.14-3.867c.767-2.879,4.542-5.007,6.838-3.109,2.373,1.962,1.095,5.765-.36,8.479l-4.731,8.828,15.4-8.259a2.69,2.69,0,0,1,1.542-.457c.744.092,1.263.769,1.934,1.1.93.465,2.061.233,3.055.537,2.72.832,2.673,4.984.811,7.134s-4.71,3.175-6.819,5.084l6.847,1.293a7,7,0,0,1,9.03-4.734c.932-2.527,4.318-2.849,7.009-2.737,2.411.1,5.064.3,6.772,2.006,2.184,2.179,1.772,6.009-.066,8.487s-4.713,3.929-7.48,5.292c.46,2.049,3.119,2.679,5.2,2.372s4.237-1.118,6.2-.379c2.67,1,3.8,4.455,6.48,5.43a11.414,11.414,0,0,1,2.447.813,4.853,4.853,0,0,1,1.647,3.185l1,4.447a5.362,5.362,0,0,1,.182,2.232c-.488,2.417-3.86,2.94-6.142,2.008s-4.237-2.733-6.675-3.093c3.214,1.6,6.608,3.373,8.407,6.483s1.058,7.943-2.324,9.156c-3.422,1.227-6.793-1.733-9.285-4.381S255.4,203,252.1,204.51" fill="#263238"/>
            <path id="Path_203641" data-name="Path 203641" d="M118.678,236.618c-2.592-1.937-7.01.618-6.624,3.831a9.17,9.17,0,0,0-3.432,15.838c2.022,1.706,6.039,1.769,6.465-.842a7.138,7.138,0,0,0,5.063,4.4,6.914,6.914,0,0,0,2.788,9.8c-4.118,2.831-3.339,10.293,1.276,12.211a5.643,5.643,0,1,0,10.305,4.6c.883,2.113,1.861,4.346,3.757,5.633s4.992,1.061,5.95-1.02c1.047,4.535,7.057,7.07,11.035,4.653a5.013,5.013,0,0,0,9.856,1.733l12.909.986a46.238,46.238,0,0,0,8.579.122,23.182,23.182,0,0,0,10.22-3.7,7.86,7.86,0,0,1,3.134-1.555,8.057,8.057,0,0,1,3.892.947,20.953,20.953,0,0,0,20.229-2.98,10.526,10.526,0,0,1,2.794-1.861,9.437,9.437,0,0,1,3.852-.2,37.81,37.81,0,0,0,9.493-.542c2.681-.5,5.544-1.456,6.986-3.77s.314-6.175-2.406-6.366a5.857,5.857,0,0,1,1.861-4.775,3.522,3.522,0,0,1,4.78.212c1.123,1.369.255,3.936-1.514,4.017,2.745,2.263,7.519-.17,7.9-3.707s-2.889-6.782-6.431-7.111a16.1,16.1,0,0,0,.874-7.783,5.757,5.757,0,0,0,7.736,1.56,9.928,9.928,0,0,0,6,5.15c2.635.655,5.794-.506,6.847-3.008s-.865-5.927-3.579-5.841c2.16-2.866-.306-7.78-3.894-7.762a7.958,7.958,0,0,0-4.115-8.834,4.189,4.189,0,0,0,6.134-1.781c1.42,2.73,5.472,2.441,8.251,1.117,2.181-1.038,4.32-2.6,3.977-5.763a6.33,6.33,0,0,0-1.974-3.871c-2.552-2.411-6.106-2.853-9.481-3.23a41.3,41.3,0,0,1-2.859-13.2c3.764.448,7.842-2.026,8.631-5.734l-18.694-11.62s-43.273-6.681-44.826-6.681-91.993,46.578-91.993,46.578c-2.091,2.188-6.178,1.2-7.714-1.409s-.919-6.05.729-8.589,4.159-4.371,6.613-6.143c-2.895-.2-5.984-.469-8.127-2.573a4.605,4.605,0,0,1-1.239-5c1.043-2.492,3.927-2.322,5.776-3.741a10.431,10.431,0,0,0,2.378-3.3" fill="#263238"/>
            <path id="Path_203642" data-name="Path 203642" d="M239.55,226.775c-1.08-15.451-11.45-34.346-26.841-32.612L164.7,206.646a9.064,9.064,0,0,0-8.046,9.248l5.312,103.731-11.568,5.53c-.114.026,11.975,6.724,11.861,6.75,0,0,11.106,32.658,42.844,22.519,6.293-2.01,9.139-8.917,10.356-16.014l.326.04c.008-.842,10.5-8.874,10.505-9.678-.007.8-10.342-5.862-10.342-5.862l-.025-2.814c.046-9.364.018-13.2.025-13.116,0,0,19.725-3.414,23.641-29.207,1.948-12.827,1.161-33.832-.038-51" fill="#b78876"/>
            <path id="Path_203643" data-name="Path 203643" d="M233.07,245.384a3.3,3.3,0,0,1-3.164,3.356,3.161,3.161,0,0,1-3.426-2.956,3.306,3.306,0,0,1,3.16-3.358,3.162,3.162,0,0,1,3.43,2.958" fill="#263238"/>
            <path id="Path_203644" data-name="Path 203644" d="M235.067,237.735c-.407.434-2.923-1.4-6.479-1.368-3.552-.018-6.149,1.83-6.538,1.4-.191-.192.222-.972,1.352-1.807a9.071,9.071,0,0,1,5.23-1.652,8.712,8.712,0,0,1,5.161,1.627c1.1.832,1.475,1.609,1.274,1.8" fill="#263238"/>
            <path id="Path_203645" data-name="Path 203645" d="M199.111,245.525a3.3,3.3,0,0,1-3.163,3.355,3.161,3.161,0,0,1-3.427-2.955,3.307,3.307,0,0,1,3.161-3.358,3.163,3.163,0,0,1,3.429,2.958" fill="#263238"/>
            <path id="Path_203646" data-name="Path 203646" d="M200.12,238.637c-.408.434-2.927-1.4-6.48-1.368-3.552-.017-6.15,1.829-6.538,1.4-.19-.192.217-.972,1.352-1.807a9.064,9.064,0,0,1,5.23-1.652,8.715,8.715,0,0,1,5.161,1.627c1.1.832,1.474,1.609,1.275,1.8" fill="#263238"/>
            <path id="Path_203647" data-name="Path 203647" d="M213.2,264.919c-.018-.2,2.19-.6,5.768-1.081.908-.1,1.766-.287,1.915-.907a4.621,4.621,0,0,0-.625-2.687q-1.3-3.288-2.732-6.9c-3.8-9.818-6.55-17.9-6.154-18.044s3.8,7.688,7.592,17.507q1.369,3.631,2.619,6.937c.351,1.029.95,2.2.5,3.561a2.281,2.281,0,0,1-1.484,1.338,6.188,6.188,0,0,1-1.541.224c-3.6.219-5.839.25-5.854.048" fill="#263238"/>
            <path id="Path_203648" data-name="Path 203648" d="M215.947,306.98a65.552,65.552,0,0,1-34.57-8.969s8.493,17.642,34.264,15.055Z" fill="#aa6550"/>
            <path id="Path_203649" data-name="Path 203649" d="M213.621,272.936a9.009,9.009,0,0,0-7.387-3.919,5.447,5.447,0,0,0-4.57,8.523,5.578,5.578,0,0,0,5.9,2.128,12.991,12.991,0,0,0,5.291-3.332,4.092,4.092,0,0,0,1.129-1.368,1.886,1.886,0,0,0-.166-1.853" fill="#aa6550"/>
            <path id="Path_203650" data-name="Path 203650" d="M202.756,267.45c.578-.037.612,3.822,3.934,6.539s7.428,2.264,7.461,2.8c.056.242-.911.756-2.647.815a9.611,9.611,0,0,1-6.227-2.122A8.367,8.367,0,0,1,202.226,270c-.158-1.612.266-2.571.53-2.551" fill="#263238"/>
            <path id="Path_203651" data-name="Path 203651" d="M201.676,230.43c-.344.969-3.9.535-8.065,1.067-4.18.447-7.535,1.691-8.095.828-.25-.413.33-1.327,1.684-2.272a14.142,14.142,0,0,1,12.312-1.444c1.536.607,2.312,1.361,2.164,1.821" fill="#263238"/>
            <path id="Path_203652" data-name="Path 203652" d="M233.689,227.453c-.62.811-3.075-.01-6.021-.029-2.945-.123-5.436.579-6.016-.261-.255-.409.133-1.22,1.217-1.992a8.717,8.717,0,0,1,9.7.234c1.047.823,1.394,1.652,1.121,2.048" fill="#263238"/>
            <path id="Path_203653" data-name="Path 203653" d="M156.541,242.314a4.31,4.31,0,0,0,1.228,4.936,2.971,2.971,0,0,0,4.222-1.169c1.122,1.516,3.707-.022,3.355-2,1.394.783,3.223-1.088,2.778-2.839,1.617.625,2.583-1.988,3.434-3.736a28.113,28.113,0,0,1,1.663-2.659,18.11,18.11,0,0,0,2.68-9.719c2.11-2.393,2.651-6.088,3.08-9.515l.8-6.416,1.2-1.486a3.49,3.49,0,0,0,2.3,3.337,7.452,7.452,0,0,0,3.889-.048l3.836-.734,2.388.7c-.709,1.99-.01,4.254.685,6.251.481,1.379,1.057,2.88,2.2,3.494a1.812,1.812,0,0,0,2.534-1.931,2.009,2.009,0,0,0,3.112-.479,6.6,6.6,0,0,0,.881-3.949,16.887,16.887,0,0,0-3.038-9.312l6.634,6.271a3.108,3.108,0,0,0,1.627,1.006,1.761,1.761,0,0,0,1.867,1.952,4.582,4.582,0,0,0,2.474-1.659c1.629-1.7,3.359-4.59,1.922-6.517a1.442,1.442,0,0,0,.649-2.109l7.536,5.785c-.752-.442-1.592.729-1.429,1.706a4.011,4.011,0,0,0,1.565,2.248,5.915,5.915,0,0,0-.885,3.582c-1.354-1.228-3.408,1.027-2.978,2.984a4.277,4.277,0,0,0,3.983,3.137c1.4.11,3.121-.548,3.38-2.19,1.658.359,3.267-1.917,2.682-3.793,1.2.807,2.259-1.345,2.333-2.975a23.455,23.455,0,0,0-1.28-8.789c-.048.419.418.773.718.545a.645.645,0,0,0-.115-1q2.113,5.207,4.226,10.414c1.116,2.749,2.255,5.608,2.3,8.659.019,1.24.154,2.942,1.2,3.058a1.53,1.53,0,0,0,.819-.212c3.008-1.458,5.337-4.485,6.85-7.9a11.758,11.758,0,0,0,1.058-3.649c.247-2.661-.854-5.232-1.034-7.9a25.866,25.866,0,0,0-.217-3.521,10.589,10.589,0,0,0-2.716-4.609c-4.056-4.729-8.342-9.624-13.793-11.544-3.33-1.173-6.893-1.148-10.231-2.288a59.865,59.865,0,0,1-6-2.783c-8.232-3.885-17.331-4.411-26.168-3.682a41.938,41.938,0,0,0-14.517,3.366c-5.056,2.369-9.486,6.286-13.652,10.429-6.221,6.185-12.089,13.1-16.064,21.5-3.054,6.451-4.94,13.982-3.877,21.273s5.565,14.137,11.665,15.659l2.408-2.75" fill="#263238"/>
            <path id="Path_203654" data-name="Path 203654" d="M163.587,247.252c-.355-.164-14.345-4.606-14.218,9.776s14.54,11.289,14.562,10.876-.344-20.652-.344-20.652" fill="#b78876"/>
            <path id="Path_203655" data-name="Path 203655" d="M159.489,262.494c-.064-.045-.249.178-.671.375a2.5,2.5,0,0,1-1.872.056c-1.525-.545-2.825-2.946-2.918-5.537a8.274,8.274,0,0,1,.67-3.594,2.889,2.889,0,0,1,1.867-1.939,1.275,1.275,0,0,1,1.485.673c.2.4.107.689.184.713.041.035.307-.244.185-.837a1.6,1.6,0,0,0-.573-.9,1.893,1.893,0,0,0-1.389-.354,3.521,3.521,0,0,0-2.6,2.253,8.517,8.517,0,0,0-.833,4.016c.118,2.9,1.625,5.6,3.71,6.179a2.684,2.684,0,0,0,2.288-.4c.442-.359.515-.681.465-.707" fill="#aa6550"/>
            <path id="Path_203656" data-name="Path 203656" d="M210.624,242.858a30.69,30.69,0,0,0-.657-4.131,16.975,16.975,0,0,0-6.216-9.235,16.759,16.759,0,0,0-15.879-2.362,16.812,16.812,0,0,0-7.766,5.841,16.669,16.669,0,0,0,0,19.773,16.788,16.788,0,0,0,7.767,5.842,16.894,16.894,0,0,0,22.1-11.6,30.664,30.664,0,0,0,.657-4.131,6.9,6.9,0,0,1,.01,1.09,7.8,7.8,0,0,1-.1,1.32,11.966,11.966,0,0,1-.317,1.782,17.168,17.168,0,0,1-13.441,12.818,17.327,17.327,0,0,1-9.1-.718,17.331,17.331,0,0,1-8.078-6.029,17.252,17.252,0,0,1,0-20.528,17.335,17.335,0,0,1,8.077-6.027,17.323,17.323,0,0,1,9.1-.718,17.164,17.164,0,0,1,13.442,12.817,11.966,11.966,0,0,1,.317,1.782,7.807,7.807,0,0,1,.1,1.321,6.9,6.9,0,0,1-.01,1.09" fill="#455a64"/>
            <path id="Path_203657" data-name="Path 203657" d="M251.2,242.858a30.561,30.561,0,0,0-.656-4.131,16.986,16.986,0,0,0-6.216-9.235,16.759,16.759,0,0,0-15.879-2.362,16.8,16.8,0,0,0-7.766,5.841,16.664,16.664,0,0,0,0,19.773,16.788,16.788,0,0,0,7.767,5.842,16.9,16.9,0,0,0,22.1-11.6,30.535,30.535,0,0,0,.656-4.131,6.647,6.647,0,0,1,.011,1.09,7.8,7.8,0,0,1-.1,1.32,11.977,11.977,0,0,1-.318,1.782,17.165,17.165,0,0,1-13.44,12.818,17.332,17.332,0,0,1-9.105-.718,17.322,17.322,0,0,1-8.077-6.029,17.248,17.248,0,0,1,0-20.528,17.339,17.339,0,0,1,8.076-6.027,17.327,17.327,0,0,1,9.1-.718,17.164,17.164,0,0,1,13.441,12.817,11.977,11.977,0,0,1,.318,1.782,7.806,7.806,0,0,1,.1,1.321,6.647,6.647,0,0,1-.011,1.09" fill="#455a64"/>
            <path id="Path_203658" data-name="Path 203658" d="M217.85,238.857c-.079.178-1.722-.494-3.854-.553-2.131-.088-3.816.47-3.881.286-.084-.144,1.612-1.026,3.9-.937,2.291.069,3.922,1.066,3.83,1.2" fill="#455a64"/>
            <path id="Path_203659" data-name="Path 203659" d="M176.4,244.549c.047.165-3.13,1.176-7.181,1.823s-7.384.7-7.392.526c-.012-.188,3.275-.516,7.288-1.169s7.237-1.362,7.285-1.18" fill="#455a64"/>
            <path id="Path_203660" data-name="Path 203660" d="M208.826,240.175a9.122,9.122,0,0,1-.17,3.216,20.247,20.247,0,0,1-2.827,7.245,17.436,17.436,0,0,1-5.431,5.579c-1.8,1.045-3.188.761-3.142.692a7.655,7.655,0,0,0,2.9-1.086,19.34,19.34,0,0,0,5.12-5.533A23.029,23.029,0,0,0,208.2,243.3c.443-1.906.512-3.13.622-3.124" fill="#fff"/>
            <path id="Path_203661" data-name="Path 203661" d="M245.934,251.124a22.109,22.109,0,0,1,1.378-2.686,13.154,13.154,0,0,0,1.133-3,10.408,10.408,0,0,0,.064-3.876,20.481,20.481,0,0,0-2.031-6.856c-.874-1.619-1.754-2.4-1.669-2.479.026-.029.275.129.661.494a8.7,8.7,0,0,1,1.406,1.753,18.042,18.042,0,0,1,2.278,7,10.325,10.325,0,0,1-.126,4.1,11.982,11.982,0,0,1-1.311,3.075,10.318,10.318,0,0,1-1.783,2.466" fill="#fff"/>
            <path id="Path_203662" data-name="Path 203662" d="M153.438,267.415c.02.057-.373.179-.942.6a4.66,4.66,0,0,0-1.642,2.408,4.076,4.076,0,0,0,.863,4.006,4.839,4.839,0,0,0,4.787,1.4,5.17,5.17,0,0,0,2.6-7.871,6.356,6.356,0,0,0-2.189-2,10.024,10.024,0,0,1-1-.512,2.426,2.426,0,0,1,1.113.285,6.023,6.023,0,0,1,2.453,1.965,5.549,5.549,0,0,1,1.009,4.546,5.717,5.717,0,0,1-3.8,4.216,5.384,5.384,0,0,1-5.42-1.628,4.464,4.464,0,0,1-1.087-2.332,4.8,4.8,0,0,1,.233-2.215,4.646,4.646,0,0,1,1.939-2.478,2.086,2.086,0,0,1,1.084-.391" fill="#455a64"/>
            <path id="Path_203663" data-name="Path 203663" d="M213.093,201.6a3.589,3.589,0,0,0,.968-1.849,2.545,2.545,0,0,0-.648-2.166,2.708,2.708,0,0,0-2.75-.709l-.6.2.259-.58a2.839,2.839,0,0,0-.756-3.186,2.785,2.785,0,0,0-3.575.125l-.474-.444a1.269,1.269,0,0,0,.2-.361,1.607,1.607,0,0,0-.23-1.354,1.849,1.849,0,0,0-1.169-.741,3.073,3.073,0,0,0-1.439.064,3.9,3.9,0,0,1-1.613.357c-.689-.124-.993-.634-1.346-.863a5.317,5.317,0,0,0-1.113-.69,6.172,6.172,0,0,0-2.308-.53,6.3,6.3,0,0,0-3.352.8c-.72.417-1.05.761-1.093.716a2.873,2.873,0,0,1,.958-.931,6.15,6.15,0,0,1,3.494-1.049,6.433,6.433,0,0,1,2.518.495,5.853,5.853,0,0,1,1.25.735c.417.3.728.692,1.077.719a3.783,3.783,0,0,0,1.356-.36,3.673,3.673,0,0,1,1.743-.092,2.486,2.486,0,0,1,1.574,1,2.244,2.244,0,0,1,.312,1.921,1.89,1.89,0,0,1-.318.575l-.474-.445a3.3,3.3,0,0,1,5.285,3.761l-.34-.376a3.169,3.169,0,0,1,3.258.929,2.965,2.965,0,0,1-.164,4c-.283.265-.477.343-.489.323" fill="#455a64"/>
            <path id="Path_203664" data-name="Path 203664" d="M229.154,205.772a4.408,4.408,0,0,0,1.226-1.8,3.219,3.219,0,0,0-.146-2.436,3.358,3.358,0,0,0-2.529-1.839l-.462-.061.313-.353a4.019,4.019,0,0,0,1.1-3.513,2.158,2.158,0,0,0-1.293-1.452,1.711,1.711,0,0,0-1.906.252l-1.834,1.948,1.338-2.322a3.337,3.337,0,0,0,.181-2.807,3.073,3.073,0,0,0-2.223-1.905,3.266,3.266,0,0,0-2.152.213l-.752.367.31-.78c.439-1.1-.686-2.39-1.8-2.537a5.468,5.468,0,0,0-3.408.85l-.62.333.2-.67a2.372,2.372,0,0,0-.776-2.3,4.4,4.4,0,0,0-2.206-.984,11.165,11.165,0,0,0-4.131.1,17.829,17.829,0,0,0-3.468,1.242,3.034,3.034,0,0,1,.809-.561,10.614,10.614,0,0,1,2.58-1.023,11.071,11.071,0,0,1,4.292-.235,4.857,4.857,0,0,1,2.488,1.062,2.916,2.916,0,0,1,.975,2.86l-.423-.337a6.008,6.008,0,0,1,3.8-.956,3.017,3.017,0,0,1,1.884,1.13,2.308,2.308,0,0,1,.416,2.271l-.443-.414a3.894,3.894,0,0,1,2.586-.265,3.718,3.718,0,0,1,2.676,2.308,3.956,3.956,0,0,1-.243,3.353l-.5-.374a2.315,2.315,0,0,1,2.6-.373,2.74,2.74,0,0,1,1.611,1.864,4.5,4.5,0,0,1-1.293,3.991l-.148-.413a3.763,3.763,0,0,1,2.82,2.163,3.56,3.56,0,0,1-.931,4.091c-.3.25-.5.327-.507.31" fill="#455a64"/>
            <path id="Path_203665" data-name="Path 203665" d="M263.785,208.777a2.422,2.422,0,0,0-.834-1.768,3.1,3.1,0,0,0-2.142-.773,9.206,9.206,0,0,0-3.075.727l-.358.132.05-.382A2.787,2.787,0,0,0,255.162,204a8.089,8.089,0,0,0-4.576.733l-2.011.748L250.3,204.2c.939-.7.759-2.413-.174-3.291a5.2,5.2,0,0,0-4.019-.953l-.194.018-1.27.116,1.058-.712c1.3-.873.984-3.151-.272-3.884a3.719,3.719,0,0,0-4.137.4l-1.324,1.045.884-1.437a5.564,5.564,0,0,0-.014-5.66,5.192,5.192,0,0,0-3.814-2.435,5.877,5.877,0,0,0-3.039.392c-.668.283-.985.532-1.012.494-.01-.013.061-.083.211-.207a3.881,3.881,0,0,1,.72-.462,5.737,5.737,0,0,1,3.161-.576,5.536,5.536,0,0,1,4.2,2.533,6.062,6.062,0,0,1,.1,6.237l-.44-.392a4.307,4.307,0,0,1,4.852-.468,3.126,3.126,0,0,1,1.4,2.357,2.75,2.75,0,0,1-1.109,2.607l-.212-.6.2-.019a5.766,5.766,0,0,1,4.519,1.14,3.317,3.317,0,0,1,.974,2.129,2.391,2.391,0,0,1-.874,2.111l-.289-.532a8.509,8.509,0,0,1,4.925-.69,3.269,3.269,0,0,1,2.585,3.306l-.308-.251a9.3,9.3,0,0,1,3.235-.655,3.33,3.33,0,0,1,2.312.955,2.314,2.314,0,0,1,.716,1.409.966.966,0,0,1-.059.546" fill="#455a64"/>
            <path id="Path_203666" data-name="Path 203666" d="M245.644,175.8a1.938,1.938,0,0,1-.854.306,11.056,11.056,0,0,1-2.516.13,7.468,7.468,0,0,0-3.62.543,2.3,2.3,0,0,0-1.265,1.573,1.666,1.666,0,0,0,.66,1.9l-.444.314c-.133-.831-1.162-1.358-2.091-1.908a10.824,10.824,0,0,0-3.033-1.305,3.908,3.908,0,0,0-3.082.474,2.591,2.591,0,0,0-1.333,2.39l.1.8-.606-.531a7.189,7.189,0,0,0-4.228-1.743,8.1,8.1,0,0,0-3.624.521,10.329,10.329,0,0,0-2.779,1.775,2.533,2.533,0,0,1,.553-.708,6.88,6.88,0,0,1,2.083-1.411,8.154,8.154,0,0,1,3.8-.688,7.6,7.6,0,0,1,4.6,1.8l-.5.264a3.2,3.2,0,0,1,1.588-3,4.537,4.537,0,0,1,3.568-.574,11.183,11.183,0,0,1,3.219,1.389,13.571,13.571,0,0,1,1.406.906,2.364,2.364,0,0,1,.964,1.464l.089.612-.533-.3a2.239,2.239,0,0,1-.927-2.568,2.839,2.839,0,0,1,1.582-1.9,7.533,7.533,0,0,1,3.873-.459,14.12,14.12,0,0,0,2.469.045,8.272,8.272,0,0,1,.884-.108" fill="#455a64"/>
            <path id="Path_203667" data-name="Path 203667" d="M213.513,163.354a6.754,6.754,0,0,0-1.7.236,4.107,4.107,0,0,0-1.623,1.027,3.546,3.546,0,0,0-1.036,2.18l-.029.35-.333-.113a2.138,2.138,0,0,0-2.369,1.331,6.493,6.493,0,0,0-.126,3.577l.2,1.27-.79-1.042-.124-.163a2.752,2.752,0,0,0-2.226-.923,3.075,3.075,0,0,0-2.121.922,4.9,4.9,0,0,0-1.3,3.827,9.057,9.057,0,0,0,.724,2.8,4.99,4.99,0,0,1,.4,1.016c-.035.021-.284-.285-.628-.907a8,8,0,0,1-.954-2.869,5.277,5.277,0,0,1,1.337-4.294,3.616,3.616,0,0,1,5.278.014l.16.213-.593.227a6.892,6.892,0,0,1,.207-3.938,2.688,2.688,0,0,1,3.109-1.585l-.362.237a3.937,3.937,0,0,1,1.272-2.453,4.206,4.206,0,0,1,1.844-1.012,3.429,3.429,0,0,1,1.339-.077c.3.059.456.121.45.146" fill="#455a64"/>
            <path id="Path_203668" data-name="Path 203668" d="M185.18,183.032c-.009.035-.324.01-.854-.193a5.394,5.394,0,0,1-1.955-1.384,5.755,5.755,0,0,1-1.48-3.253,2.966,2.966,0,0,0-.427-1.767c-.37-.455-1.161-.743-1.648-1.495a3.255,3.255,0,0,1,.836-4.378l-.028.475a10.4,10.4,0,0,1-2.767-3.851,4.19,4.19,0,0,1-.454-1.772c.074-.021.266.619.78,1.621a11.423,11.423,0,0,0,2.826,3.549l.308.256-.337.219a2.681,2.681,0,0,0-.62,3.522c.329.558,1.036.812,1.591,1.442a3.392,3.392,0,0,1,.538,2.127,5.529,5.529,0,0,0,1.231,3.005,8.211,8.211,0,0,0,2.46,1.877" fill="#455a64"/>
            <path id="Path_203669" data-name="Path 203669" d="M176.833,188.735c0,.027-.186.059-.542.076a7.269,7.269,0,0,1-1.539-.134,8.651,8.651,0,0,1-4.792-2.721l.42-.008a5.567,5.567,0,0,1-3.813,2.014,5.766,5.766,0,0,1-2.421-.286,3.541,3.541,0,0,1-2.065-1.619,7.162,7.162,0,0,1-.257-.934,1.276,1.276,0,0,0-.406-.6,4.016,4.016,0,0,0-1.5-.665,5.2,5.2,0,0,1-1.67-.683,1.852,1.852,0,0,1-.921-1.6l.41.287a5.732,5.732,0,0,1-3.96.091,6.2,6.2,0,0,1-2.6-1.632,5.121,5.121,0,0,1-1.073-1.668,1.687,1.687,0,0,1-.159-.686,8.1,8.1,0,0,0,1.481,2.1,6.1,6.1,0,0,0,2.5,1.413,5.3,5.3,0,0,0,3.583-.164l.435-.184-.024.47a1.26,1.26,0,0,0,.676,1.057,4.655,4.655,0,0,0,1.5.582,4.535,4.535,0,0,1,1.745.784,1.925,1.925,0,0,1,.607.9,8.639,8.639,0,0,0,.232.863,2.99,2.99,0,0,0,1.688,1.277,5.208,5.208,0,0,0,2.145.272,5.075,5.075,0,0,0,3.445-1.735l.209-.256.211.248a8.793,8.793,0,0,0,4.448,2.772c1.253.323,2.013.29,2.011.365" fill="#455a64"/>
            <path id="Path_203670" data-name="Path 203670" d="M125.584,208.683c-.014,0-.04-.073-.076-.223a3.685,3.685,0,0,1-.107-.675,6.865,6.865,0,0,1,.311-2.58,15.321,15.321,0,0,1,1.746-3.643,14.268,14.268,0,0,1,1.443-2.055,3.831,3.831,0,0,1,1.13-.871,1.716,1.716,0,0,1,1.591,0l-.408.265a4.317,4.317,0,0,1,7.039-3.755l-.523.256a2.983,2.983,0,0,1,1.206-2.433,2.863,2.863,0,0,1,2.771-.338,2.942,2.942,0,0,1,1.274.967l-.586.219a1.853,1.853,0,0,1,.685-1.526,2.535,2.535,0,0,1,1.466-.612,5.875,5.875,0,0,1,2.776.711l-.4.124a4.631,4.631,0,0,1,2.812-1.963,6.476,6.476,0,0,1,3.182,0A16.391,16.391,0,0,1,157.814,193l-.343.291a1.142,1.142,0,0,1,.131-1.128,1.966,1.966,0,0,1,.8-.611,3.337,3.337,0,0,1,1.731-.261,9.4,9.4,0,0,1,2.584.783,8.435,8.435,0,0,1,1.463.864c.31.232.454.377.442.394-.036.053-.673-.468-2.009-1.019a9.785,9.785,0,0,0-2.523-.652,3,3,0,0,0-1.509.276c-.495.221-.918.687-.68,1.168l.353.716-.7-.424a16.391,16.391,0,0,0-4.771-2.283,5.948,5.948,0,0,0-2.9.028,4.041,4.041,0,0,0-2.43,1.708l-.143.235-.253-.111a5.341,5.341,0,0,0-2.472-.646c-.773.043-1.617.7-1.551,1.445l.1,1.143-.688-.925a2.293,2.293,0,0,0-.989-.746,2.211,2.211,0,0,0-2.145.252,2.353,2.353,0,0,0-.954,1.9l.021.7-.544-.447a3.816,3.816,0,0,0-4.282-.32,3.862,3.862,0,0,0-1.8,3.53l.047.536-.456-.27c-.693-.412-1.539.154-2.088.734a14.378,14.378,0,0,0-1.429,1.948,15.985,15.985,0,0,0-1.82,3.5,8.683,8.683,0,0,0-.432,3.381" fill="#455a64"/>
            <path id="Path_203671" data-name="Path 203671" d="M129.21,227.7c-.019.011-.132-.129-.326-.412a10.222,10.222,0,0,1-.762-1.3,4.637,4.637,0,0,1-.517-2.379,3.368,3.368,0,0,1,.492-1.486,2.428,2.428,0,0,1,1.424-1.092l-.135.349a3.031,3.031,0,0,1,3.239-4.648l-.3.458a2.438,2.438,0,0,1,.1-2.889,3.614,3.614,0,0,1,2.77-1.291,13.892,13.892,0,0,0,1.451,0,1.246,1.246,0,0,0,.9-.778,5.293,5.293,0,0,1,.839-1.4,2.809,2.809,0,0,1,1.53-.842,16.048,16.048,0,0,1,3.462-.084,3.744,3.744,0,0,0,2.8-.811,14.449,14.449,0,0,0,.892-1.242,3.239,3.239,0,0,1,1.313-1.011,3.42,3.42,0,0,1,3.039.165l-.381.4a2.576,2.576,0,0,1,.354-2.99,3.635,3.635,0,0,1,2.432-1.2,11.577,11.577,0,0,1,4.247.529,14.181,14.181,0,0,1,2.544,1.019,3.3,3.3,0,0,1,.823.514,32.659,32.659,0,0,0-3.455-1.211,11.78,11.78,0,0,0-4.1-.388,3.171,3.171,0,0,0-2.089,1.07,2.049,2.049,0,0,0-.285,2.347l.689,1.018-1.071-.616a2.849,2.849,0,0,0-2.512-.1,2.623,2.623,0,0,0-1.059.831,13.3,13.3,0,0,1-.93,1.3,3.385,3.385,0,0,1-1.543.857,7.528,7.528,0,0,1-1.716.164,16.167,16.167,0,0,0-3.312.073,2.154,2.154,0,0,0-1.2.651,4.828,4.828,0,0,0-.745,1.264,1.9,1.9,0,0,1-1.358,1.1,12.173,12.173,0,0,1-1.538.005,3.019,3.019,0,0,0-2.307,1.025,1.86,1.86,0,0,0-.127,2.169l.513.665-.813-.207a2.57,2.57,0,0,0-2.768,1.133,2.626,2.626,0,0,0,.05,2.7l.179.272-.314.078a2.473,2.473,0,0,0-1.666,2.174,4.518,4.518,0,0,0,.387,2.237c.512,1.18.913,1.789.858,1.819" fill="#455a64"/>
            <path id="Path_203672" data-name="Path 203672" d="M130.3,267.239a1.454,1.454,0,0,1-.632-.205,4.472,4.472,0,0,1-1.482-1.169,4.629,4.629,0,0,1-1.093-2.75,4.94,4.94,0,0,1,1.334-3.626l-.028.346a8.943,8.943,0,0,1-1.689-3.23,3.639,3.639,0,0,1,.151-2.078,2.666,2.666,0,0,1,1.538-1.609l-.065.573a3.775,3.775,0,0,1-1.62-3.39,4.23,4.23,0,0,1,.67-2.119,3.542,3.542,0,0,1,1.681-1.342c.62-.273.907-.563.924-1.191a5.166,5.166,0,0,1,.438-1.9,6.564,6.564,0,0,1,2.42-2.592c.875-.631,1.681-1.228,2.446-1.749a10.84,10.84,0,0,1,3.968-1.862,5.051,5.051,0,0,1,1.2-.1c.272.023.414.045.412.068,0,.065-.576.009-1.552.277a11.655,11.655,0,0,0-3.759,1.992l-2.389,1.806a6.105,6.105,0,0,0-2.194,2.4,4.566,4.566,0,0,0-.365,1.712,1.885,1.885,0,0,1-.36,1.071,2.538,2.538,0,0,1-.909.642,3.364,3.364,0,0,0-.664,5.734l.554.345-.618.227a2.58,2.58,0,0,0-1.311,2.961,8.684,8.684,0,0,0,1.541,3.04l.129.188-.157.158a4.536,4.536,0,0,0-1.281,3.23,4.422,4.422,0,0,0,.9,2.572,6.452,6.452,0,0,0,1.869,1.568" fill="#455a64"/>
            <path id="Path_203673" data-name="Path 203673" d="M150.632,250.346a2.6,2.6,0,0,1-.891-.189,8.135,8.135,0,0,1-2.279-1.187,8.653,8.653,0,0,1-2.591-3.033,3.478,3.478,0,0,1-.439-2.5,1.712,1.712,0,0,1,.995-1.107,1.371,1.371,0,0,1,1.582.268l-.488.295a4.4,4.4,0,0,1-.444-2.5,2.087,2.087,0,0,1,.778-1.225,1.742,1.742,0,0,1,1.491-.211,2.585,2.585,0,0,0,1.12.153c.234-.073.286-.373.259-.858a3.968,3.968,0,0,1,1.1-2.75,4.278,4.278,0,0,1,4.412-1.261l-.414.382a3.679,3.679,0,0,1,.675-3.581,2.236,2.236,0,0,1,1.761-.555,1.666,1.666,0,0,1,1.446,1.059l-.551.113a8.809,8.809,0,0,1,1.109-4.736,9.148,9.148,0,0,1,2.427-2.854,8.02,8.02,0,0,1,2.1-1.181,2.652,2.652,0,0,1,.824-.211,13,13,0,0,0-2.711,1.651,9.188,9.188,0,0,0-2.226,2.814,8.467,8.467,0,0,0-.954,4.478l.156,2.358-.707-2.245c-.244-.774-1.6-.892-2.25-.249a3.107,3.107,0,0,0-.478,2.979l.157.579-.571-.2a3.656,3.656,0,0,0-3.725,1.1,3.33,3.33,0,0,0-.931,2.3,2.762,2.762,0,0,1-.056.769,1.024,1.024,0,0,1-.629.7,2.787,2.787,0,0,1-1.48-.137,1.1,1.1,0,0,0-.99.1,1.483,1.483,0,0,0-.546.855,3.927,3.927,0,0,0,.39,2.153l.6,1.581-1.09-1.286c-.431-.508-1.495-.051-1.631.615a3.039,3.039,0,0,0,.358,2.133,8.6,8.6,0,0,0,2.371,2.973,12.476,12.476,0,0,0,2.961,1.648" fill="#455a64"/>
            <path id="Path_203674" data-name="Path 203674" d="M183.181,210.286a4.855,4.855,0,0,1-1.923-.77A5.441,5.441,0,0,1,179.513,208a3.581,3.581,0,0,1-.633-2.822,2.726,2.726,0,0,1,.265-.678l.137.448a3.1,3.1,0,0,1-1.6-2.146,2.839,2.839,0,0,1,.417-2.109c.71-1.037,1.551-1.139,1.543-1.074.054.09-.656.347-1.164,1.3a2.5,2.5,0,0,0-.227,1.763,2.6,2.6,0,0,0,1.321,1.69l.287.145-.151.3a2.212,2.212,0,0,0-.2.513,3.121,3.121,0,0,0,.5,2.333,5.667,5.667,0,0,0,1.5,1.463,10.079,10.079,0,0,1,1.675,1.158" fill="#455a64"/>
            <path id="Path_203675" data-name="Path 203675" d="M198.293,203.292a3.819,3.819,0,0,0,.458-2.375,2.7,2.7,0,0,0-1.529-2.036,2.914,2.914,0,0,0-3.1.482l-.406.384-.107-.552a5.315,5.315,0,0,0-.74-1.915,2.448,2.448,0,0,0-1.621-1.16c-1.037-.142-2.2.821-1.919,1.68l-.614.123a4.949,4.949,0,0,0-1.779-3.237,4.839,4.839,0,0,0-2.783-1.068,7.492,7.492,0,0,0-2.723.489c-.016-.026.188-.21.639-.429a4.922,4.922,0,0,1,2.1-.458,5.089,5.089,0,0,1,3.107,1.042,5.419,5.419,0,0,1,2.069,3.59l-.614.124a1.825,1.825,0,0,1,.646-1.885,2.587,2.587,0,0,1,1.952-.618,3.051,3.051,0,0,1,2.082,1.455,5.822,5.822,0,0,1,.807,2.157l-.513-.168a3.428,3.428,0,0,1,3.746-.507,3.07,3.07,0,0,1,1.685,2.454,3.141,3.141,0,0,1-.378,1.907c-.234.392-.437.539-.456.521" fill="#455a64"/>
            <path id="Path_203676" data-name="Path 203676" d="M261.94,425.917l18.951-7.835s-3.188-24.146-11.348-46.7c-6.817-18.835-18.007-27.3-21.511-29.585l-.069-.223-5.651-3.42-24.347-15.669c4.281,19.464-30.559,39.436-60.195-2.361l-48.983,19.807L121.6,478.653l-12.148,61.36L232,539.655l.018,1.18,26.074-.248-5.581-27.231c2.431-26.187,10.224-57.984,9.318-78.994.13-2.641.156-5.475.109-8.445" fill="#feca2e"/>
            <path id="Path_203677" data-name="Path 203677" d="M256.449,480.461a6.057,6.057,0,0,0,.293-.986q.267-1.07.716-2.86c.314-1.242.674-2.767,1.024-4.553s.815-3.805,1.174-6.068c.4-2.256.819-4.729,1.159-7.4.406-2.664.682-5.529,1.005-8.541.544-6.033.91-12.689.917-19.683-.033-7-.423-13.652-.991-19.683-.333-3.012-.621-5.876-1.036-8.539-.35-2.671-.782-5.143-1.187-7.4-.367-2.261-.832-4.281-1.2-6.063s-.722-3.307-1.04-4.548l-.727-2.857a5.956,5.956,0,0,0-.3-.985,6.088,6.088,0,0,0,.169,1.016q.227,1.077.606,2.883c.279,1.248.609,2.776.931,4.564s.761,3.809,1.1,6.07c.376,2.254.78,4.724,1.1,7.392.392,2.659.658,5.518.974,8.522.533,6.018.9,12.654.936,19.628-.006,6.971-.352,13.607-.862,19.626-.3,3.005-.561,5.865-.942,8.525-.316,2.668-.711,5.14-1.078,7.4-.329,2.262-.752,4.286-1.076,6.073s-.639,3.32-.914,4.569q-.374,1.809-.6,2.885a6.13,6.13,0,0,0-.165,1.017" fill="#263238"/>
            <path id="Path_203678" data-name="Path 203678" d="M256.742,479.475a2.368,2.368,0,0,1-.069.631c-.087.481-.194,1.069-.322,1.782-.306,1.541-.711,3.778-1.186,6.544a134.277,134.277,0,0,0-2,21.791,101.375,101.375,0,0,0,.733,12.02,94.117,94.117,0,0,0,1.777,9.676c.289,1.373.664,2.586.946,3.664s.562,2,.8,2.744c.206.694.377,1.266.516,1.735a2.357,2.357,0,0,1,.138.62,2.327,2.327,0,0,1-.262-.577l-.633-1.7c-.273-.739-.6-1.646-.907-2.722s-.724-2.282-1.043-3.655a84.959,84.959,0,0,1-1.925-9.709,95.015,95.015,0,0,1-.79-12.1,120.409,120.409,0,0,1,2.2-21.872c.535-2.763,1.01-4.99,1.392-6.517.176-.7.322-1.282.442-1.756a2.339,2.339,0,0,1,.2-.6" fill="#263238"/>
            <path id="Path_203679" data-name="Path 203679" d="M59.99,437.188l25.125-71.9s6.638-21.181,26.548-26.413L125.9,410.788l-6.6,39.329Z" fill="#feca2e"/>
            <path id="Path_203680" data-name="Path 203680" d="M130.806,391.938a2.155,2.155,0,0,1-.016.606c-.047.469-.1,1.037-.171,1.721-.16,1.494-.447,3.65-.871,6.3-.823,5.312-2.31,12.588-4.116,20.576s-3.416,15.226-4.5,20.48c-.527,2.552-.962,4.653-1.286,6.223-.148.672-.271,1.229-.372,1.689a2.144,2.144,0,0,1-.173.581,2.155,2.155,0,0,1,.044-.6c.068-.466.151-1.031.251-1.711.225-1.486.6-3.625,1.084-6.267.973-5.282,2.52-12.541,4.32-20.533s3.36-15.23,4.3-20.511c.481-2.637.837-4.779,1.073-6.26.117-.678.213-1.24.293-1.7a2.152,2.152,0,0,1,.146-.589" fill="#263238"/>
            <path id="Path_203681" data-name="Path 203681" d="M223.306,326.852a5.277,5.277,0,0,1-.028.953c-.027.312-.031.7-.1,1.155s-.171.983-.271,1.561c-.142.578-.324,1.217-.528,1.914a20.3,20.3,0,0,1-.908,2.184,19.2,19.2,0,0,1-3.238,4.757,33.325,33.325,0,0,1-12.475,8.1A35.624,35.624,0,0,1,187.7,349.57a43.466,43.466,0,0,1-17.148-6.183,61.872,61.872,0,0,1-11.436-9.574,94.991,94.991,0,0,1-6.555-7.618c-.724-.94-1.275-1.677-1.635-2.188a5.183,5.183,0,0,1-.527-.795,5.282,5.282,0,0,1,.632.715q.651.8,1.728,2.109c1.513,1.82,3.719,4.445,6.687,7.455a63.419,63.419,0,0,0,11.424,9.387,43.428,43.428,0,0,0,16.916,6.046,35.379,35.379,0,0,0,17.755-2.005,33.383,33.383,0,0,0,12.357-7.855,19.181,19.181,0,0,0,3.251-4.607,20.8,20.8,0,0,0,.941-2.124c.218-.68.415-1.3.574-1.871q.182-.851.326-1.532c.087-.445.111-.83.16-1.137a5.26,5.26,0,0,1,.158-.941" fill="#fafafa"/>
            <g id="Group_146894" data-name="Group 146894" opacity="0.3">
              <g id="Group_146893" data-name="Group 146893">
                <g id="Group_146892" data-name="Group 146892" clip-path="url(#clip-path-5)">
                  <path id="Path_203682" data-name="Path 203682" d="M118.674,488.684c7.431-8.812,8.137-21.294,8.493-32.815.451-14.582.135-31.415.586-46-2.7,12.924-6.78,32.772-8.8,40.244,0,0,.979,7.623,1.033,10.606.051,2.725-.188,5.705.067,8.416.66,7.011,1.758,14.758-2.3,20.516"/>
                </g>
              </g>
            </g>
            <path id="Path_203683" data-name="Path 203683" d="M258.694,395.129a1.332,1.332,0,0,1-.315.127l-.943.309-3.648,1.128c-1.583.493-3.526,1.075-5.808,1.662s-4.857,1.343-7.754,1.979c-2.886.682-6.049,1.425-9.477,2.07-3.412.729-7.092,1.315-10.961,1.961-7.754,1.172-16.329,2.16-25.367,2.691-9.045.482-17.679.458-25.516.15-3.917-.216-7.641-.39-11.112-.743-3.479-.265-6.7-.661-9.646-1.027-2.949-.318-5.593-.789-7.922-1.136s-4.325-.711-5.952-1.035l-3.745-.738-.971-.207a1.331,1.331,0,0,1-.326-.093,1.315,1.315,0,0,1,.339.027l.983.145,3.765.616c1.631.285,3.629.622,5.962.925s4.975.751,7.922,1.038c2.942.337,6.163.706,9.636.946,3.466.33,7.183.484,11.091.683,7.822.274,16.433.279,25.455-.2,9.016-.529,17.571-1.5,25.313-2.634,3.863-.628,7.539-1.192,10.948-1.9,3.426-.62,6.589-1.336,9.476-1.988,2.9-.607,5.481-1.323,7.766-1.883s4.239-1.1,5.831-1.554l3.68-1.01.962-.247a1.332,1.332,0,0,1,.334-.063" fill="#fafafa"/>
            <path id="Path_203684" data-name="Path 203684" d="M272.287,379.59c.1.153-2.895,2.17-6.676,4.505s-6.925,4.1-7.019,3.95,2.894-2.169,6.677-4.505,6.924-4.1,7.018-3.95" fill="#fafafa"/>
            <path id="Path_203685" data-name="Path 203685" d="M129.485,398.814a12.779,12.779,0,0,1-2.09-.114c-1.343-.109-3.279-.329-5.666-.654a157.893,157.893,0,0,1-36.339-9.538c-2.238-.889-4.033-1.649-5.256-2.213a12.95,12.95,0,0,1-1.877-.927,12.779,12.779,0,0,1,1.975.693c1.251.491,3.069,1.185,5.322,2.016,4.506,1.666,10.8,3.789,17.888,5.655s13.612,3.1,18.356,3.859c2.371.382,4.3.671,5.626.857a12.81,12.81,0,0,1,2.061.366" fill="#fafafa"/>
            <path id="Path_203686" data-name="Path 203686" d="M165.106,497.192l19.053.394s28.571-10.323,34.446-9.337c5.291.889,24.662,13.757,28.457,16.3a2.408,2.408,0,0,1,.919,1.17,4.154,4.154,0,0,1-2.31,5.279l-.4.165.174.578a6.927,6.927,0,0,1,.291,2.311,2.793,2.793,0,0,1-5.19,1.206l.73,1.3a3.168,3.168,0,0,1,.4,1.735l-.065,1.178a3.177,3.177,0,0,1-5.514,1.973c-2.457-2.7-7.764-8.115-11.354-8.714a84.206,84.206,0,0,0-11.726-.587,3.974,3.974,0,0,0-3.687,2.538c2.131.152,16.976,7.894,22.229,10.665a5.62,5.62,0,0,1,3.055,4.228c.192,1.644-.639,3.367-3.891,2.608-6.98-1.63-19.542-7.406-19.542-7.406s-6.479-1.851-10.677,1.111c-5.9,4.166-8.61,5.693-13.68,4.012a42.963,42.963,0,0,1-8.809-4.093L159.7,526.876s-9.53-16.6,5.409-29.684" fill="#b78876"/>
            <path id="Path_203687" data-name="Path 203687" d="M209.225,502.41c.025.109,2.027-.533,5.367-.745a27.713,27.713,0,0,1,23.093,9.855c2.159,2.558,3.081,4.448,3.176,4.39a6.546,6.546,0,0,0-.636-1.321,24,24,0,0,0-2.246-3.311,26.863,26.863,0,0,0-23.415-9.993,24.118,24.118,0,0,0-3.945.67,6.533,6.533,0,0,0-1.394.455" fill="#aa6550"/>
            <path id="Path_203688" data-name="Path 203688" d="M212.251,495.472a23.5,23.5,0,0,1,5.588-.975,24.374,24.374,0,0,1,12.994,3.68,52.339,52.339,0,0,1,10.472,8.86l2.869,3.049a8.516,8.516,0,0,0,1.1,1.083,8.381,8.381,0,0,0-.939-1.222c-.631-.762-1.56-1.854-2.748-3.17a48.063,48.063,0,0,0-10.473-9.061,23.773,23.773,0,0,0-13.287-3.6,15.93,15.93,0,0,0-4.148.759,9.668,9.668,0,0,0-1.069.411c-.24.105-.362.168-.355.185" fill="#aa6550"/>
            <path id="Path_203689" data-name="Path 203689" d="M67.273,438.776c0-.125-9.913,44.568-11.2,52.425-1.508,9.187-4.018,31.529,16.463,35.884s105.485-1.276,105.485-1.276l6.141-28.223-77.88-11.06,8.507-37.393Z" fill="#b78876"/>
          </g>
        </g>
        <g id="Group_146898" data-name="Group 146898">
          <g id="Group_146897" data-name="Group 146897" clip-path="url(#clip-path)">
            <path id="Path_203690" data-name="Path 203690" d="M69.782,71.362c0-3.807,2-6.077,4.763-6.077s4.78,2.27,4.78,6.077-2.014,6.078-4.78,6.078-4.763-2.271-4.763-6.078m8.28,0c0-3.192-1.434-4.95-3.517-4.95s-3.517,1.758-3.517,4.95,1.434,4.951,3.517,4.951,3.517-1.758,3.517-4.951" fill="#263238"/>
            <path id="Path_203691" data-name="Path 203691" d="M81.078,71.362c0-3.807,2-6.077,4.763-6.077s4.78,2.27,4.78,6.077-2.014,6.078-4.78,6.078-4.763-2.271-4.763-6.078m8.28,0c0-3.192-1.434-4.95-3.517-4.95s-3.517,1.758-3.517,4.95,1.434,4.951,3.517,4.951,3.517-1.758,3.517-4.951" fill="#263238"/>
            <path id="Path_203692" data-name="Path 203692" d="M95.652,65.387v11.95h-1.23V66.48H91.606V65.387Z" fill="#263238"/>
            <path id="Path_203693" data-name="Path 203693" d="M98.5,71.362c0-3.807,2-6.077,4.763-6.077s4.78,2.27,4.78,6.077-2.014,6.078-4.78,6.078S98.5,75.169,98.5,71.362m8.28,0c0-3.192-1.434-4.95-3.517-4.95s-3.517,1.758-3.517,4.95,1.434,4.951,3.517,4.951,3.517-1.758,3.517-4.951" fill="#263238"/>
            <path id="Path_203694" data-name="Path 203694" d="M113.074,65.387v11.95h-1.23V66.48h-2.816V65.387Z" fill="#263238"/>
            <path id="Path_203695" data-name="Path 203695" d="M58.022,88.314c0-3.807,2-6.077,4.763-6.077s4.78,2.27,4.78,6.077-2.014,6.078-4.78,6.078-4.763-2.271-4.763-6.078m8.28,0c0-3.192-1.434-4.951-3.517-4.951s-3.517,1.759-3.517,4.951,1.434,4.95,3.517,4.95,3.517-1.757,3.517-4.95" fill="#263238"/>
            <path id="Path_203696" data-name="Path 203696" d="M69.318,88.314c0-3.807,2-6.077,4.763-6.077s4.78,2.27,4.78,6.077-2.014,6.078-4.78,6.078-4.763-2.271-4.763-6.078m8.28,0c0-3.192-1.434-4.951-3.517-4.951s-3.517,1.759-3.517,4.951,1.434,4.95,3.517,4.95,3.517-1.757,3.517-4.95" fill="#263238"/>
            <path id="Path_203697" data-name="Path 203697" d="M83.892,82.339v11.95h-1.23V83.432H79.846V82.339Z" fill="#263238"/>
            <path id="Path_203698" data-name="Path 203698" d="M86.74,88.314c0-3.807,2-6.077,4.763-6.077s4.78,2.27,4.78,6.077-2.014,6.078-4.78,6.078-4.763-2.271-4.763-6.078m8.28,0c0-3.192-1.434-4.951-3.517-4.951s-3.517,1.759-3.517,4.951,1.434,4.95,3.517,4.95,3.517-1.757,3.517-4.95" fill="#263238"/>
            <path id="Path_203699" data-name="Path 203699" d="M101.314,82.339v11.95h-1.23V83.432H97.268V82.339Z" fill="#263238"/>
            <path id="Path_203700" data-name="Path 203700" d="M107.474,82.339v11.95h-1.23V83.432h-2.816V82.339Z" fill="#263238"/>
            <path id="Path_203701" data-name="Path 203701" d="M110.321,88.314c0-3.807,2-6.077,4.763-6.077s4.78,2.27,4.78,6.077-2.014,6.078-4.78,6.078-4.763-2.271-4.763-6.078m8.28,0c0-3.192-1.434-4.951-3.517-4.951s-3.517,1.759-3.517,4.951,1.434,4.95,3.517,4.95,3.517-1.757,3.517-4.95" fill="#263238"/>
            <path id="Path_203702" data-name="Path 203702" d="M124.9,82.339v11.95h-1.23V83.432H120.85V82.339Z" fill="#263238"/>
            <path id="Path_203703" data-name="Path 203703" d="M69.784,104.707c0-3.807,2-6.077,4.763-6.077s4.78,2.27,4.78,6.077-2.014,6.078-4.78,6.078-4.763-2.271-4.763-6.078m8.28,0c0-3.192-1.434-4.951-3.517-4.951s-3.517,1.759-3.517,4.951,1.434,4.95,3.517,4.95,3.517-1.757,3.517-4.95" fill="#263238"/>
            <path id="Path_203704" data-name="Path 203704" d="M84.358,98.732v11.95h-1.23V99.825H80.312V98.732Z" fill="#263238"/>
            <path id="Path_203705" data-name="Path 203705" d="M90.519,98.732v11.95h-1.23V99.825H86.473V98.732Z" fill="#263238"/>
            <path id="Path_203706" data-name="Path 203706" d="M96.679,98.732v11.95h-1.23V99.825H92.633V98.732Z" fill="#263238"/>
            <path id="Path_203707" data-name="Path 203707" d="M99.525,104.707c0-3.807,2-6.077,4.763-6.077s4.78,2.27,4.78,6.077-2.014,6.078-4.78,6.078-4.763-2.271-4.763-6.078m8.28,0c0-3.192-1.434-4.951-3.517-4.951s-3.517,1.759-3.517,4.951,1.434,4.95,3.517,4.95,3.517-1.757,3.517-4.95" fill="#263238"/>
            <path id="Path_203708" data-name="Path 203708" d="M114.1,98.732v11.95h-1.23V99.825h-2.816V98.732Z" fill="#263238"/>
            <path id="Path_203709" data-name="Path 203709" d="M138.155,131.4c0,.055-.579-.012-1.572.2a7.006,7.006,0,0,0-3.62,2.146,6.652,6.652,0,0,0-1.442,2.517,5.785,5.785,0,0,0,.007,3.286,6.326,6.326,0,0,0,11.786,1.359,5.788,5.788,0,0,0,.755-3.2,6.654,6.654,0,0,0-.832-2.779,7.006,7.006,0,0,0-3.036-2.913c-.918-.437-1.5-.5-1.485-.556a1.317,1.317,0,0,1,.415.039,2.5,2.5,0,0,1,.494.113,3.959,3.959,0,0,1,.655.23,7.1,7.1,0,0,1,4.2,5.839,6.159,6.159,0,0,1-.766,3.446,7.2,7.2,0,0,1-2.734,2.778,6.369,6.369,0,0,1-7.856-.906,7.2,7.2,0,0,1-2.03-3.327,6.154,6.154,0,0,1,.039-3.529,7.1,7.1,0,0,1,5.415-4.732,4.028,4.028,0,0,1,.69-.074,2.57,2.57,0,0,1,.507,0,1.326,1.326,0,0,1,.413.057" fill="#263238"/>
            <path id="Path_203710" data-name="Path 203710" d="M145.131,103.25s.042-.29.148-.851l.482-2.483q.162-.82.361-1.828c.1-.677.146-1.428.232-2.235s.162-1.68.252-2.61a9.272,9.272,0,0,0,.059-1.445q0-.747,0-1.538a50.663,50.663,0,0,0-2.174-15.144,52.881,52.881,0,0,0-9.3-17.929l-1.793-2.225c-.648-.712-1.348-1.392-2.031-2.1L130.323,51.8a10.328,10.328,0,0,0-1.091-1.03L126.9,48.8c-.4-.328-.783-.669-1.189-.991l-1.29-.885-2.616-1.8c-.9-.577-1.869-1.05-2.814-1.588l-1.435-.789c-.242-.129-.478-.272-.726-.39l-.762-.324a49.345,49.345,0,0,0-6.292-2.421c-1.1-.323-2.183-.718-3.311-.99l-3.439-.7c-.579-.107-1.153-.259-1.742-.33L99.5,37.423c-1.19-.1-2.385-.27-3.594-.328a56.063,56.063,0,0,0-7.354.246l-1.862.185c-.311.035-.624.056-.934.1l-.924.185-3.725.746c-1.233.308-2.448.724-3.683,1.085-.612.2-1.245.343-1.843.593l-1.8.742A59.529,59.529,0,0,0,66.7,44.423l-3.345,2.2-.842.553c-.268.2-.525.418-.789.627l-1.578,1.269-1.585,1.274L57.09,51.767,55.623,53.2l-.737.718c-.23.254-.445.523-.669.784q-1.329,1.578-2.671,3.168l-2.368,3.438A56.544,56.544,0,0,0,42.37,76.8,56.574,56.574,0,0,0,40.85,93.66q.207,2.086.413,4.156.408,2.04.811,4.065l.207,1.01.3.984.594,1.964.6,1.953.773,1.881.77,1.873.388.932.47.89q.939,1.779,1.868,3.542a59.682,59.682,0,0,0,4.546,6.441l1.219,1.518c.4.508.889.939,1.327,1.41.909.912,1.771,1.863,2.7,2.729q1.459,1.231,2.9,2.451l.721.608c.249.189.514.359.769.538l1.541,1.062a56.029,56.029,0,0,0,6.324,3.765c1.087.533,2.214.965,3.306,1.448l1.643.7c.551.222,1.127.366,1.686.552l3.349,1.048c1.119.3,2.262.484,3.378.73a49.17,49.17,0,0,0,6.68.916l.824.085c.274.016.55,0,.824.008l1.638,0c1.086-.015,2.167.04,3.231-.033l3.158-.31,1.557-.153,1.52-.294,2.993-.594a10.346,10.346,0,0,0,1.452-.376l1.423-.429c.941-.292,1.882-.548,2.793-.86l2.645-1.083a52.885,52.885,0,0,0,16.8-11.215c.533-.524,1.071-1.027,1.575-1.543q.7-.826,1.375-1.623l1.324-1.561c.213-.258.44-.5.633-.764l.554-.8q1.095-1.583,2.1-3.026c.638-.979,1.127-1.984,1.655-2.9l.747-1.343a9.077,9.077,0,0,0,.645-1.295q.557-1.287,1.039-2.406c.315-.749.638-1.428.876-2.07q.312-.978.566-1.774.507-1.575.776-2.408c.178-.541.281-.816.281-.816s-.071.283-.232.83-.412,1.367-.731,2.424q-.244.8-.544,1.786c-.231.647-.548,1.33-.856,2.084s-.657,1.559-1.021,2.423a9.155,9.155,0,0,1-.638,1.3q-.358.659-.739,1.354c-.523.919-1.008,1.931-1.643,2.919q-1,1.455-2.087,3.051l-.551.806c-.193.266-.42.511-.632.771l-1.322,1.575-1.375,1.637c-.5.522-1.042,1.029-1.576,1.559a52.983,52.983,0,0,1-16.856,11.34l-2.659,1.1c-.916.316-1.863.578-2.809.874l-1.432.436a10.665,10.665,0,0,1-1.461.382q-1.491.3-3.013.606c-.508.1-1.016.211-1.531.3l-1.567.157-3.182.32c-1.071.075-2.16.023-3.255.04l-1.651,0c-.276,0-.554.008-.83-.008l-.831-.082a49.646,49.646,0,0,1-6.734-.911c-1.125-.246-2.277-.425-3.4-.731l-3.379-1.05c-.563-.186-1.144-.332-1.7-.554l-1.658-.705c-1.1-.485-2.24-.92-3.337-1.455a56.512,56.512,0,0,1-6.382-3.789l-1.556-1.069c-.258-.181-.524-.352-.777-.542l-.727-.613-2.93-2.469c-.941-.873-1.813-1.831-2.73-2.75-.443-.475-.934-.909-1.34-1.421l-1.232-1.531a59.908,59.908,0,0,1-4.591-6.494l-1.888-3.572-.475-.9-.392-.939-.778-1.89-.781-1.9-.605-1.97L42.11,104l-.3-.993-.21-1.019-.819-4.1q-.21-2.089-.42-4.195a57.026,57.026,0,0,1,1.532-17.016,57,57,0,0,1,6.873-15.636q1.2-1.741,2.392-3.47l2.7-3.195c.226-.264.443-.535.676-.791l.743-.725,1.482-1.445,1.481-1.433,1.6-1.285,1.593-1.279c.267-.211.527-.43.8-.633l.849-.557,3.376-2.217a60.142,60.142,0,0,1,7.155-3.471l1.817-.746c.6-.252,1.242-.395,1.859-.6,1.247-.362,2.473-.781,3.717-1.09l3.758-.749.933-.185c.312-.045.628-.066.942-.1l1.878-.186a56.32,56.32,0,0,1,7.417-.237c1.219.06,2.425.228,3.625.336l1.792.182c.593.073,1.172.226,1.755.335l3.466.711c1.136.276,2.231.675,3.335,1a49.542,49.542,0,0,1,6.337,2.453L117,42c.25.119.487.264.731.394l1.445.8c.95.543,1.929,1.023,2.831,1.606l2.632,1.815,1.3.9c.408.326.8.67,1.2,1l2.346,1.984a10.473,10.473,0,0,1,1.1,1.04l1.043,1.072c.686.716,1.389,1.4,2.039,2.121q.911,1.135,1.8,2.245a52.994,52.994,0,0,1,9.29,18.067,50.483,50.483,0,0,1,2.1,15.223q0,.793-.006,1.543a9.286,9.286,0,0,1-.071,1.449q-.147,1.4-.275,2.616c-.094.809-.146,1.56-.256,2.238q-.213,1.008-.385,1.827-.348,1.62-.531,2.477c-.122.557-.2.839-.2.839" fill="#263238"/>
          </g>
        </g>
        <rect id="Rectangle_44949" data-name="Rectangle 44949" width="238.479" height="147.693" transform="translate(301.25 235.698)" fill="#fafafa"/>
        <g id="Group_146900" data-name="Group 146900">
          <g id="Group_146899" data-name="Group 146899" clip-path="url(#clip-path)">
            <path id="Path_203711" data-name="Path 203711" d="M539.729,383.392s-.018-.913-.027-2.665-.016-4.355-.029-7.75c-.015-6.8-.037-16.794-.065-29.611-.032-25.614-.078-62.507-.134-107.667l.255.256-238.461.07h-.018l.325-.326c-.008,52.358-.017,102.277-.024,147.693l-.3-.3,171.663.147,49.185.082,13.094.036,3.38.018c.761.006,1.157.018,1.157.018s-.372.012-1.122.018l-3.346.018-13.033.036-49.116.082-171.862.147h-.3v-.3c-.008-45.416-.016-95.335-.025-147.693v-.325h.344l238.461.07h.256v.255c-.056,45.227-.1,82.173-.134,107.825-.028,12.793-.05,22.767-.065,29.554-.013,3.374-.022,5.954-.029,7.7s-.027,2.612-.027,2.612" fill="#263238"/>
            <path id="Path_203712" data-name="Path 203712" d="M539.6,250.111c0,.18-53.281.326-118.992.326-65.734,0-119-.146-119-.326s53.27-.326,119-.326c65.711,0,118.992.146,118.992.326" fill="#263238"/>
            <path id="Path_203713" data-name="Path 203713" d="M313.924,243.587a1.954,1.954,0,1,1-1.954-1.954,1.954,1.954,0,0,1,1.954,1.954" fill="#263238"/>
            <path id="Path_203714" data-name="Path 203714" d="M321,243.587a1.954,1.954,0,1,1-1.954-1.954A1.954,1.954,0,0,1,321,243.587" fill="#263238"/>
            <path id="Path_203715" data-name="Path 203715" d="M328.071,243.587a1.955,1.955,0,1,1-1.954-1.954,1.954,1.954,0,0,1,1.954,1.954" fill="#263238"/>
            <path id="Path_203716" data-name="Path 203716" d="M327.261,276.532l-5.664,2.185,5.664,2.187v1.324l-7.148-2.824v-1.372l7.148-2.824Z" fill="#263238"/>
            <path id="Path_203717" data-name="Path 203717" d="M333.153,270.868h1.388L329.276,285.9h-1.389Z" fill="#263238"/>
            <path id="Path_203718" data-name="Path 203718" d="M342.17,278.032V279.4l-7.148,2.824V280.9l5.68-2.187-5.68-2.185v-1.324Z" fill="#263238"/>
            <path id="Path_203719" data-name="Path 203719" d="M343.976,283.3a1.066,1.066,0,0,1,1.085-1.085,1.05,1.05,0,0,1,1.053,1.085,1.064,1.064,0,0,1-1.053,1.1,1.08,1.08,0,0,1-1.085-1.1" fill="#263238"/>
            <path id="Path_203720" data-name="Path 203720" d="M347.6,283.3a1.066,1.066,0,0,1,1.085-1.085,1.05,1.05,0,0,1,1.053,1.085,1.064,1.064,0,0,1-1.053,1.1,1.08,1.08,0,0,1-1.085-1.1" fill="#263238"/>
            <path id="Path_203721" data-name="Path 203721" d="M351.223,283.3a1.066,1.066,0,0,1,1.085-1.085,1.05,1.05,0,0,1,1.053,1.085,1.064,1.064,0,0,1-1.053,1.1,1.08,1.08,0,0,1-1.085-1.1" fill="#263238"/>
            <path id="Path_203722" data-name="Path 203722" d="M477.852,297.62c0,.18-35.254.326-78.731.326-43.493,0-78.739-.146-78.739-.326s35.246-.326,78.739-.326c43.477,0,78.731.146,78.731.326" fill="#4dd0e1"/>
            <path id="Path_203723" data-name="Path 203723" d="M503.569,298.085c0,.18-3.387.326-7.565.326s-7.565-.146-7.565-.326,3.387-.326,7.565-.326,7.565.146,7.565.326" fill="#263238"/>
            <path id="Path_203724" data-name="Path 203724" d="M525.682,298.085c0,.18-3.7.326-8.263.326s-8.263-.146-8.263-.326,3.7-.326,8.263-.326,8.263.146,8.263.326" fill="#263238"/>
            <path id="Path_203725" data-name="Path 203725" d="M420.653,310.887c0,.18-22.407.326-50.042.326s-50.047-.146-50.047-.326,22.4-.326,50.047-.326,50.042.146,50.042.326" fill="#4dd0e1"/>
            <path id="Path_203726" data-name="Path 203726" d="M419.938,360.394c0,.18-22.408.326-50.042.326s-50.047-.146-50.047-.326,22.4-.326,50.047-.326,50.042.146,50.042.326" fill="#4dd0e1"/>
            <path id="Path_203727" data-name="Path 203727" d="M457.016,310.887c0,.18-6.1.326-13.616.326s-13.618-.146-13.618-.326,6.1-.326,13.618-.326,13.616.146,13.616.326" fill="#263238"/>
            <path id="Path_203728" data-name="Path 203728" d="M456.731,360.394c0,.18-6.1.326-13.616.326s-13.618-.146-13.618-.326,6.1-.326,13.618-.326,13.616.146,13.616.326" fill="#263238"/>
            <path id="Path_203729" data-name="Path 203729" d="M327.133,317.638c0,.18-1.511.326-3.375.326s-3.375-.146-3.375-.326,1.511-.326,3.375-.326,3.375.146,3.375.326" fill="#4dd0e1"/>
            <path id="Path_203730" data-name="Path 203730" d="M350.409,317.777c0,.18-3.283.326-7.332.326s-7.332-.146-7.332-.326,3.282-.326,7.332-.326,7.332.146,7.332.326" fill="#263238"/>
            <path id="Path_203731" data-name="Path 203731" d="M365.306,317.777c0,.18-2.814.326-6.284.326s-6.285-.146-6.285-.326,2.813-.326,6.285-.326,6.284.146,6.284.326" fill="#263238"/>
            <path id="Path_203732" data-name="Path 203732" d="M384.16,317.777c0,.18-2.866.326-6.4.326s-6.4-.146-6.4-.326,2.865-.326,6.4-.326,6.4.146,6.4.326" fill="#263238"/>
            <path id="Path_203733" data-name="Path 203733" d="M400.687,317.777c0,.18-2.605.326-5.819.326s-5.819-.146-5.819-.326,2.6-.326,5.819-.326,5.819.146,5.819.326" fill="#263238"/>
            <path id="Path_203734" data-name="Path 203734" d="M455.386,317.777c0,.18-11.464.326-25.6.326s-25.6-.146-25.6-.326,11.461-.326,25.6-.326,25.6.146,25.6.326" fill="#263238"/>
            <path id="Path_203735" data-name="Path 203735" d="M326.2,326.25c0,.18-1.3.326-2.909.326s-2.91-.146-2.91-.326,1.3-.326,2.91-.326,2.909.146,2.909.326" fill="#4dd0e1"/>
            <path id="Path_203736" data-name="Path 203736" d="M326.434,335.1c0,.18-1.355.326-3.026.326s-3.026-.146-3.026-.326,1.355-.326,3.026-.326,3.026.146,3.026.326" fill="#4dd0e1"/>
            <path id="Path_203737" data-name="Path 203737" d="M326.434,345.1c0,.18-1.355.326-3.026.326s-3.026-.146-3.026-.326,1.355-.326,3.026-.326,3.026.146,3.026.326" fill="#4dd0e1"/>
            <path id="Path_203738" data-name="Path 203738" d="M381.6,344.638c0,.18-10.109.326-22.577.326s-22.58-.146-22.58-.326,10.108-.326,22.58-.326,22.577.146,22.577.326" fill="#263238"/>
            <path id="Path_203739" data-name="Path 203739" d="M377.643,335.1c0,.18-9.64.326-21.53.326s-21.531-.146-21.531-.326,9.638-.326,21.531-.326,21.53.146,21.53.326" fill="#263238"/>
            <path id="Path_203740" data-name="Path 203740" d="M481.689,325.784c0,.18-32.83.326-73.318.326s-73.324-.146-73.324-.326,32.822-.326,73.324-.326,73.318.146,73.318.326" fill="#263238"/>
            <rect id="Rectangle_44950" data-name="Rectangle 44950" width="100.482" height="172.608" transform="translate(329.957 36.075)" fill="#fafafa"/>
            <path id="Path_203741" data-name="Path 203741" d="M430.439,208.683s-.012-.291-.018-.845-.01-1.383-.018-2.456c-.009-2.171-.021-5.362-.037-9.5-.019-8.3-.047-20.392-.083-35.649-.036-30.49-.087-73.6-.147-124.154l.3.3L329.97,36.4h-.013l.326-.326c-.028,65.855-.054,126.254-.074,172.608l-.252-.252,73.292.134,20.114.063,5.262.028c1.19.009,1.814.027,1.814.027s-.589.018-1.762.027l-5.216.028L403.4,208.8l-73.448.134h-.251v-.252c-.019-46.354-.045-106.753-.074-172.608v-.326h.339l100.469.023h.3v.3c-.06,50.634-.111,93.815-.148,124.354-.035,15.228-.063,27.3-.082,35.581-.016,4.115-.028,7.285-.037,9.442q-.012,1.587-.018,2.422c-.006.542-.018.809-.018.809" fill="#263238"/>
            <path id="Path_203742" data-name="Path 203742" d="M339.083,43.676a2.036,2.036,0,1,1-2.036-2.036,2.036,2.036,0,0,1,2.036,2.036" fill="#263238"/>
            <path id="Path_203743" data-name="Path 203743" d="M346.451,43.676a2.036,2.036,0,1,1-2.036-2.036,2.037,2.037,0,0,1,2.036,2.036" fill="#263238"/>
            <path id="Path_203744" data-name="Path 203744" d="M353.819,43.676a2.036,2.036,0,1,1-2.036-2.036,2.037,2.037,0,0,1,2.036,2.036" fill="#263238"/>
            <path id="Path_203745" data-name="Path 203745" d="M402.82,90.752c0,.18-12.739.326-28.449.326s-28.452-.146-28.452-.326,12.736-.326,28.452-.326,28.449.146,28.449.326" fill="#4dd0e1"/>
            <path id="Path_203746" data-name="Path 203746" d="M414.685,104.572c0,.18-15.5.326-34.622.326s-34.625-.146-34.625-.326,15.5-.326,34.625-.326,34.622.146,34.622.326" fill="#4dd0e1"/>
            <path id="Path_203747" data-name="Path 203747" d="M417.5,156.141c0,.18-16.53.326-36.916.326s-36.919-.146-36.919-.326,16.526-.326,36.919-.326,36.916.146,36.916.326" fill="#4dd0e1"/>
            <path id="Path_203748" data-name="Path 203748" d="M351.257,111.6c0,.18-1.574.326-3.516.326s-3.515-.146-3.515-.326,1.573-.326,3.515-.326,3.516.146,3.516.326" fill="#4dd0e1"/>
            <path id="Path_203749" data-name="Path 203749" d="M375.5,111.749c0,.18-3.42.326-7.637.326s-7.638-.146-7.638-.326,3.419-.326,7.638-.326,7.637.146,7.637.326" fill="#4dd0e1"/>
            <path id="Path_203750" data-name="Path 203750" d="M391.02,111.749c0,.18-2.931.326-6.546.326s-6.547-.146-6.547-.326,2.931-.326,6.547-.326,6.546.146,6.546.326" fill="#4dd0e1"/>
            <path id="Path_203751" data-name="Path 203751" d="M350.287,120.574c0,.18-1.357.326-3.031.326s-3.031-.146-3.031-.326,1.357-.326,3.031-.326,3.031.146,3.031.326" fill="#4dd0e1"/>
            <path id="Path_203752" data-name="Path 203752" d="M350.529,129.788c0,.18-1.411.326-3.152.326s-3.152-.146-3.152-.326,1.411-.326,3.152-.326,3.152.146,3.152.326" fill="#4dd0e1"/>
            <path id="Path_203753" data-name="Path 203753" d="M350.529,140.214c0,.18-1.411.326-3.152.326s-3.152-.146-3.152-.326,1.411-.326,3.152-.326,3.152.146,3.152.326" fill="#4dd0e1"/>
            <path id="Path_203754" data-name="Path 203754" d="M407.992,139.729c0,.18-10.531.326-23.518.326s-23.519-.146-23.519-.326,10.528-.326,23.519-.326,23.518.146,23.518.326" fill="#4dd0e1"/>
            <path id="Path_203755" data-name="Path 203755" d="M403.871,129.788c0,.18-10.042.326-22.427.326s-22.428-.146-22.428-.326,10.04-.326,22.428-.326,22.427.146,22.427.326" fill="#4dd0e1"/>
            <path id="Path_203756" data-name="Path 203756" d="M355.12,169.908c0,.18-1.411.326-3.152.326s-3.152-.146-3.152-.326,1.411-.326,3.152-.326,3.152.146,3.152.326" fill="#4dd0e1"/>
            <path id="Path_203757" data-name="Path 203757" d="M355.12,180.334c0,.18-1.411.326-3.152.326s-3.152-.146-3.152-.326,1.411-.326,3.152-.326,3.152.146,3.152.326" fill="#4dd0e1"/>
            <path id="Path_203758" data-name="Path 203758" d="M412.583,179.849c0,.18-10.531.326-23.518.326s-23.519-.146-23.519-.326,10.528-.326,23.519-.326,23.518.146,23.518.326" fill="#4dd0e1"/>
            <path id="Path_203759" data-name="Path 203759" d="M408.461,169.908c0,.18-10.042.326-22.426.326s-22.429-.146-22.429-.326,10.04-.326,22.429-.326,22.426.146,22.426.326" fill="#4dd0e1"/>
            <path id="Path_203760" data-name="Path 203760" d="M420.548,120.09c0,.18-13.667.326-30.522.326s-30.525-.146-30.525-.326,13.664-.326,30.525-.326,30.522.146,30.522.326" fill="#4dd0e1"/>
            <path id="Path_203761" data-name="Path 203761" d="M429.495,51.653c0,.18-22.064.326-49.275.326s-49.28-.146-49.28-.326,22.059-.326,49.28-.326,49.275.146,49.275.326" fill="#263238"/>
            <path id="Path_203762" data-name="Path 203762" d="M366.706,82.417c0,.18-4.66.326-10.407.326s-10.408-.146-10.408-.326,4.659-.326,10.408-.326,10.407.146,10.407.326" fill="#4dd0e1"/>
            <path id="Path_203763" data-name="Path 203763" d="M354.924,63.566c0,.18-2.2.326-4.909.326s-4.909-.146-4.909-.326,2.2-.326,4.909-.326,4.909.146,4.909.326" fill="#4dd0e1"/>
          </g>
        </g>
        <g id="Group_146902" data-name="Group 146902">
          <g id="Group_146901" data-name="Group 146901" clip-path="url(#clip-path)">
            <path id="Path_203764" data-name="Path 203764" d="M408.9,540.69H234.486l22.505-122.408a9.149,9.149,0,0,1,9-7.494H422.707a9.148,9.148,0,0,1,8.985,10.869Z" fill="#455a64"/>
            <path id="Path_203765" data-name="Path 203765" d="M234.486,540.69H168.332l.266-.2a35.775,35.775,0,0,1,20.4-7.139l47.308-1.391Z" fill="#455a64"/>
            <path id="Path_203766" data-name="Path 203766" d="M276.378,410.955c-.007.044-.486-.09-1.411-.1a8.691,8.691,0,0,0-3.874.961,11.942,11.942,0,0,0-4.648,4.23,22.462,22.462,0,0,0-2.848,7.912c-.57,3.1-1.071,6.534-1.688,10.2s-1.3,7.585-2.075,11.7c-1.519,8.227-3.32,17.246-5.278,26.7-3.939,18.9-7.584,36-9.968,48.419-1.2,6.209-2.125,11.242-2.751,14.723l-.729,4.008c-.085.427-.153.769-.206,1.039a1.51,1.51,0,0,1-.092.351,1.446,1.446,0,0,1,.026-.361c.037-.273.084-.619.142-1.05.146-.968.35-2.316.609-4.029.55-3.495,1.406-8.544,2.549-14.767,2.269-12.45,5.844-29.564,9.782-48.465,1.957-9.45,3.775-18.461,5.326-26.677.787-4.1,1.479-8.017,2.132-11.677s1.165-7.08,1.769-10.2a22.617,22.617,0,0,1,2.994-8.02,12.073,12.073,0,0,1,4.844-4.26,8.487,8.487,0,0,1,3.987-.864,5.114,5.114,0,0,1,1.408.228" fill="#263238"/>
            <path id="Path_203767" data-name="Path 203767" d="M350.038,472.985a8.432,8.432,0,1,1-8.433-8.433,8.433,8.433,0,0,1,8.433,8.433" fill="#f5f5f5"/>
          </g>
        </g>
        <g id="Group_146904" data-name="Group 146904">
          <g id="Group_146903" data-name="Group 146903" clip-path="url(#clip-path)">
            <path id="Path_203768" data-name="Path 203768" d="M568.649,540.69c0,.18-127.307.326-284.311.326C127.28,541.016,0,540.87,0,540.69s127.28-.326,284.338-.326c157,0,284.311.146,284.311.326" fill="#263238"/>
          </g>
        </g>
      </g>
    </g>
  </g>
</svg>
