<svg id="_19" data-name="19" xmlns="http://www.w3.org/2000/svg" xmlns:xlink="http://www.w3.org/1999/xlink" width="62.507" height="62.44" viewBox="0 0 62.507 62.44">
  <defs>
    <clipPath id="clip-path">
      <rect id="Rectangle_45078" data-name="Rectangle 45078" width="62.507" height="62.44" fill="#4dd0e1"/>
    </clipPath>
  </defs>
  <g id="Group_147038" data-name="Group 147038" clip-path="url(#clip-path)">
    <path id="Path_204101" data-name="Path 204101" d="M6.389,19.691A.915.915,0,1,0,7.682,18.4L5.461,16.175l2.222-2.22a.915.915,0,0,0-1.294-1.294L3.52,15.529a.917.917,0,0,0,0,1.294Z" transform="translate(0.809 3.084)" fill="#4dd0e1"/>
    <path id="Path_204102" data-name="Path 204102" d="M13.53,16.176,11.308,18.4A.915.915,0,0,0,12.6,19.691l2.868-2.868a.915.915,0,0,0,0-1.294L12.6,12.66a.914.914,0,0,0-1.293,1.294Z" transform="translate(2.747 3.083)" fill="#4dd0e1"/>
    <path id="Path_204103" data-name="Path 204103" d="M8.052,19.9a.913.913,0,0,0,1.185-.517l2.253-5.737a.914.914,0,0,0-1.7-.668L7.535,18.709A.913.913,0,0,0,8.052,19.9" transform="translate(1.859 3.083)" fill="#4dd0e1"/>
    <path id="Path_204104" data-name="Path 204104" d="M4.582,23.114h6.163a.915.915,0,1,0,0-1.829H4.582a.915.915,0,0,0,0,1.829" transform="translate(0.913 5.296)" fill="#4dd0e1"/>
    <path id="Path_204105" data-name="Path 204105" d="M23.042,21.284H12.209a.915.915,0,1,0,0,1.829H23.042a.915.915,0,1,0,0-1.829" transform="translate(2.809 5.295)" fill="#4dd0e1"/>
    <path id="Path_204106" data-name="Path 204106" d="M4.582,26.2H7.207a.915.915,0,1,0,0-1.829H4.582a.915.915,0,0,0,0,1.829" transform="translate(0.913 6.064)" fill="#4dd0e1"/>
    <path id="Path_204107" data-name="Path 204107" d="M18.2,24.374a.915.915,0,0,0,0,1.829h1.6a.915.915,0,1,0,0-1.829Z" transform="translate(4.302 6.064)" fill="#4dd0e1"/>
    <path id="Path_204108" data-name="Path 204108" d="M18.022,25.289a.915.915,0,0,0-.914-.914H9.254a.915.915,0,0,0,0,1.829h7.854a.915.915,0,0,0,.914-.915" transform="translate(2.075 6.064)" fill="#4dd0e1"/>
    <path id="Path_204109" data-name="Path 204109" d="M20.892,25.289a.915.915,0,0,0,.914.915H24.8a.915.915,0,1,0,0-1.829H21.806a.915.915,0,0,0-.914.914" transform="translate(5.198 6.064)" fill="#4dd0e1"/>
    <path id="Path_204110" data-name="Path 204110" d="M17.086,16.374h3.157a.915.915,0,1,0,0-1.829H17.086a.915.915,0,1,0,0,1.829" transform="translate(4.023 3.619)" fill="#4dd0e1"/>
    <path id="Path_204111" data-name="Path 204111" d="M22.447,16.374H41.719a.915.915,0,1,0,0-1.829H22.447a.915.915,0,1,0,0,1.829" transform="translate(5.357 3.619)" fill="#4dd0e1"/>
    <path id="Path_204112" data-name="Path 204112" d="M37.091,17.768H29.284a.915.915,0,1,0,0,1.829h7.806a.915.915,0,0,0,0-1.829" transform="translate(7.058 4.421)" fill="#4dd0e1"/>
    <path id="Path_204113" data-name="Path 204113" d="M27.474,17.768H24.79a.915.915,0,0,0,0,1.829h2.684a.915.915,0,0,0,0-1.829" transform="translate(5.94 4.421)" fill="#4dd0e1"/>
    <path id="Path_204114" data-name="Path 204114" d="M17.086,19.6h6.574a.915.915,0,0,0,0-1.829H17.086a.915.915,0,1,0,0,1.829" transform="translate(4.023 4.421)" fill="#4dd0e1"/>
    <path id="Path_204115" data-name="Path 204115" d="M16.78,27.438H10.617a.915.915,0,1,0,0,1.829H16.78a.915.915,0,0,0,0-1.829" transform="translate(2.414 6.827)" fill="#4dd0e1"/>
    <path id="Path_204116" data-name="Path 204116" d="M9.317,27.438H4.582a.915.915,0,1,0,0,1.829H9.317a.915.915,0,0,0,0-1.829" transform="translate(0.912 6.827)" fill="#4dd0e1"/>
    <path id="Path_204117" data-name="Path 204117" d="M26.1,27.438H18.051a.915.915,0,0,0,0,1.829H26.1a.915.915,0,0,0,0-1.829" transform="translate(4.264 6.827)" fill="#4dd0e1"/>
    <path id="Path_204118" data-name="Path 204118" d="M34.093,23.675h-4.4a.915.915,0,1,0,0,1.829h4.4a.915.915,0,0,0,0-1.829" transform="translate(7.159 5.89)" fill="#4dd0e1"/>
    <path id="Path_204119" data-name="Path 204119" d="M39.333,25.5h6.214a.915.915,0,1,0,0-1.829H39.333a.915.915,0,0,0,0,1.829" transform="translate(9.559 5.89)" fill="#4dd0e1"/>
    <path id="Path_204120" data-name="Path 204120" d="M37.128,23.675H35.7a.915.915,0,1,0,0,1.829h1.424a.915.915,0,0,0,0-1.829" transform="translate(8.655 5.89)" fill="#4dd0e1"/>
    <path id="Path_204121" data-name="Path 204121" d="M29.69,33.487h4.4a.915.915,0,1,0,0-1.829h-4.4a.915.915,0,0,0,0,1.829" transform="translate(7.159 7.877)" fill="#4dd0e1"/>
    <path id="Path_204122" data-name="Path 204122" d="M39.333,33.487h6.214a.915.915,0,1,0,0-1.829H39.333a.915.915,0,0,0,0,1.829" transform="translate(9.559 7.877)" fill="#4dd0e1"/>
    <path id="Path_204123" data-name="Path 204123" d="M35.7,33.487h1.424a.915.915,0,1,0,0-1.829H35.7a.915.915,0,0,0,0,1.829" transform="translate(8.656 7.877)" fill="#4dd0e1"/>
    <path id="Path_204124" data-name="Path 204124" d="M34.093,39.641h-4.4a.915.915,0,1,0,0,1.829h4.4a.915.915,0,0,0,0-1.829" transform="translate(7.159 9.863)" fill="#4dd0e1"/>
    <path id="Path_204125" data-name="Path 204125" d="M45.547,39.641H39.333a.915.915,0,1,0,0,1.829h6.214a.915.915,0,1,0,0-1.829" transform="translate(9.558 9.863)" fill="#4dd0e1"/>
    <path id="Path_204126" data-name="Path 204126" d="M37.128,39.641H35.7a.915.915,0,1,0,0,1.829h1.424a.915.915,0,0,0,0-1.829" transform="translate(8.655 9.863)" fill="#4dd0e1"/>
    <path id="Path_204127" data-name="Path 204127" d="M58.483,0H4.027A4.032,4.032,0,0,0,0,4.027V48.291a4.031,4.031,0,0,0,4.027,4.026H7.469a.915.915,0,1,0,0-1.829H4.027a2.2,2.2,0,0,1-2.2-2.2v-3.47H35.159V46.4h-.724a1.8,1.8,0,0,0-1.8,1.8v2.292h-19.6a.915.915,0,0,0,0,1.829h8.8V55.6H19.065a3.346,3.346,0,0,0-3.342,3.342v1.977a1.526,1.526,0,0,0,1.525,1.524H45.19a1.525,1.525,0,0,0,1.525-1.524V58.94A3.346,3.346,0,0,0,43.373,55.6H40.611V54.441H57.523a1.8,1.8,0,0,0,1.8-1.8v-.431a4.03,4.03,0,0,0,3.116-3.92l.069-44.265A4.03,4.03,0,0,0,58.483,0M34.464,38.257H57.494v4.385H34.464ZM36.988,34.5h17.98v1.924H36.988ZM54.968,46.4H36.988V44.471h17.98ZM23.657,52.317h8.978v.326a1.8,1.8,0,0,0,1.8,1.8h4.348V55.6H23.657Zm19.717,5.11a1.513,1.513,0,0,1,1.511,1.512v1.672H17.553V58.94a1.514,1.514,0,0,1,1.512-1.512Zm14.119-4.815H34.464V48.227H57.494Zm3.116-4.321a2.2,2.2,0,0,1-1.286,2V48.2a1.8,1.8,0,0,0-1.8-1.8H56.8V44.821h3.811Zm0-5.3H59.293c.019-.1.03-4.764.03-4.764a1.8,1.8,0,0,0-1.8-1.8H56.8V34.5h.726a1.8,1.8,0,0,0,1.8-1.8V28.258a1.8,1.8,0,0,0-1.8-1.8H52.357a.915.915,0,1,0,0,1.829h5.136v4.386H34.464V28.288h12.2a.915.915,0,1,0,0-1.829H34.434a1.8,1.8,0,0,0-1.8,1.8V32.7a1.8,1.8,0,0,0,1.8,1.8h.724v1.924h-.724a1.8,1.8,0,0,0-1.8,1.8s.011,4.661.03,4.764H1.831V12.444H60.609Zm0-32.376H1.9V4.026a2.2,2.2,0,0,1,2.2-2.2H58.413a2.2,2.2,0,0,1,2.2,2.2Z" fill="#4dd0e1"/>
    <path id="Path_204128" data-name="Path 204128" d="M5.938,2.812A2.684,2.684,0,1,0,8.623,5.5,2.688,2.688,0,0,0,5.938,2.812m0,3.539A.855.855,0,1,1,6.793,5.5a.857.857,0,0,1-.855.855" transform="translate(0.809 0.7)" fill="#4dd0e1"/>
    <path id="Path_204129" data-name="Path 204129" d="M11.411,2.812A2.684,2.684,0,1,0,14.1,5.5a2.688,2.688,0,0,0-2.685-2.684m0,3.539a.855.855,0,1,1,.855-.855.856.856,0,0,1-.855.855" transform="translate(2.171 0.7)" fill="#4dd0e1"/>
    <path id="Path_204130" data-name="Path 204130" d="M16.884,2.812A2.684,2.684,0,1,0,19.569,5.5a2.688,2.688,0,0,0-2.685-2.684m0,3.539a.855.855,0,1,1,.855-.855.857.857,0,0,1-.855.855" transform="translate(3.533 0.7)" fill="#4dd0e1"/>
  </g>
</svg>
