<svg xmlns="http://www.w3.org/2000/svg" xmlns:xlink="http://www.w3.org/1999/xlink" width="555" height="342" viewBox="0 0 555 342">
  <defs>
    <clipPath id="clip-path">
      <rect id="Rectangle_44500" data-name="Rectangle 44500" width="357.697" height="232.455" fill="#0f2771"/>
    </clipPath>
  </defs>
  <g id="_2" data-name="2" transform="translate(-810 -783)">
    <g id="Group_146388" data-name="Group 146388" transform="translate(0 59.863)">
      <rect id="Rectangle_42499" data-name="Rectangle 42499" width="510" height="2" transform="translate(855 723.137)" fill="#4dd0e1" opacity="0.2"/>
      <rect id="Rectangle_42500" data-name="Rectangle 42500" width="510" height="2" transform="translate(855 1063.137)" fill="#4dd0e1" opacity="0.2"/>
      <rect id="Rectangle_42501" data-name="Rectangle 42501" width="190" height="342" transform="translate(1175 723.137)" fill="#4dd0e1"/>
      <rect id="true-false-photo-2048x1439" width="544" height="324" rx="15" transform="translate(810 732.137)" fill="#fff"/>
    </g>
    <g id="Group_146391" data-name="Group 146391" transform="translate(909 838)">
      <g id="Group_146390" data-name="Group 146390" clip-path="url(#clip-path)">
        <path id="Path_202289" data-name="Path 202289" d="M137.894,11.032,115.192.072a.734.734,0,0,0-.637,0l-22.7,10.96a.732.732,0,0,0-.414.659V38.308a.732.732,0,0,0,.414.659l22.7,10.96a.731.731,0,0,0,.637,0l22.7-10.96a.732.732,0,0,0,.414-.659V11.692a.732.732,0,0,0-.414-.66m-23.02-9.487,21.017,10.146L129.8,14.633a.633.633,0,0,0-.124-.078L108.8,4.477Zm-7.728,3.761,20.986,10.131-4.3,2.075L102.856,7.385Zm21.477,11.52V24.5l-4.015,1.938v-7.67Zm8.22,21.022L115.606,48.1V23.111l5.066-2.446a.732.732,0,1,0-.637-1.319l-5.161,2.492-2.031-.981a.732.732,0,1,0-.637,1.319l1.935.935V48.1L92.9,37.848V12.858l16.172,7.807a.722.722,0,0,0,.318.074.733.733,0,0,0,.319-1.393L93.856,11.691l7.276-3.512,22,10.621.011.013V27.6a.732.732,0,0,0,.732.733.722.722,0,0,0,.318-.073l5.48-2.646a.732.732,0,0,0,.414-.659V16.119l6.755-3.261Z" fill="#0f2771"/>
        <path id="Path_202290" data-name="Path 202290" d="M98.948,35.008,95.616,33.4a.732.732,0,1,0-.636,1.319l3.331,1.608a.724.724,0,0,0,.318.073.732.732,0,0,0,.319-1.392" fill="#0f2771"/>
        <path id="Path_202291" data-name="Path 202291" d="M102.014,33.012l-6.393-3.086a.732.732,0,1,0-.637,1.319l6.393,3.086a.724.724,0,0,0,.318.073.732.732,0,0,0,.319-1.392" fill="#0f2771"/>
        <path id="Path_202292" data-name="Path 202292" d="M265.6,11.032,242.9.072a.734.734,0,0,0-.637,0l-22.7,10.96a.732.732,0,0,0-.414.659V38.308a.732.732,0,0,0,.414.659l22.7,10.96a.731.731,0,0,0,.637,0l22.7-10.96a.732.732,0,0,0,.414-.659V11.692a.732.732,0,0,0-.414-.66m-23.02-9.487L263.6,11.691l-6.093,2.942a.633.633,0,0,0-.124-.078L236.51,4.477Zm-7.728,3.761,20.986,10.131-4.3,2.075L230.566,7.385Zm21.477,11.52V24.5l-4.015,1.938v-7.67Zm8.22,21.022L243.316,48.1V23.111l5.066-2.446a.732.732,0,1,0-.637-1.319l-5.161,2.492-2.031-.981a.732.732,0,1,0-.637,1.319l1.935.935V48.1L220.614,37.848V12.858l16.172,7.807a.722.722,0,0,0,.318.074.733.733,0,0,0,.319-1.393l-15.857-7.655,7.276-3.512,22,10.621.011.013V27.6a.732.732,0,0,0,.732.733.722.722,0,0,0,.318-.073l5.48-2.646a.732.732,0,0,0,.414-.659V16.119l6.755-3.261Z" fill="#0f2771"/>
        <path id="Path_202293" data-name="Path 202293" d="M226.658,35.008,223.326,33.4a.732.732,0,1,0-.636,1.319l3.331,1.608a.724.724,0,0,0,.318.073.732.732,0,0,0,.319-1.392" fill="#0f2771"/>
        <path id="Path_202294" data-name="Path 202294" d="M229.724,33.012l-6.393-3.086a.732.732,0,1,0-.637,1.319l6.393,3.086a.724.724,0,0,0,.318.073.732.732,0,0,0,.319-1.392" fill="#0f2771"/>
        <path id="Path_202295" data-name="Path 202295" d="M137.894,193.487l-22.7-10.96a.734.734,0,0,0-.637,0l-22.7,10.96a.732.732,0,0,0-.414.659v26.617a.732.732,0,0,0,.414.659l22.7,10.96a.731.731,0,0,0,.637,0l22.7-10.96a.732.732,0,0,0,.414-.659V194.147a.732.732,0,0,0-.414-.66M114.874,184l21.017,10.146-6.093,2.942a.634.634,0,0,0-.124-.078L108.8,186.932Zm-7.728,3.761,20.986,10.131-4.3,2.075L102.856,189.84Zm21.477,11.52v7.671l-4.015,1.938v-7.67Zm8.22,21.022-21.237,10.252V205.566l5.066-2.446a.732.732,0,1,0-.637-1.319l-5.161,2.492-2.031-.981a.732.732,0,1,0-.637,1.319l1.935.935v24.989L92.9,220.3v-24.99l16.172,7.807a.722.722,0,0,0,.318.074.733.733,0,0,0,.319-1.393l-15.857-7.655,7.276-3.512,22,10.621.011.013v8.789a.732.732,0,0,0,.732.733.722.722,0,0,0,.318-.073l5.48-2.646a.732.732,0,0,0,.414-.659v-8.838l6.755-3.261Z" fill="#0f2771"/>
        <path id="Path_202296" data-name="Path 202296" d="M98.948,217.463l-3.332-1.608a.732.732,0,1,0-.636,1.319l3.331,1.608a.724.724,0,0,0,.318.073.732.732,0,0,0,.319-1.392" fill="#0f2771"/>
        <path id="Path_202297" data-name="Path 202297" d="M102.014,215.467l-6.393-3.086a.732.732,0,1,0-.637,1.319l6.393,3.086a.724.724,0,0,0,.318.073.732.732,0,0,0,.319-1.392" fill="#0f2771"/>
        <path id="Path_202298" data-name="Path 202298" d="M265.6,193.487l-22.7-10.96a.734.734,0,0,0-.637,0l-22.7,10.96a.732.732,0,0,0-.414.659v26.617a.732.732,0,0,0,.414.659l22.7,10.96a.731.731,0,0,0,.637,0l22.7-10.96a.732.732,0,0,0,.414-.659V194.147a.732.732,0,0,0-.414-.66M242.584,184,263.6,194.146l-6.093,2.942a.634.634,0,0,0-.124-.078L236.51,186.932Zm-7.728,3.761,20.986,10.131-4.3,2.075L230.566,189.84Zm21.477,11.52v7.671l-4.015,1.938v-7.67Zm8.22,21.022-21.237,10.252V205.566l5.066-2.446a.732.732,0,1,0-.637-1.319l-5.161,2.492-2.031-.981a.732.732,0,1,0-.637,1.319l1.935.935v24.989L220.614,220.3v-24.99l16.172,7.807a.722.722,0,0,0,.318.074.733.733,0,0,0,.319-1.393l-15.857-7.655,7.276-3.512,22,10.621.011.013v8.789a.732.732,0,0,0,.732.733.722.722,0,0,0,.318-.073l5.48-2.646a.732.732,0,0,0,.414-.659v-8.838l6.755-3.261Z" fill="#0f2771"/>
        <path id="Path_202299" data-name="Path 202299" d="M226.658,217.463l-3.332-1.608a.732.732,0,1,0-.636,1.319l3.331,1.608a.724.724,0,0,0,.318.073.732.732,0,0,0,.319-1.392" fill="#0f2771"/>
        <path id="Path_202300" data-name="Path 202300" d="M229.724,215.467l-6.393-3.086a.732.732,0,0,0-.637,1.319l6.393,3.086a.724.724,0,0,0,.318.073.732.732,0,0,0,.319-1.392" fill="#0f2771"/>
        <path id="Path_202301" data-name="Path 202301" d="M357.238,100.954l-22.39-10.809a1.626,1.626,0,0,0-1.412,0l-7.344,3.545,23.534,11.369h0v9a.811.811,0,0,1-.46.731l-5.1,2.463a.407.407,0,0,1-.583-.366V108.08l-23.6-11.393-8.839,4.267a.814.814,0,0,0-.459.731.812.812,0,0,1,.135-.444l23.42,11.306v27.437a1.621,1.621,0,0,1-.706-.162l-21.073-10.173,21.073,10.173a1.619,1.619,0,0,0,1.412,0l22.39-10.809a.81.81,0,0,0,.459-.731v-26.6a.812.812,0,0,0-.459-.731" fill="#0f2771"/>
        <path id="Path_202302" data-name="Path 202302" d="M357.562,101.241l-7.937,3.831v8.989a.81.81,0,0,1-.459.731l-5.1,2.463a.406.406,0,0,1-.583-.366V108.08l-.044-.021-9.3,4.488v27.437a1.618,1.618,0,0,0,.706-.162l22.39-10.808a.813.813,0,0,0,.459-.732v-26.6a.812.812,0,0,0-.135-.445" fill="#0f2771"/>
        <path id="Path_202303" data-name="Path 202303" d="M310.722,101.241a.812.812,0,0,0-.135.444v26.6a.812.812,0,0,0,.459.731l22.39,10.809a1.621,1.621,0,0,0,.706.162V112.547Zm7.3,25.164a.812.812,0,0,1-1.085.378l-3.456-1.669a.812.812,0,1,1,.7-1.462l3.457,1.669a.811.811,0,0,1,.379,1.084m3.181-2.071a.811.811,0,0,1-1.084.378l-6.634-3.2a.812.812,0,0,1,.706-1.462l6.634,3.2a.812.812,0,0,1,.378,1.084" fill="#0f2771"/>
        <path id="Path_202304" data-name="Path 202304" d="M46.455,101.016l-22.7-10.96a.734.734,0,0,0-.637,0l-22.7,10.96a.732.732,0,0,0-.414.659v26.617a.732.732,0,0,0,.414.659l22.7,10.96a.731.731,0,0,0,.637,0l22.7-10.96a.732.732,0,0,0,.414-.659V101.676a.732.732,0,0,0-.414-.66M23.434,91.529l21.018,10.146-6.093,2.942a.633.633,0,0,0-.124-.078L17.361,94.461ZM15.707,95.29l20.986,10.131L32.4,107.5,11.417,97.369Zm21.477,11.52v7.671l-4.015,1.938v-7.67Zm8.22,21.022L24.167,138.084V113.1l5.066-2.446a.732.732,0,1,0-.637-1.319l-5.162,2.492-2.03-.981a.732.732,0,1,0-.637,1.319l1.935.935v24.989L1.465,127.832v-24.99l16.172,7.808a.733.733,0,0,0,.637-1.32L2.417,101.675l7.276-3.512,22,10.621.011.013v8.789a.732.732,0,0,0,.732.733.722.722,0,0,0,.318-.073l5.48-2.646a.732.732,0,0,0,.414-.659V106.1l6.755-3.261Z" fill="#0f2771"/>
        <path id="Path_202305" data-name="Path 202305" d="M7.509,124.991l-3.332-1.608a.732.732,0,1,0-.636,1.319l3.331,1.608a.724.724,0,0,0,.318.073.732.732,0,0,0,.319-1.392" fill="#0f2771"/>
        <path id="Path_202306" data-name="Path 202306" d="M10.575,123,4.182,119.91a.732.732,0,1,0-.637,1.319l6.393,3.086a.724.724,0,0,0,.318.073A.732.732,0,0,0,10.575,123" fill="#0f2771"/>
        <line id="Line_394" data-name="Line 394" y1="70.612" x2="51.442" transform="translate(178.697 50)"/>
        <line id="Line_395" data-name="Line 395" y1="65.393" x2="47.639" transform="translate(178.697 55.219)" fill="none" stroke="#0f2771" stroke-miterlimit="10" stroke-width="3"/>
        <path id="Path_202307" data-name="Path 202307" d="M229.189,58.924,230.138,50l-8.2,3.638Z" fill="#0f2771"/>
        <line id="Line_396" data-name="Line 396" x1="51.442" y1="70.612" transform="translate(128.623 50)" stroke="#0f2771" stroke-width="1"/>
        <line id="Line_397" data-name="Line 397" x1="47.639" y1="65.393" transform="translate(132.426 55.219)" fill="none" stroke="#0f2771" stroke-miterlimit="10" stroke-width="3"/>
        <path id="Path_202308" data-name="Path 202308" d="M136.826,53.639,128.623,50l.949,8.924Z" fill="#0f2771"/>
        <line id="Line_398" data-name="Line 398" x1="51.442" y2="70.612" transform="translate(128.623 115.721)"/>
        <line id="Line_399" data-name="Line 399" x1="47.639" y2="65.393" transform="translate(132.426 115.721)" fill="none" stroke="#0f2771" stroke-miterlimit="10" stroke-width="3"/>
        <path id="Path_202309" data-name="Path 202309" d="M129.572,177.41l-.949,8.923,8.2-3.638Z" fill="#0f2771"/>
        <line id="Line_400" data-name="Line 400" x2="51.442" y2="70.612" transform="translate(178.697 115.721)"/>
        <line id="Line_401" data-name="Line 401" x2="47.639" y2="65.393" transform="translate(178.697 115.721)" fill="none" stroke="#0f2771" stroke-miterlimit="10" stroke-width="3"/>
        <path id="Path_202310" data-name="Path 202310" d="M221.935,182.7l8.2,3.639-.949-8.924Z" fill="#0f2771"/>
        <line id="Line_402" data-name="Line 402" x2="235.348" transform="translate(61.054 118.984)"/>
        <line id="Line_403" data-name="Line 403" x2="112.987" transform="translate(67.513 118.983)" fill="none" stroke="#0f2771" stroke-miterlimit="10" stroke-width="3"/>
        <path id="Path_202311" data-name="Path 202311" d="M68.826,123.471l-7.771-4.487,7.771-4.488Z" fill="#0f2771"/>
        <path id="Path_202312" data-name="Path 202312" d="M288.631,123.471l7.771-4.487-7.771-4.488Z" fill="#feca2e"/>
        <line id="Line_404" data-name="Line 404" x2="111.444" transform="translate(178.5 118.983)" fill="none" stroke="#feca2e" stroke-miterlimit="10" stroke-width="3"/>
        <path id="Path_202313" data-name="Path 202313" d="M204.4,140.727H155.577a17.279,17.279,0,1,1,3.135-34.272A13.562,13.562,0,0,1,176.384,99l.119.048A17.21,17.21,0,0,1,208.032,111.7a14.74,14.74,0,0,1-3.627,29.027Zm-48.828-31.4a14.121,14.121,0,0,0-.1,28.242H204.4a11.581,11.581,0,0,0,1.449-23.07,1.579,1.579,0,0,1-1.3-2.072,14.05,14.05,0,0,0-25.963-10.61,1.579,1.579,0,0,1-2.109.733c-.031-.015-.061-.03-.091-.047a10.4,10.4,0,0,0-15.128,6.233,1.579,1.579,0,0,1-1.938,1.094A14.166,14.166,0,0,0,155.577,109.328Z" fill="#0f2771"/>
        <path id="Path_202314" data-name="Path 202314" d="M155.577,109.328a14.121,14.121,0,0,0-.1,28.242H204.4a11.581,11.581,0,0,0,1.449-23.07,1.579,1.579,0,0,1-1.3-2.072,14.05,14.05,0,0,0-25.963-10.61,1.579,1.579,0,0,1-2.109.733c-.031-.015-.061-.03-.091-.047a10.4,10.4,0,0,0-15.128,6.233,1.579,1.579,0,0,1-1.938,1.094A14.166,14.166,0,0,0,155.577,109.328Z" fill="#fff"/>
      </g>
    </g>
    <path id="Path_206277" data-name="Path 206277" d="M11.672,9.93A7.053,7.053,0,0,1,8.863,8.566a2.6,2.6,0,0,1-.879-2A2.751,2.751,0,0,1,9.059,4.348a4.269,4.269,0,0,1,2.793-.879,4.66,4.66,0,0,1,2.09.453,3.436,3.436,0,0,1,1.422,1.25,3.2,3.2,0,0,1,.5,1.742H14.359A2.08,2.08,0,0,0,13.7,5.287,2.669,2.669,0,0,0,11.852,4.7a2.732,2.732,0,0,0-1.73.489A1.632,1.632,0,0,0,9.5,6.542a1.468,1.468,0,0,0,.59,1.178A5.785,5.785,0,0,0,12.1,8.6a9.316,9.316,0,0,1,2.219.88A3.367,3.367,0,0,1,15.5,10.6a2.861,2.861,0,0,1,.387,1.508,2.658,2.658,0,0,1-1.078,2.215,4.6,4.6,0,0,1-2.883.832,5.347,5.347,0,0,1-2.187-.449,3.681,3.681,0,0,1-1.566-1.23A3,3,0,0,1,7.625,11.7H9.133a1.959,1.959,0,0,0,.762,1.629,3.207,3.207,0,0,0,2.035.6,2.948,2.948,0,0,0,1.82-.484,1.573,1.573,0,0,0,.633-1.32,1.545,1.545,0,0,0-.586-1.293A6.755,6.755,0,0,0,11.672,9.93ZM19.156,15H17.711V6.547h1.445ZM17.594,4.3a.863.863,0,0,1,.215-.594.807.807,0,0,1,.637-.242.819.819,0,0,1,.641.242A.854.854,0,0,1,19.3,4.3a.826.826,0,0,1-.219.586.834.834,0,0,1-.641.234.821.821,0,0,1-.637-.234A.834.834,0,0,1,17.594,4.3Zm8.8,8.453a1.064,1.064,0,0,0-.441-.91,4.249,4.249,0,0,0-1.539-.559,7.277,7.277,0,0,1-1.742-.562,2.479,2.479,0,0,1-.953-.781,1.869,1.869,0,0,1-.309-1.078,2.193,2.193,0,0,1,.879-1.758,3.432,3.432,0,0,1,2.246-.719,3.532,3.532,0,0,1,2.332.742,2.357,2.357,0,0,1,.895,1.9H26.3a1.3,1.3,0,0,0-.5-1.023,1.888,1.888,0,0,0-1.27-.43,1.976,1.976,0,0,0-1.234.344,1.082,1.082,0,0,0-.445.9.877.877,0,0,0,.414.789,5.1,5.1,0,0,0,1.5.508,7.8,7.8,0,0,1,1.754.578,2.558,2.558,0,0,1,1,.809,1.988,1.988,0,0,1,.324,1.152,2.163,2.163,0,0,1-.906,1.816,3.8,3.8,0,0,1-2.352.684,4.257,4.257,0,0,1-1.8-.359,2.922,2.922,0,0,1-1.223-1,2.42,2.42,0,0,1-.441-1.395h1.445a1.5,1.5,0,0,0,.582,1.152,2.258,2.258,0,0,0,1.434.426,2.331,2.331,0,0,0,1.316-.332A1.02,1.02,0,0,0,26.391,12.758ZM31.68,4.5V6.547h1.578V7.664H31.68v5.249a1.173,1.173,0,0,0,.211.763.888.888,0,0,0,.719.254,3.5,3.5,0,0,0,.688-.094V15a4.215,4.215,0,0,1-1.109.155,1.8,1.8,0,0,1-1.461-.586,2.517,2.517,0,0,1-.492-1.664V7.664H28.7V6.547h1.539V4.5Zm6.773,10.656a3.693,3.693,0,0,1-2.8-1.129,4.19,4.19,0,0,1-1.078-3.02v-.266a5.073,5.073,0,0,1,.48-2.246A3.748,3.748,0,0,1,36.4,6.949a3.378,3.378,0,0,1,1.871-.559,3.166,3.166,0,0,1,2.563,1.086,4.7,4.7,0,0,1,.914,3.109v.6H36.023a3,3,0,0,0,.73,2.02,2.3,2.3,0,0,0,1.777.77,2.517,2.517,0,0,0,1.3-.312,3.259,3.259,0,0,0,.93-.828l.883.688A3.55,3.55,0,0,1,38.453,15.156Zm-.18-7.578a1.928,1.928,0,0,0-1.469.637A3.1,3.1,0,0,0,36.07,10H40.3V9.891a2.753,2.753,0,0,0-.594-1.707A1.815,1.815,0,0,0,38.273,7.578Zm6.508-1.031.039.938a3.122,3.122,0,0,1,2.508-1.094A2.417,2.417,0,0,1,49.742,7.75a3.2,3.2,0,0,1,1.1-.984,3.242,3.242,0,0,1,1.6-.375q2.781,0,2.828,2.945V15H53.82V9.422a1.941,1.941,0,0,0-.414-1.355,1.823,1.823,0,0,0-1.391-.449,1.917,1.917,0,0,0-1.336.48,1.949,1.949,0,0,0-.617,1.293V15H48.609V9.461a1.613,1.613,0,0,0-1.8-1.844,1.934,1.934,0,0,0-1.945,1.211V15H43.414V6.547ZM62.664,15a3.036,3.036,0,0,1-.2-.891,3.225,3.225,0,0,1-2.406,1.047A2.984,2.984,0,0,1,58,14.449a2.287,2.287,0,0,1-.8-1.793,2.39,2.39,0,0,1,1-2.051,4.733,4.733,0,0,1,2.824-.73h1.406V9.211A1.623,1.623,0,0,0,61.984,8a1.821,1.821,0,0,0-1.336-.449,2.107,2.107,0,0,0-1.3.391,1.151,1.151,0,0,0-.523.945H57.375a2,2,0,0,1,.449-1.223,3.066,3.066,0,0,1,1.219-.934,4.1,4.1,0,0,1,1.691-.344,3.342,3.342,0,0,1,2.289.73,2.635,2.635,0,0,1,.859,2.012v3.891a4.757,4.757,0,0,0,.3,1.852V15Zm-2.4-1.1a2.54,2.54,0,0,0,1.289-.352,2.127,2.127,0,0,0,.883-.914V10.9H61.3q-2.656,0-2.656,1.555a1.316,1.316,0,0,0,.453,1.063A1.742,1.742,0,0,0,60.266,13.9ZM74.711,15H73.258V5.367l-2.914,1.07V5.125L74.484,3.57h.227Z" transform="translate(890 982)" fill="#12263f"/>
    <path id="Path_206280" data-name="Path 206280" d="M18.957,3.625l3.719,9.281,3.719-9.281H28.34V15h-1.5V10.57l.141-4.781L23.246,15H22.1L18.371,5.813l.148,4.758V15h-1.5V3.625ZM30.379,10.7a4.993,4.993,0,0,1,.488-2.234A3.643,3.643,0,0,1,32.227,6.93a3.7,3.7,0,0,1,1.988-.539,3.565,3.565,0,0,1,2.793,1.2,4.6,4.6,0,0,1,1.066,3.18v.1a5.036,5.036,0,0,1-.473,2.215,3.589,3.589,0,0,1-1.352,1.527,3.743,3.743,0,0,1-2.02.547,3.556,3.556,0,0,1-2.785-1.2A4.575,4.575,0,0,1,30.379,10.8Zm1.453.172a3.616,3.616,0,0,0,.652,2.258,2.211,2.211,0,0,0,3.5-.012,3.955,3.955,0,0,0,.648-2.418,3.61,3.61,0,0,0-.66-2.254,2.1,2.1,0,0,0-1.754-.863,2.075,2.075,0,0,0-1.727.852A3.925,3.925,0,0,0,31.832,10.867Zm7.7-.164a4.952,4.952,0,0,1,.922-3.129,3.137,3.137,0,0,1,4.766-.168V3h1.445V15H45.34l-.07-.906a2.943,2.943,0,0,1-2.414,1.063,2.887,2.887,0,0,1-2.395-1.2,5.008,5.008,0,0,1-.926-3.141Zm1.445.164a3.749,3.749,0,0,0,.594,2.25,1.92,1.92,0,0,0,1.641.813A2.108,2.108,0,0,0,45.223,12.7V8.813a2.125,2.125,0,0,0-1.992-1.2,1.929,1.929,0,0,0-1.656.82A4.128,4.128,0,0,0,40.98,10.867Zm11.438,4.289a3.693,3.693,0,0,1-2.8-1.129,4.19,4.19,0,0,1-1.078-3.02v-.266a5.073,5.073,0,0,1,.48-2.246,3.748,3.748,0,0,1,1.344-1.547,3.378,3.378,0,0,1,1.871-.559A3.166,3.166,0,0,1,54.8,7.477a4.7,4.7,0,0,1,.914,3.109v.6H49.988a3,3,0,0,0,.73,2.02,2.3,2.3,0,0,0,1.777.77,2.517,2.517,0,0,0,1.3-.312,3.259,3.259,0,0,0,.93-.828l.883.688A3.55,3.55,0,0,1,52.418,15.156Zm-.18-7.578a1.928,1.928,0,0,0-1.469.637A3.1,3.1,0,0,0,50.035,10H54.27V9.891a2.753,2.753,0,0,0-.594-1.707A1.815,1.815,0,0,0,52.238,7.578ZM58.957,15H57.512V3h1.445Zm1.93-4.3a4.993,4.993,0,0,1,.488-2.234A3.643,3.643,0,0,1,62.734,6.93a3.7,3.7,0,0,1,1.988-.539,3.565,3.565,0,0,1,2.793,1.2,4.6,4.6,0,0,1,1.066,3.18v.1a5.036,5.036,0,0,1-.473,2.215,3.589,3.589,0,0,1-1.352,1.527,3.743,3.743,0,0,1-2.02.547,3.556,3.556,0,0,1-2.785-1.2A4.575,4.575,0,0,1,60.887,10.8Zm1.453.172a3.616,3.616,0,0,0,.652,2.258,2.211,2.211,0,0,0,3.5-.012,3.955,3.955,0,0,0,.648-2.418,3.61,3.61,0,0,0-.66-2.254,2.1,2.1,0,0,0-1.754-.863A2.075,2.075,0,0,0,63,8.43,3.925,3.925,0,0,0,62.34,10.867Z" transform="translate(1200 982)" fill="#12263f"/>
    <path id="Path_206278" data-name="Path 206278" d="M11.672,9.93A7.053,7.053,0,0,1,8.863,8.566a2.6,2.6,0,0,1-.879-2A2.751,2.751,0,0,1,9.059,4.348a4.269,4.269,0,0,1,2.793-.879,4.66,4.66,0,0,1,2.09.453,3.436,3.436,0,0,1,1.422,1.25,3.2,3.2,0,0,1,.5,1.742H14.359A2.08,2.08,0,0,0,13.7,5.287,2.669,2.669,0,0,0,11.852,4.7a2.732,2.732,0,0,0-1.73.489A1.632,1.632,0,0,0,9.5,6.542a1.468,1.468,0,0,0,.59,1.178A5.785,5.785,0,0,0,12.1,8.6a9.316,9.316,0,0,1,2.219.88A3.367,3.367,0,0,1,15.5,10.6a2.861,2.861,0,0,1,.387,1.508,2.658,2.658,0,0,1-1.078,2.215,4.6,4.6,0,0,1-2.883.832,5.347,5.347,0,0,1-2.187-.449,3.681,3.681,0,0,1-1.566-1.23A3,3,0,0,1,7.625,11.7H9.133a1.959,1.959,0,0,0,.762,1.629,3.207,3.207,0,0,0,2.035.6,2.948,2.948,0,0,0,1.82-.484,1.573,1.573,0,0,0,.633-1.32,1.545,1.545,0,0,0-.586-1.293A6.755,6.755,0,0,0,11.672,9.93ZM19.156,15H17.711V6.547h1.445ZM17.594,4.3a.863.863,0,0,1,.215-.594.807.807,0,0,1,.637-.242.819.819,0,0,1,.641.242A.854.854,0,0,1,19.3,4.3a.826.826,0,0,1-.219.586.834.834,0,0,1-.641.234.821.821,0,0,1-.637-.234A.834.834,0,0,1,17.594,4.3Zm8.8,8.453a1.064,1.064,0,0,0-.441-.91,4.249,4.249,0,0,0-1.539-.559,7.277,7.277,0,0,1-1.742-.562,2.479,2.479,0,0,1-.953-.781,1.869,1.869,0,0,1-.309-1.078,2.193,2.193,0,0,1,.879-1.758,3.432,3.432,0,0,1,2.246-.719,3.532,3.532,0,0,1,2.332.742,2.357,2.357,0,0,1,.895,1.9H26.3a1.3,1.3,0,0,0-.5-1.023,1.888,1.888,0,0,0-1.27-.43,1.976,1.976,0,0,0-1.234.344,1.082,1.082,0,0,0-.445.9.877.877,0,0,0,.414.789,5.1,5.1,0,0,0,1.5.508,7.8,7.8,0,0,1,1.754.578,2.558,2.558,0,0,1,1,.809,1.988,1.988,0,0,1,.324,1.152,2.163,2.163,0,0,1-.906,1.816,3.8,3.8,0,0,1-2.352.684,4.257,4.257,0,0,1-1.8-.359,2.922,2.922,0,0,1-1.223-1,2.42,2.42,0,0,1-.441-1.395h1.445a1.5,1.5,0,0,0,.582,1.152,2.258,2.258,0,0,0,1.434.426,2.331,2.331,0,0,0,1.316-.332A1.02,1.02,0,0,0,26.391,12.758ZM31.68,4.5V6.547h1.578V7.664H31.68v5.249a1.173,1.173,0,0,0,.211.763.888.888,0,0,0,.719.254,3.5,3.5,0,0,0,.688-.094V15a4.215,4.215,0,0,1-1.109.155,1.8,1.8,0,0,1-1.461-.586,2.517,2.517,0,0,1-.492-1.664V7.664H28.7V6.547h1.539V4.5Zm6.773,10.656a3.693,3.693,0,0,1-2.8-1.129,4.19,4.19,0,0,1-1.078-3.02v-.266a5.073,5.073,0,0,1,.48-2.246A3.748,3.748,0,0,1,36.4,6.949a3.378,3.378,0,0,1,1.871-.559,3.166,3.166,0,0,1,2.563,1.086,4.7,4.7,0,0,1,.914,3.109v.6H36.023a3,3,0,0,0,.73,2.02,2.3,2.3,0,0,0,1.777.77,2.517,2.517,0,0,0,1.3-.312,3.259,3.259,0,0,0,.93-.828l.883.688A3.55,3.55,0,0,1,38.453,15.156Zm-.18-7.578a1.928,1.928,0,0,0-1.469.637A3.1,3.1,0,0,0,36.07,10H40.3V9.891a2.753,2.753,0,0,0-.594-1.707A1.815,1.815,0,0,0,38.273,7.578Zm6.508-1.031.039.938a3.122,3.122,0,0,1,2.508-1.094A2.417,2.417,0,0,1,49.742,7.75a3.2,3.2,0,0,1,1.1-.984,3.242,3.242,0,0,1,1.6-.375q2.781,0,2.828,2.945V15H53.82V9.422a1.941,1.941,0,0,0-.414-1.355,1.823,1.823,0,0,0-1.391-.449,1.917,1.917,0,0,0-1.336.48,1.949,1.949,0,0,0-.617,1.293V15H48.609V9.461a1.613,1.613,0,0,0-1.8-1.844,1.934,1.934,0,0,0-1.945,1.211V15H43.414V6.547ZM62.664,15a3.036,3.036,0,0,1-.2-.891,3.225,3.225,0,0,1-2.406,1.047A2.984,2.984,0,0,1,58,14.449a2.287,2.287,0,0,1-.8-1.793,2.39,2.39,0,0,1,1-2.051,4.733,4.733,0,0,1,2.824-.73h1.406V9.211A1.623,1.623,0,0,0,61.984,8a1.821,1.821,0,0,0-1.336-.449,2.107,2.107,0,0,0-1.3.391,1.151,1.151,0,0,0-.523.945H57.375a2,2,0,0,1,.449-1.223,3.066,3.066,0,0,1,1.219-.934,4.1,4.1,0,0,1,1.691-.344,3.342,3.342,0,0,1,2.289.73,2.635,2.635,0,0,1,.859,2.012v3.891a4.757,4.757,0,0,0,.3,1.852V15Zm-2.4-1.1a2.54,2.54,0,0,0,1.289-.352,2.127,2.127,0,0,0,.883-.914V10.9H61.3q-2.656,0-2.656,1.555a1.316,1.316,0,0,0,.453,1.063A1.742,1.742,0,0,0,60.266,13.9ZM70.625,9.3,71.2,3.625h5.828V4.961h-4.6l-.344,3.1a3.671,3.671,0,0,1,1.9-.492A3.138,3.138,0,0,1,76.453,8.6a4.026,4.026,0,0,1,.914,2.777,3.886,3.886,0,0,1-.949,2.77,3.46,3.46,0,0,1-2.652,1.012A3.6,3.6,0,0,1,71.3,14.32a3.337,3.337,0,0,1-1.086-2.312h1.367a2.3,2.3,0,0,0,.7,1.473,2.162,2.162,0,0,0,1.484.5,1.95,1.95,0,0,0,1.582-.687,2.874,2.874,0,0,0,.574-1.9A2.638,2.638,0,0,0,75.3,9.559a2.113,2.113,0,0,0-1.652-.691,2.383,2.383,0,0,0-1.484.414l-.383.313Z" transform="translate(981 1073)" fill="#12263f"/>
    <path id="Path_206279" data-name="Path 206279" d="M11.672,9.93A7.053,7.053,0,0,1,8.863,8.566a2.6,2.6,0,0,1-.879-2A2.751,2.751,0,0,1,9.059,4.348a4.269,4.269,0,0,1,2.793-.879,4.66,4.66,0,0,1,2.09.453,3.436,3.436,0,0,1,1.422,1.25,3.2,3.2,0,0,1,.5,1.742H14.359A2.08,2.08,0,0,0,13.7,5.287,2.669,2.669,0,0,0,11.852,4.7a2.732,2.732,0,0,0-1.73.489A1.632,1.632,0,0,0,9.5,6.542a1.468,1.468,0,0,0,.59,1.178A5.785,5.785,0,0,0,12.1,8.6a9.316,9.316,0,0,1,2.219.88A3.367,3.367,0,0,1,15.5,10.6a2.861,2.861,0,0,1,.387,1.508,2.658,2.658,0,0,1-1.078,2.215,4.6,4.6,0,0,1-2.883.832,5.347,5.347,0,0,1-2.187-.449,3.681,3.681,0,0,1-1.566-1.23A3,3,0,0,1,7.625,11.7H9.133a1.959,1.959,0,0,0,.762,1.629,3.207,3.207,0,0,0,2.035.6,2.948,2.948,0,0,0,1.82-.484,1.573,1.573,0,0,0,.633-1.32,1.545,1.545,0,0,0-.586-1.293A6.755,6.755,0,0,0,11.672,9.93ZM19.156,15H17.711V6.547h1.445ZM17.594,4.3a.863.863,0,0,1,.215-.594.807.807,0,0,1,.637-.242.819.819,0,0,1,.641.242A.854.854,0,0,1,19.3,4.3a.826.826,0,0,1-.219.586.834.834,0,0,1-.641.234.821.821,0,0,1-.637-.234A.834.834,0,0,1,17.594,4.3Zm8.8,8.453a1.064,1.064,0,0,0-.441-.91,4.249,4.249,0,0,0-1.539-.559,7.277,7.277,0,0,1-1.742-.562,2.479,2.479,0,0,1-.953-.781,1.869,1.869,0,0,1-.309-1.078,2.193,2.193,0,0,1,.879-1.758,3.432,3.432,0,0,1,2.246-.719,3.532,3.532,0,0,1,2.332.742,2.357,2.357,0,0,1,.895,1.9H26.3a1.3,1.3,0,0,0-.5-1.023,1.888,1.888,0,0,0-1.27-.43,1.976,1.976,0,0,0-1.234.344,1.082,1.082,0,0,0-.445.9.877.877,0,0,0,.414.789,5.1,5.1,0,0,0,1.5.508,7.8,7.8,0,0,1,1.754.578,2.558,2.558,0,0,1,1,.809,1.988,1.988,0,0,1,.324,1.152,2.163,2.163,0,0,1-.906,1.816,3.8,3.8,0,0,1-2.352.684,4.257,4.257,0,0,1-1.8-.359,2.922,2.922,0,0,1-1.223-1,2.42,2.42,0,0,1-.441-1.395h1.445a1.5,1.5,0,0,0,.582,1.152,2.258,2.258,0,0,0,1.434.426,2.331,2.331,0,0,0,1.316-.332A1.02,1.02,0,0,0,26.391,12.758ZM31.68,4.5V6.547h1.578V7.664H31.68v5.249a1.173,1.173,0,0,0,.211.763.888.888,0,0,0,.719.254,3.5,3.5,0,0,0,.688-.094V15a4.215,4.215,0,0,1-1.109.155,1.8,1.8,0,0,1-1.461-.586,2.517,2.517,0,0,1-.492-1.664V7.664H28.7V6.547h1.539V4.5Zm6.773,10.656a3.693,3.693,0,0,1-2.8-1.129,4.19,4.19,0,0,1-1.078-3.02v-.266a5.073,5.073,0,0,1,.48-2.246A3.748,3.748,0,0,1,36.4,6.949a3.378,3.378,0,0,1,1.871-.559,3.166,3.166,0,0,1,2.563,1.086,4.7,4.7,0,0,1,.914,3.109v.6H36.023a3,3,0,0,0,.73,2.02,2.3,2.3,0,0,0,1.777.77,2.517,2.517,0,0,0,1.3-.312,3.259,3.259,0,0,0,.93-.828l.883.688A3.55,3.55,0,0,1,38.453,15.156Zm-.18-7.578a1.928,1.928,0,0,0-1.469.637A3.1,3.1,0,0,0,36.07,10H40.3V9.891a2.753,2.753,0,0,0-.594-1.707A1.815,1.815,0,0,0,38.273,7.578Zm6.508-1.031.039.938a3.122,3.122,0,0,1,2.508-1.094A2.417,2.417,0,0,1,49.742,7.75a3.2,3.2,0,0,1,1.1-.984,3.242,3.242,0,0,1,1.6-.375q2.781,0,2.828,2.945V15H53.82V9.422a1.941,1.941,0,0,0-.414-1.355,1.823,1.823,0,0,0-1.391-.449,1.917,1.917,0,0,0-1.336.48,1.949,1.949,0,0,0-.617,1.293V15H48.609V9.461a1.613,1.613,0,0,0-1.8-1.844,1.934,1.934,0,0,0-1.945,1.211V15H43.414V6.547ZM62.664,15a3.036,3.036,0,0,1-.2-.891,3.225,3.225,0,0,1-2.406,1.047A2.984,2.984,0,0,1,58,14.449a2.287,2.287,0,0,1-.8-1.793,2.39,2.39,0,0,1,1-2.051,4.733,4.733,0,0,1,2.824-.73h1.406V9.211A1.623,1.623,0,0,0,61.984,8a1.821,1.821,0,0,0-1.336-.449,2.107,2.107,0,0,0-1.3.391,1.151,1.151,0,0,0-.523.945H57.375a2,2,0,0,1,.449-1.223,3.066,3.066,0,0,1,1.219-.934,4.1,4.1,0,0,1,1.691-.344,3.342,3.342,0,0,1,2.289.73,2.635,2.635,0,0,1,.859,2.012v3.891a4.757,4.757,0,0,0,.3,1.852V15Zm-2.4-1.1a2.54,2.54,0,0,0,1.289-.352,2.127,2.127,0,0,0,.883-.914V10.9H61.3q-2.656,0-2.656,1.555a1.316,1.316,0,0,0,.453,1.063A1.742,1.742,0,0,0,60.266,13.9Zm15.8-2.719h1.578v1.18H76.063V15H74.609V12.359H69.43v-.852l5.094-7.883h1.539Zm-4.992,0h3.539V5.6l-.172.313Z" transform="translate(1109 1073)" fill="#12263f"/>
    <path id="Path_206276" data-name="Path 206276" d="M11.672,9.93A7.053,7.053,0,0,1,8.863,8.566a2.6,2.6,0,0,1-.879-2A2.751,2.751,0,0,1,9.059,4.348a4.269,4.269,0,0,1,2.793-.879,4.66,4.66,0,0,1,2.09.453,3.436,3.436,0,0,1,1.422,1.25,3.2,3.2,0,0,1,.5,1.742H14.359A2.08,2.08,0,0,0,13.7,5.287,2.669,2.669,0,0,0,11.852,4.7a2.732,2.732,0,0,0-1.73.489A1.632,1.632,0,0,0,9.5,6.542a1.468,1.468,0,0,0,.59,1.178A5.785,5.785,0,0,0,12.1,8.6a9.316,9.316,0,0,1,2.219.88A3.367,3.367,0,0,1,15.5,10.6a2.861,2.861,0,0,1,.387,1.508,2.658,2.658,0,0,1-1.078,2.215,4.6,4.6,0,0,1-2.883.832,5.347,5.347,0,0,1-2.187-.449,3.681,3.681,0,0,1-1.566-1.23A3,3,0,0,1,7.625,11.7H9.133a1.959,1.959,0,0,0,.762,1.629,3.207,3.207,0,0,0,2.035.6,2.948,2.948,0,0,0,1.82-.484,1.573,1.573,0,0,0,.633-1.32,1.545,1.545,0,0,0-.586-1.293A6.755,6.755,0,0,0,11.672,9.93ZM19.156,15H17.711V6.547h1.445ZM17.594,4.3a.863.863,0,0,1,.215-.594.807.807,0,0,1,.637-.242.819.819,0,0,1,.641.242A.854.854,0,0,1,19.3,4.3a.826.826,0,0,1-.219.586.834.834,0,0,1-.641.234.821.821,0,0,1-.637-.234A.834.834,0,0,1,17.594,4.3Zm8.8,8.453a1.064,1.064,0,0,0-.441-.91,4.249,4.249,0,0,0-1.539-.559,7.277,7.277,0,0,1-1.742-.562,2.479,2.479,0,0,1-.953-.781,1.869,1.869,0,0,1-.309-1.078,2.193,2.193,0,0,1,.879-1.758,3.432,3.432,0,0,1,2.246-.719,3.532,3.532,0,0,1,2.332.742,2.357,2.357,0,0,1,.895,1.9H26.3a1.3,1.3,0,0,0-.5-1.023,1.888,1.888,0,0,0-1.27-.43,1.976,1.976,0,0,0-1.234.344,1.082,1.082,0,0,0-.445.9.877.877,0,0,0,.414.789,5.1,5.1,0,0,0,1.5.508,7.8,7.8,0,0,1,1.754.578,2.558,2.558,0,0,1,1,.809,1.988,1.988,0,0,1,.324,1.152,2.163,2.163,0,0,1-.906,1.816,3.8,3.8,0,0,1-2.352.684,4.257,4.257,0,0,1-1.8-.359,2.922,2.922,0,0,1-1.223-1,2.42,2.42,0,0,1-.441-1.395h1.445a1.5,1.5,0,0,0,.582,1.152,2.258,2.258,0,0,0,1.434.426,2.331,2.331,0,0,0,1.316-.332A1.02,1.02,0,0,0,26.391,12.758ZM31.68,4.5V6.547h1.578V7.664H31.68v5.249a1.173,1.173,0,0,0,.211.763.888.888,0,0,0,.719.254,3.5,3.5,0,0,0,.688-.094V15a4.215,4.215,0,0,1-1.109.155,1.8,1.8,0,0,1-1.461-.586,2.517,2.517,0,0,1-.492-1.664V7.664H28.7V6.547h1.539V4.5Zm6.773,10.656a3.693,3.693,0,0,1-2.8-1.129,4.19,4.19,0,0,1-1.078-3.02v-.266a5.073,5.073,0,0,1,.48-2.246A3.748,3.748,0,0,1,36.4,6.949a3.378,3.378,0,0,1,1.871-.559,3.166,3.166,0,0,1,2.563,1.086,4.7,4.7,0,0,1,.914,3.109v.6H36.023a3,3,0,0,0,.73,2.02,2.3,2.3,0,0,0,1.777.77,2.517,2.517,0,0,0,1.3-.312,3.259,3.259,0,0,0,.93-.828l.883.688A3.55,3.55,0,0,1,38.453,15.156Zm-.18-7.578a1.928,1.928,0,0,0-1.469.637A3.1,3.1,0,0,0,36.07,10H40.3V9.891a2.753,2.753,0,0,0-.594-1.707A1.815,1.815,0,0,0,38.273,7.578Zm6.508-1.031.039.938a3.122,3.122,0,0,1,2.508-1.094A2.417,2.417,0,0,1,49.742,7.75a3.2,3.2,0,0,1,1.1-.984,3.242,3.242,0,0,1,1.6-.375q2.781,0,2.828,2.945V15H53.82V9.422a1.941,1.941,0,0,0-.414-1.355,1.823,1.823,0,0,0-1.391-.449,1.917,1.917,0,0,0-1.336.48,1.949,1.949,0,0,0-.617,1.293V15H48.609V9.461a1.613,1.613,0,0,0-1.8-1.844,1.934,1.934,0,0,0-1.945,1.211V15H43.414V6.547ZM62.664,15a3.036,3.036,0,0,1-.2-.891,3.225,3.225,0,0,1-2.406,1.047A2.984,2.984,0,0,1,58,14.449a2.287,2.287,0,0,1-.8-1.793,2.39,2.39,0,0,1,1-2.051,4.733,4.733,0,0,1,2.824-.73h1.406V9.211A1.623,1.623,0,0,0,61.984,8a1.821,1.821,0,0,0-1.336-.449,2.107,2.107,0,0,0-1.3.391,1.151,1.151,0,0,0-.523.945H57.375a2,2,0,0,1,.449-1.223,3.066,3.066,0,0,1,1.219-.934,4.1,4.1,0,0,1,1.691-.344,3.342,3.342,0,0,1,2.289.73,2.635,2.635,0,0,1,.859,2.012v3.891a4.757,4.757,0,0,0,.3,1.852V15Zm-2.4-1.1a2.54,2.54,0,0,0,1.289-.352,2.127,2.127,0,0,0,.883-.914V10.9H61.3q-2.656,0-2.656,1.555a1.316,1.316,0,0,0,.453,1.063A1.742,1.742,0,0,0,60.266,13.9ZM77.414,15H69.961V13.961L73.9,9.586a9.354,9.354,0,0,0,1.207-1.613,2.693,2.693,0,0,0,.332-1.285A2.041,2.041,0,0,0,74.9,5.227a1.885,1.885,0,0,0-1.437-.57,2.232,2.232,0,0,0-1.676.613,2.343,2.343,0,0,0-.6,1.707H69.742a3.355,3.355,0,0,1,1.012-2.539,3.751,3.751,0,0,1,2.707-.969,3.6,3.6,0,0,1,2.508.832,2.838,2.838,0,0,1,.922,2.215q0,1.68-2.141,4L71.7,13.82h5.711Z" transform="translate(981 816)" fill="#12263f"/>
    <path id="Path_206275" data-name="Path 206275" d="M11.672,9.93A7.053,7.053,0,0,1,8.863,8.566a2.6,2.6,0,0,1-.879-2A2.751,2.751,0,0,1,9.059,4.348a4.269,4.269,0,0,1,2.793-.879,4.66,4.66,0,0,1,2.09.453,3.436,3.436,0,0,1,1.422,1.25,3.2,3.2,0,0,1,.5,1.742H14.359A2.08,2.08,0,0,0,13.7,5.287,2.669,2.669,0,0,0,11.852,4.7a2.732,2.732,0,0,0-1.73.489A1.632,1.632,0,0,0,9.5,6.542a1.468,1.468,0,0,0,.59,1.178A5.785,5.785,0,0,0,12.1,8.6a9.316,9.316,0,0,1,2.219.88A3.367,3.367,0,0,1,15.5,10.6a2.861,2.861,0,0,1,.387,1.508,2.658,2.658,0,0,1-1.078,2.215,4.6,4.6,0,0,1-2.883.832,5.347,5.347,0,0,1-2.187-.449,3.681,3.681,0,0,1-1.566-1.23A3,3,0,0,1,7.625,11.7H9.133a1.959,1.959,0,0,0,.762,1.629,3.207,3.207,0,0,0,2.035.6,2.948,2.948,0,0,0,1.82-.484,1.573,1.573,0,0,0,.633-1.32,1.545,1.545,0,0,0-.586-1.293A6.755,6.755,0,0,0,11.672,9.93ZM19.156,15H17.711V6.547h1.445ZM17.594,4.3a.863.863,0,0,1,.215-.594.807.807,0,0,1,.637-.242.819.819,0,0,1,.641.242A.854.854,0,0,1,19.3,4.3a.826.826,0,0,1-.219.586.834.834,0,0,1-.641.234.821.821,0,0,1-.637-.234A.834.834,0,0,1,17.594,4.3Zm8.8,8.453a1.064,1.064,0,0,0-.441-.91,4.249,4.249,0,0,0-1.539-.559,7.277,7.277,0,0,1-1.742-.562,2.479,2.479,0,0,1-.953-.781,1.869,1.869,0,0,1-.309-1.078,2.193,2.193,0,0,1,.879-1.758,3.432,3.432,0,0,1,2.246-.719,3.532,3.532,0,0,1,2.332.742,2.357,2.357,0,0,1,.895,1.9H26.3a1.3,1.3,0,0,0-.5-1.023,1.888,1.888,0,0,0-1.27-.43,1.976,1.976,0,0,0-1.234.344,1.082,1.082,0,0,0-.445.9.877.877,0,0,0,.414.789,5.1,5.1,0,0,0,1.5.508,7.8,7.8,0,0,1,1.754.578,2.558,2.558,0,0,1,1,.809,1.988,1.988,0,0,1,.324,1.152,2.163,2.163,0,0,1-.906,1.816,3.8,3.8,0,0,1-2.352.684,4.257,4.257,0,0,1-1.8-.359,2.922,2.922,0,0,1-1.223-1,2.42,2.42,0,0,1-.441-1.395h1.445a1.5,1.5,0,0,0,.582,1.152,2.258,2.258,0,0,0,1.434.426,2.331,2.331,0,0,0,1.316-.332A1.02,1.02,0,0,0,26.391,12.758ZM31.68,4.5V6.547h1.578V7.664H31.68v5.249a1.173,1.173,0,0,0,.211.763.888.888,0,0,0,.719.254,3.5,3.5,0,0,0,.688-.094V15a4.215,4.215,0,0,1-1.109.155,1.8,1.8,0,0,1-1.461-.586,2.517,2.517,0,0,1-.492-1.664V7.664H28.7V6.547h1.539V4.5Zm6.773,10.656a3.693,3.693,0,0,1-2.8-1.129,4.19,4.19,0,0,1-1.078-3.02v-.266a5.073,5.073,0,0,1,.48-2.246A3.748,3.748,0,0,1,36.4,6.949a3.378,3.378,0,0,1,1.871-.559,3.166,3.166,0,0,1,2.563,1.086,4.7,4.7,0,0,1,.914,3.109v.6H36.023a3,3,0,0,0,.73,2.02,2.3,2.3,0,0,0,1.777.77,2.517,2.517,0,0,0,1.3-.312,3.259,3.259,0,0,0,.93-.828l.883.688A3.55,3.55,0,0,1,38.453,15.156Zm-.18-7.578a1.928,1.928,0,0,0-1.469.637A3.1,3.1,0,0,0,36.07,10H40.3V9.891a2.753,2.753,0,0,0-.594-1.707A1.815,1.815,0,0,0,38.273,7.578Zm6.508-1.031.039.938a3.122,3.122,0,0,1,2.508-1.094A2.417,2.417,0,0,1,49.742,7.75a3.2,3.2,0,0,1,1.1-.984,3.242,3.242,0,0,1,1.6-.375q2.781,0,2.828,2.945V15H53.82V9.422a1.941,1.941,0,0,0-.414-1.355,1.823,1.823,0,0,0-1.391-.449,1.917,1.917,0,0,0-1.336.48,1.949,1.949,0,0,0-.617,1.293V15H48.609V9.461a1.613,1.613,0,0,0-1.8-1.844,1.934,1.934,0,0,0-1.945,1.211V15H43.414V6.547ZM62.664,15a3.036,3.036,0,0,1-.2-.891,3.225,3.225,0,0,1-2.406,1.047A2.984,2.984,0,0,1,58,14.449a2.287,2.287,0,0,1-.8-1.793,2.39,2.39,0,0,1,1-2.051,4.733,4.733,0,0,1,2.824-.73h1.406V9.211A1.623,1.623,0,0,0,61.984,8a1.821,1.821,0,0,0-1.336-.449,2.107,2.107,0,0,0-1.3.391,1.151,1.151,0,0,0-.523.945H57.375a2,2,0,0,1,.449-1.223,3.066,3.066,0,0,1,1.219-.934,4.1,4.1,0,0,1,1.691-.344,3.342,3.342,0,0,1,2.289.73,2.635,2.635,0,0,1,.859,2.012v3.891a4.757,4.757,0,0,0,.3,1.852V15Zm-2.4-1.1a2.54,2.54,0,0,0,1.289-.352,2.127,2.127,0,0,0,.883-.914V10.9H61.3q-2.656,0-2.656,1.555a1.316,1.316,0,0,0,.453,1.063A1.742,1.742,0,0,0,60.266,13.9Zm11.8-5.289h1.086a2.387,2.387,0,0,0,1.609-.539,1.8,1.8,0,0,0,.586-1.414,1.764,1.764,0,0,0-1.992-2,2.072,2.072,0,0,0-1.5.535A1.873,1.873,0,0,0,71.3,6.609H69.852a2.9,2.9,0,0,1,.988-2.246,3.6,3.6,0,0,1,2.512-.895,3.558,3.558,0,0,1,2.523.852,3.076,3.076,0,0,1,.914,2.367,2.5,2.5,0,0,1-.48,1.438A2.9,2.9,0,0,1,75,9.164a2.8,2.8,0,0,1,1.449.984,2.734,2.734,0,0,1,.512,1.68,3.1,3.1,0,0,1-1,2.43,3.745,3.745,0,0,1-2.6.9,3.844,3.844,0,0,1-2.605-.867,2.877,2.877,0,0,1-1-2.289H71.2a1.859,1.859,0,0,0,.586,1.438,2.229,2.229,0,0,0,1.57.539,2.187,2.187,0,0,0,1.6-.547,2.108,2.108,0,0,0,.555-1.57,1.912,1.912,0,0,0-.609-1.523,2.655,2.655,0,0,0-1.758-.547H72.063Z" transform="translate(1109 816)" fill="#12263f"/>
  </g>
</svg>
