<svg id="_2" data-name="2" xmlns="http://www.w3.org/2000/svg" xmlns:xlink="http://www.w3.org/1999/xlink" width="100" height="100" viewBox="0 0 100 100">
  <defs>
    <clipPath id="clip-path">
      <rect id="Rectangle_45193" data-name="Rectangle 45193" width="100" height="100" fill="none"/>
    </clipPath>
  </defs>
  <g id="Group_146960" data-name="Group 146960" clip-path="url(#clip-path)">
    <path id="Path_203933" data-name="Path 203933" d="M11.226,8h90.323a3.226,3.226,0,0,1,3.226,3.226V82.194a3.226,3.226,0,0,1-3.226,3.226H11.226A3.226,3.226,0,0,1,8,82.194V11.226A3.226,3.226,0,0,1,11.226,8" transform="translate(-6.387 -6.387)" fill="#e2e7f6"/>
    <path id="Path_203934" data-name="Path 203934" d="M11.226,8A3.226,3.226,0,0,0,8,11.226V80.581H95.1a3.226,3.226,0,0,0,3.226-3.226V8Z" transform="translate(-6.387 -6.387)" fill="#f7fafd"/>
    <path id="Path_203935" data-name="Path 203935" d="M101.548,8H11.226A3.226,3.226,0,0,0,8,11.226V20.9h96.774V11.226A3.226,3.226,0,0,0,101.548,8" transform="translate(-6.387 -6.387)" fill="#97b0c4"/>
    <rect id="Rectangle_45180" data-name="Rectangle 45180" width="51.613" height="27.419" transform="translate(40.323 27.419)" fill="#4dd0e1"/>
    <path id="Path_203936" data-name="Path 203936" d="M98.323,8h-87.1A3.226,3.226,0,0,0,8,11.226V20.9H98.323Z" transform="translate(-6.387 -6.387)" fill="#bddcf6"/>
    <path id="Path_203937" data-name="Path 203937" d="M101.548,340.9H11.226A3.226,3.226,0,0,1,8,337.677V328h96.774v9.677a3.226,3.226,0,0,1-3.226,3.226" transform="translate(-6.387 -261.871)" fill="#97b0c4"/>
    <path id="Path_203938" data-name="Path 203938" d="M8,328v8.065H95.1a3.226,3.226,0,0,0,3.226-3.226V328Z" transform="translate(-6.387 -261.871)" fill="#bddcf6"/>
    <rect id="Rectangle_45181" data-name="Rectangle 45181" width="12.903" height="3.226" transform="translate(6.452 70.968)" fill="#f7fafd"/>
    <rect id="Rectangle_45182" data-name="Rectangle 45182" width="3.226" height="3.226" transform="translate(22.581 70.968)" fill="#f7fafd"/>
    <path id="Path_203939" data-name="Path 203939" d="M161.619,456h-44.4a3.226,3.226,0,0,0-2.885,1.784L112,462.452h54.839l-2.334-4.668A3.226,3.226,0,0,0,161.619,456" transform="translate(-89.419 -364.065)" fill="#97b0c4"/>
    <path id="Path_203940" data-name="Path 203940" d="M209.806,404.9,206.581,392H187.226L184,404.9Z" transform="translate(-146.903 -312.968)" fill="#97b0c4"/>
    <path id="Path_203941" data-name="Path 203941" d="M166.774,457.613V456H123.606a3.226,3.226,0,0,0-2.885,1.784L120,459.226h45.161a1.613,1.613,0,0,0,1.613-1.613" transform="translate(-95.806 -364.065)" fill="#bddcf6"/>
    <rect id="Rectangle_45183" data-name="Rectangle 45183" width="6.452" height="3.226" transform="translate(46.774 6.452)" fill="#f7fafd"/>
    <rect id="Rectangle_45184" data-name="Rectangle 45184" width="3.226" height="3.226" transform="translate(56.452 6.452)" fill="#f7fafd"/>
    <rect id="Rectangle_45185" data-name="Rectangle 45185" width="3.226" height="3.226" transform="translate(40.323 6.452)" fill="#f7fafd"/>
    <path id="Path_203942" data-name="Path 203942" d="M276.742,170.531l-2.774-8.326A3.226,3.226,0,0,0,270.9,160H270a3.226,3.226,0,0,0-3.065,2.2l-2.776,8.326a3.228,3.228,0,0,0-.161,1.021v4.577h3.226V172.9h6.452v3.226H276.9v-4.577a3.228,3.228,0,0,0-.161-1.021m-5.84-7.3,2.152,6.452h-5.2L270,163.226Z" transform="translate(-210.774 -127.742)" fill="#f7fafd"/>
    <path id="Path_203943" data-name="Path 203943" d="M339.226,176.129H336V161.613A1.613,1.613,0,0,1,337.613,160h5.645a5.645,5.645,0,1,1,0,11.29h-4.032Zm0-8.065h4.032a2.419,2.419,0,1,0,0-4.839h-4.032Z" transform="translate(-268.258 -127.742)" fill="#f7fafd"/>
    <rect id="Rectangle_45186" data-name="Rectangle 45186" width="3.226" height="16.129" transform="translate(82.258 32.258)" fill="#f7fafd"/>
    <path id="Path_203944" data-name="Path 203944" d="M78.71,126.581v-6.452H75.161a16.039,16.039,0,0,0-2.353-5.665l2.515-2.515-4.563-4.563L68.245,109.9a16.036,16.036,0,0,0-5.665-2.355V104H56.129v3.548a16.039,16.039,0,0,0-5.665,2.353l-2.515-2.515-4.563,4.563,2.516,2.515a16.035,16.035,0,0,0-2.355,5.665H40v6.452h3.548a16.037,16.037,0,0,0,2.355,5.665l-2.516,2.515,4.563,4.563,2.515-2.515a16.038,16.038,0,0,0,5.665,2.353v3.548h6.452v-3.548a16.038,16.038,0,0,0,5.665-2.353l2.515,2.515,4.563-4.563-2.516-2.515a16.037,16.037,0,0,0,2.355-5.665Z" transform="translate(-31.935 -83.032)" fill="#cba124"/>
    <path id="Path_203945" data-name="Path 203945" d="M97.677,152A9.677,9.677,0,1,1,88,161.677,9.677,9.677,0,0,1,97.677,152" transform="translate(-70.258 -121.355)" fill="#f2f2f2"/>
    <path id="Path_203946" data-name="Path 203946" d="M62.581,107.548V104H56.129v3.548a16.039,16.039,0,0,0-5.665,2.353l-2.515-2.515-4.563,4.563,2.516,2.515a16.037,16.037,0,0,0-2.355,5.665H40v6.452h3.548a16.037,16.037,0,0,0,2.355,5.665l-2.452,2.45a21.411,21.411,0,0,0,25.171-25.161l-.377.377a16.034,16.034,0,0,0-5.665-2.363" transform="translate(-31.935 -83.032)" fill="#feca2e"/>
    <path id="Path_203947" data-name="Path 203947" d="M106.5,157.761a9.677,9.677,0,1,0-10.968,13.321A21.452,21.452,0,0,0,106.5,157.761Z" transform="translate(-70.221 -121.319)" fill="#f7fafd"/>
    <path id="Path_203948" data-name="Path 203948" d="M267.226,172.9h6.452v3.226H276.9v-4.577a3.228,3.228,0,0,0-.161-1.021l-2.774-8.326A3.226,3.226,0,0,0,270.9,160H270a3.226,3.226,0,0,0-3.065,2.2l-2.776,8.326a3.228,3.228,0,0,0-.161,1.021v4.577h3.226Zm3.676-9.677,2.152,6.452h-5.2L270,163.226Z" transform="translate(-210.774 -127.742)"/>
    <path id="Path_203949" data-name="Path 203949" d="M339.226,171.29h4.032a5.645,5.645,0,1,0,0-11.29h-5.645A1.613,1.613,0,0,0,336,161.613v14.516h3.226Zm0-8.065h4.032a2.419,2.419,0,1,1,0,4.839h-4.032Z" transform="translate(-268.258 -127.742)"/>
    <rect id="Rectangle_45187" data-name="Rectangle 45187" width="3.226" height="16.129" transform="translate(82.258 32.258)"/>
    <path id="Path_203950" data-name="Path 203950" d="M95.161,0H4.839A4.839,4.839,0,0,0,0,4.839V75.806a4.839,4.839,0,0,0,4.839,4.839H38.256l-2.419,9.677H27.8A4.813,4.813,0,0,0,23.473,93l-2.335,4.669A1.613,1.613,0,0,0,22.581,100H77.419a1.613,1.613,0,0,0,1.452-2.334L76.535,93A4.813,4.813,0,0,0,72.2,90.323H64.163l-2.419-9.677H95.161A4.839,4.839,0,0,0,100,75.806V4.839A4.839,4.839,0,0,0,95.161,0ZM4.839,3.226H95.161a1.613,1.613,0,0,1,1.613,1.613V12.9H3.226V4.839A1.613,1.613,0,0,1,4.839,3.226m91.935,61.29H3.226V16.129H96.774ZM73.642,94.44l1.168,2.334H25.19l1.168-2.334a1.6,1.6,0,0,1,1.442-.892H72.2a1.6,1.6,0,0,1,1.442.892m-12.8-4.118H39.163l2.419-9.677H58.418Zm34.324-12.9H4.839a1.613,1.613,0,0,1-1.613-1.613V67.742H96.774v8.065a1.613,1.613,0,0,1-1.613,1.613"/>
    <rect id="Rectangle_45188" data-name="Rectangle 45188" width="6.452" height="3.226" transform="translate(46.774 6.452)"/>
    <rect id="Rectangle_45189" data-name="Rectangle 45189" width="3.226" height="3.226" transform="translate(56.452 6.452)"/>
    <rect id="Rectangle_45190" data-name="Rectangle 45190" width="3.226" height="3.226" transform="translate(40.323 6.452)"/>
    <rect id="Rectangle_45191" data-name="Rectangle 45191" width="12.903" height="3.226" transform="translate(6.452 70.968)"/>
    <rect id="Rectangle_45192" data-name="Rectangle 45192" width="3.226" height="3.226" transform="translate(22.581 70.968)"/>
    <path id="Path_203951" data-name="Path 203951" d="M33.613,121.806H35.9a17.6,17.6,0,0,0,1.589,3.808l-1.613,1.613a1.613,1.613,0,0,0,0,2.281l4.561,4.561a1.613,1.613,0,0,0,2.281,0l1.613-1.613a17.6,17.6,0,0,0,3.8,1.584v2.282a1.613,1.613,0,0,0,1.613,1.613h6.452a1.613,1.613,0,0,0,1.613-1.613V134.04a17.6,17.6,0,0,0,3.808-1.582l1.613,1.613a1.613,1.613,0,0,0,2.281,0l.984-.974h50.992a1.613,1.613,0,0,0,1.613-1.613V104.065a1.613,1.613,0,0,0-1.613-1.613H68.1l-2.592-2.59a1.613,1.613,0,0,0-2.281,0l-1.613,1.613A17.556,17.556,0,0,0,57.806,99.9V97.613A1.613,1.613,0,0,0,56.194,96H49.742a1.613,1.613,0,0,0-1.613,1.613V99.9a17.558,17.558,0,0,0-3.808,1.582l-1.613-1.613a1.613,1.613,0,0,0-2.281,0l-4.566,4.558a1.613,1.613,0,0,0,0,2.281l1.613,1.613a17.6,17.6,0,0,0-1.579,3.813H33.613A1.613,1.613,0,0,0,32,113.742v6.452a1.613,1.613,0,0,0,1.613,1.613m82.258,8.065H69.718l.356-.358a1.613,1.613,0,0,0,0-2.281l-1.613-1.613a17.6,17.6,0,0,0,1.579-3.813h2.282a1.613,1.613,0,0,0,1.613-1.613v-6.452a1.613,1.613,0,0,0-1.613-1.613H70.04a17.6,17.6,0,0,0-1.582-3.808l1.613-1.613a1.594,1.594,0,0,0,.452-1.026h45.348ZM35.226,115.355h1.935a1.613,1.613,0,0,0,1.581-1.29,14.356,14.356,0,0,1,2.116-5.094,1.613,1.613,0,0,0-.2-2.032l-1.374-1.374,2.281-2.281,1.374,1.373a1.613,1.613,0,0,0,2.031.2,14.355,14.355,0,0,1,5.1-2.116,1.613,1.613,0,0,0,1.29-1.584V99.226h3.226v1.935a1.613,1.613,0,0,0,1.29,1.582,14.354,14.354,0,0,1,5.1,2.115,1.613,1.613,0,0,0,2.031-.2l1.374-1.373,2.281,2.281-1.374,1.374a1.613,1.613,0,0,0-.2,2.032,14.353,14.353,0,0,1,2.118,5.1,1.613,1.613,0,0,0,1.581,1.29H70.71v3.226H68.774a1.613,1.613,0,0,0-1.581,1.29,14.355,14.355,0,0,1-2.116,5.094,1.613,1.613,0,0,0,.2,2.032l1.374,1.374-2.281,2.281L63,129.277a1.613,1.613,0,0,0-2.032-.2,14.3,14.3,0,0,1-5.1,2.118,1.613,1.613,0,0,0-1.29,1.582v1.937H51.355v-1.935a1.613,1.613,0,0,0-1.29-1.582,14.292,14.292,0,0,1-5.094-2.116,1.613,1.613,0,0,0-2.032.2l-1.374,1.374-2.282-2.282L40.656,127a1.613,1.613,0,0,0,.2-2.032,14.356,14.356,0,0,1-2.116-5.1,1.613,1.613,0,0,0-1.582-1.29H35.226Z" transform="translate(-25.548 -76.645)"/>
    <path id="Path_203952" data-name="Path 203952" d="M91.29,166.581A11.29,11.29,0,1,0,80,155.29a11.29,11.29,0,0,0,11.29,11.29m0-19.355a8.065,8.065,0,1,1-8.065,8.065,8.065,8.065,0,0,1,8.065-8.065" transform="translate(-63.871 -114.968)"/>
  </g>
</svg>
