<svg xmlns="http://www.w3.org/2000/svg" width="140.75" height="131.953" viewBox="0 0 140.75 131.953">
  <g id="_20" data-name="20" transform="translate(0 -2)">
    <path id="Path_194456" data-name="Path 194456" d="M100.176,15.8v92.367a8.8,8.8,0,0,1-8.8,8.8H32v-8.8H82.582V95.035q3.266-.066,6.6-.066V7h2.2A8.8,8.8,0,0,1,100.176,15.8Z" transform="translate(38.375 5.996)" fill="#4dd0e1"/>
    <path id="Path_194457" data-name="Path 194457" d="M82.582,99.832c-19.353.462-36.749,3.255-50.582,13.129V16.2C47.395,5.2,67.188,3,89.18,3V99.766Q85.848,99.766,82.582,99.832Z" transform="translate(38.375 1.199)" fill="#e8e8e8"/>
    <path id="Path_194458" data-name="Path 194458" d="M82.582,47.03V60.159H32C45.833,50.285,63.229,47.492,82.582,47.03Z" transform="translate(38.375 54.001)" fill="#609ea6"/>
    <path id="Path_194459" data-name="Path 194459" d="M69.176,108.164v8.8H9.8a8.8,8.8,0,0,1-8.8-8.8V15.8A8.8,8.8,0,0,1,9.8,7H12V94.969q3.332,0,6.6.066v13.129Z" transform="translate(1.199 5.996)" fill="#5ce0bf"/>
    <path id="Path_194460" data-name="Path 194460" d="M12.6,99.832q-3.266-.066-6.6-.066V3C27.992,3,47.785,5.2,63.18,16.2v96.766C49.347,103.086,31.951,100.293,12.6,99.832Z" transform="translate(7.195 1.199)" fill="#fff"/>
    <path id="Path_194461" data-name="Path 194461" d="M59.582,60.159H9V47.03C28.353,47.492,45.749,50.285,59.582,60.159Z" transform="translate(10.793 54.001)" fill="#609ea6"/>
    <path id="Path_194462" data-name="Path 194462" d="M91.781,58.992v8.8h-7.1A19.274,19.274,0,0,1,82.127,73.9l5.036,5.036-6.224,6.224L75.9,80.127a19.274,19.274,0,0,1-6.114,2.551v7.1h-8.8v-7.1a19.274,19.274,0,0,1-6.114-2.551l-5.036,5.036-6.224-6.224L48.655,73.9A19.274,19.274,0,0,1,46.1,67.789H39v-8.8h7.1a19.274,19.274,0,0,1,2.551-6.114l-5.036-5.036,6.224-6.224,5.036,5.036A19.274,19.274,0,0,1,60.992,44.1V37h8.8v7.1A19.274,19.274,0,0,1,75.9,46.655l5.036-5.036,6.224,6.224-5.036,5.036a19.274,19.274,0,0,1,2.551,6.114Zm-15.395,4.4a11,11,0,1,0-11,11A11,11,0,0,0,76.387,63.391Z" transform="translate(46.77 41.973)" fill="#feca2e"/>
    <path id="Path_194463" data-name="Path 194463" d="M10.956,41.4c14.97.66,25.584,2.639,34.418,6.422l1.733-4.042c-9.344-4-20.44-6.092-35.957-6.778Z" transform="translate(13.139 41.973)"/>
    <path id="Path_194464" data-name="Path 194464" d="M10.956,36.4c14.97.66,25.584,2.639,34.418,6.422l1.733-4.042c-9.344-4-20.44-6.092-35.957-6.778Z" transform="translate(13.139 35.977)"/>
    <path id="Path_194465" data-name="Path 194465" d="M10.956,31.4c14.97.66,25.584,2.639,34.418,6.422l1.733-4.042c-9.344-4-20.44-6.092-35.957-6.778Z" transform="translate(13.139 29.98)"/>
    <path id="Path_194466" data-name="Path 194466" d="M10.956,26.4c14.97.66,25.584,2.639,34.418,6.422l1.733-4.042c-9.344-4-20.44-6.092-35.957-6.778Z" transform="translate(13.139 23.984)"/>
    <path id="Path_194467" data-name="Path 194467" d="M10.956,21.4c14.97.66,25.584,2.639,34.418,6.422l1.733-4.042c-9.344-4-20.44-6.092-35.957-6.778Z" transform="translate(13.139 17.988)"/>
    <path id="Path_194468" data-name="Path 194468" d="M47.107,18.776c-9.344-4-20.44-6.09-35.957-6.776l-.194,4.4c14.97.66,25.584,2.639,34.418,6.422Z" transform="translate(13.139 11.992)"/>
    <path id="Path_194469" data-name="Path 194469" d="M38.339,42.818c8.834-3.78,19.448-5.76,34.418-6.42L72.563,32c-15.524.684-26.611,2.775-35.957,6.774Z" transform="translate(43.899 35.977)"/>
    <path id="Path_194470" data-name="Path 194470" d="M38.339,37.818c8.834-3.78,19.448-5.76,34.418-6.42L72.563,27c-15.524.684-26.611,2.775-35.957,6.774Z" transform="translate(43.899 29.98)"/>
    <path id="Path_194471" data-name="Path 194471" d="M38.339,32.818c8.834-3.78,19.448-5.76,34.418-6.42L72.563,22c-15.524.684-26.611,2.775-35.957,6.774Z" transform="translate(43.899 23.984)"/>
    <path id="Path_194472" data-name="Path 194472" d="M38.339,27.818c8.834-3.78,19.448-5.76,34.418-6.42L72.563,17c-15.524.684-26.611,2.775-35.957,6.774Z" transform="translate(43.899 17.988)"/>
    <path id="Path_194473" data-name="Path 194473" d="M72.563,12c-15.524.684-26.611,2.775-35.957,6.774l1.733,4.042c8.834-3.778,19.448-5.758,34.418-6.417Z" transform="translate(43.899 11.992)"/>
    <path id="Path_194474" data-name="Path 194474" d="M129.754,10.8V4.2a2.2,2.2,0,0,0-2.2-2.2C107.6,2,86.911,3.566,70.375,14.718,53.839,3.566,33.147,2,13.2,2A2.2,2.2,0,0,0,11,4.2v6.6a11.009,11.009,0,0,0-11,11V114.16a11.009,11.009,0,0,0,11,11H83.57v-4.4h-11V115.33a56.794,56.794,0,0,1,9.663-5.294L80.5,105.994a61.579,61.579,0,0,0-7.93,4.159V18.569C87.588,8.314,106.686,6.524,125.355,6.4V76.773h4.4V15.2a6.6,6.6,0,0,1,6.6,6.6V83.371h4.4V21.793a11.009,11.009,0,0,0-11-11ZM21.992,103.3c14.244.457,28.429,2.34,40.565,8.661H21.992Zm-6.6-96.9c18.669.119,37.767,1.909,52.781,12.164V110.1c-15.533-9.5-34.389-11.207-52.781-11.33ZM11,120.758a6.6,6.6,0,0,1-6.6-6.6V21.793A6.6,6.6,0,0,1,11,15.2v85.77a2.2,2.2,0,0,0,2.2,2.2q2.2,0,4.4.033V114.16a2.2,2.2,0,0,0,2.2,2.2H68.176v4.4Z"/>
    <path id="Path_194475" data-name="Path 194475" d="M92.98,57.992H87.557a21.522,21.522,0,0,0-1.48-3.561l3.838-3.838a2.2,2.2,0,0,0,0-3.11L83.7,41.265a2.2,2.2,0,0,0-3.11,0L76.748,45.1a21.68,21.68,0,0,0-3.561-1.48V38.2a2.2,2.2,0,0,0-2.2-2.2h-8.8a2.2,2.2,0,0,0-2.2,2.2v5.423a21.68,21.68,0,0,0-3.561,1.48l-3.838-3.838a2.2,2.2,0,0,0-3.11,0l-6.219,6.219a2.2,2.2,0,0,0,0,3.11L47.1,54.432a21.522,21.522,0,0,0-1.48,3.561H40.2a2.2,2.2,0,0,0-2.2,2.2v8.8a2.2,2.2,0,0,0,2.2,2.2h5.423a21.522,21.522,0,0,0,1.48,3.561l-3.838,3.838a2.2,2.2,0,0,0,0,3.11l6.219,6.219a2.2,2.2,0,0,0,3.11,0l3.838-3.838a21.522,21.522,0,0,0,3.561,1.48V90.98a2.2,2.2,0,0,0,2.2,2.2h8.8a2.2,2.2,0,0,0,2.2-2.2V85.557a21.522,21.522,0,0,0,3.561-1.48l3.838,3.838a2.2,2.2,0,0,0,3.11,0L89.915,81.7a2.2,2.2,0,0,0,0-3.11l-3.838-3.838a21.521,21.521,0,0,0,1.48-3.561H92.98a2.2,2.2,0,0,0,2.2-2.2v-8.8A2.2,2.2,0,0,0,92.98,57.992Zm-2.2,8.8h-4.9A2.2,2.2,0,0,0,83.733,68.5a17.515,17.515,0,0,1-2.259,5.441,2.2,2.2,0,0,0,.3,2.727l3.473,3.473-3.11,3.11-3.473-3.473a2.2,2.2,0,0,0-2.727-.3,17.515,17.515,0,0,1-5.441,2.27,2.2,2.2,0,0,0-1.711,2.133v4.9h-4.4v-4.9a2.2,2.2,0,0,0-1.711-2.144,17.515,17.515,0,0,1-5.441-2.259,2.2,2.2,0,0,0-2.727.3L51.039,83.25l-3.11-3.11L51.4,76.668a2.2,2.2,0,0,0,.3-2.727A17.515,17.515,0,0,1,49.447,68.5,2.2,2.2,0,0,0,47.3,66.789H42.4v-4.4h4.9a2.2,2.2,0,0,0,2.144-1.711,17.515,17.515,0,0,1,2.259-5.441,2.2,2.2,0,0,0-.3-2.727l-3.473-3.473,3.11-3.11L54.512,49.4a2.2,2.2,0,0,0,2.725.306,17.568,17.568,0,0,1,5.443-2.261A2.2,2.2,0,0,0,64.391,45.3V40.4h4.4v4.9A2.2,2.2,0,0,0,70.5,47.447a17.568,17.568,0,0,1,5.443,2.261,2.2,2.2,0,0,0,2.725-.306l3.473-3.473,3.11,3.11-3.473,3.473a2.2,2.2,0,0,0-.3,2.727,17.515,17.515,0,0,1,2.27,5.441,2.2,2.2,0,0,0,2.133,1.711h4.9Z" transform="translate(45.57 40.773)"/>
    <path id="Path_194476" data-name="Path 194476" d="M58.2,43a13.2,13.2,0,1,0,13.2,13.2A13.2,13.2,0,0,0,58.2,43Zm0,21.992a8.8,8.8,0,1,1,8.8-8.8A8.8,8.8,0,0,1,58.2,64.992Z" transform="translate(53.965 49.168)"/>
  </g>
</svg>
