<svg xmlns="http://www.w3.org/2000/svg" xmlns:xlink="http://www.w3.org/1999/xlink" width="190" height="115" viewBox="0 0 190 115">
  <defs>
    <clipPath id="clip-path">
      <rect id="Rectangle_44961" data-name="Rectangle 44961" width="103.392" height="100" fill="#0f2771"/>
    </clipPath>
  </defs>
  <g id="_21" data-name="21" transform="translate(-180 -8077)">
    <rect id="Rectangle_43992" data-name="Rectangle 43992" width="190" height="115" transform="translate(180 8077)" fill="none"/>
    <g id="Group_146381" data-name="Group 146381" transform="translate(0 7683)">
      <rect id="Rectangle_41430" data-name="Rectangle 41430" width="85" height="28" rx="14" transform="translate(285 407)" fill="#feca2e" opacity="0.2"/>
      <rect id="Rectangle_41431" data-name="Rectangle 41431" width="85" height="28" rx="14" transform="translate(180 468)" fill="#4dd0e1" opacity="0.2"/>
    </g>
    <g id="Group_146911" data-name="Group 146911" transform="translate(225 8085)">
      <g id="Group_146912" data-name="Group 146912" clip-path="url(#clip-path)">
        <path id="Path_203769" data-name="Path 203769" d="M75.167,73.895H28.225a2.045,2.045,0,0,1-2-2.12V28.225a2.045,2.045,0,0,1,2-2.12H75.167a2.057,2.057,0,0,1,2.059,2.12v43.55a2.1,2.1,0,0,1-2.059,2.12M29.134,70.927H74.319V29.013H29.134Z" fill="#0f2771" fill-rule="evenodd"/>
        <path id="Path_203770" data-name="Path 203770" d="M35.373,29.013A1.5,1.5,0,0,1,33.858,27.5V10.9a1.45,1.45,0,0,1,1.515-1.454A1.487,1.487,0,0,1,36.887,10.9V27.62a1.4,1.4,0,0,1-1.514,1.393" fill="#0f2771" fill-rule="evenodd"/>
        <path id="Path_203771" data-name="Path 203771" d="M35.373,12.416A6.208,6.208,0,1,1,35.373,0,6.126,6.126,0,0,1,41.55,6.178a6.178,6.178,0,0,1-6.177,6.238m0-9.509A3.3,3.3,0,0,0,32.1,6.178a3.271,3.271,0,1,0,6.542,0,3.337,3.337,0,0,0-3.271-3.271" fill="#0f2771" fill-rule="evenodd"/>
        <path id="Path_203772" data-name="Path 203772" d="M51.726,29.013A1.5,1.5,0,0,1,50.212,27.5V10.9a1.45,1.45,0,0,1,1.514-1.454A1.487,1.487,0,0,1,53.24,10.9V27.62a1.473,1.473,0,0,1-1.514,1.393" fill="#0f2771" fill-rule="evenodd"/>
        <path id="Path_203773" data-name="Path 203773" d="M51.726,12.416A6.208,6.208,0,1,1,51.726,0a6.077,6.077,0,0,1,6.118,6.178,6.205,6.205,0,0,1-6.118,6.238m0-9.509a3.271,3.271,0,0,0,0,6.542A3.257,3.257,0,0,0,55,6.178a3.379,3.379,0,0,0-3.271-3.271" fill="#0f2771" fill-rule="evenodd"/>
        <path id="Path_203774" data-name="Path 203774" d="M67.959,29.013A1.5,1.5,0,0,1,66.445,27.5V10.9a1.45,1.45,0,0,1,1.514-1.454A1.528,1.528,0,0,1,69.473,10.9V27.62a1.436,1.436,0,0,1-1.514,1.393" fill="#0f2771" fill-rule="evenodd"/>
        <path id="Path_203775" data-name="Path 203775" d="M67.959,12.416A6.208,6.208,0,1,1,67.959,0a6.208,6.208,0,0,1,0,12.416m0-9.509a3.271,3.271,0,0,0,0,6.542A3.22,3.22,0,0,0,71.23,6.178a3.337,3.337,0,0,0-3.271-3.271" fill="#0f2771" fill-rule="evenodd"/>
        <path id="Path_203776" data-name="Path 203776" d="M35.373,90.612A1.5,1.5,0,0,1,33.858,89.1V72.381a1.5,1.5,0,0,1,1.515-1.515,1.539,1.539,0,0,1,1.514,1.515V89.1a1.5,1.5,0,0,1-1.514,1.514" fill="#0f2771" fill-rule="evenodd"/>
        <path id="Path_203777" data-name="Path 203777" d="M35.373,100a6.208,6.208,0,1,1,0-12.416,6.208,6.208,0,0,1,0,12.416m0-9.388A3.257,3.257,0,0,0,32.1,93.883a3.218,3.218,0,0,0,3.271,3.27,3.3,3.3,0,0,0,3.271-3.27,3.257,3.257,0,0,0-3.271-3.271" fill="#0f2771" fill-rule="evenodd"/>
        <path id="Path_203778" data-name="Path 203778" d="M51.726,90.612A1.5,1.5,0,0,1,50.212,89.1V72.381a1.514,1.514,0,1,1,3.028,0V89.1a1.58,1.58,0,0,1-1.514,1.514" fill="#0f2771" fill-rule="evenodd"/>
        <path id="Path_203779" data-name="Path 203779" d="M51.726,100a6.208,6.208,0,1,1,6.239-6.238A6.39,6.39,0,0,1,51.726,100m0-9.388a3.271,3.271,0,1,0,0,6.541A3.3,3.3,0,0,0,55,93.883a3.257,3.257,0,0,0-3.271-3.271" fill="#0f2771" fill-rule="evenodd"/>
        <path id="Path_203780" data-name="Path 203780" d="M67.959,90.612A1.5,1.5,0,0,1,66.445,89.1V72.381a1.5,1.5,0,0,1,1.514-1.515,1.539,1.539,0,0,1,1.514,1.515V89.1a1.538,1.538,0,0,1-1.514,1.514" fill="#0f2771" fill-rule="evenodd"/>
        <path id="Path_203781" data-name="Path 203781" d="M67.959,100a6.208,6.208,0,1,1,6.178-6.238A6.23,6.23,0,0,1,67.959,100m0-9.388a3.271,3.271,0,1,0,0,6.541,3.271,3.271,0,1,0,0-6.541" fill="#0f2771" fill-rule="evenodd"/>
        <path id="Path_203782" data-name="Path 203782" d="M92.368,35.191h-16.6a1.514,1.514,0,0,1,0-3.028h16.6a1.514,1.514,0,1,1,0,3.028" fill="#0f2771" fill-rule="evenodd"/>
        <path id="Path_203783" data-name="Path 203783" d="M97.153,39.854a6.208,6.208,0,1,1,6.239-6.178,6.179,6.179,0,0,1-6.239,6.178m0-9.388a3.258,3.258,0,0,0-3.271,3.271,3.336,3.336,0,0,0,3.271,3.27,3.256,3.256,0,0,0,3.271-3.27,3.3,3.3,0,0,0-3.271-3.271" fill="#0f2771" fill-rule="evenodd"/>
        <path id="Path_203784" data-name="Path 203784" d="M92.368,51.484h-16.6a1.514,1.514,0,1,1,0-3.028h16.6a1.514,1.514,0,1,1,0,3.028" fill="#0f2771" fill-rule="evenodd"/>
        <path id="Path_203785" data-name="Path 203785" d="M97.153,56.147a6.208,6.208,0,1,1,6.239-6.177,6.217,6.217,0,0,1-6.239,6.177m0-9.388a3.258,3.258,0,0,0-3.271,3.271,3.336,3.336,0,0,0,3.271,3.27,3.256,3.256,0,0,0,3.271-3.27,3.3,3.3,0,0,0-3.271-3.271" fill="#0f2771" fill-rule="evenodd"/>
        <path id="Path_203786" data-name="Path 203786" d="M92.368,67.777h-16.6a1.538,1.538,0,0,1-1.514-1.514,1.5,1.5,0,0,1,1.514-1.514h16.6a1.5,1.5,0,0,1,1.514,1.514,1.538,1.538,0,0,1-1.514,1.514" fill="#0f2771" fill-rule="evenodd"/>
        <path id="Path_203787" data-name="Path 203787" d="M97.153,72.441a6.208,6.208,0,1,1,6.239-6.178,6.218,6.218,0,0,1-6.239,6.178m0-9.388a3.22,3.22,0,0,0-3.271,3.271,3.271,3.271,0,0,0,6.542,0,3.257,3.257,0,0,0-3.271-3.271" fill="#0f2771" fill-rule="evenodd"/>
        <path id="Path_203788" data-name="Path 203788" d="M27.62,35.191H10.9a1.514,1.514,0,0,1,0-3.028H27.62a1.514,1.514,0,0,1,0,3.028" fill="#0f2771" fill-rule="evenodd"/>
        <path id="Path_203789" data-name="Path 203789" d="M6.239,39.854a6.208,6.208,0,1,1,6.178-6.178,6.165,6.165,0,0,1-6.178,6.178m0-9.388a3.271,3.271,0,1,0,0,6.541,3.22,3.22,0,0,0,3.271-3.27,3.258,3.258,0,0,0-3.271-3.271" fill="#0f2771" fill-rule="evenodd"/>
        <path id="Path_203790" data-name="Path 203790" d="M27.62,51.484H10.9a1.514,1.514,0,0,1,0-3.028H27.62a1.514,1.514,0,1,1,0,3.028" fill="#0f2771" fill-rule="evenodd"/>
        <path id="Path_203791" data-name="Path 203791" d="M6.239,56.147a6.177,6.177,0,1,1,6.178-6.117,6.113,6.113,0,0,1-6.178,6.117m0-9.388a3.271,3.271,0,1,0,0,6.541A3.219,3.219,0,0,0,9.51,50.03a3.258,3.258,0,0,0-3.271-3.271" fill="#0f2771" fill-rule="evenodd"/>
        <path id="Path_203792" data-name="Path 203792" d="M27.62,67.777H10.9a1.484,1.484,0,1,1,0-2.968H27.62a1.5,1.5,0,0,1,1.514,1.514,1.45,1.45,0,0,1-1.514,1.454" fill="#0f2771" fill-rule="evenodd"/>
        <path id="Path_203793" data-name="Path 203793" d="M6.239,72.441a6.208,6.208,0,1,1,6.178-6.178,6.218,6.218,0,0,1-6.178,6.178m0-9.388a3.271,3.271,0,1,0,0,6.541,3.257,3.257,0,0,0,3.271-3.27,3.22,3.22,0,0,0-3.271-3.271" fill="#0f2771" fill-rule="evenodd"/>
        <path id="Path_203794" data-name="Path 203794" d="M53.6,65.9H49.788a1.993,1.993,0,0,1-1.938-1.938V61.3c-.484-.182-.969-.424-1.514-.666L44.4,62.568a1.9,1.9,0,0,1-2.665,0l-2.665-2.726a1.8,1.8,0,0,1,0-2.665l1.938-1.938c-.3-.484-.424-.908-.727-1.514h-2.6A1.983,1.983,0,0,1,35.8,51.787V48.031a1.9,1.9,0,0,1,1.877-1.938H40.4a11.544,11.544,0,0,1,.666-1.514L39.128,42.7a1.9,1.9,0,0,1,0-2.665l2.665-2.665a1.869,1.869,0,0,1,2.726,0l1.938,1.817a8.762,8.762,0,0,1,1.514-.6V35.917a1.952,1.952,0,0,1,1.938-1.938h3.756A1.913,1.913,0,0,1,55.6,35.917v2.666c.485.181.969.424,1.514.6l1.938-1.938a1.9,1.9,0,0,1,2.665,0l2.666,2.726a1.8,1.8,0,0,1,0,2.665l-2.06,2a9.268,9.268,0,0,1,.545,1.515H65.6a1.913,1.913,0,0,1,1.938,1.938v3.816A1.94,1.94,0,0,1,65.6,53.785H62.871c-.121.546-.424,1.03-.545,1.515l1.938,1.938a1.976,1.976,0,0,1,0,2.726l-2.725,2.665a1.9,1.9,0,0,1-2.665,0L57,60.63c-.484.242-.969.424-1.514.666v2.665A2.029,2.029,0,0,1,53.6,65.9m-2.786-2.907h1.7V60.206a1.425,1.425,0,0,1,1.09-1.454A12.147,12.147,0,0,0,56.451,57.6a1.467,1.467,0,0,1,1.817.182l1.938,1.878,1.151-1.151-1.878-2a1.4,1.4,0,0,1-.181-1.878,9.474,9.474,0,0,0,1.151-2.725,1.424,1.424,0,0,1,1.453-1.09h2.665v-1.7H61.781a1.421,1.421,0,0,1-1.393-1.091,8.086,8.086,0,0,0-1.211-2.846,1.371,1.371,0,0,1,.3-1.757l1.878-1.938-1.151-1.212-1.938,1.939a1.385,1.385,0,0,1-1.756.242,10,10,0,0,0-2.847-1.151,1.489,1.489,0,0,1-1.09-1.453V37.129h-1.7v2.726a1.49,1.49,0,0,1-1.091,1.453A8.956,8.956,0,0,0,47,42.459a1.557,1.557,0,0,1-1.817-.182l-2-1.877-1.272,1.09,1.939,1.878a1.466,1.466,0,0,1,.121,1.877,9.32,9.32,0,0,0-1.151,2.847,1.422,1.422,0,0,1-1.393,1.09H38.644v1.7h2.725a1.441,1.441,0,0,1,1.454,1.09,12.044,12.044,0,0,0,1.151,2.787,1.385,1.385,0,0,1-.121,1.817L41.914,58.51l1.151,1.151,2-2a1.474,1.474,0,0,1,1.878-.182,8.546,8.546,0,0,0,2.786,1.212,1.42,1.42,0,0,1,1.09,1.393Z" fill="#0f2771" fill-rule="evenodd"/>
        <path id="Path_203795" data-name="Path 203795" d="M51.726,57.056a7.117,7.117,0,1,1,7.147-7.086,7.108,7.108,0,0,1-7.147,7.086m0-11.326a4.21,4.21,0,0,0,0,8.419,4.21,4.21,0,0,0,0-8.419" fill="#0f2771" fill-rule="evenodd"/>
      </g>
    </g>
  </g>
</svg>
