<svg xmlns="http://www.w3.org/2000/svg" xmlns:xlink="http://www.w3.org/1999/xlink" width="615.512" height="425.504" viewBox="0 0 615.512 425.504">
  <defs>
    <filter id="Rectangle_45002" x="146.348" y="0" width="135.512" height="133.504" filterUnits="userSpaceOnUse">
      <feOffset dy="2" input="SourceAlpha"/>
      <feGaussianBlur stdDeviation="1" result="blur"/>
      <feFlood flood-opacity="0.161"/>
      <feComposite operator="in" in2="blur"/>
      <feComposite in="SourceGraphic"/>
    </filter>
    <clipPath id="clip-path">
      <rect id="Rectangle_44985" data-name="Rectangle 44985" width="90.658" height="48.892" fill="none"/>
    </clipPath>
    <clipPath id="clip-path-2">
      <rect id="Rectangle_44984" data-name="Rectangle 44984" width="16.766" height="10.107" fill="none"/>
    </clipPath>
    <filter id="Rectangle_45003" x="334.14" y="0" width="135.512" height="133.504" filterUnits="userSpaceOnUse">
      <feOffset dy="2" input="SourceAlpha"/>
      <feGaussianBlur stdDeviation="1" result="blur-2"/>
      <feFlood flood-opacity="0.161"/>
      <feComposite operator="in" in2="blur-2"/>
      <feComposite in="SourceGraphic"/>
    </filter>
    <clipPath id="clip-path-3">
      <rect id="Rectangle_44998" data-name="Rectangle 44998" width="90.66" height="80.838" fill="none"/>
    </clipPath>
    <clipPath id="clip-path-4">
      <path id="Path_203907" data-name="Path 203907" d="M428.786,5.115a1.93,1.93,0,1,1,1.929,1.954,1.949,1.949,0,0,1-1.929-1.954M436.409,0h-.133a29.325,29.325,0,0,0-4.914.42c-4.351.769-5.141,2.378-5.141,5.345V9.681H436.5v1.306H422.363a6.42,6.42,0,0,0-6.424,5.213,19.22,19.22,0,0,0,0,10.451c.731,3.044,2.477,5.213,5.465,5.213h3.536v-4.7a6.534,6.534,0,0,1,6.424-6.388h10.271a5.181,5.181,0,0,0,5.141-5.225V5.762c0-2.786-2.351-4.88-5.141-5.345A32.036,32.036,0,0,0,436.456,0Z" transform="translate(-415.215 0.003)" fill="none"/>
    </clipPath>
    <linearGradient id="linear-gradient" x1="-0.129" y1="1.52" x2="-0.128" y2="1.52" gradientUnits="objectBoundingBox">
      <stop offset="0" stop-color="#5a9fd4"/>
      <stop offset="1" stop-color="#306998"/>
    </linearGradient>
    <clipPath id="clip-path-5">
      <path id="Path_203909" data-name="Path 203909" d="M619.654,216.768a1.93,1.93,0,1,1,1.929,1.965,1.943,1.943,0,0,1-1.929-1.965m7.706-26.75v4.566a6.6,6.6,0,0,1-6.424,6.52H610.665a5.245,5.245,0,0,0-5.141,5.225v9.791c0,2.787,2.423,4.426,5.141,5.225a17.2,17.2,0,0,0,10.271,0c2.589-.749,5.141-2.258,5.141-5.225V212.2H615.807V210.9h15.412c2.989,0,4.1-2.085,5.141-5.213,1.074-3.221,1.028-6.319,0-10.451-.739-2.975-2.149-5.213-5.141-5.213Z" transform="translate(-605.524 -190.018)" fill="none"/>
    </clipPath>
    <linearGradient id="linear-gradient-2" x1="-0.319" y1="1.353" x2="-0.318" y2="1.353" gradientUnits="objectBoundingBox">
      <stop offset="0" stop-color="#ffd43b"/>
      <stop offset="1" stop-color="#ffe873"/>
    </linearGradient>
    <filter id="Rectangle_45004" x="0" y="145.991" width="135.512" height="133.504" filterUnits="userSpaceOnUse">
      <feOffset dy="2" input="SourceAlpha"/>
      <feGaussianBlur stdDeviation="1" result="blur-3"/>
      <feFlood flood-opacity="0.161"/>
      <feComposite operator="in" in2="blur-3"/>
      <feComposite in="SourceGraphic"/>
    </filter>
    <clipPath id="clip-path-6">
      <rect id="Rectangle_44987" data-name="Rectangle 44987" width="90.658" height="73.228" fill="none"/>
    </clipPath>
    <filter id="Rectangle_45005" x="90.658" y="291.982" width="135.512" height="133.504" filterUnits="userSpaceOnUse">
      <feOffset dy="2" input="SourceAlpha"/>
      <feGaussianBlur stdDeviation="1" result="blur-4"/>
      <feFlood flood-opacity="0.161"/>
      <feComposite operator="in" in2="blur-4"/>
      <feComposite in="SourceGraphic"/>
    </filter>
    <clipPath id="clip-path-7">
      <rect id="Rectangle_44990" data-name="Rectangle 44990" width="90.658" height="72.186" fill="none"/>
    </clipPath>
    <filter id="Rectangle_45006" x="239.597" y="291.982" width="135.512" height="133.504" filterUnits="userSpaceOnUse">
      <feOffset dy="2" input="SourceAlpha"/>
      <feGaussianBlur stdDeviation="1" result="blur-5"/>
      <feFlood flood-opacity="0.161"/>
      <feComposite operator="in" in2="blur-5"/>
      <feComposite in="SourceGraphic"/>
    </filter>
    <filter id="Rectangle_45007" x="389" y="292" width="135.512" height="133.504" filterUnits="userSpaceOnUse">
      <feOffset dy="2" input="SourceAlpha"/>
      <feGaussianBlur stdDeviation="1" result="blur-6"/>
      <feFlood flood-opacity="0.161"/>
      <feComposite operator="in" in2="blur-6"/>
      <feComposite in="SourceGraphic"/>
    </filter>
    <clipPath id="clip-path-8">
      <rect id="Rectangle_44997" data-name="Rectangle 44997" width="90.66" height="47.111" fill="none"/>
    </clipPath>
    <clipPath id="clip-path-9">
      <rect id="Rectangle_45001" data-name="Rectangle 45001" width="90.66" height="78.702" transform="translate(0 0)" fill="none"/>
    </clipPath>
    <filter id="Rectangle_45008" x="480" y="146" width="135.512" height="133.504" filterUnits="userSpaceOnUse">
      <feOffset dy="2" input="SourceAlpha"/>
      <feGaussianBlur stdDeviation="1" result="blur-7"/>
      <feFlood flood-opacity="0.161"/>
      <feComposite operator="in" in2="blur-7"/>
      <feComposite in="SourceGraphic"/>
    </filter>
    <clipPath id="clip-path-10">
      <rect id="Rectangle_45000" data-name="Rectangle 45000" width="90.66" height="90.66" fill="none"/>
    </clipPath>
  </defs>
  <g id="_22" data-name="22" transform="translate(-492 -8481)">
    <path id="Path_203926" data-name="Path 203926" d="M-6803-2962.5l95.056,42.393" transform="translate(7508 11572)" fill="none" stroke="#0f2771" stroke-linecap="round" stroke-width="5"/>
    <path id="Path_203927" data-name="Path 203927" d="M-6718-2962.5l-93.843,44.507" transform="translate(7613 11572)" fill="none" stroke="#0f2771" stroke-linecap="round" stroke-width="5"/>
    <path id="Path_203928" data-name="Path 203928" d="M-6803-2927.4l139.586-43.2" transform="translate(7453.414 11705.945)" fill="none" stroke="#0f2771" stroke-linecap="round" stroke-width="5"/>
    <g transform="matrix(1, 0, 0, 1, 492, 8481)" filter="url(#Rectangle_45002)">
      <rect id="Rectangle_45002-2" data-name="Rectangle 45002" width="129.512" height="127.504" rx="10" transform="translate(149.35 1)" fill="#fff"/>
    </g>
    <g id="Group_146952" data-name="Group 146952" transform="translate(660.775 8520.854)">
      <g id="Group_146929" data-name="Group 146929" transform="translate(0 0)" clip-path="url(#clip-path)">
        <path id="Path_203869" data-name="Path 203869" d="M108.42,41.546c11.072-11.071,12.912-27.181,4.11-35.983S87.62-1.4,76.549,9.673,68.68,41.9,72.439,45.656C75.477,48.694,97.349,52.617,108.42,41.546Z" transform="translate(-38.883 0)" fill="#f89939"/>
        <path id="Path_203870" data-name="Path 203870" d="M24.107,51.349c-6.423-6.423-15.771-7.492-20.879-2.385S-.811,63.42,5.613,69.841s18.7,4.567,20.878,2.385c1.764-1.761,4.041-14.454-2.384-20.878" transform="translate(0 -25.8)" fill="#3499cd"/>
        <path id="Path_203871" data-name="Path 203871" d="M95.262,69.547a17.853,17.853,0,0,1-2.986,2.311,4.889,4.889,0,0,1-2.448.745,2.616,2.616,0,0,1-2.16-1.039,4.382,4.382,0,0,1-.82-2.793,21.907,21.907,0,0,1,1.14-6.31,40.045,40.045,0,0,1,2.767-6.787l3.18-1.178a.8.8,0,0,1,.226-.05c.241,0,.441.178.594.532a3.659,3.659,0,0,1,.232,1.434,11.064,11.064,0,0,1-1.177,4.946,22.353,22.353,0,0,1-3.681,5.108q-.1,1.3-.1,1.791a3.228,3.228,0,0,0,.4,1.728,1.211,1.211,0,0,0,1.064.638,2.7,2.7,0,0,0,1.441-.487,17.211,17.211,0,0,0,2.328-2.029v1.439Zm-4.8-4.895a15.273,15.273,0,0,0,2.58-3.963,9.5,9.5,0,0,0,.989-3.776,1.72,1.72,0,0,0-.137-.744c-.092-.188-.21-.282-.351-.282q-.461,0-1.346,2.307A43.189,43.189,0,0,0,90.467,64.652Z" transform="translate(-48.993 -30.714)" fill="#010101"/>
        <path id="Path_203872" data-name="Path 203872" d="M115.422,78.93a15.357,15.357,0,0,1-2.855,2.311,5.4,5.4,0,0,1-2.792.745,3.642,3.642,0,0,1-2.75-1.088,3.972,3.972,0,0,1-1.044-2.868,7.187,7.187,0,0,1,1.842-4.8A5.329,5.329,0,0,1,111.9,71.08a2.772,2.772,0,0,1,1.866.6,1.978,1.978,0,0,1,.7,1.578q0,2.592-5.509,4.207.5,2.44,2.617,2.441a3.055,3.055,0,0,0,1.577-.443,13.72,13.72,0,0,0,2.267-1.973Zm-6.561-2.316q3.2-.9,3.205-3.331,0-1.2-.876-1.2-.827,0-1.577,1.259A6.308,6.308,0,0,0,108.86,76.614Z" transform="translate(-59.786 -40.098)" fill="#010101"/>
        <path id="Path_203873" data-name="Path 203873" d="M140.819,78.866a26.614,26.614,0,0,1-2.867,2.481,3,3,0,0,1-1.653.575q-1.978,0-1.866-3.493a12.983,12.983,0,0,1-2.311,2.643,3.449,3.449,0,0,1-2.185.85,2.275,2.275,0,0,1-1.871-1.032,4.119,4.119,0,0,1-.769-2.536,6.805,6.805,0,0,1,1.031-3.581,8.508,8.508,0,0,1,2.648-2.754,5.439,5.439,0,0,1,2.855-1.052,2.215,2.215,0,0,1,2.192,1.44l2.559-1.414h.7l-1.105,3.668a15.921,15.921,0,0,0-.852,3.794q0,1.077.764,1.077a1.708,1.708,0,0,0,1.076-.52q.589-.52,1.652-1.584v1.439Zm-9.166.69q1.251,0,2.361-2.134a8.64,8.64,0,0,0,1.108-3.939,1.725,1.725,0,0,0-.313-1.095,1.017,1.017,0,0,0-.839-.394q-1.253,0-2.373,2.129a8.519,8.519,0,0,0-1.121,3.918,1.72,1.72,0,0,0,.332,1.1A1.029,1.029,0,0,0,131.653,79.555Z" transform="translate(-71.811 -40.034)" fill="#010101"/>
        <path id="Path_203874" data-name="Path 203874" d="M167.3,78.9q-3.144,3.08-4.846,3.081a1.607,1.607,0,0,1-1.29-.644,2.451,2.451,0,0,1-.526-1.6A9.782,9.782,0,0,1,162.531,75a6.972,6.972,0,0,1-2.029.663,14.385,14.385,0,0,1-2.554,3.229h-.287V77.772a16.451,16.451,0,0,0,1.765-2.179,1.525,1.525,0,0,1-1.077-1.414,4.033,4.033,0,0,1,.658-2.061,2.022,2.022,0,0,1,1.81-1.094.873.873,0,0,1,.976,1,6.879,6.879,0,0,1-.564,2.254q2.079-.226,3.632-3.181l1.139-.05-1.164,3.205q-.726,2.028-.939,2.761a4.743,4.743,0,0,0-.213,1.3,1.329,1.329,0,0,0,.244.839.787.787,0,0,0,.658.313,1.437,1.437,0,0,0,.864-.306q.413-.309,1.854-1.7V78.9Z" transform="translate(-88.94 -40.066)" fill="#010101"/>
        <path id="Path_203875" data-name="Path 203875" d="M191.913,78.866q-2.893,3.057-4.959,3.056a1.707,1.707,0,0,1-1.353-.589,2.309,2.309,0,0,1-.514-1.577,12.505,12.505,0,0,1,1.1-4.094,7.41,7.41,0,0,0,.589-1.879c0-.267-.105-.4-.313-.4a.985.985,0,0,0-.464.175,5.689,5.689,0,0,0-.614.489q-.312.288-.7.7-.339.354-.726.8l-.7.815a2.589,2.589,0,0,0-.575,1.189,18.932,18.932,0,0,0-.251,1.954q-.038.662-.037,1.791l-2.768.65q-.137-1.69-.138-2.516a15.1,15.1,0,0,1,.47-3.819,24.731,24.731,0,0,1,1.509-4.058l3.055-.588a29.2,29.2,0,0,0-1.264,4.081,24.1,24.1,0,0,1,3.259-3.174,3.789,3.789,0,0,1,2.144-.881,1.357,1.357,0,0,1,1.062.481,1.754,1.754,0,0,1,.425,1.206,12.814,12.814,0,0,1-1.076,3.957,9.275,9.275,0,0,0-.739,2.455q0,.754.615.754.915,0,2.964-2.417Z" transform="translate(-101.254 -40.034)" fill="#010101"/>
        <g id="Group_146928" data-name="Group 146928" transform="translate(50.126 20.31)" style="isolation: isolate">
          <g id="Group_146927" data-name="Group 146927">
            <g id="Group_146926" data-name="Group 146926" clip-path="url(#clip-path-2)">
              <text id="scikit" transform="translate(0 4.812)" fill="#fff" font-size="5" font-family="ArialMT, Arial"><tspan x="0" y="0">scikit</tspan></text>
            </g>
          </g>
        </g>
      </g>
    </g>
    <g transform="matrix(1, 0, 0, 1, 492, 8481)" filter="url(#Rectangle_45003)">
      <rect id="Rectangle_45003-2" data-name="Rectangle 45003" width="129.512" height="127.504" rx="10" transform="translate(337.14 1)" fill="#fff"/>
    </g>
    <g id="Group_146953" data-name="Group 146953" transform="translate(849 8505.003)">
      <g id="Group_146944" data-name="Group 146944" transform="translate(0 -0.003)">
        <g id="Group_146943" data-name="Group 146943" transform="translate(0 0)" clip-path="url(#clip-path-3)">
          <path id="Path_203905" data-name="Path 203905" d="M11,820.9q0-6.652-3.793-6.836a7.123,7.123,0,0,0-2.945.484,4.32,4.32,0,0,0-1.546.816V825.95a7.513,7.513,0,0,0,4.307,1.413Q11,827.1,11,820.9m3.12.184a9.406,9.406,0,0,1-1.591,5.61,5.866,5.866,0,0,1-4.924,2.6,8.737,8.737,0,0,1-4.889-1.484v9.62L0,836.461V815.107a6.071,6.071,0,0,1,1.713-1.413A11.754,11.754,0,0,1,7.6,812.245l.038.038a5.4,5.4,0,0,1,4.88,2.6A11.037,11.037,0,0,1,14.117,821.085ZM30.7,827.4q0,4.533-.908,6.278a6.4,6.4,0,0,1-3.476,2.784,13.315,13.315,0,0,1-4.494.893l-.449-1.71a21.565,21.565,0,0,0,3.455-.668,4.565,4.565,0,0,0,2.713-2.042,10.249,10.249,0,0,0,.594-4.271v-.706a13.935,13.935,0,0,1-5.832,1.262,5.361,5.361,0,0,1-3.53-1.262,4.292,4.292,0,0,1-1.71-3.491V813.175l2.713-.929v11.365a3.454,3.454,0,0,0,1.175,2.8,4.44,4.44,0,0,0,3.043.947,7.607,7.607,0,0,0,3.992-1.449V812.655H30.7V827.4Zm10.591,1.745q-.446.038-.894.038a5.338,5.338,0,0,1-3.586-1.1,3.793,3.793,0,0,1-1.279-3.036V814.362H33.672v-1.707H35.53v-4.533l2.71-.965v5.5h3.048v1.707H38.24v10.612a2.571,2.571,0,0,0,.819,2.161,4.145,4.145,0,0,0,2.229.6v1.413Zm16.427-.223H55V818.449a4.949,4.949,0,0,0-.745-2.748,2.711,2.711,0,0,0-2.39-1.3,8.806,8.806,0,0,0-4.666,1.968v12.553H44.489V803.89l2.713-.855v11.4a9.452,9.452,0,0,1,5.684-1.894,4.531,4.531,0,0,1,3.491,1.449,5.1,5.1,0,0,1,1.339,3.6v11.327h0Zm14.42-8.448a8.333,8.333,0,0,0-.968-4.224A4.051,4.051,0,0,0,67.6,814.1q-4.462.258-4.459,6.388a10.507,10.507,0,0,0,.932,4.693,3.747,3.747,0,0,0,3.58,2.363Q72.135,827.511,72.135,820.474Zm2.971.018a9.649,9.649,0,0,1-1.858,6.055,6.682,6.682,0,0,1-5.646,2.71,6.549,6.549,0,0,1-5.574-2.71,9.778,9.778,0,0,1-1.82-6.055,8.644,8.644,0,0,1,1.968-5.758,6.781,6.781,0,0,1,5.462-2.487,6.9,6.9,0,0,1,5.5,2.487A8.644,8.644,0,0,1,75.106,820.491Zm15.554,8.43H87.947V817.856a3.7,3.7,0,0,0-1.1-2.844,3.98,3.98,0,0,0-2.918-.983,6.52,6.52,0,0,0-3.678,1.262v13.63H77.543V814.955a13.368,13.368,0,0,1,4.31-2.226,13.153,13.153,0,0,1,3.271-.484,8.482,8.482,0,0,1,1.82.187,5.234,5.234,0,0,1,2.6,1.374,3.636,3.636,0,0,1,1.116,2.674Z" transform="translate(0 -756.59)" fill="#646464"/>
        </g>
      </g>
      <g id="Group_146946" data-name="Group 146946" transform="translate(24.015 -0.003)">
        <g id="Group_146945" data-name="Group 146945" transform="translate(0 0)" clip-path="url(#clip-path-4)">
          <path id="Path_203906" data-name="Path 203906" d="M170.048-274.685l33.889,29.442-29.139,34.2L140.91-240.485Z" transform="translate(-156.775 258.798)" fill="url(#linear-gradient)"/>
        </g>
      </g>
      <g id="Group_146948" data-name="Group 146948" transform="translate(35.021 10.987)">
        <g id="Group_146947" data-name="Group 146947" clip-path="url(#clip-path-5)">
          <path id="Path_203908" data-name="Path 203908" d="M369.355-9.738,343.575-46.57l36.43-26,25.78,36.832Z" transform="translate(-358.725 57.382)" fill="url(#linear-gradient-2)"/>
        </g>
      </g>
    </g>
    <path id="Path_203929" data-name="Path 203929" d="M-6663.414-2927.4-6803-2970.6" transform="translate(7613 11705.945)" fill="none" stroke="#0f2771" stroke-linecap="round" stroke-width="5"/>
    <path id="Path_203930" data-name="Path 203930" d="M-6708.5-2833.551v59.133" transform="translate(7508 11562.365)" fill="none" stroke="#0f2771" stroke-linecap="round" stroke-width="5"/>
    <path id="Path_203931" data-name="Path 203931" d="M-6708.5-2833.551v59.133" transform="translate(3768.078 1981.449) rotate(-90)" fill="none" stroke="#0f2771" stroke-linecap="round" stroke-width="5"/>
    <path id="Path_203932" data-name="Path 203932" d="M-6708.5-2833.551v59.133" transform="translate(3445.333 1981.449) rotate(-90)" fill="none" stroke="#0f2771" stroke-linecap="round" stroke-width="5"/>
    <g transform="matrix(1, 0, 0, 1, 492, 8481)" filter="url(#Rectangle_45004)">
      <rect id="Rectangle_45004-2" data-name="Rectangle 45004" width="129.512" height="127.504" rx="10" transform="translate(3 146.99)" fill="#fff"/>
    </g>
    <g id="Group_146954" data-name="Group 146954" transform="translate(514.427 8655.188)">
      <g id="Group_146932" data-name="Group 146932" clip-path="url(#clip-path-6)">
        <path id="Path_203876" data-name="Path 203876" d="M146,12.249l-3.134,3.133a13.025,13.025,0,1,1-18.421,0l8.119-8.118L133.7,6.124V0L121.455,12.249a17.406,17.406,0,1,0,24.545,0" transform="translate(-88.399)" fill="#ee4c2c"/>
        <path id="Path_203877" data-name="Path 203877" d="M209.474,31.149a2.279,2.279,0,1,1-2.279-2.279,2.279,2.279,0,0,1,2.279,2.279" transform="translate(-155.718 -21.939)" fill="#ee4c2c"/>
        <path id="Path_203878" data-name="Path 203878" d="M4.682,205.329H2.017v6.843H0V192.7H4.9c5.114,0,7.563,2.521,7.563,6.05.072,4.346-2.953,6.578-7.779,6.578M4.9,194.645H2.089V203.6l2.737-.072c3.673-.072,5.69-1.513,5.69-4.538,0-2.833-2.017-4.346-5.618-4.346" transform="translate(0 -146.435)"/>
        <path id="Path_203879" data-name="Path 203879" d="M62.6,228.741l-1.152,3.1c-1.3,3.457-2.665,4.466-4.61,4.466a6.657,6.657,0,0,1-2.737-.648l.576-1.8a4.463,4.463,0,0,0,2.161.648c1.08,0,1.873-.576,2.953-3.313l.936-2.521L55.18,214.6h2.089l4.466,11.764L66.129,214.6h2.017Z" transform="translate(-41.111 -163.077)"/>
        <path id="Path_203880" data-name="Path 203880" d="M111.959,194.873v17.6h-2.017v-17.6H103.1V193h15.654v1.873Z" transform="translate(-78.347 -146.663)"/>
        <path id="Path_203881" data-name="Path 203881" d="M170.343,227.954c-3.962,0-6.843-2.953-6.843-7.491s3.025-7.563,7.059-7.563,6.843,2.953,6.843,7.491c-.072,4.538-3.1,7.563-7.059,7.563m.072-13.253c-3.025,0-4.97,2.377-4.97,5.762,0,3.457,2.017,5.834,5.042,5.834s4.97-2.377,4.97-5.762c0-3.529-2.017-5.834-5.042-5.834" transform="translate(-124.245 -161.785)"/>
        <path id="Path_203882" data-name="Path 203882" d="M235.345,227.518H233.4V213.232l1.945-.432v3.025c.936-1.8,2.3-3.025,4.178-3.025a5.679,5.679,0,0,1,2.521.648l-.5,1.8a4.463,4.463,0,0,0-2.161-.648c-1.513,0-2.881,1.152-4.034,3.673Z" transform="translate(-177.363 -161.709)"/>
        <path id="Path_203883" data-name="Path 203883" d="M278.887,227.954c-4.322,0-6.987-3.1-6.987-7.491,0-4.466,2.953-7.563,6.987-7.563a8.117,8.117,0,0,1,4.466,1.224l-.5,1.729a7.127,7.127,0,0,0-3.962-1.152c-3.1,0-4.97,2.3-4.97,5.69,0,3.457,2.017,5.762,5.042,5.762A7.306,7.306,0,0,0,282.92,225l.432,1.8a9.145,9.145,0,0,1-4.466,1.152" transform="translate(-206.619 -161.785)"/>
        <path id="Path_203884" data-name="Path 203884" d="M339.564,206.316v-9.243c0-2.521-1.008-3.6-3.025-3.6a6.43,6.43,0,0,0-4.394,2.017v10.828H330.2V185.332l1.945-.432v9.027a7.248,7.248,0,0,1,4.97-2.233c2.737,0,4.466,1.8,4.466,4.9v9.748h-2.017Z" transform="translate(-250.922 -140.507)"/>
      </g>
    </g>
    <g transform="matrix(1, 0, 0, 1, 492, 8481)" filter="url(#Rectangle_45005)">
      <rect id="Rectangle_45005-2" data-name="Rectangle 45005" width="129.512" height="127.504" rx="10" transform="translate(93.66 292.98)" fill="#fff"/>
    </g>
    <g id="Group_146955" data-name="Group 146955" transform="translate(605.085 8802.475)">
      <path id="Path_203885" data-name="Path 203885" d="M32.332,22.5l7.008-4.054L46.247,22.5,39.34,26.484l-7.008-3.893Z" transform="translate(9.542 5.443)" fill="#f6bd3a"/>
      <path id="Path_203886" data-name="Path 203886" d="M44.131,0,16.1,15.923l7.013,11.934L44.131,15.923l13.926,7.961,6.935-12.025Z" transform="translate(4.75 0)" fill="#f6bd3a"/>
      <path id="Path_203887" data-name="Path 203887" d="M35.526,42.048V34.11l6.912-4,7-3.989V34.11l-6.907,3.967V46.02l-7.008,4.071Zm0-15.923-7-3.97L21.51,26.043V18.09L42.534,6.146V22.071ZM56.364,18.09V14.11l7.03-4.064.071,7.96L56.46,22.071Z" transform="translate(6.348 1.814)" fill="#eb8c23"/>
      <path id="Path_203888" data-name="Path 203888" d="M30.12,45.873V22.155l6.909-3.887.095,7.856,7.008,3.916v8.036l-7.008-3.73V50.089Zm-10.568-21.9L16.1,21.9V14.109l7.012,3.98v7.955Zm24.58-9.864V6.147l13.831,7.962.1,7.961Z" transform="translate(4.75 1.814)" fill="#e35a2b"/>
      <path id="Path_203889" data-name="Path 203889" d="M0,44.416v2.123H4.207v12.3H6.371v-12.3h4.205V44.416Z" transform="translate(0 13.108)" fill="#ef6639"/>
      <g id="Group_146936" data-name="Group 146936" transform="translate(0 0)">
        <g id="Group_146935" data-name="Group 146935" clip-path="url(#clip-path-7)">
          <path id="Path_203890" data-name="Path 203890" d="M15.751,50.274a5.641,5.641,0,0,1,.175,1.623L8.941,53.981a1.1,1.1,0,0,0,.2.671,2.618,2.618,0,0,0,1.447,1.469,2.566,2.566,0,0,0,.943.174,3.052,3.052,0,0,0,1.245-.234,4.571,4.571,0,0,0,1.1-.623l1.264,1.338a5.215,5.215,0,0,1-1.614,1.056,5.117,5.117,0,0,1-2.123.369,4.2,4.2,0,0,1-1.8-.369A4.384,4.384,0,0,1,8.12,56.752a5.293,5.293,0,0,1-1.01-1.774,6.907,6.907,0,0,1-.376-2.392,7.573,7.573,0,0,1,.35-2.45,5.357,5.357,0,0,1,.966-1.757A4.083,4.083,0,0,1,9.543,47.3a4.831,4.831,0,0,1,1.936-.378,4.43,4.43,0,0,1,2,.435A3.943,3.943,0,0,1,14.9,48.54a4.863,4.863,0,0,1,.847,1.734m-2.028.474a2.377,2.377,0,0,0-.5-1.092,1.725,1.725,0,0,0-.764-.592,2.9,2.9,0,0,0-1.132-.158,2.452,2.452,0,0,0-1.893.819,4.31,4.31,0,0,0-.495,2.453ZM23.6,57.989v-6.13a3.472,3.472,0,0,0-.592-2.312,2.079,2.079,0,0,0-1.64-.659,2.02,2.02,0,0,0-1.641.71,3.19,3.19,0,0,0-.576,2.044v6.347H17.025V47.155H19.15v1.036a2.633,2.633,0,0,1,1.145-.927,3.78,3.78,0,0,1,1.57-.338,3.451,3.451,0,0,1,2.876,1.225,5.682,5.682,0,0,1,.982,3.628v6.21Zm10.847-2.851a3.176,3.176,0,0,1-.335,1.519,3.045,3.045,0,0,1-.9.982,4.247,4.247,0,0,1-1.29.537,7.991,7.991,0,0,1-1.531.161,6.606,6.606,0,0,1-2.217-.407,7.417,7.417,0,0,1-1.937-.986l.974-1.593a6.024,6.024,0,0,0,1.581.8,5.109,5.109,0,0,0,1.571.267c1.318,0,1.983-.4,1.983-1.2a1.128,1.128,0,0,0-.666-1,15.566,15.566,0,0,0-1.857-.817,10.571,10.571,0,0,1-1.461-.672,3.9,3.9,0,0,1-.995-.742,2.348,2.348,0,0,1-.553-.873A3.649,3.649,0,0,1,26.652,50a2.839,2.839,0,0,1,.267-1.276,2.353,2.353,0,0,1,.769-.927,3.228,3.228,0,0,1,1.167-.567,5.92,5.92,0,0,1,1.495-.184,6.17,6.17,0,0,1,1.988.333,6.309,6.309,0,0,1,1.678.863l-.927,1.621a5.714,5.714,0,0,0-1.344-.7,4.906,4.906,0,0,0-1.466-.215,1.775,1.775,0,0,0-1.125.28.855.855,0,0,0-.351.715.714.714,0,0,0,.083.36.78.78,0,0,0,.308.364,3.025,3.025,0,0,0,.6.392c.25.122.592.284,1,.443.614.221,1.141.464,1.6.655a5.736,5.736,0,0,1,1.146.727,2.6,2.6,0,0,1,.683.953A3.2,3.2,0,0,1,34.446,55.138Zm9.877-2.5a6.938,6.938,0,0,1-.378,2.406,5.233,5.233,0,0,1-1.023,1.8,4.589,4.589,0,0,1-1.549,1.1,4.941,4.941,0,0,1-1.943.394,4.477,4.477,0,0,1-1.893-.42,4.151,4.151,0,0,1-1.506-1.144A5.1,5.1,0,0,1,35.036,55a6.666,6.666,0,0,1-.361-2.3,7.036,7.036,0,0,1,.367-2.371,5.332,5.332,0,0,1,1.018-1.77,4.344,4.344,0,0,1,1.531-1.116A4.733,4.733,0,0,1,39.5,47.05a4.67,4.67,0,0,1,1.919.4,4.819,4.819,0,0,1,1.535,1.129,5.226,5.226,0,0,1,1.006,1.76A6.862,6.862,0,0,1,44.322,52.636Zm-2.152.06a4.387,4.387,0,0,0-.723-2.655,2.453,2.453,0,0,0-2.028-.97,2.238,2.238,0,0,0-1.909.97,4.388,4.388,0,0,0-.7,2.6,4.287,4.287,0,0,0,.751,2.728,2.376,2.376,0,0,0,1.948.958,2.144,2.144,0,0,0,1.1-.3,3.17,3.17,0,0,0,.843-.764,4.369,4.369,0,0,0,.534-1.15A5.091,5.091,0,0,0,42.17,52.7m9-3.178c-.242-.1-.479-.2-.728-.276a3.208,3.208,0,0,0-.912-.1,1.864,1.864,0,0,0-1.568.708,3.308,3.308,0,0,0-.554,2.064v6.184H45.288V47.274h2.124V48.31a3,3,0,0,1,2.472-1.26,4.526,4.526,0,0,1,1.09.118,2.268,2.268,0,0,1,.737.334Z" transform="translate(1.987 13.849)" fill="#ef6639"/>
          <path id="Path_203891" data-name="Path 203891" d="M44.275,46.677v3.777h4.157v2.123H44.275v6.4H42.13V44.553h9.3v2.124Zm7.505,12.3V45.062L53.9,43.946V58.973Zm12.95-5.458a6.983,6.983,0,0,1-.361,2.406,5.605,5.605,0,0,1-1.035,1.8,4.518,4.518,0,0,1-1.531,1.1,5.029,5.029,0,0,1-1.948.392,4.366,4.366,0,0,1-1.893-.42,4.012,4.012,0,0,1-1.506-1.144,5.348,5.348,0,0,1-1.01-1.774,7.083,7.083,0,0,1-.364-2.3,7.261,7.261,0,0,1,.378-2.371,5,5,0,0,1,1.031-1.77A4.388,4.388,0,0,1,58,48.316a4.9,4.9,0,0,1,1.927-.387,4.537,4.537,0,0,1,1.905.4,4.634,4.634,0,0,1,1.549,1.129,5.053,5.053,0,0,1,.991,1.759A6.441,6.441,0,0,1,64.73,53.516Zm-2.132.058a4.515,4.515,0,0,0-.725-2.655,2.477,2.477,0,0,0-2.028-.97,2.291,2.291,0,0,0-1.927.97,4.5,4.5,0,0,0-.684,2.6,4.16,4.16,0,0,0,.756,2.726,2.361,2.361,0,0,0,1.952.96,2.021,2.021,0,0,0,1.08-.3,3.253,3.253,0,0,0,.865-.764,4.53,4.53,0,0,0,.534-1.149,6.009,6.009,0,0,0,.177-1.417m12.617,5.4H73.4l-1.463-5.458c-.122-.413-.216-.828-.308-1.271s-.181-.782-.259-1.043c-.07.351-.145.7-.225,1.048-.1.439-.219.877-.31,1.294l-1.449,5.429H67.556L64.6,48.153h2.1l1.294,5.254c.1.431.2.875.29,1.317s.17.8.247,1.062l.269-1.062c.091-.442.2-.886.32-1.317l1.451-5.254h1.69l1.484,5.283c.1.422.2.848.3,1.289s.194.8.255,1.062c.076-.264.162-.623.253-1.071.087-.433.177-.877.286-1.309l1.294-5.253h2.093Z" transform="translate(12.433 12.969)" fill="#a6a7a9"/>
        </g>
      </g>
    </g>
    <g transform="matrix(1, 0, 0, 1, 492, 8481)" filter="url(#Rectangle_45006)">
      <rect id="Rectangle_45006-2" data-name="Rectangle 45006" width="129.512" height="127.504" rx="10" transform="translate(242.6 292.98)" fill="#fff"/>
    </g>
    <g transform="matrix(1, 0, 0, 1, 492, 8481)" filter="url(#Rectangle_45007)">
      <rect id="Rectangle_45007-2" data-name="Rectangle 45007" width="129.512" height="127.504" rx="10" transform="translate(392 293)" fill="#fff"/>
    </g>
    <g id="Group_146956" data-name="Group 146956" transform="translate(754 8815)">
      <g id="Group_146941" data-name="Group 146941" clip-path="url(#clip-path-8)">
        <path id="Path_203892" data-name="Path 203892" d="M69.915,23.794c-.079-.168-.114-.253-.157-.333-1.136-2.162-2.269-4.322-3.417-6.483a.4.4,0,0,1,.057-.531c1.808-2.112,3.593-4.235,5.4-6.338a.561.561,0,0,0,.145-.285l-1.58.412c-2.182.579-4.381,1.154-6.542,1.741a.3.3,0,0,1-.4-.174c-1.238-2.07-2.485-4.147-3.738-6.191a.847.847,0,0,0-.271-.3c-.1.552-.2,1.1-.3,1.653-.348,1.948-.7,3.884-1.04,5.841-.038.21-.089.42-.107.631s-.12.275-.3.333q-3.86,1.212-7.71,2.439a.856.856,0,0,0-.346.192c2.1.835,4.207,1.669,6.338,2.52-.078.061-.13.109-.187.145q-1.972,1.276-3.942,2.553a.416.416,0,0,1-.458.038c-1.571-.706-3.154-1.4-4.731-2.1a4.828,4.828,0,0,1-1.834-1.34,2.445,2.445,0,0,1,.593-3.884,6.981,6.981,0,0,1,1.594-.725c2.52-.82,5.052-1.611,7.564-2.406a.435.435,0,0,0,.351-.391c.338-1.95.685-3.913,1.039-5.841a10.2,10.2,0,0,1,.8-3.066A4.962,4.962,0,0,1,57.441.865a2.259,2.259,0,0,1,3.476-.1,6.5,6.5,0,0,1,.931,1.215c1.168,1.906,2.318,3.826,3.475,5.753a.378.378,0,0,0,.509.206Q70.059,6.809,74.3,5.7a3.967,3.967,0,0,1,1.769-.1A1.741,1.741,0,0,1,77.5,8.091,4.837,4.837,0,0,1,76.565,9.6c-1.969,2.316-3.944,4.643-5.9,6.951a.406.406,0,0,0-.053.537c1.18,2.222,2.348,4.438,3.533,6.687a3.7,3.7,0,0,1,.5,1.7,2.739,2.739,0,0,1-2.386,2.733,4.971,4.971,0,0,1-2.22-.276c-1.767-.547-3.533-1.083-5.315-1.618a.305.305,0,0,1-.256-.291c-.2-1.247-.426-2.491-.642-3.738a.948.948,0,0,1,.01-.148c2.018.558,4.03,1.107,6.1,1.682" transform="translate(13.014 0)" fill="#e25a1c" fill-rule="evenodd"/>
        <path id="Path_203893" data-name="Path 203893" d="M65.089,37.609c-1.594,0-3.183-.01-4.789,0a.461.461,0,0,1-.447-.241c-1.887-2.873-3.8-5.753-5.666-8.615-.06-.091-.124-.179-.231-.333-.407,3.1-.807,6.134-1.207,9.171H48.573c.049-.407.092-.8.144-1.192.405-3.125.817-6.221,1.227-9.346q.587-4.468,1.177-8.936a.384.384,0,0,1,.142-.247q2.154-1.407,4.322-2.795a.588.588,0,0,1,.124-.036c-.435,3.329-.868,6.629-1.3,9.929.018.012.035.025.052.036,2.264-2.506,4.527-5.024,6.834-7.565.066.386.124.716.181,1.046.162.943.317,1.892.49,2.835a.449.449,0,0,1-.142.442q-2.193,2.294-4.38,4.613c-.063.069-.124.137-.2.218.047.074.087.146.133.212q3.771,5.3,7.534,10.6a1.611,1.611,0,0,0,.168.171v.056" transform="translate(14.336 4.438)" fill="#3c3a3e" fill-rule="evenodd"/>
        <path id="Path_203894" data-name="Path 203894" d="M26.775,27.064a9.977,9.977,0,0,0-.255-1.25,4.319,4.319,0,0,0-5.2-2.807,5.757,5.757,0,0,0-4.555,5.14,4.15,4.15,0,0,0,2.728,4.409,4.943,4.943,0,0,0,4.38-.5,5.783,5.783,0,0,0,2.921-4.994Zm-11.04,8.031c-.123.929-.242,1.8-.356,2.678-.153,1.162-.307,2.327-.453,3.5-.017.136-.057.2-.2.194-1.147,0-2.3,0-3.446-.005a.56.56,0,0,1-.114-.032c.069-.549.137-1.1.209-1.65q.381-2.891.763-5.782c.294-2.208.525-4.41.9-6.6a10.381,10.381,0,0,1,7.827-8.061,8.092,8.092,0,0,1,6.338,1,7.123,7.123,0,0,1,3.329,5.374A9.542,9.542,0,0,1,27.4,33.894,9.778,9.778,0,0,1,22,36.6a7.993,7.993,0,0,1-5.987-1.3c-.066-.047-.137-.088-.251-.159" transform="translate(3.294 5.639)" fill="#3c3a3e" fill-rule="evenodd"/>
        <path id="Path_203895" data-name="Path 203895" d="M17.1,18.06c-1.285.958-2.527,1.881-3.768,2.807-.2-.316-.379-.631-.589-.926a2.9,2.9,0,0,0-2.187-1.387,2.443,2.443,0,0,0-2.059.809,1.442,1.442,0,0,0-.1,1.9c.508.666,1.063,1.3,1.633,1.913.943,1.022,1.927,2,2.861,3.037a6.376,6.376,0,0,1,1.741,3.27,6.634,6.634,0,0,1-.771,4.293A8.128,8.128,0,0,1,7.675,38.13a8.106,8.106,0,0,1-3.621-.192,5.361,5.361,0,0,1-3.388-2.95C.416,34.471.224,33.924,0,33.37c1.381-.74,2.728-1.461,4.089-2.187.047.113.08.207.124.3a12.473,12.473,0,0,0,.71,1.387A2.765,2.765,0,0,0,8.544,33.9a4.009,4.009,0,0,0,1-.651,2.131,2.131,0,0,0,.4-2.921,13.947,13.947,0,0,0-1.329-1.615C7.5,27.471,6.342,26.27,5.261,25a5.869,5.869,0,0,1-1.425-3.037,5.193,5.193,0,0,1,.738-3.533,7.728,7.728,0,0,1,7.184-3.942A5.656,5.656,0,0,1,16.11,16.8c.33.414.64.844.975,1.294" transform="translate(0 4.275)" fill="#3c3a3e" fill-rule="evenodd"/>
        <path id="Path_203896" data-name="Path 203896" d="M39.567,30.885c-.21,1.6-.409,3.125-.614,4.643a.309.309,0,0,1-.136.212c-3.125,1.443-7.214,1.242-9.755-1.662A7.509,7.509,0,0,1,27.2,28.617,10.323,10.323,0,0,1,36.078,19.1a7.575,7.575,0,0,1,7.038,2.553,7.122,7.122,0,0,1,1.776,5.14c-.057,1.273-.256,2.537-.414,3.8-.225,1.794-.47,3.593-.707,5.374-.009.063-.022.127-.036.209H40.024c.049-.412.095-.815.148-1.219.269-2.07.566-4.147.8-6.221a6.61,6.61,0,0,0-.537-3.766,3.641,3.641,0,0,0-3.067-2.092,5.779,5.779,0,0,0-6.191,4.5A4.33,4.33,0,0,0,32.9,32.012a4.677,4.677,0,0,0,4.555.342,5.993,5.993,0,0,0,2.127-1.492" transform="translate(8.025 5.613)" fill="#3c3a3e" fill-rule="evenodd"/>
        <path id="Path_203897" data-name="Path 203897" d="M51.133,19.465c-.17,1.291-.339,2.562-.508,3.854-.789,0-1.559,0-2.331,0a1.474,1.474,0,0,0-1.385.993,4.213,4.213,0,0,0-.132.712C46.386,28,46,30.954,45.609,33.9c-.1.747-.193,1.5-.29,2.255H41.435c.071-.57.14-1.122.211-1.675.253-1.921.505-3.854.76-5.752.22-1.662.417-3.33.677-4.994a5.378,5.378,0,0,1,4.789-4.293c1.068-.047,2.141-.008,3.242-.008" transform="translate(12.229 5.732)" fill="#3c3a3e" fill-rule="evenodd"/>
        <path id="Path_203898" data-name="Path 203898" d="M65.794,32.912V31.276h-.009l-.642,1.636h-.2L64.3,31.276h-.01v1.636h-.321v-1.96h.5l.584,1.489.575-1.489h.5v1.96Zm-2.844-1.7v1.7h-.321v-1.7h-.614v-.263h1.552v.263h-.614" transform="translate(18.303 9.135)" fill="#3c3a3e"/>
        <path id="Path_203899" data-name="Path 203899" d="M17.682,15.749h.961l-.228-1.454Zm1.113.94H17.2l-.509,1H15.555l2.5-4.673h1.093l.85,4.673H18.946l-.15-1" transform="translate(4.591 3.84)" fill="#3c3a3e"/>
        <path id="Path_203900" data-name="Path 203900" d="M22.976,13.966h-.569l-.192,1.078h.569a.594.594,0,0,0,.616-.651.39.39,0,0,0-.426-.426Zm-1.378-.94h1.5a1.215,1.215,0,0,1,1.329,1.268,1.627,1.627,0,0,1-1.729,1.688h-.646l-.3,1.708h-.975l.822-4.673" transform="translate(6.13 3.842)" fill="#3c3a3e"/>
        <path id="Path_203901" data-name="Path 203901" d="M26.633,15.749h.961l-.227-1.454Zm1.11.94h-1.6l-.509,1H24.5L27,13.012h1.093l.85,4.673H27.895l-.15-1" transform="translate(7.232 3.84)" fill="#3c3a3e"/>
        <path id="Path_203902" data-name="Path 203902" d="M32.485,17.544a2.568,2.568,0,0,1-1.057.241,1.968,1.968,0,0,1-2.01-2.085,2.763,2.763,0,0,1,2.731-2.731,2.041,2.041,0,0,1,.98.24l-.136,1.119a1.263,1.263,0,0,0-.947-.386A1.675,1.675,0,0,0,30.441,15.6a1.112,1.112,0,0,0,1.1,1.21,1.765,1.765,0,0,0,1.078-.377l-.131,1.11" transform="translate(8.683 3.827)" fill="#3c3a3e"/>
        <path id="Path_203903" data-name="Path 203903" d="M37.281,15.807H35.251l-.33,1.878h-.973l.824-4.673h.975l-.326,1.846H37.45l.33-1.846h.975l-.824,4.673h-.975l.326-1.878" transform="translate(10.02 3.84)" fill="#3c3a3e"/>
        <path id="Path_203904" data-name="Path 203904" d="M39.227,17.678l.824-4.673h2.588l-.164.94H40.861l-.164.905h1.48l-.164.94h-1.48l-.164.94H41.98l-.164.94H39.228" transform="translate(11.578 3.838)" fill="#3c3a3e"/>
      </g>
    </g>
    <g id="Group_146957" data-name="Group 146957" transform="translate(903 8798)">
      <g id="Group_146951" data-name="Group 146951" clip-path="url(#clip-path-9)">
        <path id="Path_203916" data-name="Path 203916" d="M28.646,7.546a25.765,25.765,0,1,1,0,36.437,25.764,25.764,0,0,1,0-36.437" fill="#75aadb"/>
        <path id="Path_203917" data-name="Path 203917" d="M.774,74.685A10.1,10.1,0,0,0,6.088,76.19c3.052,0,4.831-1.613,4.831-3.942,0-2.121-1.231-3.393-4.349-4.557-3.767-1.373-6.1-3.36-6.1-6.579,0-3.6,2.976-6.271,7.468-6.271a10.354,10.354,0,0,1,5.072,1.132l-.823,2.436a8.521,8.521,0,0,0-4.35-1.1c-3.152,0-4.349,1.888-4.349,3.46,0,2.163,1.4,3.219,4.59,4.458,3.909,1.505,5.864,3.393,5.864,6.786,0,3.56-2.6,6.679-8.05,6.679A11.924,11.924,0,0,1,0,77.188Z" fill="#4d4d4d"/>
        <path id="Path_203918" data-name="Path 203918" d="M21.474,57.761v3.975H25.79v2.3H21.474v8.94c0,2.054.582,3.219,2.262,3.219a5.475,5.475,0,0,0,1.747-.208l.133,2.295a8.153,8.153,0,0,1-2.67.408,4.31,4.31,0,0,1-3.252-1.264c-.823-.924-1.164-2.4-1.164-4.35v-9.04H15.96v-2.3h2.57V58.651Z" fill="#4d4d4d"/>
        <path id="Path_203919" data-name="Path 203919" d="M43.055,73.762c0,1.746.033,3.252.133,4.558h-2.67l-.174-2.7h-.067A6.193,6.193,0,0,1,34.8,78.7c-2.6,0-5.722-1.472-5.722-7.26V61.736h3.019v9.148c0,3.152.989,5.315,3.7,5.315a4.34,4.34,0,0,0,3.975-2.778,4.033,4.033,0,0,0,.274-1.539V61.736h3.019V73.762Z" fill="#4d4d4d"/>
        <path id="Path_203920" data-name="Path 203920" d="M62.35,53.993V74.037c0,1.472.066,3.152.133,4.283h-2.67l-.133-2.878h-.1a5.993,5.993,0,0,1-5.589,3.252c-4.008,0-7.127-3.393-7.127-8.433-.033-5.514,3.427-8.874,7.435-8.874a5.561,5.561,0,0,1,5.007,2.5h.066v-9.9ZM59.364,68.481a5.433,5.433,0,0,0-.133-1.264,4.437,4.437,0,0,0-4.35-3.46c-3.118,0-4.965,2.745-4.965,6.371,0,3.36,1.68,6.137,4.9,6.137a4.56,4.56,0,0,0,4.416-3.6,5.369,5.369,0,0,0,.133-1.305Z" fill="#4d4d4d"/>
        <path id="Path_203921" data-name="Path 203921" d="M70.742,57.07a1.8,1.8,0,0,1-1.922,1.847,1.77,1.77,0,0,1-1.813-1.847,1.841,1.841,0,0,1,1.888-1.888,1.822,1.822,0,0,1,1.847,1.888m-3.36,4.666H70.4V78.319H67.382Z" fill="#4d4d4d"/>
        <path id="Path_203922" data-name="Path 203922" d="M90.411,69.886c0,6.13-4.283,8.808-8.259,8.808-4.457,0-7.95-3.294-7.95-8.533,0-5.514,3.667-8.774,8.225-8.774,4.765.008,7.984,3.468,7.984,8.5m-13.124.175c0,3.634,2.054,6.371,5.007,6.371,2.877,0,5.04-2.7,5.04-6.446,0-2.811-1.406-6.337-4.966-6.337-3.542,0-5.081,3.293-5.081,6.412" fill="#4d4d4d"/>
        <path id="Path_203923" data-name="Path 203923" d="M55.682,33.988h2.794v2.17H54.21l-7.07-10.6H43.373v8.425h3.684v2.17H37.784v-2.17h3.185V15.317l-3.185-.391V12.872a15.158,15.158,0,0,0,3.568.465c1.979,0,4-.465,5.98-.465,3.842,0,7.41,1.746,7.41,6.013,0,3.3-1.979,5.4-5.048,6.287ZM43.373,23.467l2.021.042c4.932.074,6.828-1.822,6.828-4.35,0-2.952-2.137-4.117-4.849-4.117a35.826,35.826,0,0,0-4,.275Z" fill="#fff"/>
        <path id="Path_203924" data-name="Path 203924" d="M88.714,55.191a1.946,1.946,0,1,0,1.946,1.946,1.948,1.948,0,0,0-1.946-1.946m1.63,1.946a1.622,1.622,0,1,1-1.622-1.622,1.624,1.624,0,0,1,1.622,1.622" fill="#4d4d4d"/>
        <path id="Path_203925" data-name="Path 203925" d="M89.4,57.927l-.482-.707a.58.58,0,0,0,.416-.582c0-.424-.358-.574-.7-.574a1.429,1.429,0,0,0-.266.025c-.083.008-.175.017-.258.017a1.2,1.2,0,0,1-.308-.042l-.049-.008v.274l.282.034v1.563h-.282v.283h.906v-.283H88.34V57.27h.266l.607.915.017.017h.44v-.283H89.4Zm-.374-1.264a.3.3,0,0,1-.116.241.711.711,0,0,1-.416.1H88.34v-.64c.116-.009.216-.017.307-.017.175,0,.383.058.383.316" fill="#4d4d4d"/>
      </g>
    </g>
    <g transform="matrix(1, 0, 0, 1, 492, 8481)" filter="url(#Rectangle_45008)">
      <rect id="Rectangle_45008-2" data-name="Rectangle 45008" width="129.512" height="127.504" rx="10" transform="translate(483 147)" fill="#fff"/>
    </g>
    <g id="Group_146958" data-name="Group 146958" transform="translate(995 8646)">
      <rect id="Rectangle_44999" data-name="Rectangle 44999" width="90.66" height="90.66" fill="#fff"/>
      <g id="Group_146950" data-name="Group 146950">
        <g id="Group_146949" data-name="Group 146949" clip-path="url(#clip-path-10)">
          <path id="Path_203910" data-name="Path 203910" d="M37.8,47.847s-2.166,1.26,1.543,1.686a32.45,32.45,0,0,0,11.739-.5,20.427,20.427,0,0,0,3.122,1.522c-11.1,4.756-25.122-.276-16.4-2.711M36.445,41.64s-2.429,1.8,1.282,2.182a45.809,45.809,0,0,0,15.15-.726,6.717,6.717,0,0,0,2.332,1.422c-13.42,3.924-28.365.309-18.764-2.878" fill="#3174b9" fill-rule="evenodd"/>
          <path id="Path_203911" data-name="Path 203911" d="M47.879,31.109c2.736,3.15-.717,5.983-.717,5.983s6.945-3.585,3.755-8.075c-2.978-4.186-5.263-6.265,7.1-13.436,0,0-19.411,4.846-10.141,15.528" fill="#ca3132" fill-rule="evenodd"/>
          <path id="Path_203912" data-name="Path 203912" d="M62.56,52.438s1.6,1.322-1.766,2.344c-6.4,1.94-26.665,2.525-32.293.077-2.021-.88,1.772-2.1,2.965-2.358a7.73,7.73,0,0,1,1.954-.221c-2.249-1.584-14.54,3.112-6.242,4.459C49.807,60.408,68.429,55.087,62.56,52.438ZM38.844,35.208s-10.3,2.448-3.648,3.338A77.406,77.406,0,0,0,48.827,38.4c4.265-.357,8.546-1.123,8.546-1.123a18.255,18.255,0,0,0-2.592,1.387C44.316,41.414,24.1,40.132,29.922,37.318A19.468,19.468,0,0,1,38.844,35.208ZM57.33,45.54c10.638-5.526,5.719-10.838,2.285-10.123a8.179,8.179,0,0,0-1.216.327,1.932,1.932,0,0,1,.909-.7c6.792-2.387,12.014,7.041-2.19,10.775a.945.945,0,0,0,.212-.279" fill="#3174b9" fill-rule="evenodd"/>
          <path id="Path_203913" data-name="Path 203913" d="M50.917,4s5.89,5.894-5.588,14.954c-9.2,7.27-2.1,11.414,0,16.151-5.374-4.848-9.316-9.116-6.672-13.087C42.537,16.188,53.294,13.361,50.917,4Z" fill="#ca3132" fill-rule="evenodd"/>
          <path id="Path_203914" data-name="Path 203914" d="M39.89,60.52c10.209.653,25.89-.363,26.262-5.194,0,0-.714,1.831-8.439,3.284a83.891,83.891,0,0,1-25.839.4s1.306,1.081,8.016,1.513" fill="#3174b9" fill-rule="evenodd"/>
          <path id="Path_203915" data-name="Path 203915" d="M65.68,69.184h-.31V69.01h.837v.174H65.9v.87H65.68Zm1.672.044h0l-.309.825H66.9l-.307-.825h0v.825h-.206V69.01h.3l.284.738.284-.738h.3v1.043h-.2ZM38.217,78.979a4.632,4.632,0,0,1-2.894,1.3,1.846,1.846,0,0,1-2.008-2.034c0-1.355.756-2.346,3.783-2.346h1.119Zm2.658,3V72.7c0-2.371-1.353-3.937-4.614-3.937a12.167,12.167,0,0,0-4.926,1.069l.39,1.644a11.425,11.425,0,0,1,3.8-.756c1.878,0,2.687.756,2.687,2.321V74.21h-.939c-4.563,0-6.622,1.77-6.622,4.432,0,2.293,1.357,3.6,3.911,3.6a5.9,5.9,0,0,0,4.014-1.67l.208,1.408Zm8.869,0H46.43L42.44,69h2.9l2.476,7.978.551,2.4A50.051,50.051,0,0,0,50.942,69h2.814a52.646,52.646,0,0,1-4.012,12.982m12.716-3a4.646,4.646,0,0,1-2.9,1.3,1.846,1.846,0,0,1-2.007-2.034c0-1.355.756-2.346,3.781-2.346H62.46Zm2.659,3V72.7c0-2.371-1.357-3.937-4.615-3.937a12.169,12.169,0,0,0-4.928,1.069l.391,1.644a11.443,11.443,0,0,1,3.808-.756c1.875,0,2.685.756,2.685,2.321V74.21h-.939c-4.564,0-6.621,1.77-6.621,4.432,0,2.293,1.354,3.6,3.909,3.6a5.908,5.908,0,0,0,4.016-1.67l.209,1.408ZM27.742,84.183a6.972,6.972,0,0,1-3.321,2.477l-1.312-1.545a5.522,5.522,0,0,0,2.3-2.155c.35-.7.5-1.6.5-3.759V64.378h2.825V79c0,2.885-.231,4.051-.989,5.187" fill="#ca3132" fill-rule="evenodd"/>
        </g>
      </g>
    </g>
    <g id="Rectangle_45009" data-name="Rectangle 45009" transform="translate(643 8644.449)" fill="#fff" stroke="#0f2771" stroke-width="3">
      <rect width="313" height="94" rx="37" stroke="none"/>
      <rect x="1.5" y="1.5" width="310" height="91" rx="35.5" fill="none"/>
    </g>
    <path id="Path_206285" data-name="Path 206285" d="M-63.309-5.307V0H-67.08V-15.641h6.241a7.269,7.269,0,0,1,3.174.661,4.979,4.979,0,0,1,2.138,1.88,5.134,5.134,0,0,1,.757,2.766,4.526,4.526,0,0,1-1.638,3.658,6.8,6.8,0,0,1-4.5,1.37Zm0-2.911h2.471a2.33,2.33,0,0,0,1.67-.548,2.035,2.035,0,0,0,.575-1.547,2.516,2.516,0,0,0-.591-1.751,2.092,2.092,0,0,0-1.611-.666h-2.514Zm15.5-7.423,3.491,10.882,3.48-10.882h4.963V0h-3.781V-3.652l.365-7.477L-43.071,0h-2.492l-3.792-11.14.365,7.487V0H-52.76V-15.641Zm19.282,0,3.491,10.882,3.48-10.882h4.963V0h-3.781V-3.652l.365-7.477L-23.789,0h-2.492l-3.792-11.14.365,7.487V0h-3.771V-15.641Zm18.1,12.74h6.563V0H-14.2V-15.641h3.771Zm9.26,7.111-1.826-.859.365-.73A5.958,5.958,0,0,0-1.842-.043V-2.729h2.9L1.047-.4A5.827,5.827,0,0,1,.414,2.116,6.387,6.387,0,0,1-1.166,4.211ZM22.381-7.5a9.223,9.223,0,0,1-.849,4.05A6.272,6.272,0,0,1,19.121-.736,6.715,6.715,0,0,1,15.56.215,6.81,6.81,0,0,1,12.015-.7,6.261,6.261,0,0,1,9.6-3.33,8.958,8.958,0,0,1,8.7-7.251v-.881a9.264,9.264,0,0,1,.843-4.055A6.257,6.257,0,0,1,11.956-14.9a6.762,6.762,0,0,1,3.583-.956,6.7,6.7,0,0,1,3.545.945,6.369,6.369,0,0,1,2.422,2.691,9,9,0,0,1,.875,4Zm-3.835-.655a6.577,6.577,0,0,0-.779-3.54A2.5,2.5,0,0,0,15.539-12.9q-2.836,0-3,4.254L12.531-7.5a6.764,6.764,0,0,0,.763,3.534A2.494,2.494,0,0,0,15.56-2.729a2.464,2.464,0,0,0,2.2-1.214,6.58,6.58,0,0,0,.784-3.491ZM37.388,0H33.639L28.1-9.732V0H24.326V-15.641H28.1l5.532,9.732v-9.732h3.76ZM52.835,0H49.086L43.543-9.732V0H39.773V-15.641h3.771l5.532,9.732v-9.732h3.76Zm8.4-10.441,2.557-5.2H68.1L63.728-7.885,68.218,0H63.868L61.236-5.3,58.6,0h-4.34l4.479-7.885-4.361-7.756h4.3ZM-103.173,15.77h-6.08V22h-3.771V6.359h10.463V9.271h-6.692v3.6h6.08Zm1.332.312a6.86,6.86,0,0,1,.677-3.1,4.84,4.84,0,0,1,1.944-2.089,5.856,5.856,0,0,1,2.976-.73,5.344,5.344,0,0,1,4.114,1.617,6.2,6.2,0,0,1,1.5,4.4v.129a6.019,6.019,0,0,1-1.509,4.313,5.359,5.359,0,0,1-4.087,1.6,5.42,5.42,0,0,1-3.985-1.488,5.819,5.819,0,0,1-1.622-4.034Zm3.62.226a4.325,4.325,0,0,0,.5,2.363,1.682,1.682,0,0,0,1.493.752q1.934,0,1.977-2.976v-.365q0-3.126-2-3.126-1.815,0-1.966,2.7ZM-82,13.653l-1.192-.086a2.142,2.142,0,0,0-2.191,1.074V22H-89V10.377h3.395l.118,1.493a2.8,2.8,0,0,1,2.546-1.708,3.53,3.53,0,0,1,1.01.129Zm4.727-3.276.118,1.364a4,4,0,0,1,3.319-1.579,2.942,2.942,0,0,1,2.976,1.751,3.868,3.868,0,0,1,3.416-1.751q3.534,0,3.631,4.275V22h-3.631V14.663a2.216,2.216,0,0,0-.3-1.3,1.28,1.28,0,0,0-1.1-.408,1.715,1.715,0,0,0-1.6.956l.011.15V22h-3.631V14.685a2.329,2.329,0,0,0-.29-1.321,1.277,1.277,0,0,0-1.106-.408,1.736,1.736,0,0,0-1.59.956V22h-3.62V10.377ZM-55.2,22a4.088,4.088,0,0,1-.344-1.042,3.366,3.366,0,0,1-2.793,1.257,4.124,4.124,0,0,1-2.793-.994,3.163,3.163,0,0,1-1.149-2.5,3.251,3.251,0,0,1,1.4-2.857,7.114,7.114,0,0,1,4.061-.967H-55.7v-.615q0-1.608-1.386-1.608a1.133,1.133,0,0,0-1.289,1.274H-62a3.245,3.245,0,0,1,1.434-2.736,6.027,6.027,0,0,1,3.658-1.051,5.284,5.284,0,0,1,3.513,1.085,3.772,3.772,0,0,1,1.321,2.976v5.146a5.269,5.269,0,0,0,.494,2.449V22Zm-2.267-2.363a2.019,2.019,0,0,0,1.123-.29,1.818,1.818,0,0,0,.639-.655V16.833h-1.053q-1.891,0-1.891,1.7a1.036,1.036,0,0,0,.333.8A1.205,1.205,0,0,0-57.465,19.637ZM-45.853,7.487v2.89h1.912v2.514h-1.912v5.317a1.358,1.358,0,0,0,.236.913,1.268,1.268,0,0,0,.935.258,5.311,5.311,0,0,0,.9-.064V21.9a6.681,6.681,0,0,1-2.041.312,3.792,3.792,0,0,1-2.761-.881,3.61,3.61,0,0,1-.892-2.675V12.891h-1.482V10.377h1.482V7.487Zm2.557,8.594a6.86,6.86,0,0,1,.677-3.1,4.84,4.84,0,0,1,1.944-2.089,5.856,5.856,0,0,1,2.976-.73,5.344,5.344,0,0,1,4.114,1.617,6.2,6.2,0,0,1,1.5,4.4v.129a6.019,6.019,0,0,1-1.509,4.313,5.359,5.359,0,0,1-4.087,1.6,5.42,5.42,0,0,1-3.985-1.488,5.819,5.819,0,0,1-1.622-4.034Zm3.62.226a4.325,4.325,0,0,0,.5,2.363,1.682,1.682,0,0,0,1.493.752q1.934,0,1.977-2.976v-.365q0-3.126-2-3.126-1.815,0-1.966,2.7Zm25.459-.032A7.009,7.009,0,0,1-15.437,20.6a3.909,3.909,0,0,1-3.292,1.617,3.351,3.351,0,0,1-2.632-1.171v5.425h-3.62V10.377H-21.6l.107,1.074a3.351,3.351,0,0,1,2.739-1.289,3.941,3.941,0,0,1,3.341,1.584A7.1,7.1,0,0,1-14.217,16.1Zm-3.62-.226q0-3.094-1.8-3.094a1.7,1.7,0,0,0-1.719.924v4.576a1.759,1.759,0,0,0,1.74.967q1.729,0,1.783-2.986ZM-7,22.215a5.975,5.975,0,0,1-4.329-1.6,5.509,5.509,0,0,1-1.654-4.152v-.3a7.138,7.138,0,0,1,.661-3.147,4.834,4.834,0,0,1,1.928-2.111,5.821,5.821,0,0,1,3.008-.747,5.031,5.031,0,0,1,3.867,1.52A5.973,5.973,0,0,1-2.1,15.92v1.407H-9.3a2.609,2.609,0,0,0,.849,1.536,2.525,2.525,0,0,0,1.7.559,3.254,3.254,0,0,0,2.686-1.2l1.654,1.955a4.624,4.624,0,0,1-1.917,1.488A6.48,6.48,0,0,1-7,22.215Zm-.408-9.26q-1.59,0-1.891,2.105h3.652v-.279a1.793,1.793,0,0,0-.44-1.348A1.753,1.753,0,0,0-7.407,12.955Zm13.793.7-1.192-.086A2.142,2.142,0,0,0,3,14.642V22H-.618V10.377H2.777L2.9,11.87a2.8,2.8,0,0,1,2.546-1.708,3.53,3.53,0,0,1,1.01.129Zm7.391,5.081a.836.836,0,0,0-.483-.741,7.353,7.353,0,0,0-1.837-.58,8.376,8.376,0,0,1-2.234-.79,3.743,3.743,0,0,1-1.343-1.187,2.834,2.834,0,0,1-.462-1.6A3.212,3.212,0,0,1,8.739,11.2,5.443,5.443,0,0,1,12.2,10.162a6.03,6.03,0,0,1,3.7,1.042,3.258,3.258,0,0,1,1.4,2.739H13.659q0-1.4-1.472-1.4a1.459,1.459,0,0,0-.956.317.981.981,0,0,0-.387.79.9.9,0,0,0,.473.784,4.466,4.466,0,0,0,1.509.494,13.043,13.043,0,0,1,1.821.462q2.621.9,2.621,3.233a3.044,3.044,0,0,1-1.413,2.589,6.2,6.2,0,0,1-3.658,1,6.322,6.322,0,0,1-2.664-.537,4.455,4.455,0,0,1-1.826-1.461,3.308,3.308,0,0,1-.655-1.944h3.384a1.4,1.4,0,0,0,.537,1.176,2.209,2.209,0,0,0,1.321.371,1.738,1.738,0,0,0,1.112-.3A.962.962,0,0,0,13.777,18.734ZM18.5,16.081a6.86,6.86,0,0,1,.677-3.1,4.84,4.84,0,0,1,1.944-2.089,5.856,5.856,0,0,1,2.976-.73,5.344,5.344,0,0,1,4.114,1.617,6.2,6.2,0,0,1,1.5,4.4v.129a6.019,6.019,0,0,1-1.509,4.313,5.359,5.359,0,0,1-4.087,1.6,5.42,5.42,0,0,1-3.985-1.488,5.819,5.819,0,0,1-1.622-4.034Zm3.62.226a4.325,4.325,0,0,0,.5,2.363,1.682,1.682,0,0,0,1.493.752q1.934,0,1.977-2.976v-.365q0-3.126-2-3.126-1.815,0-1.966,2.7Zm12.515-5.93.118,1.364a3.942,3.942,0,0,1,3.319-1.579,3.316,3.316,0,0,1,2.712,1.085,5.165,5.165,0,0,1,.929,3.266V22H38.086V14.663a1.961,1.961,0,0,0-.354-1.294,1.64,1.64,0,0,0-1.289-.414,1.726,1.726,0,0,0-1.579.838V22h-3.62V10.377ZM50.268,22a4.088,4.088,0,0,1-.344-1.042,3.366,3.366,0,0,1-2.793,1.257,4.124,4.124,0,0,1-2.793-.994,3.163,3.163,0,0,1-1.149-2.5,3.251,3.251,0,0,1,1.4-2.857,7.114,7.114,0,0,1,4.061-.967h1.117v-.615q0-1.608-1.386-1.608a1.133,1.133,0,0,0-1.289,1.274h-3.62A3.245,3.245,0,0,1,44.9,11.214a6.027,6.027,0,0,1,3.658-1.051,5.284,5.284,0,0,1,3.513,1.085,3.772,3.772,0,0,1,1.321,2.976v5.146a5.269,5.269,0,0,0,.494,2.449V22ZM48,19.637a2.019,2.019,0,0,0,1.123-.29,1.818,1.818,0,0,0,.639-.655V16.833H48.71q-1.891,0-1.891,1.7a1.036,1.036,0,0,0,.333.8A1.205,1.205,0,0,0,48,19.637ZM59.216,22H55.585V5.5h3.631Zm6.048,0H61.633V10.377h3.631ZM61.418,7.38a1.616,1.616,0,0,1,.559-1.268,2.375,2.375,0,0,1,2.9,0,1.616,1.616,0,0,1,.559,1.268,1.616,1.616,0,0,1-.559,1.268,2.375,2.375,0,0,1-2.9,0A1.616,1.616,0,0,1,61.418,7.38ZM71.763,19.207h5.3V22H67.187V19.98l5.156-6.811H67.413V10.377h9.528v1.955ZM85.363,22a4.087,4.087,0,0,1-.344-1.042,3.366,3.366,0,0,1-2.793,1.257,4.124,4.124,0,0,1-2.793-.994,3.163,3.163,0,0,1-1.149-2.5,3.251,3.251,0,0,1,1.4-2.857,7.114,7.114,0,0,1,4.061-.967h1.117v-.615q0-1.608-1.386-1.608a1.133,1.133,0,0,0-1.289,1.274h-3.62A3.245,3.245,0,0,1,80,11.214a6.027,6.027,0,0,1,3.658-1.051,5.284,5.284,0,0,1,3.513,1.085,3.772,3.772,0,0,1,1.321,2.976v5.146a5.269,5.269,0,0,0,.494,2.449V22ZM83.1,19.637a2.019,2.019,0,0,0,1.123-.29,1.818,1.818,0,0,0,.639-.655V16.833H83.805q-1.891,0-1.891,1.7a1.036,1.036,0,0,0,.333.8A1.205,1.205,0,0,0,83.1,19.637ZM90.036,16.1a7.1,7.1,0,0,1,1.192-4.351,3.925,3.925,0,0,1,3.33-1.59,3.338,3.338,0,0,1,2.621,1.225V5.5h3.631V22H97.555l-.183-1.246a3.428,3.428,0,0,1-2.836,1.461,3.918,3.918,0,0,1-3.287-1.59A7.325,7.325,0,0,1,90.036,16.1Zm3.62.226q0,3.094,1.8,3.094a1.782,1.782,0,0,0,1.719-1.01V13.986a1.734,1.734,0,0,0-1.7-1.031q-1.676,0-1.815,2.707Zm8.755-.247a6.86,6.86,0,0,1,.677-3.1,4.84,4.84,0,0,1,1.944-2.089,5.856,5.856,0,0,1,2.976-.73,5.344,5.344,0,0,1,4.114,1.617,6.2,6.2,0,0,1,1.5,4.4v.129a6.019,6.019,0,0,1-1.509,4.313,5.359,5.359,0,0,1-4.087,1.6,5.42,5.42,0,0,1-3.985-1.488,5.819,5.819,0,0,1-1.622-4.034Zm3.62.226a4.325,4.325,0,0,0,.5,2.363,1.682,1.682,0,0,0,1.493.752q1.934,0,1.977-2.976v-.365q0-3.126-2-3.126-1.815,0-1.966,2.7Z" transform="translate(800 8686.449)" fill="#12263f"/>
  </g>
</svg>
