<svg xmlns="http://www.w3.org/2000/svg" width="86.717" height="77.568" viewBox="0 0 86.717 77.568">
  <g id="_25" data-name="25" transform="translate(0 -28)">
    <path id="Path_200677" data-name="Path 200677" d="M80.119,70.519h8.13a5.081,5.081,0,0,0,5.081-5.081V43.081A5.081,5.081,0,0,0,88.248,38H15.081A5.081,5.081,0,0,0,10,43.081V65.438a5.081,5.081,0,0,0,5.081,5.081Z" transform="translate(-8.306 -8.306)" fill="#feca2e"/>
    <path id="Path_200678" data-name="Path 200678" d="M378.094,357.821l14.073,14.073a4.049,4.049,0,1,0,5.727-5.726l-14.073-14.074Z" transform="translate(-314.057 -269.203)" fill="#4dd0e1"/>
    <path id="Path_200679" data-name="Path 200679" d="M230.652,184.324A20.324,20.324,0,1,1,210.328,164,20.325,20.325,0,0,1,230.652,184.324Z" transform="translate(-157.823 -112.966)" fill="#fff"/>
    <path id="Path_200680" data-name="Path 200680" d="M258.426,219.211A13.211,13.211,0,1,1,245.215,206,13.211,13.211,0,0,1,258.426,219.211Z" transform="translate(-192.71 -147.852)" fill="#bddcf6"/>
    <path id="Path_200681" data-name="Path 200681" d="M236.908,196a14.9,14.9,0,1,0,14.9,14.9A14.921,14.921,0,0,0,236.908,196Zm0,26.422A11.517,11.517,0,1,1,248.426,210.9,11.53,11.53,0,0,1,236.908,222.422Z" transform="translate(-184.403 -139.546)"/>
    <path id="Path_200682" data-name="Path 200682" d="M301.7,239a1.694,1.694,0,1,0,0,3.387,4.239,4.239,0,0,1,4.234,4.234,1.694,1.694,0,1,0,3.387,0A7.629,7.629,0,0,0,301.7,239Z" transform="translate(-249.193 -175.267)"/>
    <path id="Path_200683" data-name="Path 200683" d="M45.96,98.912a1.694,1.694,0,1,0-3.008,1.558l4.559,8.807a1.693,1.693,0,0,0,3.031-.046l2.76-5.747,3,5.792a1.7,1.7,0,0,0,1.5.915h.025a1.7,1.7,0,0,0,1.5-.961l4.229-8.807a1.693,1.693,0,1,0-3.053-1.466l-2.76,5.747-3-5.792a1.693,1.693,0,0,0-3.031.046l-2.76,5.747Z" transform="translate(-35.519 -58.141)"/>
    <path id="Path_200684" data-name="Path 200684" d="M117.682,31.387a1.7,1.7,0,1,0-1.2-.5A1.706,1.706,0,0,0,117.682,31.387Z" transform="translate(-96.343)"/>
    <path id="Path_200685" data-name="Path 200685" d="M86.717,57.131V34.775A6.783,6.783,0,0,0,79.942,28H28.452a1.694,1.694,0,1,0,0,3.387h51.49a3.391,3.391,0,0,1,3.387,3.387V57.131a3.391,3.391,0,0,1-3.387,3.387h-8.13c-.049,0-.1,0-.144.007a22.134,22.134,0,0,0-11.905-9.955l2.511-5.227,3,5.792a1.692,1.692,0,0,0,1.5.915H66.8a1.694,1.694,0,0,0,1.5-.961l4.23-8.807a1.693,1.693,0,0,0-3.053-1.466l-2.76,5.747-3-5.792a1.694,1.694,0,0,0-3.031.046l-2.76,5.747-3-5.792a1.694,1.694,0,0,0-3.009,1.558l3.749,7.241a22.049,22.049,0,0,0-9.175.6l3.79-7.892a1.693,1.693,0,0,0-3.053-1.466l-2.76,5.747-3-5.792a1.694,1.694,0,0,0-3.031.046l-2.76,5.747-3-5.792a1.694,1.694,0,0,0-3.008,1.558l4.559,8.807a1.694,1.694,0,0,0,3.031-.046l2.76-5.746,3,5.792a1.659,1.659,0,0,0,.179.269,22.163,22.163,0,0,0-9.858,9.114H6.775a3.391,3.391,0,0,1-3.387-3.387V34.775a3.391,3.391,0,0,1,3.387-3.387h6.943a1.694,1.694,0,1,0,0-3.387H6.775A6.783,6.783,0,0,0,0,34.775V57.131a6.782,6.782,0,0,0,6.775,6.775H31.786A22.013,22.013,0,0,0,63.47,90.447l13.442,13.442a5.743,5.743,0,1,0,8.122-8.122l-5.281-5.281a1.693,1.693,0,0,0-2.4,2.395l5.282,5.282a2.356,2.356,0,0,1-3.331,3.332l-13-13a22,22,0,0,0,6.912-24.59h6.719A6.782,6.782,0,0,0,86.717,57.131ZM52.5,89.989A18.631,18.631,0,1,1,71.136,71.358,18.652,18.652,0,0,1,52.5,89.989Z"/>
    <path id="Path_200686" data-name="Path 200686" d="M430.586,370.777a1.693,1.693,0,1,0,1.2-.5A1.706,1.706,0,0,0,430.586,370.777Z" transform="translate(-357.246 -284.309)"/>
  </g>
</svg>
