<svg xmlns="http://www.w3.org/2000/svg" width="555" height="342" viewBox="0 0 555 342">
  <g id="_28" data-name="28" transform="translate(-3539 6976)">
    <g id="Group_147043" data-name="Group 147043" transform="translate(2729 -7699.137)">
      <rect id="Rectangle_42499" data-name="Rectangle 42499" width="510" height="2" transform="translate(855 723.137)" fill="#4dd0e1" opacity="0.2"/>
      <rect id="Rectangle_42500" data-name="Rectangle 42500" width="510" height="2" transform="translate(855 1063.137)" fill="#4dd0e1" opacity="0.2"/>
      <rect id="Rectangle_42501" data-name="Rectangle 42501" width="190" height="342" transform="translate(1175 723.137)" fill="#4dd0e1"/>
      <rect id="true-false-photo-2048x1439" width="544" height="324" rx="15" transform="translate(810 732.137)" fill="#fff"/>
    </g>
    <path id="Path_206286" data-name="Path 206286" d="M10,0H242a10,10,0,0,1,10,10V46a10,10,0,0,1-10,10H10A10,10,0,0,1,0,46V10A10,10,0,0,1,10,0Z" transform="translate(3712.539 -6719)" fill="#0f2771"/>
    <path id="Path_206287" data-name="Path 206287" d="M-27.105-3.4a1.268,1.268,0,0,0-.479-1.055,5.954,5.954,0,0,0-1.683-.782,16.147,16.147,0,0,1-1.969-.782q-2.487-1.222-2.487-3.357a3.011,3.011,0,0,1,.62-1.876,4.008,4.008,0,0,1,1.753-1.266,6.823,6.823,0,0,1,2.549-.453,5.969,5.969,0,0,1,2.474.492,3.917,3.917,0,0,1,1.7,1.4A3.661,3.661,0,0,1-24.021-9H-27.1a1.547,1.547,0,0,0-.479-1.213,1.867,1.867,0,0,0-1.3-.431,2.106,2.106,0,0,0-1.305.365,1.119,1.119,0,0,0-.479.927,1.127,1.127,0,0,0,.527.892,6.65,6.65,0,0,0,1.854.826,11.36,11.36,0,0,1,2.18.918,3.663,3.663,0,0,1,2.074,3.3A3.125,3.125,0,0,1-25.286-.782a5.629,5.629,0,0,1-3.472.958,6.888,6.888,0,0,1-2.817-.558,4.247,4.247,0,0,1-1.9-1.529,3.985,3.985,0,0,1-.637-2.237h3.094a1.963,1.963,0,0,0,.532,1.516,2.513,2.513,0,0,0,1.727.488,1.985,1.985,0,0,0,1.208-.33A1.088,1.088,0,0,0-27.105-3.4ZM-17.974.176a4.889,4.889,0,0,1-3.542-1.305,4.507,4.507,0,0,1-1.354-3.4v-.246a5.84,5.84,0,0,1,.541-2.575,3.955,3.955,0,0,1,1.578-1.727,4.763,4.763,0,0,1,2.461-.611,4.117,4.117,0,0,1,3.164,1.244,4.887,4.887,0,0,1,1.16,3.467v1.151h-5.889a2.135,2.135,0,0,0,.694,1.257,2.066,2.066,0,0,0,1.389.457,2.662,2.662,0,0,0,2.2-.984l1.354,1.6A3.784,3.784,0,0,1-15.79-.277,5.3,5.3,0,0,1-17.974.176ZM-18.308-7.4q-1.3,0-1.547,1.723h2.988v-.229a1.467,1.467,0,0,0-.36-1.1A1.434,1.434,0,0,0-18.308-7.4Zm11.285.571L-8-6.9a1.752,1.752,0,0,0-1.793.879V0h-2.962V-9.51h2.777l.1,1.222A2.294,2.294,0,0,1-7.8-9.686a2.888,2.888,0,0,1,.826.105ZM-2-3.524-.5-9.51h3.12L-.483,0H-3.507l-3.1-9.51H-3.48ZM6.627,0H3.656V-9.51H6.627ZM3.48-11.962A1.322,1.322,0,0,1,3.938-13a1.724,1.724,0,0,1,1.187-.4,1.724,1.724,0,0,1,1.187.4,1.322,1.322,0,0,1,.457,1.037,1.322,1.322,0,0,1-.457,1.037,1.724,1.724,0,0,1-1.187.4,1.724,1.724,0,0,1-1.187-.4A1.322,1.322,0,0,1,3.48-11.962Zm4.6,7.137a5.809,5.809,0,0,1,.976-3.56,3.211,3.211,0,0,1,2.725-1.3,2.731,2.731,0,0,1,2.145,1V-13.5h2.971V0H14.229L14.08-1.02a2.8,2.8,0,0,1-2.32,1.2,3.205,3.205,0,0,1-2.689-1.3A5.993,5.993,0,0,1,8.077-4.825Zm2.962.185q0,2.531,1.477,2.531a1.458,1.458,0,0,0,1.406-.826V-6.557A1.419,1.419,0,0,0,12.533-7.4q-1.371,0-1.485,2.215Zm7.163-.2a5.613,5.613,0,0,1,.554-2.536,3.96,3.96,0,0,1,1.591-1.709,4.791,4.791,0,0,1,2.435-.6,4.373,4.373,0,0,1,3.366,1.323,5.076,5.076,0,0,1,1.23,3.6v.105a4.925,4.925,0,0,1-1.235,3.529A4.384,4.384,0,0,1,22.8.176a4.434,4.434,0,0,1-3.261-1.217,4.761,4.761,0,0,1-1.327-3.3Zm2.962.185a3.538,3.538,0,0,0,.413,1.934,1.376,1.376,0,0,0,1.222.615q1.582,0,1.617-2.435v-.3q0-2.558-1.635-2.558-1.485,0-1.608,2.206ZM34.436-6.829,33.46-6.9a1.752,1.752,0,0,0-1.793.879V0H28.705V-9.51h2.777l.1,1.222a2.294,2.294,0,0,1,2.083-1.4,2.888,2.888,0,0,1,.826.105Z" transform="translate(3833.539 -6684)" fill="#fff"/>
    <path id="Path_206288" data-name="Path 206288" d="M10,0H242a10,10,0,0,1,10,10V46a10,10,0,0,1-10,10H10A10,10,0,0,1,0,46V10A10,10,0,0,1,10,0Z" transform="translate(3712.539 -6775)" fill="#bddcf6"/>
    <path id="Path_206289" data-name="Path 206289" d="M-83.25,0h-2.988l.923-5.344H-89.7L-90.633,0h-3.006l2.215-12.8h3.015l-.888,5.08H-84.9l.879-5.08h3Zm7.383-9.686a3.994,3.994,0,0,1,2.206.637,3.59,3.59,0,0,1,1.367,1.727,5.33,5.33,0,0,1,.312,2.461L-72-4.667a5.636,5.636,0,0,1-1.626,3.533,4.575,4.575,0,0,1-3.41,1.31,3.977,3.977,0,0,1-2.188-.628,3.612,3.612,0,0,1-1.367-1.709,5.179,5.179,0,0,1-.321-2.443,5.863,5.863,0,0,1,1.6-3.727A4.547,4.547,0,0,1-75.867-9.686ZM-78.021-4.6l-.026.518q-.123,1.957,1.2,1.992,1.705.053,1.978-2.764l.035-.8a2.155,2.155,0,0,0-.294-1.259,1.073,1.073,0,0,0-.918-.487,1.512,1.512,0,0,0-1.314.654A4.278,4.278,0,0,0-78.021-4.6Zm11.865,1.877q.114-.58-.9-.87l-.624-.158a4.806,4.806,0,0,1-2.241-1.134,2.244,2.244,0,0,1-.668-1.731,2.758,2.758,0,0,1,1.217-2.228,4.633,4.633,0,0,1,2.861-.839,4.292,4.292,0,0,1,2.72.853,2.781,2.781,0,0,1,1.059,2.25l-2.883-.009q.035-1.125-.993-1.125a1.417,1.417,0,0,0-.817.259,1.007,1.007,0,0,0-.448.69q-.149.712,1.257.976a7.3,7.3,0,0,1,1.89.672,2.821,2.821,0,0,1,1.02.945,2.35,2.35,0,0,1,.325,1.354,2.541,2.541,0,0,1-.562,1.538A3.642,3.642,0,0,1-65.492-.2a5.557,5.557,0,0,1-2.2.378A4.469,4.469,0,0,1-69.6-.255,3.408,3.408,0,0,1-70.985-1.4,2.979,2.979,0,0,1-71.5-3.067l2.689.018A1.111,1.111,0,0,0-67.544-1.8a1.661,1.661,0,0,0,.914-.242A1.045,1.045,0,0,0-66.155-2.725Zm9.1-9.149-.413,2.364h1.521l-.36,2.057h-1.521l-.738,4.368a1.164,1.164,0,0,0,.057.677q.119.229.593.246a6.873,6.873,0,0,0,.756-.044l-.211,2.145a4.673,4.673,0,0,1-1.556.22,2.563,2.563,0,0,1-2.013-.791,2.7,2.7,0,0,1-.545-2.1l.773-4.72h-1.178l.352-2.057h1.178l.413-2.364Zm11.065,9.2a.684.684,0,0,0-.4-.606,6.016,6.016,0,0,0-1.5-.475A6.853,6.853,0,0,1-49.72-4.4a3.062,3.062,0,0,1-1.1-.971A2.319,2.319,0,0,1-51.2-6.68a2.628,2.628,0,0,1,1.081-2.158,4.453,4.453,0,0,1,2.83-.848,4.934,4.934,0,0,1,3.023.853,2.666,2.666,0,0,1,1.143,2.241H-46.09q0-1.143-1.2-1.143a1.194,1.194,0,0,0-.782.259.8.8,0,0,0-.316.646.737.737,0,0,0,.387.642,3.654,3.654,0,0,0,1.235.4,10.671,10.671,0,0,1,1.49.378A2.706,2.706,0,0,1-43.137-2.76,2.491,2.491,0,0,1-44.292-.642a5.068,5.068,0,0,1-2.993.817,5.172,5.172,0,0,1-2.18-.439,3.645,3.645,0,0,1-1.494-1.2A2.707,2.707,0,0,1-51.5-3.05h2.769a1.145,1.145,0,0,0,.439.962,1.808,1.808,0,0,0,1.081.3,1.422,1.422,0,0,0,.91-.246A.787.787,0,0,0-45.993-2.672ZM-38.628,0H-41.6V-9.51h2.971Zm-3.146-11.962A1.322,1.322,0,0,1-41.317-13a1.724,1.724,0,0,1,1.187-.4,1.724,1.724,0,0,1,1.187.4,1.322,1.322,0,0,1,.457,1.037,1.322,1.322,0,0,1-.457,1.037,1.724,1.724,0,0,1-1.187.4,1.724,1.724,0,0,1-1.187-.4A1.322,1.322,0,0,1-41.774-11.962Zm9.949,9.29a.684.684,0,0,0-.4-.606,6.016,6.016,0,0,0-1.5-.475A6.853,6.853,0,0,1-35.552-4.4a3.062,3.062,0,0,1-1.1-.971,2.319,2.319,0,0,1-.378-1.31,2.628,2.628,0,0,1,1.081-2.158,4.453,4.453,0,0,1,2.83-.848,4.934,4.934,0,0,1,3.023.853,2.666,2.666,0,0,1,1.143,2.241h-2.971q0-1.143-1.2-1.143a1.194,1.194,0,0,0-.782.259.8.8,0,0,0-.316.646.737.737,0,0,0,.387.642,3.654,3.654,0,0,0,1.235.4,10.671,10.671,0,0,1,1.49.378A2.706,2.706,0,0,1-28.969-2.76,2.491,2.491,0,0,1-30.125-.642a5.068,5.068,0,0,1-2.993.817A5.172,5.172,0,0,1-35.3-.264a3.645,3.645,0,0,1-1.494-1.2,2.707,2.707,0,0,1-.536-1.591h2.769a1.145,1.145,0,0,0,.439.962,1.808,1.808,0,0,0,1.081.3,1.422,1.422,0,0,0,.91-.246A.787.787,0,0,0-31.825-2.672Zm7.69-9.2V-9.51h1.564v2.057h-1.564V-3.1a1.111,1.111,0,0,0,.193.747,1.037,1.037,0,0,0,.765.211,4.345,4.345,0,0,0,.738-.053V-.079a5.466,5.466,0,0,1-1.67.255,3.1,3.1,0,0,1-2.259-.721A2.954,2.954,0,0,1-27.1-2.733v-4.72H-28.31V-9.51H-27.1v-2.364ZM-16.8.176a4.889,4.889,0,0,1-3.542-1.305,4.507,4.507,0,0,1-1.354-3.4v-.246a5.84,5.84,0,0,1,.541-2.575,3.955,3.955,0,0,1,1.578-1.727,4.763,4.763,0,0,1,2.461-.611,4.117,4.117,0,0,1,3.164,1.244A4.887,4.887,0,0,1-12.8-4.975v1.151h-5.889a2.135,2.135,0,0,0,.694,1.257,2.066,2.066,0,0,0,1.389.457,2.662,2.662,0,0,0,2.2-.984l1.354,1.6A3.784,3.784,0,0,1-14.621-.277,5.3,5.3,0,0,1-16.8.176ZM-17.139-7.4q-1.3,0-1.547,1.723H-15.7v-.229a1.467,1.467,0,0,0-.36-1.1A1.434,1.434,0,0,0-17.139-7.4ZM-8.807-9.51l.1,1.116A3.27,3.27,0,0,1-5.994-9.686,2.407,2.407,0,0,1-3.56-8.253,3.165,3.165,0,0,1-.765-9.686q2.892,0,2.971,3.5V0H-.765V-6a1.813,1.813,0,0,0-.246-1.063,1.048,1.048,0,0,0-.9-.334,1.4,1.4,0,0,0-1.31.782l.009.123V0H-6.179V-5.985a1.906,1.906,0,0,0-.237-1.081A1.045,1.045,0,0,0-7.321-7.4a1.42,1.42,0,0,0-1.3.782V0h-2.962V-9.51ZM9.255,0a3.344,3.344,0,0,1-.281-.853A2.754,2.754,0,0,1,6.688.176,3.374,3.374,0,0,1,4.4-.637a2.588,2.588,0,0,1-.94-2.043A2.66,2.66,0,0,1,4.605-5.019,5.821,5.821,0,0,1,7.928-5.81h.914v-.5q0-1.316-1.134-1.316A.927.927,0,0,0,6.653-6.587H3.691A2.655,2.655,0,0,1,4.865-8.825a4.931,4.931,0,0,1,2.993-.86,4.323,4.323,0,0,1,2.874.888,3.086,3.086,0,0,1,1.081,2.435v4.21a4.311,4.311,0,0,0,.4,2V0ZM7.4-1.934a1.652,1.652,0,0,0,.918-.237,1.487,1.487,0,0,0,.523-.536V-4.228H7.98q-1.547,0-1.547,1.389a.848.848,0,0,0,.272.655A.986.986,0,0,0,7.4-1.934Zm10.16-2.909a5.613,5.613,0,0,1,.554-2.536,3.96,3.96,0,0,1,1.591-1.709,4.791,4.791,0,0,1,2.435-.6,4.373,4.373,0,0,1,3.366,1.323,5.076,5.076,0,0,1,1.23,3.6v.105A4.925,4.925,0,0,1,25.5-1.129,4.384,4.384,0,0,1,22.157.176,4.434,4.434,0,0,1,18.9-1.042a4.761,4.761,0,0,1-1.327-3.3Zm2.962.185a3.538,3.538,0,0,0,.413,1.934,1.376,1.376,0,0,0,1.222.615q1.582,0,1.617-2.435v-.3q0-2.558-1.635-2.558-1.485,0-1.608,2.206ZM36.87-4.685a5.735,5.735,0,0,1-1,3.538A3.2,3.2,0,0,1,33.179.176a2.742,2.742,0,0,1-2.153-.958V3.656H28.063V-9.51h2.769l.088.879a2.742,2.742,0,0,1,2.241-1.055,3.224,3.224,0,0,1,2.733,1.3,5.805,5.805,0,0,1,.976,3.564Zm-2.962-.185q0-2.531-1.477-2.531a1.394,1.394,0,0,0-1.406.756V-2.9a1.439,1.439,0,0,0,1.424.791q1.415,0,1.459-2.443ZM42.776.176a4.889,4.889,0,0,1-3.542-1.305,4.507,4.507,0,0,1-1.354-3.4v-.246a5.84,5.84,0,0,1,.541-2.575A3.955,3.955,0,0,1,40-9.075a4.763,4.763,0,0,1,2.461-.611,4.117,4.117,0,0,1,3.164,1.244,4.887,4.887,0,0,1,1.16,3.467v1.151H40.9a2.135,2.135,0,0,0,.694,1.257,2.066,2.066,0,0,0,1.389.457,2.662,2.662,0,0,0,2.2-.984l1.354,1.6A3.784,3.784,0,0,1,44.96-.277,5.3,5.3,0,0,1,42.776.176ZM42.442-7.4q-1.3,0-1.547,1.723h2.988v-.229a1.467,1.467,0,0,0-.36-1.1A1.434,1.434,0,0,0,42.442-7.4Zm11.285.571-.976-.07a1.752,1.752,0,0,0-1.793.879V0H48V-9.51h2.777l.1,1.222a2.294,2.294,0,0,1,2.083-1.4,2.888,2.888,0,0,1,.826.105ZM59.889,0a3.344,3.344,0,0,1-.281-.853A2.754,2.754,0,0,1,57.322.176a3.374,3.374,0,0,1-2.285-.813,2.588,2.588,0,0,1-.94-2.043,2.66,2.66,0,0,1,1.143-2.338,5.821,5.821,0,0,1,3.322-.791h.914v-.5q0-1.316-1.134-1.316a.927.927,0,0,0-1.055,1.042H54.325A2.655,2.655,0,0,1,55.5-8.825a4.931,4.931,0,0,1,2.993-.86,4.323,4.323,0,0,1,2.874.888,3.086,3.086,0,0,1,1.081,2.435v4.21a4.311,4.311,0,0,0,.4,2V0ZM58.034-1.934a1.652,1.652,0,0,0,.918-.237,1.487,1.487,0,0,0,.523-.536V-4.228h-.861q-1.547,0-1.547,1.389a.848.848,0,0,0,.272.655A.986.986,0,0,0,58.034-1.934Zm9.5-9.94V-9.51H69.1v2.057H67.535V-3.1a1.111,1.111,0,0,0,.193.747,1.037,1.037,0,0,0,.765.211,4.345,4.345,0,0,0,.738-.053V-.079a5.466,5.466,0,0,1-1.67.255A3.1,3.1,0,0,1,65.3-.545a2.954,2.954,0,0,1-.729-2.188v-4.72H63.36V-9.51h1.213v-2.364ZM73.389,0H70.418V-9.51h2.971ZM70.242-11.962A1.322,1.322,0,0,1,70.7-13a1.724,1.724,0,0,1,1.187-.4,1.724,1.724,0,0,1,1.187.4,1.322,1.322,0,0,1,.457,1.037,1.322,1.322,0,0,1-.457,1.037,1.724,1.724,0,0,1-1.187.4,1.724,1.724,0,0,1-1.187-.4A1.322,1.322,0,0,1,70.242-11.962ZM79-3.524l1.5-5.985h3.12L80.525,0H77.5L74.4-9.51h3.129Zm5-1.318a5.613,5.613,0,0,1,.554-2.536A3.96,3.96,0,0,1,86.15-9.088a4.791,4.791,0,0,1,2.435-.6,4.373,4.373,0,0,1,3.366,1.323,5.076,5.076,0,0,1,1.23,3.6v.105a4.925,4.925,0,0,1-1.235,3.529A4.384,4.384,0,0,1,88.6.176a4.434,4.434,0,0,1-3.261-1.217,4.761,4.761,0,0,1-1.327-3.3Zm2.962.185a3.538,3.538,0,0,0,.413,1.934,1.376,1.376,0,0,0,1.222.615q1.582,0,1.617-2.435v-.3q0-2.558-1.635-2.558-1.485,0-1.608,2.206Z" transform="translate(3833.539 -6740)" fill="#12263f"/>
    <path id="Path_206290" data-name="Path 206290" d="M10,0H242a10,10,0,0,1,10,10V46a10,10,0,0,1-10,10H10A10,10,0,0,1,0,46V10A10,10,0,0,1,10,0Z" transform="translate(3712.539 -6831)" fill="#feca2e"/>
    <path id="Path_206291" data-name="Path 206291" d="M-28.077,0l2.215-12.8,3.762.009a4.9,4.9,0,0,1,2.9.875,4.7,4.7,0,0,1,1.758,2.386,6.536,6.536,0,0,1,.272,2.865l-.062.536a7.561,7.561,0,0,1-1.143,3.12A6.545,6.545,0,0,1-20.7-.813,6.347,6.347,0,0,1-23.779,0Zm4.816-10.424-1.4,8.042.879.009a3,3,0,0,0,2.483-1.2,6.7,6.7,0,0,0,1.112-3.656l.018-.29a3.492,3.492,0,0,0-.439-2.136,1.784,1.784,0,0,0-1.5-.765Zm11.971.738a3.994,3.994,0,0,1,2.206.637A3.59,3.59,0,0,1-7.717-7.321,5.33,5.33,0,0,1-7.4-4.86l-.018.193A5.636,5.636,0,0,1-9.048-1.134a4.575,4.575,0,0,1-3.41,1.31,3.977,3.977,0,0,1-2.188-.628,3.612,3.612,0,0,1-1.367-1.709,5.179,5.179,0,0,1-.321-2.443,5.863,5.863,0,0,1,1.6-3.727A4.547,4.547,0,0,1-11.29-9.686ZM-13.443-4.6l-.026.518q-.123,1.957,1.2,1.992,1.705.053,1.978-2.764l.035-.8a2.155,2.155,0,0,0-.294-1.259,1.073,1.073,0,0,0-.918-.487,1.512,1.512,0,0,0-1.314.654A4.278,4.278,0,0,0-13.443-4.6ZM-2.536-2.109a1.244,1.244,0,0,0,.976-.345,1.717,1.717,0,0,0,.448-.938L1.6-3.4a3.559,3.559,0,0,1-.62,1.872A3.745,3.745,0,0,1-.554-.25,4.521,4.521,0,0,1-2.615.176,3.57,3.57,0,0,1-5.542-1.191a4.726,4.726,0,0,1-.835-3.441l.026-.211A6.371,6.371,0,0,1-5.542-7.4,4.626,4.626,0,0,1-3.832-9.114a4.433,4.433,0,0,1,2.369-.571A3.536,3.536,0,0,1,1.16-8.626a3.755,3.755,0,0,1,.927,2.764L-.62-5.871Q-.576-7.374-1.7-7.4-3.23-7.453-3.458-4.834l-.079.893-.009.333Q-3.546-2.136-2.536-2.109Zm9.167-1.4-1.055.914L5.128,0H2.237L4.583-13.509H7.475L6.139-6.3l.352-.422L9.119-9.51h3.665L8.741-5.467,11.193,0H8.02ZM16.4.176a4.421,4.421,0,0,1-2.272-.6,3.793,3.793,0,0,1-1.507-1.652,4.44,4.44,0,0,1-.4-2.333l.026-.246a5.829,5.829,0,0,1,1.63-3.713,4.51,4.51,0,0,1,3.415-1.314,3.678,3.678,0,0,1,2.092.621A3.468,3.468,0,0,1,20.659-7.4a5.1,5.1,0,0,1,.264,2.381l-.167,1.206H15.1A1.854,1.854,0,0,0,15.517-2.6a1.549,1.549,0,0,0,1.178.492,2.993,2.993,0,0,0,2.259-.967l1.213,1.6a3.578,3.578,0,0,1-1.5,1.2,5.263,5.263,0,0,1-2.1.451Zm.7-7.576a1.487,1.487,0,0,0-1.068.385,3.229,3.229,0,0,0-.787,1.347h2.892l.053-.254a1.929,1.929,0,0,0,.018-.577A1.017,1.017,0,0,0,17.108-7.4Zm11.03.571a8.273,8.273,0,0,0-.9-.088,2.233,2.233,0,0,0-1.986.9L24.183,0H21.292l1.652-9.51,2.7-.009-.22,1.248a2.64,2.64,0,0,1,2.2-1.441,4.144,4.144,0,0,1,.9.123Z" transform="translate(3833.539 -6796)" fill="#12263f"/>
    <path id="Path_206292" data-name="Path 206292" d="M10,0H61A10,10,0,0,1,71,10V48A10,10,0,0,1,61,58H10A10,10,0,0,1,0,48V10A10,10,0,0,1,10,0Z" transform="translate(3712.539 -6889)" fill="#4dd0e1"/>
    <path id="Path_206293" data-name="Path 206293" d="M-15.715-.69h3.032V0h-3.88V-6.4h.848Zm4.75.69h-.813V-4.755h.813Zm-.879-6.016a.485.485,0,0,1,.121-.334.454.454,0,0,1,.358-.136A.461.461,0,0,1-11-6.35a.48.48,0,0,1,.123.334.464.464,0,0,1-.123.33.469.469,0,0,1-.36.132.462.462,0,0,1-.358-.132A.469.469,0,0,1-11.843-6.016Zm6.205,3.691a2.827,2.827,0,0,1-.5,1.751A1.6,1.6,0,0,1-7.484.088,1.658,1.658,0,0,1-8.877-.549L-8.917,0h-.747V-6.75h.813v2.518a1.648,1.648,0,0,1,1.358-.611,1.61,1.61,0,0,1,1.36.655A2.912,2.912,0,0,1-5.638-2.4Zm-.813-.092A2.2,2.2,0,0,0-6.772-3.7a1.062,1.062,0,0,0-.923-.453,1.194,1.194,0,0,0-1.156.747v2.057A1.227,1.227,0,0,0-7.686-.6a1.056,1.056,0,0,0,.91-.453A2.336,2.336,0,0,0-6.451-2.417Zm4.135-1.608a2.436,2.436,0,0,0-.4-.031A1.071,1.071,0,0,0-3.8-3.375V0h-.813V-4.755h.791l.013.549a1.266,1.266,0,0,1,1.134-.637.831.831,0,0,1,.36.062ZM.321.088A2.078,2.078,0,0,1-1.252-.547a2.357,2.357,0,0,1-.606-1.7V-2.4a2.853,2.853,0,0,1,.27-1.263,2.108,2.108,0,0,1,.756-.87A1.9,1.9,0,0,1,.22-4.843a1.781,1.781,0,0,1,1.441.611,2.645,2.645,0,0,1,.514,1.749v.338H-1.046A1.69,1.69,0,0,0-.635-1.009a1.292,1.292,0,0,0,1,.433,1.416,1.416,0,0,0,.729-.176,1.833,1.833,0,0,0,.523-.466l.5.387A2,2,0,0,1,.321.088ZM.22-4.175a1.084,1.084,0,0,0-.826.358,1.741,1.741,0,0,0-.413,1H1.362v-.062a1.548,1.548,0,0,0-.334-.96A1.021,1.021,0,0,0,.22-4.175Zm5.194.149a2.436,2.436,0,0,0-.4-.031,1.071,1.071,0,0,0-1.085.681V0H3.116V-4.755h.791l.013.549a1.266,1.266,0,0,1,1.134-.637.831.831,0,0,1,.36.062ZM7.044,0H6.227V-4.755h.817Zm.009-6.746h.984L6.86-5.454l-.655,0ZM11.32,0a1.708,1.708,0,0,1-.114-.5A1.814,1.814,0,0,1,9.853.088,1.678,1.678,0,0,1,8.7-.31a1.287,1.287,0,0,1-.45-1.009,1.344,1.344,0,0,1,.565-1.154A2.662,2.662,0,0,1,10.4-2.883h.791v-.374a.913.913,0,0,0-.255-.679,1.024,1.024,0,0,0-.751-.253,1.185,1.185,0,0,0-.729.22.647.647,0,0,0-.294.532H8.345A1.122,1.122,0,0,1,8.6-4.124a1.725,1.725,0,0,1,.686-.525,2.306,2.306,0,0,1,.951-.193,1.88,1.88,0,0,1,1.288.411A1.482,1.482,0,0,1,12.006-3.3v2.188A2.676,2.676,0,0,0,12.173-.07V0ZM9.971-.62a1.429,1.429,0,0,0,.725-.2,1.2,1.2,0,0,0,.5-.514v-.976h-.637q-1.494,0-1.494.875a.74.74,0,0,0,.255.6A.98.98,0,0,0,9.971-.62Zm6.078-.642a.6.6,0,0,0-.248-.512,2.39,2.39,0,0,0-.866-.314,4.093,4.093,0,0,1-.98-.316,1.394,1.394,0,0,1-.536-.439,1.051,1.051,0,0,1-.174-.606,1.233,1.233,0,0,1,.494-.989A1.931,1.931,0,0,1,15-4.843a1.987,1.987,0,0,1,1.312.417,1.326,1.326,0,0,1,.5,1.068H16a.734.734,0,0,0-.283-.576A1.062,1.062,0,0,0,15-4.175a1.111,1.111,0,0,0-.694.193.609.609,0,0,0-.25.505.493.493,0,0,0,.233.444,2.866,2.866,0,0,0,.842.286,4.385,4.385,0,0,1,.987.325,1.439,1.439,0,0,1,.56.455,1.118,1.118,0,0,1,.182.648A1.217,1.217,0,0,1,16.352-.3a2.138,2.138,0,0,1-1.323.385,2.394,2.394,0,0,1-1.011-.2,1.644,1.644,0,0,1-.688-.565,1.361,1.361,0,0,1-.248-.784H13.9a.842.842,0,0,0,.327.648,1.27,1.27,0,0,0,.806.24,1.311,1.311,0,0,0,.74-.187A.574.574,0,0,0,16.049-1.261ZM-27.516,6.583A2.785,2.785,0,0,1-27,4.823a1.64,1.64,0,0,1,1.358-.666,1.649,1.649,0,0,1,1.323.571V2.25h.813V9h-.747l-.04-.51a1.656,1.656,0,0,1-1.358.6A1.624,1.624,0,0,1-27,8.411a2.817,2.817,0,0,1-.521-1.767Zm.813.092a2.109,2.109,0,0,0,.334,1.266,1.08,1.08,0,0,0,.923.457A1.186,1.186,0,0,0-24.317,7.7V5.52a1.2,1.2,0,0,0-1.121-.672,1.085,1.085,0,0,0-.932.461A2.322,2.322,0,0,0-26.7,6.675Zm6.434,2.413a2.078,2.078,0,0,1-1.573-.635,2.357,2.357,0,0,1-.606-1.7V6.6a2.853,2.853,0,0,1,.27-1.263,2.108,2.108,0,0,1,.756-.87,1.9,1.9,0,0,1,1.052-.314,1.781,1.781,0,0,1,1.441.611,2.645,2.645,0,0,1,.514,1.749v.338h-3.221a1.69,1.69,0,0,0,.411,1.136,1.292,1.292,0,0,0,1,.433,1.416,1.416,0,0,0,.729-.176,1.833,1.833,0,0,0,.523-.466l.5.387A2,2,0,0,1-20.27,9.088Zm-.1-4.263a1.084,1.084,0,0,0-.826.358,1.741,1.741,0,0,0-.413,1h2.382V6.126a1.548,1.548,0,0,0-.334-.96A1.021,1.021,0,0,0-20.371,4.825Zm6.913,1.85a2.847,2.847,0,0,1-.5,1.749,1.592,1.592,0,0,1-1.345.664,1.744,1.744,0,0,1-1.362-.549v2.29h-.813V4.245h.743l.04.527a1.675,1.675,0,0,1,1.38-.615,1.621,1.621,0,0,1,1.356.646,2.878,2.878,0,0,1,.5,1.8Zm-.813-.092a2.1,2.1,0,0,0-.343-1.27,1.1,1.1,0,0,0-.94-.466,1.2,1.2,0,0,0-1.107.655V7.774a1.2,1.2,0,0,0,1.116.65,1.1,1.1,0,0,0,.929-.464A2.293,2.293,0,0,0-14.271,6.583Zm3.819,2.5a2.078,2.078,0,0,1-1.573-.635,2.357,2.357,0,0,1-.606-1.7V6.6a2.853,2.853,0,0,1,.27-1.263,2.108,2.108,0,0,1,.756-.87,1.9,1.9,0,0,1,1.052-.314,1.781,1.781,0,0,1,1.441.611A2.645,2.645,0,0,1-8.6,6.517v.338h-3.221a1.69,1.69,0,0,0,.411,1.136,1.292,1.292,0,0,0,1,.433,1.416,1.416,0,0,0,.729-.176,1.833,1.833,0,0,0,.523-.466l.5.387A2,2,0,0,1-10.452,9.088Zm-.1-4.263a1.084,1.084,0,0,0-.826.358,1.741,1.741,0,0,0-.413,1h2.382V6.126a1.548,1.548,0,0,0-.334-.96A1.021,1.021,0,0,0-10.553,4.825Zm3.665-.58.026.6a1.733,1.733,0,0,1,1.424-.686q1.507,0,1.521,1.7V9h-.813V5.854a1.1,1.1,0,0,0-.235-.76.942.942,0,0,0-.719-.246,1.173,1.173,0,0,0-.694.211,1.432,1.432,0,0,0-.466.554V9h-.813V4.245Zm4,2.338a2.785,2.785,0,0,1,.519-1.76,1.64,1.64,0,0,1,1.358-.666A1.649,1.649,0,0,1,.31,4.729V2.25h.813V9H.376l-.04-.51a1.656,1.656,0,0,1-1.358.6,1.624,1.624,0,0,1-1.347-.677,2.817,2.817,0,0,1-.521-1.767Zm.813.092a2.109,2.109,0,0,0,.334,1.266A1.08,1.08,0,0,0-.82,8.4,1.186,1.186,0,0,0,.31,7.7V5.52A1.2,1.2,0,0,0-.811,4.847a1.085,1.085,0,0,0-.932.461A2.322,2.322,0,0,0-2.076,6.675ZM4.357,9.088a2.078,2.078,0,0,1-1.573-.635,2.357,2.357,0,0,1-.606-1.7V6.6a2.853,2.853,0,0,1,.27-1.263,2.108,2.108,0,0,1,.756-.87,1.9,1.9,0,0,1,1.052-.314A1.781,1.781,0,0,1,5.7,4.768a2.645,2.645,0,0,1,.514,1.749v.338H2.99A1.69,1.69,0,0,0,3.4,7.991a1.292,1.292,0,0,0,1,.433,1.416,1.416,0,0,0,.729-.176,1.833,1.833,0,0,0,.523-.466l.5.387A2,2,0,0,1,4.357,9.088Zm-.1-4.263a1.084,1.084,0,0,0-.826.358,1.741,1.741,0,0,0-.413,1H5.4V6.126a1.548,1.548,0,0,0-.334-.96A1.021,1.021,0,0,0,4.256,4.825Zm3.665-.58.026.6a1.733,1.733,0,0,1,1.424-.686q1.507,0,1.521,1.7V9h-.813V5.854a1.1,1.1,0,0,0-.235-.76.942.942,0,0,0-.719-.246,1.173,1.173,0,0,0-.694.211,1.432,1.432,0,0,0-.466.554V9H7.152V4.245Zm6.1,4.179a1.171,1.171,0,0,0,.76-.264.928.928,0,0,0,.36-.659h.769a1.474,1.474,0,0,1-.281.778,1.852,1.852,0,0,1-.692.589,2,2,0,0,1-.916.22A1.959,1.959,0,0,1,12.48,8.44a2.582,2.582,0,0,1-.573-1.773V6.53A2.863,2.863,0,0,1,12.162,5.3a1.941,1.941,0,0,1,.732-.839,2.078,2.078,0,0,1,1.127-.3,1.907,1.907,0,0,1,1.329.479,1.712,1.712,0,0,1,.565,1.244h-.769a1.12,1.12,0,0,0-.349-.758,1.087,1.087,0,0,0-.776-.3,1.138,1.138,0,0,0-.96.446,2.1,2.1,0,0,0-.341,1.29v.154a2.053,2.053,0,0,0,.338,1.266A1.143,1.143,0,0,0,14.025,8.424ZM17.712,9H16.9V4.245h.813Zm-.879-6.016a.485.485,0,0,1,.121-.334.454.454,0,0,1,.358-.136.461.461,0,0,1,.36.136.48.48,0,0,1,.123.334.464.464,0,0,1-.123.33.469.469,0,0,1-.36.132.462.462,0,0,1-.358-.132A.469.469,0,0,1,16.833,2.984ZM21.948,9a1.708,1.708,0,0,1-.114-.5,1.814,1.814,0,0,1-1.354.589,1.678,1.678,0,0,1-1.154-.4,1.287,1.287,0,0,1-.45-1.009,1.344,1.344,0,0,1,.565-1.154,2.662,2.662,0,0,1,1.589-.411h.791V5.744a.913.913,0,0,0-.255-.679,1.024,1.024,0,0,0-.751-.253,1.185,1.185,0,0,0-.729.22.647.647,0,0,0-.294.532h-.817a1.122,1.122,0,0,1,.253-.688,1.725,1.725,0,0,1,.686-.525,2.306,2.306,0,0,1,.951-.193,1.88,1.88,0,0,1,1.288.411A1.482,1.482,0,0,1,22.634,5.7V7.888A2.676,2.676,0,0,0,22.8,8.93V9ZM20.6,8.38a1.429,1.429,0,0,0,.725-.2,1.2,1.2,0,0,0,.5-.514V6.693h-.637q-1.494,0-1.494.875a.74.74,0,0,0,.255.6A.98.98,0,0,0,20.6,8.38Zm6.078-.642a.6.6,0,0,0-.248-.512,2.39,2.39,0,0,0-.866-.314,4.093,4.093,0,0,1-.98-.316,1.394,1.394,0,0,1-.536-.439,1.051,1.051,0,0,1-.174-.606,1.233,1.233,0,0,1,.494-.989,1.931,1.931,0,0,1,1.263-.4,1.987,1.987,0,0,1,1.312.417,1.326,1.326,0,0,1,.5,1.068h-.817a.734.734,0,0,0-.283-.576,1.062,1.062,0,0,0-.714-.242,1.111,1.111,0,0,0-.694.193.609.609,0,0,0-.25.505.493.493,0,0,0,.233.444,2.866,2.866,0,0,0,.842.286,4.385,4.385,0,0,1,.987.325,1.439,1.439,0,0,1,.56.455,1.118,1.118,0,0,1,.182.648A1.217,1.217,0,0,1,26.98,8.7a2.138,2.138,0,0,1-1.323.385,2.394,2.394,0,0,1-1.011-.2,1.644,1.644,0,0,1-.688-.565,1.361,1.361,0,0,1-.248-.784h.813a.842.842,0,0,0,.327.648,1.27,1.27,0,0,0,.806.24,1.311,1.311,0,0,0,.74-.187A.574.574,0,0,0,26.677,7.739Z" transform="translate(3748.539 -6861)" fill="#12263f"/>
    <path id="Path_206294" data-name="Path 206294" d="M10,0H61A10,10,0,0,1,71,10V48A10,10,0,0,1,61,58H10A10,10,0,0,1,0,48V10A10,10,0,0,1,10,0Z" transform="translate(3893.539 -6889)" fill="#4dd0e1"/>
    <path id="Path_206295" data-name="Path 206295" d="M-15.715-.69h3.032V0h-3.88V-6.4h.848Zm4.75.69h-.813V-4.755h.813Zm-.879-6.016a.485.485,0,0,1,.121-.334.454.454,0,0,1,.358-.136A.461.461,0,0,1-11-6.35a.48.48,0,0,1,.123.334.464.464,0,0,1-.123.33.469.469,0,0,1-.36.132.462.462,0,0,1-.358-.132A.469.469,0,0,1-11.843-6.016Zm6.205,3.691a2.827,2.827,0,0,1-.5,1.751A1.6,1.6,0,0,1-7.484.088,1.658,1.658,0,0,1-8.877-.549L-8.917,0h-.747V-6.75h.813v2.518a1.648,1.648,0,0,1,1.358-.611,1.61,1.61,0,0,1,1.36.655A2.912,2.912,0,0,1-5.638-2.4Zm-.813-.092A2.2,2.2,0,0,0-6.772-3.7a1.062,1.062,0,0,0-.923-.453,1.194,1.194,0,0,0-1.156.747v2.057A1.227,1.227,0,0,0-7.686-.6a1.056,1.056,0,0,0,.91-.453A2.336,2.336,0,0,0-6.451-2.417Zm4.135-1.608a2.436,2.436,0,0,0-.4-.031A1.071,1.071,0,0,0-3.8-3.375V0h-.813V-4.755h.791l.013.549a1.266,1.266,0,0,1,1.134-.637.831.831,0,0,1,.36.062ZM.321.088A2.078,2.078,0,0,1-1.252-.547a2.357,2.357,0,0,1-.606-1.7V-2.4a2.853,2.853,0,0,1,.27-1.263,2.108,2.108,0,0,1,.756-.87A1.9,1.9,0,0,1,.22-4.843a1.781,1.781,0,0,1,1.441.611,2.645,2.645,0,0,1,.514,1.749v.338H-1.046A1.69,1.69,0,0,0-.635-1.009a1.292,1.292,0,0,0,1,.433,1.416,1.416,0,0,0,.729-.176,1.833,1.833,0,0,0,.523-.466l.5.387A2,2,0,0,1,.321.088ZM.22-4.175a1.084,1.084,0,0,0-.826.358,1.741,1.741,0,0,0-.413,1H1.362v-.062a1.548,1.548,0,0,0-.334-.96A1.021,1.021,0,0,0,.22-4.175Zm5.194.149a2.436,2.436,0,0,0-.4-.031,1.071,1.071,0,0,0-1.085.681V0H3.116V-4.755h.791l.013.549a1.266,1.266,0,0,1,1.134-.637.831.831,0,0,1,.36.062ZM7.044,0H6.227V-4.755h.817Zm.009-6.746h.984L6.86-5.454l-.655,0ZM11.32,0a1.708,1.708,0,0,1-.114-.5A1.814,1.814,0,0,1,9.853.088,1.678,1.678,0,0,1,8.7-.31a1.287,1.287,0,0,1-.45-1.009,1.344,1.344,0,0,1,.565-1.154A2.662,2.662,0,0,1,10.4-2.883h.791v-.374a.913.913,0,0,0-.255-.679,1.024,1.024,0,0,0-.751-.253,1.185,1.185,0,0,0-.729.22.647.647,0,0,0-.294.532H8.345A1.122,1.122,0,0,1,8.6-4.124a1.725,1.725,0,0,1,.686-.525,2.306,2.306,0,0,1,.951-.193,1.88,1.88,0,0,1,1.288.411A1.482,1.482,0,0,1,12.006-3.3v2.188A2.676,2.676,0,0,0,12.173-.07V0ZM9.971-.62a1.429,1.429,0,0,0,.725-.2,1.2,1.2,0,0,0,.5-.514v-.976h-.637q-1.494,0-1.494.875a.74.74,0,0,0,.255.6A.98.98,0,0,0,9.971-.62Zm6.078-.642a.6.6,0,0,0-.248-.512,2.39,2.39,0,0,0-.866-.314,4.093,4.093,0,0,1-.98-.316,1.394,1.394,0,0,1-.536-.439,1.051,1.051,0,0,1-.174-.606,1.233,1.233,0,0,1,.494-.989A1.931,1.931,0,0,1,15-4.843a1.987,1.987,0,0,1,1.312.417,1.326,1.326,0,0,1,.5,1.068H16a.734.734,0,0,0-.283-.576A1.062,1.062,0,0,0,15-4.175a1.111,1.111,0,0,0-.694.193.609.609,0,0,0-.25.505.493.493,0,0,0,.233.444,2.866,2.866,0,0,0,.842.286,4.385,4.385,0,0,1,.987.325,1.439,1.439,0,0,1,.56.455,1.118,1.118,0,0,1,.182.648A1.217,1.217,0,0,1,16.352-.3a2.138,2.138,0,0,1-1.323.385,2.394,2.394,0,0,1-1.011-.2,1.644,1.644,0,0,1-.688-.565,1.361,1.361,0,0,1-.248-.784H13.9a.842.842,0,0,0,.327.648,1.27,1.27,0,0,0,.806.24,1.311,1.311,0,0,0,.74-.187A.574.574,0,0,0,16.049-1.261ZM-27.516,6.583A2.785,2.785,0,0,1-27,4.823a1.64,1.64,0,0,1,1.358-.666,1.649,1.649,0,0,1,1.323.571V2.25h.813V9h-.747l-.04-.51a1.656,1.656,0,0,1-1.358.6A1.624,1.624,0,0,1-27,8.411a2.817,2.817,0,0,1-.521-1.767Zm.813.092a2.109,2.109,0,0,0,.334,1.266,1.08,1.08,0,0,0,.923.457A1.186,1.186,0,0,0-24.317,7.7V5.52a1.2,1.2,0,0,0-1.121-.672,1.085,1.085,0,0,0-.932.461A2.322,2.322,0,0,0-26.7,6.675Zm6.434,2.413a2.078,2.078,0,0,1-1.573-.635,2.357,2.357,0,0,1-.606-1.7V6.6a2.853,2.853,0,0,1,.27-1.263,2.108,2.108,0,0,1,.756-.87,1.9,1.9,0,0,1,1.052-.314,1.781,1.781,0,0,1,1.441.611,2.645,2.645,0,0,1,.514,1.749v.338h-3.221a1.69,1.69,0,0,0,.411,1.136,1.292,1.292,0,0,0,1,.433,1.416,1.416,0,0,0,.729-.176,1.833,1.833,0,0,0,.523-.466l.5.387A2,2,0,0,1-20.27,9.088Zm-.1-4.263a1.084,1.084,0,0,0-.826.358,1.741,1.741,0,0,0-.413,1h2.382V6.126a1.548,1.548,0,0,0-.334-.96A1.021,1.021,0,0,0-20.371,4.825Zm6.913,1.85a2.847,2.847,0,0,1-.5,1.749,1.592,1.592,0,0,1-1.345.664,1.744,1.744,0,0,1-1.362-.549v2.29h-.813V4.245h.743l.04.527a1.675,1.675,0,0,1,1.38-.615,1.621,1.621,0,0,1,1.356.646,2.878,2.878,0,0,1,.5,1.8Zm-.813-.092a2.1,2.1,0,0,0-.343-1.27,1.1,1.1,0,0,0-.94-.466,1.2,1.2,0,0,0-1.107.655V7.774a1.2,1.2,0,0,0,1.116.65,1.1,1.1,0,0,0,.929-.464A2.293,2.293,0,0,0-14.271,6.583Zm3.819,2.5a2.078,2.078,0,0,1-1.573-.635,2.357,2.357,0,0,1-.606-1.7V6.6a2.853,2.853,0,0,1,.27-1.263,2.108,2.108,0,0,1,.756-.87,1.9,1.9,0,0,1,1.052-.314,1.781,1.781,0,0,1,1.441.611A2.645,2.645,0,0,1-8.6,6.517v.338h-3.221a1.69,1.69,0,0,0,.411,1.136,1.292,1.292,0,0,0,1,.433,1.416,1.416,0,0,0,.729-.176,1.833,1.833,0,0,0,.523-.466l.5.387A2,2,0,0,1-10.452,9.088Zm-.1-4.263a1.084,1.084,0,0,0-.826.358,1.741,1.741,0,0,0-.413,1h2.382V6.126a1.548,1.548,0,0,0-.334-.96A1.021,1.021,0,0,0-10.553,4.825Zm3.665-.58.026.6a1.733,1.733,0,0,1,1.424-.686q1.507,0,1.521,1.7V9h-.813V5.854a1.1,1.1,0,0,0-.235-.76.942.942,0,0,0-.719-.246,1.173,1.173,0,0,0-.694.211,1.432,1.432,0,0,0-.466.554V9h-.813V4.245Zm4,2.338a2.785,2.785,0,0,1,.519-1.76,1.64,1.64,0,0,1,1.358-.666A1.649,1.649,0,0,1,.31,4.729V2.25h.813V9H.376l-.04-.51a1.656,1.656,0,0,1-1.358.6,1.624,1.624,0,0,1-1.347-.677,2.817,2.817,0,0,1-.521-1.767Zm.813.092a2.109,2.109,0,0,0,.334,1.266A1.08,1.08,0,0,0-.82,8.4,1.186,1.186,0,0,0,.31,7.7V5.52A1.2,1.2,0,0,0-.811,4.847a1.085,1.085,0,0,0-.932.461A2.322,2.322,0,0,0-2.076,6.675ZM4.357,9.088a2.078,2.078,0,0,1-1.573-.635,2.357,2.357,0,0,1-.606-1.7V6.6a2.853,2.853,0,0,1,.27-1.263,2.108,2.108,0,0,1,.756-.87,1.9,1.9,0,0,1,1.052-.314A1.781,1.781,0,0,1,5.7,4.768a2.645,2.645,0,0,1,.514,1.749v.338H2.99A1.69,1.69,0,0,0,3.4,7.991a1.292,1.292,0,0,0,1,.433,1.416,1.416,0,0,0,.729-.176,1.833,1.833,0,0,0,.523-.466l.5.387A2,2,0,0,1,4.357,9.088Zm-.1-4.263a1.084,1.084,0,0,0-.826.358,1.741,1.741,0,0,0-.413,1H5.4V6.126a1.548,1.548,0,0,0-.334-.96A1.021,1.021,0,0,0,4.256,4.825Zm3.665-.58.026.6a1.733,1.733,0,0,1,1.424-.686q1.507,0,1.521,1.7V9h-.813V5.854a1.1,1.1,0,0,0-.235-.76.942.942,0,0,0-.719-.246,1.173,1.173,0,0,0-.694.211,1.432,1.432,0,0,0-.466.554V9H7.152V4.245Zm6.1,4.179a1.171,1.171,0,0,0,.76-.264.928.928,0,0,0,.36-.659h.769a1.474,1.474,0,0,1-.281.778,1.852,1.852,0,0,1-.692.589,2,2,0,0,1-.916.22A1.959,1.959,0,0,1,12.48,8.44a2.582,2.582,0,0,1-.573-1.773V6.53A2.863,2.863,0,0,1,12.162,5.3a1.941,1.941,0,0,1,.732-.839,2.078,2.078,0,0,1,1.127-.3,1.907,1.907,0,0,1,1.329.479,1.712,1.712,0,0,1,.565,1.244h-.769a1.12,1.12,0,0,0-.349-.758,1.087,1.087,0,0,0-.776-.3,1.138,1.138,0,0,0-.96.446,2.1,2.1,0,0,0-.341,1.29v.154a2.053,2.053,0,0,0,.338,1.266A1.143,1.143,0,0,0,14.025,8.424ZM17.712,9H16.9V4.245h.813Zm-.879-6.016a.485.485,0,0,1,.121-.334.454.454,0,0,1,.358-.136.461.461,0,0,1,.36.136.48.48,0,0,1,.123.334.464.464,0,0,1-.123.33.469.469,0,0,1-.36.132.462.462,0,0,1-.358-.132A.469.469,0,0,1,16.833,2.984ZM21.948,9a1.708,1.708,0,0,1-.114-.5,1.814,1.814,0,0,1-1.354.589,1.678,1.678,0,0,1-1.154-.4,1.287,1.287,0,0,1-.45-1.009,1.344,1.344,0,0,1,.565-1.154,2.662,2.662,0,0,1,1.589-.411h.791V5.744a.913.913,0,0,0-.255-.679,1.024,1.024,0,0,0-.751-.253,1.185,1.185,0,0,0-.729.22.647.647,0,0,0-.294.532h-.817a1.122,1.122,0,0,1,.253-.688,1.725,1.725,0,0,1,.686-.525,2.306,2.306,0,0,1,.951-.193,1.88,1.88,0,0,1,1.288.411A1.482,1.482,0,0,1,22.634,5.7V7.888A2.676,2.676,0,0,0,22.8,8.93V9ZM20.6,8.38a1.429,1.429,0,0,0,.725-.2,1.2,1.2,0,0,0,.5-.514V6.693h-.637q-1.494,0-1.494.875a.74.74,0,0,0,.255.6A.98.98,0,0,0,20.6,8.38Zm6.078-.642a.6.6,0,0,0-.248-.512,2.39,2.39,0,0,0-.866-.314,4.093,4.093,0,0,1-.98-.316,1.394,1.394,0,0,1-.536-.439,1.051,1.051,0,0,1-.174-.606,1.233,1.233,0,0,1,.494-.989,1.931,1.931,0,0,1,1.263-.4,1.987,1.987,0,0,1,1.312.417,1.326,1.326,0,0,1,.5,1.068h-.817a.734.734,0,0,0-.283-.576,1.062,1.062,0,0,0-.714-.242,1.111,1.111,0,0,0-.694.193.609.609,0,0,0-.25.505.493.493,0,0,0,.233.444,2.866,2.866,0,0,0,.842.286,4.385,4.385,0,0,1,.987.325,1.439,1.439,0,0,1,.56.455,1.118,1.118,0,0,1,.182.648A1.217,1.217,0,0,1,26.98,8.7a2.138,2.138,0,0,1-1.323.385,2.394,2.394,0,0,1-1.011-.2,1.644,1.644,0,0,1-.688-.565,1.361,1.361,0,0,1-.248-.784h.813a.842.842,0,0,0,.327.648,1.27,1.27,0,0,0,.806.24,1.311,1.311,0,0,0,.74-.187A.574.574,0,0,0,26.677,7.739Z" transform="translate(3929.539 -6861)" fill="#12263f"/>
    <path id="Path_206296" data-name="Path 206296" d="M10,0H61A10,10,0,0,1,71,10V48A10,10,0,0,1,61,58H10A10,10,0,0,1,0,48V10A10,10,0,0,1,10,0Z" transform="translate(3798.539 -6889)" fill="#4dd0e1"/>
    <path id="Path_206297" data-name="Path 206297" d="M-15.715-.69h3.032V0h-3.88V-6.4h.848Zm4.75.69h-.813V-4.755h.813Zm-.879-6.016a.485.485,0,0,1,.121-.334.454.454,0,0,1,.358-.136A.461.461,0,0,1-11-6.35a.48.48,0,0,1,.123.334.464.464,0,0,1-.123.33.469.469,0,0,1-.36.132.462.462,0,0,1-.358-.132A.469.469,0,0,1-11.843-6.016Zm6.205,3.691a2.827,2.827,0,0,1-.5,1.751A1.6,1.6,0,0,1-7.484.088,1.658,1.658,0,0,1-8.877-.549L-8.917,0h-.747V-6.75h.813v2.518a1.648,1.648,0,0,1,1.358-.611,1.61,1.61,0,0,1,1.36.655A2.912,2.912,0,0,1-5.638-2.4Zm-.813-.092A2.2,2.2,0,0,0-6.772-3.7a1.062,1.062,0,0,0-.923-.453,1.194,1.194,0,0,0-1.156.747v2.057A1.227,1.227,0,0,0-7.686-.6a1.056,1.056,0,0,0,.91-.453A2.336,2.336,0,0,0-6.451-2.417Zm4.135-1.608a2.436,2.436,0,0,0-.4-.031A1.071,1.071,0,0,0-3.8-3.375V0h-.813V-4.755h.791l.013.549a1.266,1.266,0,0,1,1.134-.637.831.831,0,0,1,.36.062ZM.321.088A2.078,2.078,0,0,1-1.252-.547a2.357,2.357,0,0,1-.606-1.7V-2.4a2.853,2.853,0,0,1,.27-1.263,2.108,2.108,0,0,1,.756-.87A1.9,1.9,0,0,1,.22-4.843a1.781,1.781,0,0,1,1.441.611,2.645,2.645,0,0,1,.514,1.749v.338H-1.046A1.69,1.69,0,0,0-.635-1.009a1.292,1.292,0,0,0,1,.433,1.416,1.416,0,0,0,.729-.176,1.833,1.833,0,0,0,.523-.466l.5.387A2,2,0,0,1,.321.088ZM.22-4.175a1.084,1.084,0,0,0-.826.358,1.741,1.741,0,0,0-.413,1H1.362v-.062a1.548,1.548,0,0,0-.334-.96A1.021,1.021,0,0,0,.22-4.175Zm5.194.149a2.436,2.436,0,0,0-.4-.031,1.071,1.071,0,0,0-1.085.681V0H3.116V-4.755h.791l.013.549a1.266,1.266,0,0,1,1.134-.637.831.831,0,0,1,.36.062ZM7.044,0H6.227V-4.755h.817Zm.009-6.746h.984L6.86-5.454l-.655,0ZM11.32,0a1.708,1.708,0,0,1-.114-.5A1.814,1.814,0,0,1,9.853.088,1.678,1.678,0,0,1,8.7-.31a1.287,1.287,0,0,1-.45-1.009,1.344,1.344,0,0,1,.565-1.154A2.662,2.662,0,0,1,10.4-2.883h.791v-.374a.913.913,0,0,0-.255-.679,1.024,1.024,0,0,0-.751-.253,1.185,1.185,0,0,0-.729.22.647.647,0,0,0-.294.532H8.345A1.122,1.122,0,0,1,8.6-4.124a1.725,1.725,0,0,1,.686-.525,2.306,2.306,0,0,1,.951-.193,1.88,1.88,0,0,1,1.288.411A1.482,1.482,0,0,1,12.006-3.3v2.188A2.676,2.676,0,0,0,12.173-.07V0ZM9.971-.62a1.429,1.429,0,0,0,.725-.2,1.2,1.2,0,0,0,.5-.514v-.976h-.637q-1.494,0-1.494.875a.74.74,0,0,0,.255.6A.98.98,0,0,0,9.971-.62Zm6.078-.642a.6.6,0,0,0-.248-.512,2.39,2.39,0,0,0-.866-.314,4.093,4.093,0,0,1-.98-.316,1.394,1.394,0,0,1-.536-.439,1.051,1.051,0,0,1-.174-.606,1.233,1.233,0,0,1,.494-.989A1.931,1.931,0,0,1,15-4.843a1.987,1.987,0,0,1,1.312.417,1.326,1.326,0,0,1,.5,1.068H16a.734.734,0,0,0-.283-.576A1.062,1.062,0,0,0,15-4.175a1.111,1.111,0,0,0-.694.193.609.609,0,0,0-.25.505.493.493,0,0,0,.233.444,2.866,2.866,0,0,0,.842.286,4.385,4.385,0,0,1,.987.325,1.439,1.439,0,0,1,.56.455,1.118,1.118,0,0,1,.182.648A1.217,1.217,0,0,1,16.352-.3a2.138,2.138,0,0,1-1.323.385,2.394,2.394,0,0,1-1.011-.2,1.644,1.644,0,0,1-.688-.565,1.361,1.361,0,0,1-.248-.784H13.9a.842.842,0,0,0,.327.648,1.27,1.27,0,0,0,.806.24,1.311,1.311,0,0,0,.74-.187A.574.574,0,0,0,16.049-1.261ZM-27.516,6.583A2.785,2.785,0,0,1-27,4.823a1.64,1.64,0,0,1,1.358-.666,1.649,1.649,0,0,1,1.323.571V2.25h.813V9h-.747l-.04-.51a1.656,1.656,0,0,1-1.358.6A1.624,1.624,0,0,1-27,8.411a2.817,2.817,0,0,1-.521-1.767Zm.813.092a2.109,2.109,0,0,0,.334,1.266,1.08,1.08,0,0,0,.923.457A1.186,1.186,0,0,0-24.317,7.7V5.52a1.2,1.2,0,0,0-1.121-.672,1.085,1.085,0,0,0-.932.461A2.322,2.322,0,0,0-26.7,6.675Zm6.434,2.413a2.078,2.078,0,0,1-1.573-.635,2.357,2.357,0,0,1-.606-1.7V6.6a2.853,2.853,0,0,1,.27-1.263,2.108,2.108,0,0,1,.756-.87,1.9,1.9,0,0,1,1.052-.314,1.781,1.781,0,0,1,1.441.611,2.645,2.645,0,0,1,.514,1.749v.338h-3.221a1.69,1.69,0,0,0,.411,1.136,1.292,1.292,0,0,0,1,.433,1.416,1.416,0,0,0,.729-.176,1.833,1.833,0,0,0,.523-.466l.5.387A2,2,0,0,1-20.27,9.088Zm-.1-4.263a1.084,1.084,0,0,0-.826.358,1.741,1.741,0,0,0-.413,1h2.382V6.126a1.548,1.548,0,0,0-.334-.96A1.021,1.021,0,0,0-20.371,4.825Zm6.913,1.85a2.847,2.847,0,0,1-.5,1.749,1.592,1.592,0,0,1-1.345.664,1.744,1.744,0,0,1-1.362-.549v2.29h-.813V4.245h.743l.04.527a1.675,1.675,0,0,1,1.38-.615,1.621,1.621,0,0,1,1.356.646,2.878,2.878,0,0,1,.5,1.8Zm-.813-.092a2.1,2.1,0,0,0-.343-1.27,1.1,1.1,0,0,0-.94-.466,1.2,1.2,0,0,0-1.107.655V7.774a1.2,1.2,0,0,0,1.116.65,1.1,1.1,0,0,0,.929-.464A2.293,2.293,0,0,0-14.271,6.583Zm3.819,2.5a2.078,2.078,0,0,1-1.573-.635,2.357,2.357,0,0,1-.606-1.7V6.6a2.853,2.853,0,0,1,.27-1.263,2.108,2.108,0,0,1,.756-.87,1.9,1.9,0,0,1,1.052-.314,1.781,1.781,0,0,1,1.441.611A2.645,2.645,0,0,1-8.6,6.517v.338h-3.221a1.69,1.69,0,0,0,.411,1.136,1.292,1.292,0,0,0,1,.433,1.416,1.416,0,0,0,.729-.176,1.833,1.833,0,0,0,.523-.466l.5.387A2,2,0,0,1-10.452,9.088Zm-.1-4.263a1.084,1.084,0,0,0-.826.358,1.741,1.741,0,0,0-.413,1h2.382V6.126a1.548,1.548,0,0,0-.334-.96A1.021,1.021,0,0,0-10.553,4.825Zm3.665-.58.026.6a1.733,1.733,0,0,1,1.424-.686q1.507,0,1.521,1.7V9h-.813V5.854a1.1,1.1,0,0,0-.235-.76.942.942,0,0,0-.719-.246,1.173,1.173,0,0,0-.694.211,1.432,1.432,0,0,0-.466.554V9h-.813V4.245Zm4,2.338a2.785,2.785,0,0,1,.519-1.76,1.64,1.64,0,0,1,1.358-.666A1.649,1.649,0,0,1,.31,4.729V2.25h.813V9H.376l-.04-.51a1.656,1.656,0,0,1-1.358.6,1.624,1.624,0,0,1-1.347-.677,2.817,2.817,0,0,1-.521-1.767Zm.813.092a2.109,2.109,0,0,0,.334,1.266A1.08,1.08,0,0,0-.82,8.4,1.186,1.186,0,0,0,.31,7.7V5.52A1.2,1.2,0,0,0-.811,4.847a1.085,1.085,0,0,0-.932.461A2.322,2.322,0,0,0-2.076,6.675ZM4.357,9.088a2.078,2.078,0,0,1-1.573-.635,2.357,2.357,0,0,1-.606-1.7V6.6a2.853,2.853,0,0,1,.27-1.263,2.108,2.108,0,0,1,.756-.87,1.9,1.9,0,0,1,1.052-.314A1.781,1.781,0,0,1,5.7,4.768a2.645,2.645,0,0,1,.514,1.749v.338H2.99A1.69,1.69,0,0,0,3.4,7.991a1.292,1.292,0,0,0,1,.433,1.416,1.416,0,0,0,.729-.176,1.833,1.833,0,0,0,.523-.466l.5.387A2,2,0,0,1,4.357,9.088Zm-.1-4.263a1.084,1.084,0,0,0-.826.358,1.741,1.741,0,0,0-.413,1H5.4V6.126a1.548,1.548,0,0,0-.334-.96A1.021,1.021,0,0,0,4.256,4.825Zm3.665-.58.026.6a1.733,1.733,0,0,1,1.424-.686q1.507,0,1.521,1.7V9h-.813V5.854a1.1,1.1,0,0,0-.235-.76.942.942,0,0,0-.719-.246,1.173,1.173,0,0,0-.694.211,1.432,1.432,0,0,0-.466.554V9H7.152V4.245Zm6.1,4.179a1.171,1.171,0,0,0,.76-.264.928.928,0,0,0,.36-.659h.769a1.474,1.474,0,0,1-.281.778,1.852,1.852,0,0,1-.692.589,2,2,0,0,1-.916.22A1.959,1.959,0,0,1,12.48,8.44a2.582,2.582,0,0,1-.573-1.773V6.53A2.863,2.863,0,0,1,12.162,5.3a1.941,1.941,0,0,1,.732-.839,2.078,2.078,0,0,1,1.127-.3,1.907,1.907,0,0,1,1.329.479,1.712,1.712,0,0,1,.565,1.244h-.769a1.12,1.12,0,0,0-.349-.758,1.087,1.087,0,0,0-.776-.3,1.138,1.138,0,0,0-.96.446,2.1,2.1,0,0,0-.341,1.29v.154a2.053,2.053,0,0,0,.338,1.266A1.143,1.143,0,0,0,14.025,8.424ZM17.712,9H16.9V4.245h.813Zm-.879-6.016a.485.485,0,0,1,.121-.334.454.454,0,0,1,.358-.136.461.461,0,0,1,.36.136.48.48,0,0,1,.123.334.464.464,0,0,1-.123.33.469.469,0,0,1-.36.132.462.462,0,0,1-.358-.132A.469.469,0,0,1,16.833,2.984ZM21.948,9a1.708,1.708,0,0,1-.114-.5,1.814,1.814,0,0,1-1.354.589,1.678,1.678,0,0,1-1.154-.4,1.287,1.287,0,0,1-.45-1.009,1.344,1.344,0,0,1,.565-1.154,2.662,2.662,0,0,1,1.589-.411h.791V5.744a.913.913,0,0,0-.255-.679,1.024,1.024,0,0,0-.751-.253,1.185,1.185,0,0,0-.729.22.647.647,0,0,0-.294.532h-.817a1.122,1.122,0,0,1,.253-.688,1.725,1.725,0,0,1,.686-.525,2.306,2.306,0,0,1,.951-.193,1.88,1.88,0,0,1,1.288.411A1.482,1.482,0,0,1,22.634,5.7V7.888A2.676,2.676,0,0,0,22.8,8.93V9ZM20.6,8.38a1.429,1.429,0,0,0,.725-.2,1.2,1.2,0,0,0,.5-.514V6.693h-.637q-1.494,0-1.494.875a.74.74,0,0,0,.255.6A.98.98,0,0,0,20.6,8.38Zm6.078-.642a.6.6,0,0,0-.248-.512,2.39,2.39,0,0,0-.866-.314,4.093,4.093,0,0,1-.98-.316,1.394,1.394,0,0,1-.536-.439,1.051,1.051,0,0,1-.174-.606,1.233,1.233,0,0,1,.494-.989,1.931,1.931,0,0,1,1.263-.4,1.987,1.987,0,0,1,1.312.417,1.326,1.326,0,0,1,.5,1.068h-.817a.734.734,0,0,0-.283-.576,1.062,1.062,0,0,0-.714-.242,1.111,1.111,0,0,0-.694.193.609.609,0,0,0-.25.505.493.493,0,0,0,.233.444,2.866,2.866,0,0,0,.842.286,4.385,4.385,0,0,1,.987.325,1.439,1.439,0,0,1,.56.455,1.118,1.118,0,0,1,.182.648A1.217,1.217,0,0,1,26.98,8.7a2.138,2.138,0,0,1-1.323.385,2.394,2.394,0,0,1-1.011-.2,1.644,1.644,0,0,1-.688-.565,1.361,1.361,0,0,1-.248-.784h.813a.842.842,0,0,0,.327.648,1.27,1.27,0,0,0,.806.24,1.311,1.311,0,0,0,.74-.187A.574.574,0,0,0,26.677,7.739Z" transform="translate(3834.539 -6861)" fill="#12263f"/>
    <path id="Path_206298" data-name="Path 206298" d="M10,0H61A10,10,0,0,1,71,10V48A10,10,0,0,1,61,58H10A10,10,0,0,1,0,48V10A10,10,0,0,1,10,0Z" transform="translate(3712.539 -6947)" fill="#e4f8fb"/>
    <path id="Path_206299" data-name="Path 206299" d="M-16.884-6.4l2.092,5.221L-12.7-6.4h1.094V0h-.844V-2.492l.079-2.689L-14.471,0h-.646l-2.1-5.168.083,2.676V0h-.844V-6.4Zm6.425,3.977a2.808,2.808,0,0,1,.275-1.257A2.049,2.049,0,0,1-9.42-4.54a2.081,2.081,0,0,1,1.118-.3A2.005,2.005,0,0,1-6.73-4.17a2.587,2.587,0,0,1,.6,1.789v.057A2.833,2.833,0,0,1-6.4-1.079a2.019,2.019,0,0,1-.76.859A2.105,2.105,0,0,1-8.292.088,2,2,0,0,1-9.859-.584a2.574,2.574,0,0,1-.6-1.78Zm.817.1a2.034,2.034,0,0,0,.367,1.27,1.174,1.174,0,0,0,.982.479,1.167,1.167,0,0,0,.984-.486,2.224,2.224,0,0,0,.365-1.36,2.031,2.031,0,0,0-.371-1.268A1.181,1.181,0,0,0-8.3-4.175a1.167,1.167,0,0,0-.971.479A2.208,2.208,0,0,0-9.642-2.325Zm4.333-.092a2.785,2.785,0,0,1,.519-1.76,1.64,1.64,0,0,1,1.358-.666,1.649,1.649,0,0,1,1.323.571V-6.75H-1.3V0h-.747l-.04-.51a1.656,1.656,0,0,1-1.358.6A1.624,1.624,0,0,1-4.788-.589a2.817,2.817,0,0,1-.521-1.767Zm.813.092a2.109,2.109,0,0,0,.334,1.266A1.08,1.08,0,0,0-3.239-.6,1.186,1.186,0,0,0-2.109-1.3V-3.48A1.2,1.2,0,0,0-3.23-4.153a1.085,1.085,0,0,0-.932.461A2.322,2.322,0,0,0-4.5-2.325ZM1.938.088A2.078,2.078,0,0,1,.365-.547a2.357,2.357,0,0,1-.606-1.7V-2.4a2.853,2.853,0,0,1,.27-1.263,2.108,2.108,0,0,1,.756-.87,1.9,1.9,0,0,1,1.052-.314,1.781,1.781,0,0,1,1.441.611,2.645,2.645,0,0,1,.514,1.749v.338H.571A1.69,1.69,0,0,0,.982-1.009a1.292,1.292,0,0,0,1,.433,1.416,1.416,0,0,0,.729-.176,1.833,1.833,0,0,0,.523-.466l.5.387A2,2,0,0,1,1.938.088Zm-.1-4.263a1.084,1.084,0,0,0-.826.358,1.741,1.741,0,0,0-.413,1H2.979v-.062a1.548,1.548,0,0,0-.334-.96A1.021,1.021,0,0,0,1.837-4.175ZM5.616,0H4.8V-6.75h.813ZM6.7-2.421a2.808,2.808,0,0,1,.275-1.257,2.049,2.049,0,0,1,.765-.861,2.081,2.081,0,0,1,1.118-.3,2.005,2.005,0,0,1,1.571.672,2.587,2.587,0,0,1,.6,1.789v.057a2.833,2.833,0,0,1-.266,1.246A2.019,2.019,0,0,1,10-.22,2.105,2.105,0,0,1,8.868.088,2,2,0,0,1,7.3-.584a2.574,2.574,0,0,1-.6-1.78Zm.817.1a2.034,2.034,0,0,0,.367,1.27,1.174,1.174,0,0,0,.982.479,1.167,1.167,0,0,0,.984-.486,2.224,2.224,0,0,0,.365-1.36,2.031,2.031,0,0,0-.371-1.268,1.181,1.181,0,0,0-.987-.486,1.167,1.167,0,0,0-.971.479A2.208,2.208,0,0,0,7.519-2.325ZM16.866,0h-.817V-5.418l-1.639.6v-.738l2.329-.875h.127Z" transform="translate(3748.539 -6915)" fill="#12263f"/>
    <path id="Path_206300" data-name="Path 206300" d="M10,0H61A10,10,0,0,1,71,10V48A10,10,0,0,1,61,58H10A10,10,0,0,1,0,48V10A10,10,0,0,1,10,0Z" transform="translate(3893.539 -6947)" fill="#e4f8fb"/>
    <path id="Path_206301" data-name="Path 206301" d="M-16.884-6.4l2.092,5.221L-12.7-6.4h1.094V0h-.844V-2.492l.079-2.689L-14.471,0h-.646l-2.1-5.168.083,2.676V0h-.844V-6.4Zm6.425,3.977a2.808,2.808,0,0,1,.275-1.257A2.049,2.049,0,0,1-9.42-4.54a2.081,2.081,0,0,1,1.118-.3A2.005,2.005,0,0,1-6.73-4.17a2.587,2.587,0,0,1,.6,1.789v.057A2.833,2.833,0,0,1-6.4-1.079a2.019,2.019,0,0,1-.76.859A2.105,2.105,0,0,1-8.292.088,2,2,0,0,1-9.859-.584a2.574,2.574,0,0,1-.6-1.78Zm.817.1a2.034,2.034,0,0,0,.367,1.27,1.174,1.174,0,0,0,.982.479,1.167,1.167,0,0,0,.984-.486,2.224,2.224,0,0,0,.365-1.36,2.031,2.031,0,0,0-.371-1.268A1.181,1.181,0,0,0-8.3-4.175a1.167,1.167,0,0,0-.971.479A2.208,2.208,0,0,0-9.642-2.325Zm4.333-.092a2.785,2.785,0,0,1,.519-1.76,1.64,1.64,0,0,1,1.358-.666,1.649,1.649,0,0,1,1.323.571V-6.75H-1.3V0h-.747l-.04-.51a1.656,1.656,0,0,1-1.358.6A1.624,1.624,0,0,1-4.788-.589a2.817,2.817,0,0,1-.521-1.767Zm.813.092a2.109,2.109,0,0,0,.334,1.266A1.08,1.08,0,0,0-3.239-.6,1.186,1.186,0,0,0-2.109-1.3V-3.48A1.2,1.2,0,0,0-3.23-4.153a1.085,1.085,0,0,0-.932.461A2.322,2.322,0,0,0-4.5-2.325ZM1.938.088A2.078,2.078,0,0,1,.365-.547a2.357,2.357,0,0,1-.606-1.7V-2.4a2.853,2.853,0,0,1,.27-1.263,2.108,2.108,0,0,1,.756-.87,1.9,1.9,0,0,1,1.052-.314,1.781,1.781,0,0,1,1.441.611,2.645,2.645,0,0,1,.514,1.749v.338H.571A1.69,1.69,0,0,0,.982-1.009a1.292,1.292,0,0,0,1,.433,1.416,1.416,0,0,0,.729-.176,1.833,1.833,0,0,0,.523-.466l.5.387A2,2,0,0,1,1.938.088Zm-.1-4.263a1.084,1.084,0,0,0-.826.358,1.741,1.741,0,0,0-.413,1H2.979v-.062a1.548,1.548,0,0,0-.334-.96A1.021,1.021,0,0,0,1.837-4.175ZM5.616,0H4.8V-6.75h.813ZM6.7-2.421a2.808,2.808,0,0,1,.275-1.257,2.049,2.049,0,0,1,.765-.861,2.081,2.081,0,0,1,1.118-.3,2.005,2.005,0,0,1,1.571.672,2.587,2.587,0,0,1,.6,1.789v.057a2.833,2.833,0,0,1-.266,1.246A2.019,2.019,0,0,1,10-.22,2.105,2.105,0,0,1,8.868.088,2,2,0,0,1,7.3-.584a2.574,2.574,0,0,1-.6-1.78Zm.817.1a2.034,2.034,0,0,0,.367,1.27,1.174,1.174,0,0,0,.982.479,1.167,1.167,0,0,0,.984-.486,2.224,2.224,0,0,0,.365-1.36,2.031,2.031,0,0,0-.371-1.268,1.181,1.181,0,0,0-.987-.486,1.167,1.167,0,0,0-.971.479A2.208,2.208,0,0,0,7.519-2.325Zm7.857-1.27h.611a1.343,1.343,0,0,0,.905-.3,1.013,1.013,0,0,0,.33-.8A.992.992,0,0,0,16.1-5.818a1.166,1.166,0,0,0-.842.3,1.054,1.054,0,0,0-.314.8h-.813a1.632,1.632,0,0,1,.556-1.263,2.025,2.025,0,0,1,1.413-.5,2,2,0,0,1,1.419.479,1.73,1.73,0,0,1,.514,1.332,1.4,1.4,0,0,1-.27.809,1.632,1.632,0,0,1-.736.584,1.572,1.572,0,0,1,.815.554,1.538,1.538,0,0,1,.288.945,1.745,1.745,0,0,1-.562,1.367,2.106,2.106,0,0,1-1.463.505A2.162,2.162,0,0,1,14.64-.4a1.618,1.618,0,0,1-.565-1.288h.817a1.046,1.046,0,0,0,.33.809,1.254,1.254,0,0,0,.883.3,1.23,1.23,0,0,0,.9-.308,1.186,1.186,0,0,0,.312-.883,1.076,1.076,0,0,0-.343-.857,1.493,1.493,0,0,0-.989-.308h-.611Z" transform="translate(3929.539 -6915)" fill="#12263f"/>
    <path id="Path_206302" data-name="Path 206302" d="M10,0H61A10,10,0,0,1,71,10V48A10,10,0,0,1,61,58H10A10,10,0,0,1,0,48V10A10,10,0,0,1,10,0Z" transform="translate(3798.539 -6947)" fill="#e4f8fb"/>
    <path id="Path_206303" data-name="Path 206303" d="M-16.884-6.4l2.092,5.221L-12.7-6.4h1.094V0h-.844V-2.492l.079-2.689L-14.471,0h-.646l-2.1-5.168.083,2.676V0h-.844V-6.4Zm6.425,3.977a2.808,2.808,0,0,1,.275-1.257A2.049,2.049,0,0,1-9.42-4.54a2.081,2.081,0,0,1,1.118-.3A2.005,2.005,0,0,1-6.73-4.17a2.587,2.587,0,0,1,.6,1.789v.057A2.833,2.833,0,0,1-6.4-1.079a2.019,2.019,0,0,1-.76.859A2.105,2.105,0,0,1-8.292.088,2,2,0,0,1-9.859-.584a2.574,2.574,0,0,1-.6-1.78Zm.817.1a2.034,2.034,0,0,0,.367,1.27,1.174,1.174,0,0,0,.982.479,1.167,1.167,0,0,0,.984-.486,2.224,2.224,0,0,0,.365-1.36,2.031,2.031,0,0,0-.371-1.268A1.181,1.181,0,0,0-8.3-4.175a1.167,1.167,0,0,0-.971.479A2.208,2.208,0,0,0-9.642-2.325Zm4.333-.092a2.785,2.785,0,0,1,.519-1.76,1.64,1.64,0,0,1,1.358-.666,1.649,1.649,0,0,1,1.323.571V-6.75H-1.3V0h-.747l-.04-.51a1.656,1.656,0,0,1-1.358.6A1.624,1.624,0,0,1-4.788-.589a2.817,2.817,0,0,1-.521-1.767Zm.813.092a2.109,2.109,0,0,0,.334,1.266A1.08,1.08,0,0,0-3.239-.6,1.186,1.186,0,0,0-2.109-1.3V-3.48A1.2,1.2,0,0,0-3.23-4.153a1.085,1.085,0,0,0-.932.461A2.322,2.322,0,0,0-4.5-2.325ZM1.938.088A2.078,2.078,0,0,1,.365-.547a2.357,2.357,0,0,1-.606-1.7V-2.4a2.853,2.853,0,0,1,.27-1.263,2.108,2.108,0,0,1,.756-.87,1.9,1.9,0,0,1,1.052-.314,1.781,1.781,0,0,1,1.441.611,2.645,2.645,0,0,1,.514,1.749v.338H.571A1.69,1.69,0,0,0,.982-1.009a1.292,1.292,0,0,0,1,.433,1.416,1.416,0,0,0,.729-.176,1.833,1.833,0,0,0,.523-.466l.5.387A2,2,0,0,1,1.938.088Zm-.1-4.263a1.084,1.084,0,0,0-.826.358,1.741,1.741,0,0,0-.413,1H2.979v-.062a1.548,1.548,0,0,0-.334-.96A1.021,1.021,0,0,0,1.837-4.175ZM5.616,0H4.8V-6.75h.813ZM6.7-2.421a2.808,2.808,0,0,1,.275-1.257,2.049,2.049,0,0,1,.765-.861,2.081,2.081,0,0,1,1.118-.3,2.005,2.005,0,0,1,1.571.672,2.587,2.587,0,0,1,.6,1.789v.057a2.833,2.833,0,0,1-.266,1.246A2.019,2.019,0,0,1,10-.22,2.105,2.105,0,0,1,8.868.088,2,2,0,0,1,7.3-.584a2.574,2.574,0,0,1-.6-1.78Zm.817.1a2.034,2.034,0,0,0,.367,1.27,1.174,1.174,0,0,0,.982.479,1.167,1.167,0,0,0,.984-.486,2.224,2.224,0,0,0,.365-1.36,2.031,2.031,0,0,0-.371-1.268,1.181,1.181,0,0,0-.987-.486,1.167,1.167,0,0,0-.971.479A2.208,2.208,0,0,0,7.519-2.325ZM18.387,0H14.194V-.584l2.215-2.461a5.262,5.262,0,0,0,.679-.907,1.515,1.515,0,0,0,.187-.723,1.148,1.148,0,0,0-.3-.822,1.06,1.06,0,0,0-.809-.321,1.256,1.256,0,0,0-.943.345,1.318,1.318,0,0,0-.336.96h-.813a1.887,1.887,0,0,1,.569-1.428,2.11,2.11,0,0,1,1.523-.545,2.027,2.027,0,0,1,1.411.468,1.6,1.6,0,0,1,.519,1.246,3.66,3.66,0,0,1-1.2,2.25L15.174-.664h3.212Z" transform="translate(3834.539 -6915)" fill="#12263f"/>
    <path id="Path_206304" data-name="Path 206304" d="M-30.422-2.889a3.116,3.116,0,0,1-.48,1.573A2.9,2.9,0,0,1-32.136-.258a4.2,4.2,0,0,1-1.813.375A3.35,3.35,0,0,1-36.6-.979a4.524,4.524,0,0,1-.967-3.094v-.422a5.164,5.164,0,0,1,.437-2.194,3.308,3.308,0,0,1,1.257-1.453,3.507,3.507,0,0,1,1.9-.513,3.677,3.677,0,0,1,2.5.817A3.23,3.23,0,0,1-30.4-5.584h-2.051A1.528,1.528,0,0,0-32.848-6.7a1.615,1.615,0,0,0-1.125-.34,1.229,1.229,0,0,0-1.125.574,3.691,3.691,0,0,0-.375,1.834v.6A4.084,4.084,0,0,0-35.13-2.08a1.254,1.254,0,0,0,1.181.586,1.579,1.579,0,0,0,1.084-.334,1.418,1.418,0,0,0,.4-1.061Zm.633-.34a3.742,3.742,0,0,1,.369-1.69,2.64,2.64,0,0,1,1.061-1.14,3.194,3.194,0,0,1,1.623-.4,2.915,2.915,0,0,1,2.244.882,3.384,3.384,0,0,1,.82,2.4v.07A3.283,3.283,0,0,1-24.5-.753a2.923,2.923,0,0,1-2.229.87A2.956,2.956,0,0,1-28.9-.694a3.174,3.174,0,0,1-.885-2.2Zm1.975.123a2.359,2.359,0,0,0,.275,1.289.917.917,0,0,0,.814.41q1.055,0,1.078-1.623v-.2q0-1.705-1.09-1.705-.99,0-1.072,1.471Zm6.826-3.234.064.744a2.15,2.15,0,0,1,1.811-.861,1.809,1.809,0,0,1,1.479.592,2.817,2.817,0,0,1,.507,1.781V0h-1.98V-4a1.07,1.07,0,0,0-.193-.706.9.9,0,0,0-.7-.226.942.942,0,0,0-.861.457V0H-22.84V-6.34Zm7.254-1.576V-6.34h1.043v1.371h-1.043v2.9a.741.741,0,0,0,.129.5.691.691,0,0,0,.51.141,2.9,2.9,0,0,0,.492-.035V-.053a3.644,3.644,0,0,1-1.113.17,2.069,2.069,0,0,1-1.506-.48,1.969,1.969,0,0,1-.486-1.459V-4.969h-.809V-6.34h.809V-7.916ZM-8.848.117a3.259,3.259,0,0,1-2.361-.87,3,3,0,0,1-.9-2.265v-.164a3.893,3.893,0,0,1,.36-1.717A2.637,2.637,0,0,1-10.7-6.05a3.175,3.175,0,0,1,1.641-.407,2.744,2.744,0,0,1,2.109.829,3.258,3.258,0,0,1,.773,2.312v.768H-10.1a1.423,1.423,0,0,0,.463.838,1.377,1.377,0,0,0,.926.3,1.775,1.775,0,0,0,1.465-.656L-6.346-1a2.522,2.522,0,0,1-1.046.812A3.534,3.534,0,0,1-8.848.117ZM-9.07-4.934q-.867,0-1.031,1.148h1.992v-.152a.978.978,0,0,0-.24-.735A.956.956,0,0,0-9.07-4.934Zm5.5-1.406L-3.5-5.6a2.15,2.15,0,0,1,1.811-.861,1.809,1.809,0,0,1,1.479.592A2.817,2.817,0,0,1,.293-4.084V0h-1.98V-4a1.07,1.07,0,0,0-.193-.706.9.9,0,0,0-.7-.226.942.942,0,0,0-.861.457V0H-5.42V-6.34ZM4.453.117a3.259,3.259,0,0,1-2.361-.87,3,3,0,0,1-.9-2.265v-.164A3.893,3.893,0,0,1,1.55-4.9,2.637,2.637,0,0,1,2.6-6.05a3.175,3.175,0,0,1,1.641-.407,2.744,2.744,0,0,1,2.109.829,3.258,3.258,0,0,1,.773,2.312v.768H3.2a1.423,1.423,0,0,0,.463.838,1.377,1.377,0,0,0,.926.3,1.775,1.775,0,0,0,1.465-.656L6.955-1a2.522,2.522,0,0,1-1.046.812A3.534,3.534,0,0,1,4.453.117ZM4.23-4.934q-.867,0-1.031,1.148H5.191v-.152a.978.978,0,0,0-.24-.735A.956.956,0,0,0,4.23-4.934ZM7.67-3.217A3.873,3.873,0,0,1,8.32-5.59a2.141,2.141,0,0,1,1.816-.867,1.821,1.821,0,0,1,1.43.668V-9h1.98V0H11.771l-.1-.68a1.87,1.87,0,0,1-1.547.8A2.137,2.137,0,0,1,8.332-.75,4,4,0,0,1,7.67-3.217Zm1.975.123q0,1.688.984,1.688a.972.972,0,0,0,.938-.551V-4.371a.946.946,0,0,0-.926-.562q-.914,0-.99,1.477Zm4.775-.135a3.742,3.742,0,0,1,.369-1.69,2.64,2.64,0,0,1,1.061-1.14,3.194,3.194,0,0,1,1.623-.4,2.915,2.915,0,0,1,2.244.882,3.384,3.384,0,0,1,.82,2.4v.07a3.283,3.283,0,0,1-.823,2.353,2.923,2.923,0,0,1-2.229.87,2.956,2.956,0,0,1-2.174-.812,3.174,3.174,0,0,1-.885-2.2Zm1.975.123a2.359,2.359,0,0,0,.275,1.289.917.917,0,0,0,.814.41q1.055,0,1.078-1.623v-.2q0-1.705-1.09-1.705-.99,0-1.072,1.471Zm8.848-1.447-.65-.047a1.168,1.168,0,0,0-1.2.586V0H21.422V-6.34h1.852l.064.814a1.529,1.529,0,0,1,1.389-.932,1.926,1.926,0,0,1,.551.07ZM28.91.117a3.259,3.259,0,0,1-2.361-.87,3,3,0,0,1-.9-2.265v-.164a3.893,3.893,0,0,1,.36-1.717A2.637,2.637,0,0,1,27.059-6.05,3.175,3.175,0,0,1,28.7-6.457a2.744,2.744,0,0,1,2.109.829,3.258,3.258,0,0,1,.773,2.312v.768H27.656a1.423,1.423,0,0,0,.463.838,1.377,1.377,0,0,0,.926.3,1.775,1.775,0,0,0,1.465-.656L31.412-1a2.522,2.522,0,0,1-1.046.812A3.534,3.534,0,0,1,28.91.117Zm-.223-5.051q-.867,0-1.031,1.148h1.992v-.152a.978.978,0,0,0-.24-.735A.956.956,0,0,0,28.688-4.934ZM35.7-1.781a.456.456,0,0,0-.264-.4,4.011,4.011,0,0,0-1-.316,4.569,4.569,0,0,1-1.219-.431,2.041,2.041,0,0,1-.732-.647,1.546,1.546,0,0,1-.252-.873,1.752,1.752,0,0,1,.721-1.438,2.969,2.969,0,0,1,1.887-.565,3.289,3.289,0,0,1,2.016.568,1.777,1.777,0,0,1,.762,1.494h-1.98q0-.762-.8-.762a.8.8,0,0,0-.521.173.535.535,0,0,0-.211.431.491.491,0,0,0,.258.428,2.436,2.436,0,0,0,.823.27,7.114,7.114,0,0,1,.993.252A1.8,1.8,0,0,1,37.6-1.84a1.66,1.66,0,0,1-.771,1.412,3.379,3.379,0,0,1-2,.545,3.448,3.448,0,0,1-1.453-.293,2.43,2.43,0,0,1-1-.8,1.8,1.8,0,0,1-.357-1.061h1.846a.763.763,0,0,0,.293.642,1.205,1.205,0,0,0,.721.2.948.948,0,0,0,.606-.164A.525.525,0,0,0,35.7-1.781Z" transform="translate(3703.539 -6887) rotate(-90)" fill="#12263f"/>
    <path id="Path_204085" data-name="Path 204085" d="M3560.561-5967.984s18.464-.908,18.274,4.484,0,49.8,0,49.8-.726,4.806,18.8,3.536" transform="translate(107.439 -920.958)" fill="none" stroke="#4dd0e1" stroke-width="2"/>
    <path id="Path_204086" data-name="Path 204086" d="M3560.561-5910.1s18.464.907,18.274-4.477,0-49.721,0-49.721-.726-4.8,18.8-3.531" transform="translate(107.439 -978.959)" fill="none" stroke="#4dd0e1" stroke-width="2"/>
  </g>
</svg>
