<svg xmlns="http://www.w3.org/2000/svg" xmlns:xlink="http://www.w3.org/1999/xlink" width="295" height="282" viewBox="0 0 295 282">
  <defs>
    <clipPath id="clip-path">
      <rect id="Rectangle_53100" data-name="Rectangle 53100" width="295" height="176.409" fill="none"/>
    </clipPath>
  </defs>
  <g id="_3" data-name="3" transform="translate(-1125 -1270)">
    <g id="Group_147134" data-name="Group 147134" transform="translate(945 -166)" opacity="0.51">
      <ellipse id="Ellipse_4771" data-name="Ellipse 4771" cx="141.5" cy="136.5" rx="141.5" ry="136.5" transform="translate(192 1445)" fill="#bddcf6" opacity="0.59"/>
    </g>
    <g id="Group_147133" data-name="Group 147133" transform="translate(1125 1327)">
      <g id="Group_147132" data-name="Group 147132" clip-path="url(#clip-path)">
        <path id="Path_204154" data-name="Path 204154" d="M83.368,64.068A29.686,29.686,0,0,0,84.448,72.8a52.516,52.516,0,0,0,3.14,7.064,4.268,4.268,0,0,1,.687,2.257,3.884,3.884,0,0,1-1.864,2.943l-6.181,4.121a4.7,4.7,0,0,1-2.551.883,4.515,4.515,0,0,1-2.943-1.374A30.352,30.352,0,0,1,71.2,84.084c-.981-1.668-1.962-3.532-3.042-5.789q-11.479,13.54-28.845,13.54c-8.242,0-14.815-2.355-19.623-7.064s-7.26-10.989-7.26-18.838c0-8.34,2.943-15.11,8.928-20.211S35.293,38.068,45.4,38.068a77.682,77.682,0,0,1,10.4.785c3.63.491,7.359,1.275,11.283,2.159V33.849c0-7.457-1.57-12.657-4.611-15.7-3.14-3.042-8.438-4.513-15.993-4.513a44.64,44.64,0,0,0-10.6,1.275,78.178,78.178,0,0,0-10.6,3.336,28.152,28.152,0,0,1-3.434,1.275,6.018,6.018,0,0,1-1.57.294c-1.374,0-2.06-.981-2.06-3.042V11.97a6.208,6.208,0,0,1,.687-3.434,7.347,7.347,0,0,1,2.747-2.06A56.485,56.485,0,0,1,34.017,2.06,59.484,59.484,0,0,1,49.323.2C61,.2,69.534,2.845,75.029,8.143c5.4,5.3,8.143,13.343,8.143,24.136V64.068ZM43.534,78.982A31.8,31.8,0,0,0,53.64,77.216a21.863,21.863,0,0,0,9.321-6.279A15.573,15.573,0,0,0,66.3,64.657a35.223,35.223,0,0,0,.981-8.536V52a81.936,81.936,0,0,0-9.026-1.668,73.931,73.931,0,0,0-9.223-.589c-6.574,0-11.381,1.275-14.619,3.925S29.6,60.046,29.6,64.951c0,4.611,1.177,8.045,3.63,10.4,2.355,2.453,5.789,3.63,10.3,3.63m78.785,10.6a5.477,5.477,0,0,1-3.728-.981,8,8,0,0,1-2.06-3.826L93.474,8.928A17.186,17.186,0,0,1,92.591,5a2.152,2.152,0,0,1,2.355-2.453h9.615c1.864,0,3.14.294,3.826.981.785.589,1.374,1.962,1.962,3.826L126.833,72.31,142.139,7.359c.491-1.962,1.079-3.238,1.864-3.826a6.749,6.749,0,0,1,3.925-.981h7.849c1.864,0,3.14.294,3.925.981a6.611,6.611,0,0,1,1.864,3.826l15.5,65.736L194.041,7.359A8.414,8.414,0,0,1,196,3.532a6.4,6.4,0,0,1,3.826-.981h9.125A2.181,2.181,0,0,1,211.407,5a9.783,9.783,0,0,1-.2,1.57,13.958,13.958,0,0,1-.687,2.453L186.878,84.869q-.883,2.943-2.06,3.826a6.277,6.277,0,0,1-3.728.981h-8.438c-1.864,0-3.14-.294-3.925-.981a6.956,6.956,0,0,1-1.864-3.925L151.656,21.487l-15.11,63.185a7.658,7.658,0,0,1-1.864,3.925,6.081,6.081,0,0,1-3.925.981ZM248.4,92.227a64.926,64.926,0,0,1-15.11-1.766c-4.906-1.177-8.732-2.453-11.283-3.925a7.069,7.069,0,0,1-3.042-2.747,6.925,6.925,0,0,1-.589-2.747v-5c0-2.06.785-3.042,2.257-3.042a5.556,5.556,0,0,1,1.766.294c.589.2,1.472.589,2.453.981a53.367,53.367,0,0,0,10.793,3.434,58.921,58.921,0,0,0,11.676,1.177c6.181,0,10.989-1.079,14.325-3.238a10.566,10.566,0,0,0,5.1-9.321,9.555,9.555,0,0,0-2.649-6.868c-1.766-1.864-5.1-3.532-9.91-5.1L239.958,49.94c-7.162-2.257-12.46-5.592-15.7-10.008a23.376,23.376,0,0,1-4.906-14.227A21.836,21.836,0,0,1,222,14.815a25.227,25.227,0,0,1,7.064-8.045,31.14,31.14,0,0,1,10.2-5.1A42.762,42.762,0,0,1,251.634,0a49.254,49.254,0,0,1,6.574.392c2.257.294,4.317.687,6.377,1.079,1.962.491,3.826.981,5.592,1.57A21.413,21.413,0,0,1,274.3,4.808a8.484,8.484,0,0,1,2.943,2.453,5.287,5.287,0,0,1,.883,3.238V15.11c0,2.06-.785,3.14-2.257,3.14a10.206,10.206,0,0,1-3.728-1.177A44.885,44.885,0,0,0,253.3,13.245c-5.592,0-10.008.883-13.049,2.747s-4.611,4.709-4.611,8.732a9.265,9.265,0,0,0,2.943,6.966c1.962,1.864,5.592,3.728,10.793,5.4L263.309,41.5c7.064,2.257,12.166,5.4,15.208,9.419a22.2,22.2,0,0,1,4.513,13.736,25.223,25.223,0,0,1-2.551,11.381,26.387,26.387,0,0,1-7.162,8.634,31.627,31.627,0,0,1-10.891,5.494,46.655,46.655,0,0,1-14.03,2.06" transform="translate(-0.234)" fill="#252f3e"/>
        <path id="Path_204155" data-name="Path 204155" d="M266.7,142.137c-32.279,23.842-79.178,36.5-119.5,36.5-56.514,0-107.435-20.9-145.9-55.631-3.042-2.747-.294-6.476,3.336-4.317,41.6,24.136,92.914,38.755,145.993,38.755A291.335,291.335,0,0,0,262,134.68c5.4-2.453,10.008,3.532,4.709,7.457" transform="translate(0 -2.226)" fill="#f90" fill-rule="evenodd"/>
        <path id="Path_204156" data-name="Path 204156" d="M284.755,126.719c-4.121-5.3-27.276-2.551-37.774-1.275-3.14.392-3.63-2.355-.785-4.415,18.445-12.951,48.763-9.223,52.295-4.906,3.532,4.415-.981,34.732-18.249,49.253-2.649,2.257-5.2,1.079-4.023-1.864,3.925-9.713,12.657-31.593,8.536-36.793" transform="translate(-4.608 -2.114)" fill="#f90" fill-rule="evenodd"/>
      </g>
    </g>
    <rect id="Rectangle_53559" data-name="Rectangle 53559" width="295" height="282" transform="translate(1125 1270)" fill="none"/>
  </g>
</svg>
