<svg id="_4" data-name="4" xmlns="http://www.w3.org/2000/svg" xmlns:xlink="http://www.w3.org/1999/xlink" width="100" height="83.235" viewBox="0 0 100 83.235">
  <defs>
    <clipPath id="clip-path">
      <rect id="Rectangle_45214" data-name="Rectangle 45214" width="100" height="83.236" fill="none"/>
    </clipPath>
  </defs>
  <g id="Group_146965" data-name="Group 146965" clip-path="url(#clip-path)">
    <path id="Path_203964" data-name="Path 203964" d="M216.653,346.252H202.415s-1.28,9.358-4.159,14.144h22.556C217.933,355.61,216.653,346.252,216.653,346.252Z" transform="translate(-159.534 -278.625)" fill="#bddcf6"/>
    <path id="Path_203965" data-name="Path 203965" d="M279.443,360.4h-4.166c-2.881-4.786-4.16-14.145-4.16-14.145h4.166s1.281,9.358,4.16,14.145" transform="translate(-218.165 -278.623)" fill="#97b0c4"/>
    <path id="Path_203966" data-name="Path 203966" d="M100.831,73.662H11.239A3.739,3.739,0,0,1,7.5,69.923V11.239A3.739,3.739,0,0,1,11.239,7.5h89.591a3.739,3.739,0,0,1,3.739,3.739V69.923a3.74,3.74,0,0,1-3.74,3.739" transform="translate(-6.035 -6.035)" fill="#bddcf6"/>
    <path id="Path_203967" data-name="Path 203967" d="M100.831,306.346H11.239A3.739,3.739,0,0,1,7.5,302.606V296.66h97.07v5.946A3.74,3.74,0,0,1,100.831,306.346Z" transform="translate(-6.035 -238.719)" fill="#bddcf6"/>
    <path id="Path_203968" data-name="Path 203968" d="M473,11.235V69.918a3.74,3.74,0,0,1-3.74,3.74h-3.906a3.74,3.74,0,0,0,3.74-3.74V11.235a3.741,3.741,0,0,0-3.74-3.74h3.906a3.741,3.741,0,0,1,3.74,3.74" transform="translate(-374.468 -6.031)" fill="#97b0c4"/>
    <path id="Path_203969" data-name="Path 203969" d="M473,296.666v5.945a3.74,3.74,0,0,1-3.74,3.74h-3.906a3.74,3.74,0,0,0,3.74-3.74v-5.945Z" transform="translate(-374.468 -238.724)" fill="#97b0c4"/>
    <path id="Path_203970" data-name="Path 203970" d="M125.143,91.746H41.26V43.985a1.976,1.976,0,0,1,1.976-1.976h79.931a1.976,1.976,0,0,1,1.976,1.976V91.746Z" transform="translate(-33.201 -33.804)" fill="#f8f6f6"/>
    <path id="Path_203971" data-name="Path 203971" d="M125.143,91.746H41.26V43.985a1.976,1.976,0,0,1,1.976-1.976h79.931a1.976,1.976,0,0,1,1.976,1.976V91.746Z" transform="translate(-33.201 -33.804)" fill="#4dd0e1"/>
    <path id="Path_203972" data-name="Path 203972" d="M446.157,43.986V91.749h-3.99V43.986a1.976,1.976,0,0,0-1.976-1.974h3.992a1.975,1.975,0,0,1,1.974,1.974" transform="translate(-354.216 -33.807)" fill="#3da6b4"/>
    <path id="Path_203973" data-name="Path 203973" d="M125.146,43.986v9.163H41.264V43.986a1.976,1.976,0,0,1,1.974-1.976h79.933a1.976,1.976,0,0,1,1.974,1.976" transform="translate(-33.205 -33.805)" fill="#dbdeea"/>
    <path id="Path_203974" data-name="Path 203974" d="M446.1,43.988v9.163H442.1V43.988a1.976,1.976,0,0,0-1.974-1.976h4.005a1.976,1.976,0,0,1,1.974,1.976" transform="translate(-354.162 -33.807)" fill="#abb3cd"/>
    <rect id="Rectangle_45212" data-name="Rectangle 45212" width="41.941" height="38.598" transform="translate(8.059 19.345)" fill="#f8f6f6"/>
    <rect id="Rectangle_45213" data-name="Rectangle 45213" width="3.906" height="38.598" transform="translate(46.094 19.345)" fill="#ebebeb"/>
    <path id="Path_203975" data-name="Path 203975" d="M282.067,127.6h2.358a1.465,1.465,0,1,0,0-2.929h-2.358a1.465,1.465,0,1,0,0,2.929" transform="translate(-225.797 -100.322)"/>
    <path id="Path_203976" data-name="Path 203976" d="M325.383,127.6h8.6a1.465,1.465,0,0,0,0-2.929h-8.6a1.465,1.465,0,1,0,0,2.929" transform="translate(-260.653 -100.322)"/>
    <path id="Path_203977" data-name="Path 203977" d="M282.067,160.443h2.358a1.465,1.465,0,1,0,0-2.929h-2.358a1.465,1.465,0,1,0,0,2.929" transform="translate(-225.797 -126.75)"/>
    <path id="Path_203978" data-name="Path 203978" d="M325.383,160.443h8.6a1.465,1.465,0,0,0,0-2.929h-8.6a1.465,1.465,0,1,0,0,2.929" transform="translate(-260.653 -126.75)"/>
    <path id="Path_203979" data-name="Path 203979" d="M282.067,193.286h2.358a1.465,1.465,0,1,0,0-2.929h-2.358a1.465,1.465,0,1,0,0,2.929" transform="translate(-225.797 -153.178)"/>
    <path id="Path_203980" data-name="Path 203980" d="M345.931,191.822a1.465,1.465,0,0,0,1.465,1.465h16.643a1.465,1.465,0,1,0,0-2.929H347.4a1.465,1.465,0,0,0-1.465,1.465" transform="translate(-278.366 -153.178)"/>
    <path id="Path_203981" data-name="Path 203981" d="M282.067,226.128h2.358a1.465,1.465,0,1,0,0-2.929h-2.358a1.465,1.465,0,1,0,0,2.929" transform="translate(-225.797 -179.606)"/>
    <path id="Path_203982" data-name="Path 203982" d="M354.325,224.664a1.465,1.465,0,0,0-1.465-1.465h-9.015a1.465,1.465,0,1,0,0,2.929h9.015a1.465,1.465,0,0,0,1.465-1.465" transform="translate(-275.51 -179.606)"/>
    <path id="Path_203983" data-name="Path 203983" d="M282.067,258.97h2.358a1.465,1.465,0,1,0,0-2.929h-2.358a1.465,1.465,0,1,0,0,2.929" transform="translate(-225.797 -206.033)"/>
    <path id="Path_203984" data-name="Path 203984" d="M325.383,258.97h2.635a1.465,1.465,0,1,0,0-2.929h-2.635a1.465,1.465,0,1,0,0,2.929" transform="translate(-260.653 -206.033)"/>
    <path id="Path_203985" data-name="Path 203985" d="M381.753,256.041H369.41a1.465,1.465,0,0,0,0,2.929h12.344a1.465,1.465,0,0,0,0-2.929" transform="translate(-296.081 -206.033)"/>
    <path id="Path_203986" data-name="Path 203986" d="M94.8,0h-23.4a1.465,1.465,0,0,0,0,2.929H94.8A2.277,2.277,0,0,1,97.07,5.2V56.477H93.406v-46.3h0a3.444,3.444,0,0,0-3.44-3.44H10.034a3.444,3.444,0,0,0-3.44,3.44v46.3H2.929V5.2A2.277,2.277,0,0,1,5.2,2.929H64.625a1.465,1.465,0,0,0,0-2.929H5.2A5.21,5.21,0,0,0,0,5.2V63.888a5.21,5.21,0,0,0,5.2,5.2h10.56a1.465,1.465,0,0,0,0-2.929H5.2a2.277,2.277,0,0,1-2.275-2.275V59.406H97.071v4.482A2.277,2.277,0,0,1,94.8,66.163H22.509a1.465,1.465,0,0,0,0,2.929H41.161c-.466,2.642-1.545,7.843-3.3,11.214h-8.14a1.465,1.465,0,1,0,0,2.929H70.277a1.465,1.465,0,0,0,0-2.929h-8.14c-1.751-3.368-2.831-8.571-3.3-11.214H94.8a5.21,5.21,0,0,0,5.2-5.2V5.2A5.21,5.21,0,0,0,94.8,0ZM48.536,56.477H9.524V20.809H48.536Zm41.941,0H51.465V20.809H90.476Zm0-38.6H9.524v-7.7a.511.511,0,0,1,.51-.512H89.967a.531.531,0,0,1,.51.512v7.7ZM58.9,80.306H41.1a53.294,53.294,0,0,0,3.037-11.214H55.864A53.291,53.291,0,0,0,58.9,80.306Z"/>
    <path id="Path_203987" data-name="Path 203987" d="M86.184,219.2a1.465,1.465,0,0,0,1.89-.847l.5-1.314H92.1l.494,1.31a1.465,1.465,0,0,0,2.741-1.034l-3.421-9.064-.016-.04a1.667,1.667,0,0,0-1.547-1.037h0a1.667,1.667,0,0,0-1.547,1.04l-.013.033-3.452,9.063A1.465,1.465,0,0,0,86.184,219.2Zm4.161-6.809.648,1.718h-1.3Z" transform="translate(-68.592 -166.714)"/>
    <path id="Path_203988" data-name="Path 203988" d="M197.087,207.178a1.465,1.465,0,0,0-1.465,1.465v9.193a1.465,1.465,0,0,0,2.929,0v-9.193a1.465,1.465,0,0,0-1.465-1.465" transform="translate(-157.415 -166.714)"/>
    <path id="Path_203989" data-name="Path 203989" d="M148.2,207.178a1.5,1.5,0,0,0-1.465,1.465v9.193a1.465,1.465,0,0,0,2.929,0V215.3l1.095,0a4.059,4.059,0,1,0,0-8.118Zm3.74,4.059a1.171,1.171,0,0,1-1.18,1.13l-1.085,0c0-.434,0-.864,0-1.133,0-.231,0-.674,0-1.13h1.091A1.171,1.171,0,0,1,151.939,211.237Z" transform="translate(-118.075 -166.714)"/>
    <path id="Path_203990" data-name="Path 203990" d="M137.672,140.062a1.463,1.463,0,0,0,1.9-.82l4.283-10.77a1.465,1.465,0,1,0-2.722-1.083l-4.283,10.77A1.465,1.465,0,0,0,137.672,140.062Z" transform="translate(-110.04 -101.766)"/>
    <path id="Path_203991" data-name="Path 203991" d="M183.026,141.579a1.464,1.464,0,0,0,2-.533l2.876-4.966a1.465,1.465,0,0,0-.013-1.49l-2.876-4.771a1.465,1.465,0,1,0-2.509,1.512l2.429,4.03-2.443,4.217A1.465,1.465,0,0,0,183.026,141.579Z" transform="translate(-146.691 -103.893)"/>
    <path id="Path_203992" data-name="Path 203992" d="M99.516,141.046a1.465,1.465,0,1,0,2.535-1.468l-2.443-4.217,2.43-4.03a1.465,1.465,0,1,0-2.509-1.512l-2.877,4.771a1.465,1.465,0,0,0-.013,1.49Z" transform="translate(-77.606 -103.893)"/>
  </g>
</svg>
