<svg xmlns="http://www.w3.org/2000/svg" xmlns:xlink="http://www.w3.org/1999/xlink" width="68.432" height="62.44" viewBox="0 0 68.432 62.44">
  <defs>
    <clipPath id="clip-path">
      <rect id="Rectangle_52997" data-name="Rectangle 52997" width="68.432" height="62.44" fill="#4dd0e1" stroke="#4dd0e1" stroke-width="1"/>
    </clipPath>
  </defs>
  <g id="_6" data-name="6" transform="translate(0 0)">
    <g id="Group_146998" data-name="Group 146998" transform="translate(0 0)" clip-path="url(#clip-path)">
      <path id="Path_203995" data-name="Path 203995" d="M41.333,16.513a1.108,1.108,0,0,0,.961.188,5.978,5.978,0,1,1,0,11.536A1.1,1.1,0,0,0,40.9,29.3v6.964a1.1,1.1,0,0,0,1.1,1.1h3.734a1.1,1.1,0,0,0,1.031-.706l.677-1.76a12.921,12.921,0,0,0,2.689-1.114l1.723.765a1.1,1.1,0,0,0,1.229-.229l2.64-2.64a1.105,1.105,0,0,0,.229-1.229l-.765-1.723a12.939,12.939,0,0,0,1.115-2.689l1.759-.677a1.1,1.1,0,0,0,.706-1.029V20.6a1.1,1.1,0,0,0-.706-1.031l-1.76-.676A12.9,12.9,0,0,0,55.19,16.2l.765-1.723a1.1,1.1,0,0,0-.229-1.228l-2.64-2.641a1.105,1.105,0,0,0-1.229-.229l-1.723.766a12.852,12.852,0,0,0-2.689-1.115l-.677-1.759a1.1,1.1,0,0,0-1.031-.708H42a1.1,1.1,0,0,0-1.1,1.1v6.965a1.113,1.113,0,0,0,.434.877m1.774-6.738H44.98l.608,1.579a1.1,1.1,0,0,0,.775.677,10.679,10.679,0,0,1,3.125,1.295,1.1,1.1,0,0,0,1.026.07l1.548-.688,1.568,1.57-.687,1.547a1.108,1.108,0,0,0,.068,1.028,10.615,10.615,0,0,1,1.3,3.125,1.1,1.1,0,0,0,.677.775l1.578.608v2.219l-1.578.608a1.1,1.1,0,0,0-.677.775,10.649,10.649,0,0,1-1.295,3.125,1.1,1.1,0,0,0-.07,1.028l.687,1.547-1.568,1.568-1.548-.687a1.1,1.1,0,0,0-1.026.068,10.646,10.646,0,0,1-3.125,1.3,1.1,1.1,0,0,0-.775.677L44.98,35.16H43.107V30.618c.253.025.509.036.764.036a8.185,8.185,0,1,0,0-16.37c-.255,0-.511.011-.764.034Zm.764,16.536a3.842,3.842,0,1,0-3.842-3.843,3.848,3.848,0,0,0,3.842,3.843m0-5.477a1.635,1.635,0,1,1-1.634,1.634,1.637,1.637,0,0,1,1.634-1.634M62.237,0H6.194A6.2,6.2,0,0,0,0,6.194V41.219a6.2,6.2,0,0,0,6.194,6.194H22.706v5.881H16.06c-3,0-5.444,2.052-5.444,4.573v3.47a1.1,1.1,0,0,0,1.1,1.1h45a1.1,1.1,0,0,0,1.1-1.1v-3.47c0-2.521-2.443-4.573-5.446-4.573H45.726V47.414H62.237a6.2,6.2,0,0,0,6.194-6.194V6.194A6.2,6.2,0,0,0,62.237,0M55.61,57.867v2.365H12.823V57.867c0-1.282,1.482-2.365,3.238-2.365H52.372c1.755,0,3.238,1.083,3.238,2.365M43.52,53.295H24.915V47.414H43.52Zm22.7-12.075a3.992,3.992,0,0,1-3.987,3.987H6.194a3.992,3.992,0,0,1-3.987-3.987V6.194A3.992,3.992,0,0,1,6.194,2.208H62.237a3.992,3.992,0,0,1,3.987,3.987ZM62.365,4.258H6.067A1.811,1.811,0,0,0,4.258,6.067V39.574a1.1,1.1,0,0,0,1.1,1.1h57.71a1.1,1.1,0,0,0,1.1-1.1V6.067A1.812,1.812,0,0,0,62.365,4.258Zm-.4,34.213H6.465V6.465h55.5Zm-53.053-9.4h16.1v3.48a1.1,1.1,0,0,0,1.829.832L38.438,23.3a1.1,1.1,0,0,0,0-1.666l-11.6-10.084a1.1,1.1,0,0,0-1.829.833v3.479H8.915a1.1,1.1,0,0,0-1.1,1.1v11A1.1,1.1,0,0,0,8.915,29.071Zm1.1-11h16.1a1.1,1.1,0,0,0,1.1-1.1V14.807l8.811,7.66-8.811,7.662V27.968a1.1,1.1,0,0,0-1.1-1.1h-16.1Z" transform="translate(0 0)" fill="#4dd0e1" stroke="#4dd0e1" stroke-width="1"/>
    </g>
  </g>
</svg>
