<svg xmlns="http://www.w3.org/2000/svg" xmlns:xlink="http://www.w3.org/1999/xlink" width="150" height="150" viewBox="0 0 150 150">
  <defs>
    <clipPath id="clip-path">
      <rect id="Rectangle_53153" data-name="Rectangle 53153" width="64.227" height="70" fill="#fff"/>
    </clipPath>
  </defs>
  <g id="_6" data-name="6" transform="translate(-751 -2644)">
    <g id="_6-2" data-name="6" transform="translate(-5390.5 13030.014)">
      <circle id="Ellipse_4809" data-name="Ellipse 4809" cx="75" cy="75" r="75" transform="translate(6141.5 -10386.014)" fill="#0f2771"/>
    </g>
    <g id="Group_171866" data-name="Group 171866" transform="translate(0 38)">
      <rect id="Rectangle_44967" data-name="Rectangle 44967" width="80" height="80" transform="translate(786 2641)" fill="none"/>
      <g id="Group_171865" data-name="Group 171865" transform="translate(794 2646)">
        <g id="Group_171865-2" data-name="Group 171865" clip-path="url(#clip-path)">
          <path id="Path_204325" data-name="Path 204325" d="M60.549,51.848a1.2,1.2,0,0,0-1.624.514A28.218,28.218,0,0,1,5.655,39.378,27.9,27.9,0,0,1,11,22.85l-.513,3.077a1.2,1.2,0,0,0,.991,1.385,1.111,1.111,0,0,0,.2.017,1.2,1.2,0,0,0,1.187-1.006l1.2-7.225a1.205,1.205,0,0,0-1.569-1.34L5.275,20.166a1.2,1.2,0,0,0,.76,2.285l3.007-1A30.279,30.279,0,0,0,3.248,39.378,30.626,30.626,0,0,0,61.063,53.472,1.207,1.207,0,0,0,60.549,51.848Z" fill="#fff"/>
          <path id="Path_204326" data-name="Path 204326" d="M49.548,16.967c.159.109.316.219.473.331a1.2,1.2,0,0,0,1.4-1.961c-.17-.122-.342-.241-.514-.358a1.2,1.2,0,1,0-1.357,1.988" fill="#fff"/>
          <path id="Path_204327" data-name="Path 204327" d="M60.012,30.215c.14.367.274.741.4,1.113a1.2,1.2,0,0,0,1.141.823,1.181,1.181,0,0,0,.382-.063,1.2,1.2,0,0,0,.76-1.524c-.135-.4-.281-.81-.433-1.209a1.2,1.2,0,1,0-2.249.86" fill="#fff"/>
          <path id="Path_204328" data-name="Path 204328" d="M54.441,21.212a1.2,1.2,0,1,0,1.777-1.625c-.288-.315-.586-.627-.887-.929a1.2,1.2,0,1,0-1.707,1.7c.277.278.552.566.817.856" fill="#fff"/>
          <path id="Path_204329" data-name="Path 204329" d="M61.528,35.92c.061.389.113.784.157,1.173a1.2,1.2,0,0,0,1.195,1.069,1.059,1.059,0,0,0,.137-.008,1.2,1.2,0,0,0,1.061-1.331c-.048-.422-.105-.85-.17-1.273a1.2,1.2,0,0,0-2.38.37" fill="#fff"/>
          <path id="Path_204330" data-name="Path 204330" d="M57.959,25.959a1.2,1.2,0,1,0,2.073-1.226c-.217-.367-.445-.734-.676-1.091a1.2,1.2,0,0,0-2.02,1.311C57.549,25.282,57.759,25.62,57.959,25.959Z" fill="#fff"/>
          <path id="Path_204331" data-name="Path 204331" d="M63.089,40.681a1.207,1.207,0,0,0-1.268,1.136c-.022.394-.052.79-.09,1.18a1.205,1.205,0,0,0,1.083,1.315c.039,0,.078.005.117.005a1.2,1.2,0,0,0,1.2-1.088c.041-.422.074-.853.1-1.28A1.2,1.2,0,0,0,63.089,40.681Z" fill="#fff"/>
          <path id="Path_204332" data-name="Path 204332" d="M62.361,46.805a1.2,1.2,0,0,0-1.476.848q-.076.279-.156.556a1.2,1.2,0,1,0,2.311.675c.059-.2.115-.4.17-.6A1.2,1.2,0,0,0,62.361,46.805Z" fill="#fff"/>
          <path id="Path_204333" data-name="Path 204333" d="M1.441,0A1.441,1.441,0,1,1,0,1.441,1.441,1.441,0,0,1,1.441,0" fill="#fff"/>
          <path id="Path_204334" data-name="Path 204334" d="M1.441,6.02A1.441,1.441,0,1,1,0,7.461,1.441,1.441,0,0,1,1.441,6.02" fill="#fff"/>
          <path id="Path_204335" data-name="Path 204335" d="M1.441,12.041A1.441,1.441,0,1,1,0,13.482a1.441,1.441,0,0,1,1.441-1.441" fill="#fff"/>
          <path id="Path_204336" data-name="Path 204336" d="M22.512,20.1H45.389a1.2,1.2,0,0,0,1.2-1.2V4.451a1.2,1.2,0,0,0-1.2-1.2H22.512a1.2,1.2,0,0,0-1.2,1.2V18.9a1.2,1.2,0,0,0,1.2,1.2M44.185,17.7H23.716V12.88H44.185ZM23.716,5.655H44.185v4.816H23.716Z" fill="#fff"/>
          <path id="Path_204337" data-name="Path 204337" d="M27.328,16.492h2.465a1.2,1.2,0,1,0,0-2.408H27.328a1.2,1.2,0,0,0,0,2.408" fill="#fff"/>
          <path id="Path_204338" data-name="Path 204338" d="M28.449,45.022l-3.549.546a5.49,5.49,0,0,0-4.681,5.456V55.36a1.2,1.2,0,0,0,.894,1.164,47.467,47.467,0,0,0,12.237,1.6,50.544,50.544,0,0,0,12.49-1.6,1.206,1.206,0,0,0,.906-1.167V51.024a5.492,5.492,0,0,0-4.682-5.457l-3.548-.545a2.284,2.284,0,0,1-1.871-1.7l-.08-.32.521-.208a4.874,4.874,0,0,0,3.082-4.548V33.069a6.685,6.685,0,1,0-13.371,0v5.175a4.875,4.875,0,0,0,3.075,4.546L30.4,43l-.08.316a2.28,2.28,0,0,1-1.869,1.7m9.7,2.38,3.548.545a3.1,3.1,0,0,1,2.64,3.077v3.392a46.083,46.083,0,0,1-21.711.009v-3.4a3.1,3.1,0,0,1,2.64-3.077l3.548-.545a4.683,4.683,0,0,0,3.841-3.5l.018-.076a4.256,4.256,0,0,0,1.617,0l.019.079A4.682,4.682,0,0,0,38.15,47.4ZM29.2,38.244V33.069a4.277,4.277,0,1,1,8.555,0v5.172a2.478,2.478,0,0,1-1.567,2.312l-1.817.726-1.932-.052-.389-.156-1.287-.516A2.478,2.478,0,0,1,29.2,38.244Z" fill="#fff"/>
          <path id="Path_204339" data-name="Path 204339" d="M41.957,30.94a1.2,1.2,0,0,0,1.2,1.2A2.957,2.957,0,0,1,46.115,35.1v3.923a1.589,1.589,0,0,1-1.005,1.484l-1.525.609a1.155,1.155,0,0,1-.861,0,1.2,1.2,0,0,0-.9,2.236,3.571,3.571,0,0,0,1.327.257,3.452,3.452,0,0,0,.418-.028,3.913,3.913,0,0,0,3.184,2.681l2.795.414a2.1,2.1,0,0,1,1.857,2.045v3.29a1.2,1.2,0,1,0,2.408,0v-3.29A4.494,4.494,0,0,0,49.9,44.291l-2.8-.414A1.508,1.508,0,0,1,45.852,42.8l.15-.06a3.986,3.986,0,0,0,2.521-3.72V35.1a5.368,5.368,0,0,0-5.363-5.362A1.2,1.2,0,0,0,41.957,30.94Z" fill="#fff"/>
          <path id="Path_204340" data-name="Path 204340" d="M12.879,52.008a1.2,1.2,0,1,0,2.408,0V48.719a2.1,2.1,0,0,1,1.856-2.046l2.8-.414a3.913,3.913,0,0,0,3.183-2.681,3.667,3.667,0,0,0,.418.028,3.571,3.571,0,0,0,1.327-.257,1.2,1.2,0,0,0-.9-2.236,1.16,1.16,0,0,1-.861,0l-1.525-.609a1.589,1.589,0,0,1-1.005-1.484V35.1a2.957,2.957,0,0,1,2.954-2.954,1.2,1.2,0,0,0,0-2.408A5.368,5.368,0,0,0,18.173,35.1v3.923a3.985,3.985,0,0,0,2.52,3.72l.15.06a1.505,1.505,0,0,1-1.257,1.076l-2.8.414a4.494,4.494,0,0,0-3.911,4.428Z" fill="#fff"/>
          <path id="Path_204341" data-name="Path 204341" d="M29.792,6.859H27.327a1.2,1.2,0,1,0,0,2.408h2.465a1.2,1.2,0,1,0,0-2.408" fill="#fff"/>
        </g>
      </g>
    </g>
  </g>
</svg>
