<svg xmlns="http://www.w3.org/2000/svg" xmlns:xlink="http://www.w3.org/1999/xlink" width="150" height="150" viewBox="0 0 150 150">
  <defs>
    <clipPath id="clip-path">
      <rect id="Rectangle_53152" data-name="Rectangle 53152" width="70" height="70" fill="#f6f6f6"/>
    </clipPath>
  </defs>
  <g id="_7" data-name="7" transform="translate(-1121 -2644)">
    <g id="Group_146883" data-name="Group 146883" transform="translate(-5020.5 13030.014)">
      <circle id="Ellipse_4809" data-name="Ellipse 4809" cx="75" cy="75" r="75" transform="translate(6141.5 -10386.014)" fill="#0f2771"/>
    </g>
    <g id="Group_171864" data-name="Group 171864" transform="translate(0 38)">
      <rect id="Rectangle_44967" data-name="Rectangle 44967" width="80" height="80" transform="translate(1156 2641)" fill="none"/>
      <g id="Group_171863" data-name="Group 171863" transform="translate(1161 2646)">
        <g id="Group_171862" data-name="Group 171862" clip-path="url(#clip-path)">
          <path id="Path_204319" data-name="Path 204319" d="M67.742,0H56.2a2.253,2.253,0,0,0-2.19,1.71l-.7,2.806H48.548A3.392,3.392,0,0,0,45.161,7.9V11.1A25.7,25.7,0,0,0,35,9.032,26,26,0,0,0,9.032,35,25.7,25.7,0,0,0,11.1,45.161H2.258A2.261,2.261,0,0,0,0,47.419V66.613A3.392,3.392,0,0,0,3.387,70H21.452a3.392,3.392,0,0,0,3.387-3.387V58.9A25.683,25.683,0,0,0,35,60.968,26,26,0,0,0,60.968,35,25.7,25.7,0,0,0,58.9,24.839h7.71A3.391,3.391,0,0,0,70,21.451V2.258A2.261,2.261,0,0,0,67.742,0m-43.1,51.935a3.4,3.4,0,0,0-.935-1.392V18.064H45.161v3.387a3.379,3.379,0,0,0,1.129,2.522V51.935ZM11.29,35A23.737,23.737,0,0,1,35,11.29a23.446,23.446,0,0,1,10.161,2.282v2.234H23.71a2.261,2.261,0,0,0-2.258,2.258V49.677H16.688l-.7-2.806a2.255,2.255,0,0,0-2.191-1.71h-.224A23.446,23.446,0,0,1,11.29,35M2.258,47.419H13.8l.564,2.258H2.258ZM22.581,66.613a1.131,1.131,0,0,1-1.129,1.129H15.807V63.226H13.548v4.516H11.29V63.226H9.032v4.516H6.774V63.226H4.516v4.516H3.387a1.131,1.131,0,0,1-1.129-1.129V51.935H21.452a1.131,1.131,0,0,1,1.129,1.129ZM58.71,35A23.737,23.737,0,0,1,35,58.71a23.446,23.446,0,0,1-10.161-2.282V54.193H46.29a2.261,2.261,0,0,0,2.258-2.258v-27.1h7.88A23.446,23.446,0,0,1,58.71,35m9.032-13.549a1.131,1.131,0,0,1-1.129,1.13H65.484V18.064H63.226v4.517H60.968V18.064H58.71v4.517H56.452V18.064H54.194v4.517H48.548a1.131,1.131,0,0,1-1.129-1.13V7.9a1.131,1.131,0,0,1,1.129-1.129H67.742Zm0-16.935H55.64L56.2,2.258H67.742Z" fill="#f6f6f6"/>
          <path id="Path_204320" data-name="Path 204320" d="M36.129,63.226H25.968l4.742,6.323,1.806-1.355-2.032-2.71h5.645A29.389,29.389,0,0,0,65.484,36.129H63.226A27.128,27.128,0,0,1,36.129,63.226Z" fill="#f6f6f6"/>
          <rect id="Rectangle_53148" data-name="Rectangle 53148" width="2.258" height="2.258" transform="translate(63.226 31.613)" fill="#f6f6f6"/>
          <rect id="Rectangle_53149" data-name="Rectangle 53149" width="2.258" height="2.258" transform="translate(63.226 27.097)" fill="#f6f6f6"/>
          <path id="Path_204321" data-name="Path 204321" d="M33.871,6.774H42.9L38.161.451,36.355,1.806l2.032,2.71H33.871A29.389,29.389,0,0,0,4.516,33.871H6.774a27.128,27.128,0,0,1,27.1-27.1" fill="#f6f6f6"/>
          <rect id="Rectangle_53150" data-name="Rectangle 53150" width="2.258" height="2.258" transform="translate(4.516 36.129)" fill="#f6f6f6"/>
          <rect id="Rectangle_53151" data-name="Rectangle 53151" width="2.258" height="2.258" transform="translate(4.516 40.645)" fill="#f6f6f6"/>
          <path id="Path_204322" data-name="Path 204322" d="M41.774,38.387H28.226a2.261,2.261,0,0,0-2.258,2.258v6.774a2.261,2.261,0,0,0,2.258,2.258H41.774a2.261,2.261,0,0,0,2.258-2.258V40.645a2.261,2.261,0,0,0-2.258-2.258m0,4.516H39.516V40.645h2.258ZM35,47.419H32.742V45.161H35Zm0-6.774h2.258V42.9H35ZM32.742,42.9H28.226V40.645h4.516Zm-4.516,2.258h2.258v2.258H28.226Zm13.548,2.258H37.258V45.161h4.517v2.258Z" fill="#f6f6f6"/>
          <path id="Path_204323" data-name="Path 204323" d="M41.774,29.355H28.226a2.261,2.261,0,0,0-2.258,2.258v2.258a2.261,2.261,0,0,0,2.258,2.258H41.774a2.261,2.261,0,0,0,2.258-2.258V31.613a2.261,2.261,0,0,0-2.258-2.258M35,33.871H32.742V31.613H35Zm-6.774-2.258h2.258v2.258H28.226Zm13.548,2.258H37.258V31.613h4.516v2.258Z" fill="#f6f6f6"/>
          <path id="Path_204324" data-name="Path 204324" d="M41.774,20.323H28.226a2.261,2.261,0,0,0-2.258,2.258v2.258A2.261,2.261,0,0,0,28.226,27.1H41.774a2.261,2.261,0,0,0,2.258-2.258V22.581a2.261,2.261,0,0,0-2.258-2.258M35,24.839H32.742V22.581H35Zm-6.774-2.258h2.258v2.258H28.226Zm13.548,2.258H37.258V22.581h4.516v2.258Z" fill="#f6f6f6"/>
        </g>
      </g>
    </g>
  </g>
</svg>
