<svg xmlns="http://www.w3.org/2000/svg" width="190" height="115" viewBox="0 0 190 115">
  <g id="_7" data-name="7" transform="translate(-180 -4579)">
    <rect id="Rectangle_43992" data-name="Rectangle 43992" width="190" height="115" transform="translate(180 4579)" fill="none"/>
    <g id="Group_146381" data-name="Group 146381" transform="translate(0 4186)">
      <rect id="Rectangle_41430" data-name="Rectangle 41430" width="85" height="28" rx="14" transform="translate(285 407)" fill="#feca2e" opacity="0.2"/>
      <rect id="Rectangle_41431" data-name="Rectangle 41431" width="85" height="28" rx="14" transform="translate(180 468)" fill="#4dd0e1" opacity="0.2"/>
    </g>
    <g id="Group_172607" data-name="Group 172607" transform="translate(119 2020)">
      <path id="Path_206269" data-name="Path 206269" d="M45.177,448a5.177,5.177,0,1,0,5.177,5.177A5.184,5.184,0,0,0,45.177,448m0,6.9a1.726,1.726,0,1,1,1.726-1.726,1.728,1.728,0,0,1-1.726,1.726" transform="translate(71.629 2212.645)" fill="#1b306d"/>
      <path id="Path_206270" data-name="Path 206270" d="M24.408,419.538l2.44,2.44a8.629,8.629,0,0,1,12.2,0l2.44-2.44a12.079,12.079,0,0,0-17.082,0" transform="translate(83.858 2237.743)" fill="#1b306d"/>
      <path id="Path_206271" data-name="Path 206271" d="M1.776,389.594l2.44,2.44a15.552,15.552,0,0,1,21.968,0l2.44-2.44a19.006,19.006,0,0,0-26.848,0" transform="translate(101.607 2262.806)" fill="#1b306d"/>
      <path id="Path_206272" data-name="Path 206272" d="M388.71,410.355h-3.452v-6.9h-3.452v6.9h-3.452V406.9H374.9v3.452h-3.452V400H368v13.806h20.71Z" transform="translate(-185.613 2250.29)" fill="#1b306d"/>
      <path id="Path_206273" data-name="Path 206273" d="M101.823,41.419H88.016A5.184,5.184,0,0,0,82.839,46.6v5.177H75.847a22.308,22.308,0,0,0-5.329-12.852L87,22.435H100.1A6.9,6.9,0,0,0,101.71,8.819a10.358,10.358,0,0,0-20.485,0A6.883,6.883,0,0,0,82.19,22.37L68.078,36.482a22.312,22.312,0,0,0-12.852-5.329V24.161H60.4a5.184,5.184,0,0,0,5.177-5.177V5.177A5.184,5.184,0,0,0,60.4,0H46.6a5.184,5.184,0,0,0-5.177,5.177V18.984A5.184,5.184,0,0,0,46.6,24.161h5.177v6.991a22.308,22.308,0,0,0-12.852,5.329l-8.308-8.31a17.3,17.3,0,1,0-2.442,2.44l8.308,8.31a22.312,22.312,0,0,0-5.329,12.852h-6.99V46.6a5.184,5.184,0,0,0-5.177-5.177H5.177A5.184,5.184,0,0,0,0,46.6V60.4a5.184,5.184,0,0,0,5.177,5.177H18.984A5.184,5.184,0,0,0,24.161,60.4V55.226h6.991a22.308,22.308,0,0,0,5.329,12.852L24.667,79.893l2.44,2.44L38.922,70.518a22.312,22.312,0,0,0,12.852,5.329v6.991H46.6a5.184,5.184,0,0,0-5.177,5.177v13.806A5.184,5.184,0,0,0,46.6,107H60.4a5.184,5.184,0,0,0,5.177-5.177V88.016A5.184,5.184,0,0,0,60.4,82.839H55.226V75.847a22.308,22.308,0,0,0,12.852-5.329l8.935,8.935a5.167,5.167,0,0,0-4.529,5.112v17.258A5.184,5.184,0,0,0,77.661,107h24.161A5.184,5.184,0,0,0,107,101.823V84.565a5.184,5.184,0,0,0-5.177-5.177h-20L70.518,68.078a22.312,22.312,0,0,0,5.329-12.852h6.991V60.4a5.184,5.184,0,0,0,5.177,5.177h13.806A5.184,5.184,0,0,0,107,60.4V46.6A5.184,5.184,0,0,0,101.823,41.419ZM62.129,13.806H44.871V10.355H62.129ZM46.6,3.452H60.4a1.728,1.728,0,0,1,1.726,1.726V6.9H44.871V5.177A1.728,1.728,0,0,1,46.6,3.452M44.871,18.984V17.258H62.129v1.726A1.728,1.728,0,0,1,60.4,20.71H46.6a1.728,1.728,0,0,1-1.726-1.726M5.177,44.871H18.984A1.728,1.728,0,0,1,20.71,46.6v1.726H3.452V46.6a1.728,1.728,0,0,1,1.726-1.726M20.71,55.226H3.452V51.774H20.71Zm-1.726,6.9H5.177A1.728,1.728,0,0,1,3.452,60.4V58.677H20.71V60.4a1.728,1.728,0,0,1-1.726,1.726M44.871,93.194H62.129v3.452H44.871ZM60.4,103.548H46.6a1.728,1.728,0,0,1-1.726-1.726V100.1H62.129v1.726a1.728,1.728,0,0,1-1.726,1.726m1.726-15.532v1.726H44.871V88.016A1.728,1.728,0,0,1,46.6,86.29H60.4a1.728,1.728,0,0,1,1.726,1.726M53.5,72.484c-1.855,0-3.831-2.635-5.193-6.9H58.695C57.331,69.849,55.355,72.484,53.5,72.484ZM47.427,62.129a42.8,42.8,0,0,1-.794-6.9H60.367a42.991,42.991,0,0,1-.794,6.9ZM34.6,55.226h8.579a47.33,47.33,0,0,0,.706,6.9H36.613a18.778,18.778,0,0,1-2.009-6.9m18.9-20.71c1.855,0,3.831,2.635,5.193,6.9H48.305C49.669,37.151,51.645,34.516,53.5,34.516Zm6.073,10.355a42.8,42.8,0,0,1,.794,6.9H46.633a42.991,42.991,0,0,1,.794-6.9Zm-16.39,6.9H34.6a18.811,18.811,0,0,1,2.009-6.9h7.276a47.092,47.092,0,0,0-.706,6.9m20.634,3.452H72.4a18.812,18.812,0,0,1-2.009,6.9H63.111a47.094,47.094,0,0,0,.706-6.9m0-3.452a47.331,47.331,0,0,0-.706-6.9h7.276a18.845,18.845,0,0,1,2.009,6.9Zm15.57-36.242a3.455,3.455,0,0,1,3.452-3.452h1.726V10.355A6.9,6.9,0,0,1,98.214,8.89a6.915,6.915,0,0,0-5.02,6.643h3.452a3.452,3.452,0,1,1,3.452,3.452H82.839a3.455,3.455,0,0,1-3.452-3.452M68.133,41.419H62.312a23.851,23.851,0,0,0-2.4-5.766,19.068,19.068,0,0,1,8.222,5.766M47.09,35.653a23.92,23.92,0,0,0-2.4,5.766H38.869a19.048,19.048,0,0,1,8.222-5.766M17.258,3.452A13.779,13.779,0,0,1,29.175,24.2a13.9,13.9,0,0,0-6.741-5.869,6.9,6.9,0,1,0-10.353,0A13.913,13.913,0,0,0,5.34,24.194,13.78,13.78,0,0,1,17.258,3.452M13.806,13.806a3.452,3.452,0,1,1,3.452,3.452,3.455,3.455,0,0,1-3.452-3.452M7.694,27.192a10.3,10.3,0,0,1,19.129,0,13.747,13.747,0,0,1-19.129,0M38.867,65.581h5.821a23.851,23.851,0,0,0,2.4,5.766,19.068,19.068,0,0,1-8.222-5.766M59.91,71.347a23.92,23.92,0,0,0,2.4-5.766h5.821a19.048,19.048,0,0,1-8.222,5.766m43.639,13.218v17.258a1.728,1.728,0,0,1-1.726,1.726H77.661a1.728,1.728,0,0,1-1.726-1.726V84.565a1.728,1.728,0,0,1,1.726-1.726h24.161a1.728,1.728,0,0,1,1.726,1.726M88.016,44.871h13.806a1.728,1.728,0,0,1,1.726,1.726v1.726H86.29V46.6a1.728,1.728,0,0,1,1.726-1.726m15.532,10.355H86.29V51.774h17.258Zm-1.726,6.9H88.016A1.728,1.728,0,0,1,86.29,60.4V58.677h17.258V60.4a1.728,1.728,0,0,1-1.726,1.726" transform="translate(103 2564)" fill="#1b306d"/>
    </g>
  </g>
</svg>
