<svg xmlns="http://www.w3.org/2000/svg" xmlns:xlink="http://www.w3.org/1999/xlink" width="1036" height="194" viewBox="0 0 1036 194">
  <defs>
    <filter id="Rectangle_40347" x="0" y="0" width="196" height="194" filterUnits="userSpaceOnUse">
      <feOffset dy="2" input="SourceAlpha"/>
      <feGaussianBlur stdDeviation="1" result="blur"/>
      <feFlood flood-opacity="0.161"/>
      <feComposite operator="in" in2="blur"/>
      <feComposite in="SourceGraphic"/>
    </filter>
    <filter id="Rectangle_40348" x="280" y="0" width="196" height="194" filterUnits="userSpaceOnUse">
      <feOffset dy="2" input="SourceAlpha"/>
      <feGaussianBlur stdDeviation="1" result="blur-2"/>
      <feFlood flood-opacity="0.161"/>
      <feComposite operator="in" in2="blur-2"/>
      <feComposite in="SourceGraphic"/>
    </filter>
    <filter id="Rectangle_44962" x="560" y="0" width="196" height="194" filterUnits="userSpaceOnUse">
      <feOffset dy="2" input="SourceAlpha"/>
      <feGaussianBlur stdDeviation="1" result="blur-3"/>
      <feFlood flood-opacity="0.161"/>
      <feComposite operator="in" in2="blur-3"/>
      <feComposite in="SourceGraphic"/>
    </filter>
    <filter id="Rectangle_44963" x="840" y="0" width="196" height="194" filterUnits="userSpaceOnUse">
      <feOffset dy="2" input="SourceAlpha"/>
      <feGaussianBlur stdDeviation="1" result="blur-4"/>
      <feFlood flood-opacity="0.161"/>
      <feComposite operator="in" in2="blur-4"/>
      <feComposite in="SourceGraphic"/>
    </filter>
    <clipPath id="clip-path">
      <rect id="Rectangle_44964" data-name="Rectangle 44964" width="120" height="64.587" fill="none"/>
    </clipPath>
    <clipPath id="clip-path-2">
      <rect id="Rectangle_44979" data-name="Rectangle 44979" width="100" height="100" fill="none"/>
    </clipPath>
    <clipPath id="clip-path-3">
      <rect id="Rectangle_44980" data-name="Rectangle 44980" width="99.994" height="100" fill="none"/>
    </clipPath>
    <clipPath id="clip-path-4">
      <rect id="Rectangle_44981" data-name="Rectangle 44981" width="103.767" height="100" fill="none"/>
    </clipPath>
  </defs>
  <g id="_8" data-name="8" transform="translate(-282 -2695)">
    <g transform="matrix(1, 0, 0, 1, 282, 2695)" filter="url(#Rectangle_40347)">
      <rect id="Rectangle_40347-2" data-name="Rectangle 40347" width="190" height="188" rx="10" transform="translate(3 1)" fill="#fff"/>
    </g>
    <path id="Path_206284" data-name="Path 206284" d="M58.406,10.469H53.984V15H51.242V3.625h7.609V5.742H53.984V8.359h4.422Zm6.328,3.617a2.714,2.714,0,0,1-2.258,1.07,2.662,2.662,0,0,1-2.105-.809,3.4,3.4,0,0,1-.715-2.324V6.547h2.633v5.492a.946.946,0,0,0,1.055,1.086,1.376,1.376,0,0,0,1.289-.648V6.547h2.648V15H64.813Zm8.078,1.07A4.345,4.345,0,0,1,69.664,14a4.006,4.006,0,0,1-1.2-3.02v-.219a5.191,5.191,0,0,1,.48-2.289,3.516,3.516,0,0,1,1.4-1.535,4.233,4.233,0,0,1,2.188-.543A3.659,3.659,0,0,1,75.344,7.5a4.344,4.344,0,0,1,1.031,3.082V11.6H71.141a1.9,1.9,0,0,0,.617,1.117,1.836,1.836,0,0,0,1.234.406,2.366,2.366,0,0,0,1.953-.875l1.2,1.422a3.363,3.363,0,0,1-1.395,1.082A4.713,4.713,0,0,1,72.813,15.156Zm-.3-6.734q-1.156,0-1.375,1.531H73.8v-.2a1.3,1.3,0,0,0-.32-.98A1.275,1.275,0,0,0,72.516,8.422Zm7.336-1.875.086.992a2.867,2.867,0,0,1,2.414-1.148,2.412,2.412,0,0,1,1.973.789A3.757,3.757,0,0,1,85,9.555V15H82.359V9.664a1.426,1.426,0,0,0-.258-.941,1.193,1.193,0,0,0-.937-.3,1.256,1.256,0,0,0-1.148.609V15H77.383V6.547Zm9.672-2.1v2.1h1.391V8.375H89.523v3.867a.987.987,0,0,0,.172.664.922.922,0,0,0,.68.188,3.862,3.862,0,0,0,.656-.047V14.93a4.859,4.859,0,0,1-1.484.227,2.758,2.758,0,0,1-2.008-.641,2.626,2.626,0,0,1-.648-1.945v-4.2H85.813V6.547h1.078v-2.1Zm6.516,10.711A4.345,4.345,0,0,1,92.891,14a4.006,4.006,0,0,1-1.2-3.02v-.219a5.191,5.191,0,0,1,.48-2.289,3.516,3.516,0,0,1,1.4-1.535,4.233,4.233,0,0,1,2.188-.543A3.659,3.659,0,0,1,98.57,7.5,4.344,4.344,0,0,1,99.6,10.578V11.6H94.367a1.9,1.9,0,0,0,.617,1.117,1.836,1.836,0,0,0,1.234.406,2.366,2.366,0,0,0,1.953-.875l1.2,1.422a3.363,3.363,0,0,1-1.395,1.082A4.713,4.713,0,0,1,96.039,15.156Zm-.3-6.734q-1.156,0-1.375,1.531h2.656v-.2a1.3,1.3,0,0,0-.32-.98A1.275,1.275,0,0,0,95.742,8.422Zm8.57,2.289a5.164,5.164,0,0,1,.867-3.164A2.854,2.854,0,0,1,107.6,6.391a2.428,2.428,0,0,1,1.906.891V3h2.641V15h-2.367l-.133-.906a2.493,2.493,0,0,1-2.062,1.063A2.849,2.849,0,0,1,105.2,14,5.327,5.327,0,0,1,104.313,10.711Zm2.633.164q0,2.25,1.313,2.25a1.3,1.3,0,0,0,1.25-.734V9.172a1.261,1.261,0,0,0-1.234-.75q-1.219,0-1.32,1.969Zm10.789,4.281A4.345,4.345,0,0,1,114.586,14a4.006,4.006,0,0,1-1.2-3.02v-.219a5.191,5.191,0,0,1,.48-2.289,3.516,3.516,0,0,1,1.4-1.535,4.233,4.233,0,0,1,2.188-.543A3.659,3.659,0,0,1,120.266,7.5a4.344,4.344,0,0,1,1.031,3.082V11.6h-5.234a1.9,1.9,0,0,0,.617,1.117,1.836,1.836,0,0,0,1.234.406,2.366,2.366,0,0,0,1.953-.875l1.2,1.422a3.363,3.363,0,0,1-1.395,1.082A4.713,4.713,0,0,1,117.734,15.156Zm-.3-6.734q-1.156,0-1.375,1.531h2.656v-.2a1.3,1.3,0,0,0-.32-.98A1.275,1.275,0,0,0,117.438,8.422ZM45.887,31H43.246V22.547h2.641Zm-2.8-10.633a1.175,1.175,0,0,1,.406-.922,1.727,1.727,0,0,1,2.109,0,1.249,1.249,0,0,1,0,1.844,1.727,1.727,0,0,1-2.109,0A1.175,1.175,0,0,1,43.09,20.367Zm6.836,2.18.086.992a2.867,2.867,0,0,1,2.414-1.148,2.412,2.412,0,0,1,1.973.789,3.757,3.757,0,0,1,.676,2.375V31H52.434V25.664a1.426,1.426,0,0,0-.258-.941,1.193,1.193,0,0,0-.937-.3,1.256,1.256,0,0,0-1.148.609V31H47.457V22.547ZM57.113,31V24.375H55.887V22.547h1.227v-.672a2.921,2.921,0,0,1,.852-2.242,3.364,3.364,0,0,1,2.391-.8A5.235,5.235,0,0,1,61.59,19l.008,1.938a2.4,2.4,0,0,0-.648-.07q-1.2,0-1.2,1.031v.648H61.4v1.828H59.754V31ZM62,26.7a4.989,4.989,0,0,1,.492-2.254,3.52,3.52,0,0,1,1.414-1.52,4.259,4.259,0,0,1,2.164-.531,3.887,3.887,0,0,1,2.992,1.176,4.512,4.512,0,0,1,1.094,3.2v.094A4.378,4.378,0,0,1,69.055,30a3.9,3.9,0,0,1-2.973,1.16,3.942,3.942,0,0,1-2.9-1.082A4.232,4.232,0,0,1,62,27.141Zm2.633.164A3.145,3.145,0,0,0,65,28.578a1.223,1.223,0,0,0,1.086.547q1.406,0,1.438-2.164V26.7q0-2.273-1.453-2.273-1.32,0-1.43,1.961Zm11.8-1.93-.867-.062a1.558,1.558,0,0,0-1.594.781V31H71.332V22.547H73.8l.086,1.086a2.039,2.039,0,0,1,1.852-1.242,2.567,2.567,0,0,1,.734.094Zm3.438-2.383.086.992a2.906,2.906,0,0,1,2.414-1.148,2.14,2.14,0,0,1,2.164,1.273,2.813,2.813,0,0,1,2.484-1.273q2.57,0,2.641,3.109V31H87.012V25.664a1.611,1.611,0,0,0-.219-.945.931.931,0,0,0-.8-.3,1.247,1.247,0,0,0-1.164.7l.008.109V31H82.2V25.68a1.694,1.694,0,0,0-.211-.961.929.929,0,0,0-.8-.3,1.263,1.263,0,0,0-1.156.7V31H77.395V22.547ZM95.918,31a2.973,2.973,0,0,1-.25-.758,2.448,2.448,0,0,1-2.031.914,3,3,0,0,1-2.031-.723,2.3,2.3,0,0,1-.836-1.816,2.364,2.364,0,0,1,1.016-2.078,5.174,5.174,0,0,1,2.953-.7h.813v-.448q0-1.17-1.008-1.17a.824.824,0,0,0-.937.926H90.973a2.36,2.36,0,0,1,1.043-1.99,4.383,4.383,0,0,1,2.66-.765,3.843,3.843,0,0,1,2.555.789,2.743,2.743,0,0,1,.961,2.164v3.742a3.832,3.832,0,0,0,.359,1.781V31ZM94.27,29.281a1.469,1.469,0,0,0,.816-.211,1.322,1.322,0,0,0,.465-.477V27.242h-.766q-1.375,0-1.375,1.234a.754.754,0,0,0,.242.582A.876.876,0,0,0,94.27,29.281Zm8.953-.156a1.171,1.171,0,0,0,.859-.3,1.1,1.1,0,0,0,.3-.84h2.469a2.922,2.922,0,0,1-1,2.281,3.705,3.705,0,0,1-2.566.891A3.751,3.751,0,0,1,100.379,30a4.556,4.556,0,0,1-1.062-3.2v-.109a5.149,5.149,0,0,1,.473-2.262,3.441,3.441,0,0,1,1.363-1.508,4.065,4.065,0,0,1,2.109-.527,3.658,3.658,0,0,1,2.617.914,3.242,3.242,0,0,1,.969,2.477h-2.469a1.445,1.445,0,0,0-.32-1.008,1.106,1.106,0,0,0-.859-.352q-1.023,0-1.2,1.3a9.206,9.206,0,0,0-.055,1.141,3.616,3.616,0,0,0,.3,1.766A1.055,1.055,0,0,0,103.223,29.125ZM110.738,31H108.1V22.547h2.641Zm-2.8-10.633a1.175,1.175,0,0,1,.406-.922,1.727,1.727,0,0,1,2.109,0,1.249,1.249,0,0,1,0,1.844,1.727,1.727,0,0,1-2.109,0A1.175,1.175,0,0,1,107.941,20.367Zm4.086,6.328a4.989,4.989,0,0,1,.492-2.254,3.52,3.52,0,0,1,1.414-1.52,4.259,4.259,0,0,1,2.164-.531,3.887,3.887,0,0,1,2.992,1.176,4.512,4.512,0,0,1,1.094,3.2v.094a4.378,4.378,0,0,1-1.1,3.137,3.9,3.9,0,0,1-2.973,1.16,3.942,3.942,0,0,1-2.9-1.082,4.232,4.232,0,0,1-1.18-2.934Zm2.633.164a3.145,3.145,0,0,0,.367,1.719,1.223,1.223,0,0,0,1.086.547q1.406,0,1.438-2.164V26.7q0-2.273-1.453-2.273-1.32,0-1.43,1.961Zm1.8-7.859h2.781l-2.172,2.453-2.148,0Zm7.3,3.547.086.992a2.867,2.867,0,0,1,2.414-1.148,2.412,2.412,0,0,1,1.973.789,3.757,3.757,0,0,1,.676,2.375V31H126.27V25.664a1.426,1.426,0,0,0-.258-.941,1.193,1.193,0,0,0-.937-.3,1.256,1.256,0,0,0-1.148.609V31h-2.633V22.547Z" transform="translate(293 2829.76)" fill="#12263f"/>
    <g transform="matrix(1, 0, 0, 1, 282, 2695)" filter="url(#Rectangle_40348)">
      <rect id="Rectangle_40348-2" data-name="Rectangle 40348" width="190" height="188" rx="10" transform="translate(283 1)" fill="#fff"/>
    </g>
    <path id="Path_206281" data-name="Path 206281" d="M61.078,12.891h4.773V15H58.336V3.625h2.742ZM71.648,15a2.973,2.973,0,0,1-.25-.758,2.448,2.448,0,0,1-2.031.914,3,3,0,0,1-2.031-.723,2.3,2.3,0,0,1-.836-1.816,2.364,2.364,0,0,1,1.016-2.078,5.174,5.174,0,0,1,2.953-.7h.813V9.388q0-1.17-1.008-1.17a.824.824,0,0,0-.937.926H66.7a2.36,2.36,0,0,1,1.043-1.99,4.383,4.383,0,0,1,2.66-.765,3.843,3.843,0,0,1,2.555.789,2.743,2.743,0,0,1,.961,2.164v3.742a3.832,3.832,0,0,0,.359,1.781V15ZM70,13.281a1.469,1.469,0,0,0,.816-.211,1.322,1.322,0,0,0,.465-.477V11.242h-.766q-1.375,0-1.375,1.234a.754.754,0,0,0,.242.582A.876.876,0,0,0,70,13.281Zm5.07-2.57a5.708,5.708,0,0,1,.422-2.266A3.4,3.4,0,0,1,76.7,6.926a3.192,3.192,0,0,1,1.836-.535,2.538,2.538,0,0,1,2.063.891l.094-.734h2.391V14.68a3.564,3.564,0,0,1-.52,1.941,3.334,3.334,0,0,1-1.5,1.266,5.528,5.528,0,0,1-2.281.441,4.769,4.769,0,0,1-1.8-.352,3.251,3.251,0,0,1-1.332-.914l1.1-1.547a2.414,2.414,0,0,0,1.938.867,1.568,1.568,0,0,0,1.75-1.8V14.32a2.472,2.472,0,0,1-1.914.836,3.055,3.055,0,0,1-2.5-1.184A4.9,4.9,0,0,1,75.07,10.8Zm2.641.164A3.007,3.007,0,0,0,78.1,12.52a1.232,1.232,0,0,0,1.094.605,1.4,1.4,0,0,0,1.242-.57V9a1.363,1.363,0,0,0-1.227-.578,1.241,1.241,0,0,0-1.1.629A3.429,3.429,0,0,0,77.711,10.875Zm6.539-.18a4.989,4.989,0,0,1,.492-2.254,3.52,3.52,0,0,1,1.414-1.52,4.259,4.259,0,0,1,2.164-.531,3.887,3.887,0,0,1,2.992,1.176,4.512,4.512,0,0,1,1.094,3.2v.094A4.378,4.378,0,0,1,91.309,14a3.9,3.9,0,0,1-2.973,1.16,3.942,3.942,0,0,1-2.9-1.082,4.232,4.232,0,0,1-1.18-2.934Zm2.633.164a3.145,3.145,0,0,0,.367,1.719,1.223,1.223,0,0,0,1.086.547q1.406,0,1.438-2.164V10.7q0-2.273-1.453-2.273-1.32,0-1.43,1.961Zm10.336-.148a5.164,5.164,0,0,1,.867-3.164,2.854,2.854,0,0,1,2.422-1.156,2.428,2.428,0,0,1,1.906.891V3h2.641V15h-2.367l-.133-.906a2.493,2.493,0,0,1-2.062,1.063A2.849,2.849,0,0,1,98.1,14,5.327,5.327,0,0,1,97.219,10.711Zm2.633.164q0,2.25,1.313,2.25a1.3,1.3,0,0,0,1.25-.734V9.172a1.261,1.261,0,0,0-1.234-.75q-1.219,0-1.32,1.969Zm10.789,4.281A4.345,4.345,0,0,1,107.492,14a4.006,4.006,0,0,1-1.2-3.02v-.219a5.191,5.191,0,0,1,.48-2.289,3.516,3.516,0,0,1,1.4-1.535,4.233,4.233,0,0,1,2.188-.543A3.659,3.659,0,0,1,113.172,7.5a4.344,4.344,0,0,1,1.031,3.082V11.6h-5.234a1.9,1.9,0,0,0,.617,1.117,1.836,1.836,0,0,0,1.234.406,2.366,2.366,0,0,0,1.953-.875l1.2,1.422a3.363,3.363,0,0,1-1.395,1.082A4.713,4.713,0,0,1,110.641,15.156Zm-.3-6.734q-1.156,0-1.375,1.531h2.656v-.2a1.3,1.3,0,0,0-.32-.98A1.275,1.275,0,0,0,110.344,8.422Zm-43.9,18.289a5.164,5.164,0,0,1,.867-3.164,2.854,2.854,0,0,1,2.422-1.156,2.428,2.428,0,0,1,1.906.891V19h2.641V31H71.91l-.133-.906a2.493,2.493,0,0,1-2.062,1.063A2.849,2.849,0,0,1,67.324,30,5.327,5.327,0,0,1,66.441,26.711Zm2.633.164q0,2.25,1.313,2.25a1.3,1.3,0,0,0,1.25-.734V25.172a1.261,1.261,0,0,0-1.234-.75q-1.219,0-1.32,1.969ZM80.535,31a2.973,2.973,0,0,1-.25-.758,2.448,2.448,0,0,1-2.031.914,3,3,0,0,1-2.031-.723,2.3,2.3,0,0,1-.836-1.816A2.364,2.364,0,0,1,76.4,26.539a5.174,5.174,0,0,1,2.953-.7h.813v-.448q0-1.17-1.008-1.17a.824.824,0,0,0-.937.926H75.59a2.36,2.36,0,0,1,1.043-1.99,4.383,4.383,0,0,1,2.66-.765,3.843,3.843,0,0,1,2.555.789,2.743,2.743,0,0,1,.961,2.164v3.742a3.832,3.832,0,0,0,.359,1.781V31Zm-1.648-1.719a1.469,1.469,0,0,0,.816-.211,1.322,1.322,0,0,0,.465-.477V27.242H79.4q-1.375,0-1.375,1.234a.754.754,0,0,0,.242.582A.876.876,0,0,0,78.887,29.281Zm8.445-8.836v2.1h1.391v1.828H87.332v3.867a.987.987,0,0,0,.172.664.922.922,0,0,0,.68.188,3.862,3.862,0,0,0,.656-.047V30.93a4.859,4.859,0,0,1-1.484.227,2.758,2.758,0,0,1-2.008-.641A2.626,2.626,0,0,1,84.7,28.57v-4.2H83.621V22.547H84.7v-2.1Zm1.859,6.25a4.989,4.989,0,0,1,.492-2.254,3.52,3.52,0,0,1,1.414-1.52,4.259,4.259,0,0,1,2.164-.531,3.887,3.887,0,0,1,2.992,1.176,4.512,4.512,0,0,1,1.094,3.2v.094A4.378,4.378,0,0,1,96.25,30a3.9,3.9,0,0,1-2.973,1.16,3.942,3.942,0,0,1-2.9-1.082,4.232,4.232,0,0,1-1.18-2.934Zm2.633.164a3.145,3.145,0,0,0,.367,1.719,1.223,1.223,0,0,0,1.086.547q1.406,0,1.438-2.164V26.7q0-2.273-1.453-2.273-1.32,0-1.43,1.961Zm11.109,1.766a.608.608,0,0,0-.352-.539,5.348,5.348,0,0,0-1.336-.422,6.092,6.092,0,0,1-1.625-.574,2.722,2.722,0,0,1-.977-.863,2.061,2.061,0,0,1-.336-1.164,2.336,2.336,0,0,1,.961-1.918,3.958,3.958,0,0,1,2.516-.754,4.386,4.386,0,0,1,2.688.758,2.37,2.37,0,0,1,1.016,1.992h-2.641q0-1.016-1.07-1.016a1.061,1.061,0,0,0-.7.23.714.714,0,0,0-.281.574.655.655,0,0,0,.344.57,3.248,3.248,0,0,0,1.1.359,9.486,9.486,0,0,1,1.324.336,2.406,2.406,0,0,1,1.906,2.352,2.214,2.214,0,0,1-1.027,1.883,4.505,4.505,0,0,1-2.66.727,4.6,4.6,0,0,1-1.937-.391A3.24,3.24,0,0,1,98.52,29.7a2.406,2.406,0,0,1-.477-1.414H100.5a1.017,1.017,0,0,0,.391.855,1.607,1.607,0,0,0,.961.27,1.264,1.264,0,0,0,.809-.219A.7.7,0,0,0,102.934,28.625Z" transform="translate(573.648 2829.76)" fill="#12263f"/>
    <g transform="matrix(1, 0, 0, 1, 282, 2695)" filter="url(#Rectangle_44962)">
      <rect id="Rectangle_44962-2" data-name="Rectangle 44962" width="190" height="188" rx="10" transform="translate(563 1)" fill="#fff"/>
    </g>
    <path id="Path_206282" data-name="Path 206282" d="M37.816,10.172H33.5v2.719H38.6V15H30.762V3.625h7.852V5.742H33.5v2.4h4.313ZM48.8,5.742H45.387V15H42.645V5.742H39.293V3.625H48.8Zm3.9,7.148h4.773V15H49.957V3.625H52.7Zm16.969-2.719H65.355v2.719h5.094V15H62.613V3.625h7.852V5.742H65.355v2.4h4.313Zm5.2-1.3L76.1,6.547h2.734l-2.227,4.117L78.941,15h-2.75l-1.328-2.5-1.3,2.5H70.793l2.344-4.336L70.918,6.547h2.766Zm7.875-4.43v2.1h1.391V8.375H82.746v3.867a.987.987,0,0,0,.172.664.922.922,0,0,0,.68.188,3.862,3.862,0,0,0,.656-.047V14.93a4.859,4.859,0,0,1-1.484.227,2.758,2.758,0,0,1-2.008-.641,2.626,2.626,0,0,1-.648-1.945v-4.2H79.035V6.547h1.078v-2.1ZM90.285,8.93l-.867-.062a1.558,1.558,0,0,0-1.594.781V15H85.191V6.547H87.66l.086,1.086A2.039,2.039,0,0,1,89.6,6.391a2.567,2.567,0,0,1,.734.094ZM95.762,15a2.973,2.973,0,0,1-.25-.758,2.448,2.448,0,0,1-2.031.914,3,3,0,0,1-2.031-.723,2.3,2.3,0,0,1-.836-1.816,2.364,2.364,0,0,1,1.016-2.078,5.174,5.174,0,0,1,2.953-.7h.813V9.388q0-1.17-1.008-1.17a.824.824,0,0,0-.937.926H90.816a2.36,2.36,0,0,1,1.043-1.99,4.383,4.383,0,0,1,2.66-.765,3.843,3.843,0,0,1,2.555.789,2.743,2.743,0,0,1,.961,2.164v3.742a3.832,3.832,0,0,0,.359,1.781V15Zm-1.648-1.719a1.469,1.469,0,0,0,.816-.211,1.322,1.322,0,0,0,.465-.477V11.242h-.766q-1.375,0-1.375,1.234a.754.754,0,0,0,.242.582A.876.876,0,0,0,94.113,13.281Zm8.953-.156a1.171,1.171,0,0,0,.859-.3,1.1,1.1,0,0,0,.3-.84h2.469a2.922,2.922,0,0,1-1,2.281,3.705,3.705,0,0,1-2.566.891A3.751,3.751,0,0,1,100.223,14a4.556,4.556,0,0,1-1.062-3.2v-.109a5.149,5.149,0,0,1,.473-2.262A3.441,3.441,0,0,1,101,6.918a4.065,4.065,0,0,1,2.109-.527,3.658,3.658,0,0,1,2.617.914,3.242,3.242,0,0,1,.969,2.477h-2.469a1.445,1.445,0,0,0-.32-1.008,1.106,1.106,0,0,0-.859-.352q-1.023,0-1.2,1.3a9.206,9.206,0,0,0-.055,1.141,3.616,3.616,0,0,0,.3,1.766A1.055,1.055,0,0,0,103.066,13.125Zm8.313,0a1.171,1.171,0,0,0,.859-.3,1.1,1.1,0,0,0,.3-.84H115a2.922,2.922,0,0,1-1,2.281,3.705,3.705,0,0,1-2.566.891A3.751,3.751,0,0,1,108.535,14a4.556,4.556,0,0,1-1.062-3.2v-.109a5.149,5.149,0,0,1,.473-2.262,3.441,3.441,0,0,1,1.363-1.508,4.065,4.065,0,0,1,2.109-.527,3.658,3.658,0,0,1,2.617.914A3.242,3.242,0,0,1,115,9.781h-2.469a1.445,1.445,0,0,0-.32-1.008,1.106,1.106,0,0,0-.859-.352q-1.023,0-1.2,1.3a9.206,9.206,0,0,0-.055,1.141,3.616,3.616,0,0,0,.3,1.766A1.055,1.055,0,0,0,111.379,13.125ZM118.895,15h-2.641V6.547h2.641ZM116.1,4.367a1.175,1.175,0,0,1,.406-.922,1.727,1.727,0,0,1,2.109,0,1.175,1.175,0,0,1,.406.922,1.175,1.175,0,0,1-.406.922,1.727,1.727,0,0,1-2.109,0A1.175,1.175,0,0,1,116.1,4.367Zm4.086,6.328a4.989,4.989,0,0,1,.492-2.254,3.52,3.52,0,0,1,1.414-1.52,4.259,4.259,0,0,1,2.164-.531,3.887,3.887,0,0,1,2.992,1.176,4.512,4.512,0,0,1,1.094,3.2v.094a4.378,4.378,0,0,1-1.1,3.137,3.9,3.9,0,0,1-2.973,1.16,3.942,3.942,0,0,1-2.9-1.082,4.232,4.232,0,0,1-1.18-2.934Zm2.633.164a3.145,3.145,0,0,0,.367,1.719,1.223,1.223,0,0,0,1.086.547q1.406,0,1.438-2.164V10.7q0-2.273-1.453-2.273-1.32,0-1.43,1.961ZM124.613,3h2.781l-2.172,2.453-2.148,0Zm7.3,3.547.086.992a2.867,2.867,0,0,1,2.414-1.148,2.412,2.412,0,0,1,1.973.789,3.757,3.757,0,0,1,.676,2.375V15h-2.641V9.664a1.426,1.426,0,0,0-.258-.941,1.193,1.193,0,0,0-.937-.3,1.256,1.256,0,0,0-1.148.609V15h-2.633V6.547Zm7.531,11.516-1.328-.625.266-.531a4.333,4.333,0,0,0,.57-1.937V13.016h2.109l-.008,1.7a4.238,4.238,0,0,1-.461,1.828A4.645,4.645,0,0,1,139.449,18.063ZM6.035,20.445v2.1H7.426v1.828H6.035v3.867a.987.987,0,0,0,.172.664.922.922,0,0,0,.68.188,3.862,3.862,0,0,0,.656-.047V30.93a4.859,4.859,0,0,1-1.484.227,2.758,2.758,0,0,1-2.008-.641A2.626,2.626,0,0,1,3.4,28.57v-4.2H2.324V22.547H3.4v-2.1Zm7.539,4.484-.867-.062a1.558,1.558,0,0,0-1.594.781V31H8.48V22.547h2.469l.086,1.086a2.039,2.039,0,0,1,1.852-1.242,2.567,2.567,0,0,1,.734.094ZM19.051,31a2.973,2.973,0,0,1-.25-.758,2.448,2.448,0,0,1-2.031.914,3,3,0,0,1-2.031-.723,2.3,2.3,0,0,1-.836-1.816,2.364,2.364,0,0,1,1.016-2.078,5.174,5.174,0,0,1,2.953-.7h.813v-.448q0-1.17-1.008-1.17a.824.824,0,0,0-.937.926H14.105a2.36,2.36,0,0,1,1.043-1.99,4.383,4.383,0,0,1,2.66-.765,3.843,3.843,0,0,1,2.555.789,2.743,2.743,0,0,1,.961,2.164v3.742a3.832,3.832,0,0,0,.359,1.781V31ZM17.4,29.281a1.469,1.469,0,0,0,.816-.211,1.322,1.322,0,0,0,.465-.477V27.242h-.766q-1.375,0-1.375,1.234a.754.754,0,0,0,.242.582A.876.876,0,0,0,17.4,29.281Zm7.8-6.734.086.992A2.867,2.867,0,0,1,27.7,22.391a2.412,2.412,0,0,1,1.973.789,3.757,3.757,0,0,1,.676,2.375V31H27.707V25.664a1.426,1.426,0,0,0-.258-.941,1.193,1.193,0,0,0-.937-.3,1.256,1.256,0,0,0-1.148.609V31H22.73V22.547ZM36.23,28.625a.608.608,0,0,0-.352-.539,5.348,5.348,0,0,0-1.336-.422,6.092,6.092,0,0,1-1.625-.574,2.722,2.722,0,0,1-.977-.863,2.061,2.061,0,0,1-.336-1.164,2.336,2.336,0,0,1,.961-1.918,3.958,3.958,0,0,1,2.516-.754,4.386,4.386,0,0,1,2.688.758,2.37,2.37,0,0,1,1.016,1.992H36.145q0-1.016-1.07-1.016a1.061,1.061,0,0,0-.7.23.714.714,0,0,0-.281.574.655.655,0,0,0,.344.57,3.248,3.248,0,0,0,1.1.359,9.485,9.485,0,0,1,1.324.336,2.406,2.406,0,0,1,1.906,2.352,2.214,2.214,0,0,1-1.027,1.883,4.505,4.505,0,0,1-2.66.727,4.6,4.6,0,0,1-1.937-.391A3.24,3.24,0,0,1,31.816,29.7a2.406,2.406,0,0,1-.477-1.414H33.8a1.017,1.017,0,0,0,.391.855,1.607,1.607,0,0,0,.961.27,1.264,1.264,0,0,0,.809-.219A.7.7,0,0,0,36.23,28.625ZM40.582,31V24.375H39.355V22.547h1.227v-.672a2.921,2.921,0,0,1,.852-2.242,3.364,3.364,0,0,1,2.391-.8A5.235,5.235,0,0,1,45.059,19l.008,1.938a2.4,2.4,0,0,0-.648-.07q-1.2,0-1.2,1.031v.648h1.648v1.828H43.223V31Zm4.883-4.3a4.989,4.989,0,0,1,.492-2.254,3.52,3.52,0,0,1,1.414-1.52,4.259,4.259,0,0,1,2.164-.531,3.887,3.887,0,0,1,2.992,1.176,4.512,4.512,0,0,1,1.094,3.2v.094A4.378,4.378,0,0,1,52.523,30a3.9,3.9,0,0,1-2.973,1.16,3.942,3.942,0,0,1-2.9-1.082,4.232,4.232,0,0,1-1.18-2.934Zm2.633.164a3.145,3.145,0,0,0,.367,1.719,1.223,1.223,0,0,0,1.086.547q1.406,0,1.438-2.164V26.7q0-2.273-1.453-2.273-1.32,0-1.43,1.961Zm11.8-1.93-.867-.062a1.558,1.558,0,0,0-1.594.781V31H54.8V22.547H57.27l.086,1.086a2.039,2.039,0,0,1,1.852-1.242,2.567,2.567,0,0,1,.734.094Zm3.438-2.383.086.992a2.906,2.906,0,0,1,2.414-1.148A2.14,2.14,0,0,1,68,23.664a2.813,2.813,0,0,1,2.484-1.273q2.57,0,2.641,3.109V31H70.48V25.664a1.611,1.611,0,0,0-.219-.945.931.931,0,0,0-.8-.3,1.247,1.247,0,0,0-1.164.7l.008.109V31H65.668V25.68a1.694,1.694,0,0,0-.211-.961.929.929,0,0,0-.8-.3,1.263,1.263,0,0,0-1.156.7V31H60.863V22.547ZM79.387,31a2.973,2.973,0,0,1-.25-.758,2.448,2.448,0,0,1-2.031.914,3,3,0,0,1-2.031-.723,2.3,2.3,0,0,1-.836-1.816,2.364,2.364,0,0,1,1.016-2.078,5.174,5.174,0,0,1,2.953-.7h.813v-.448q0-1.17-1.008-1.17a.824.824,0,0,0-.937.926H74.441a2.36,2.36,0,0,1,1.043-1.99,4.383,4.383,0,0,1,2.66-.765,3.843,3.843,0,0,1,2.555.789,2.743,2.743,0,0,1,.961,2.164v3.742a3.832,3.832,0,0,0,.359,1.781V31Zm-1.648-1.719a1.469,1.469,0,0,0,.816-.211,1.322,1.322,0,0,0,.465-.477V27.242h-.766q-1.375,0-1.375,1.234a.754.754,0,0,0,.242.582A.876.876,0,0,0,77.738,29.281Zm8.953-.156a1.171,1.171,0,0,0,.859-.3,1.1,1.1,0,0,0,.3-.84h2.469a2.922,2.922,0,0,1-1,2.281,3.705,3.705,0,0,1-2.566.891A3.751,3.751,0,0,1,83.848,30a4.556,4.556,0,0,1-1.062-3.2v-.109a5.149,5.149,0,0,1,.473-2.262,3.441,3.441,0,0,1,1.363-1.508,4.065,4.065,0,0,1,2.109-.527,3.658,3.658,0,0,1,2.617.914,3.242,3.242,0,0,1,.969,2.477H87.848a1.445,1.445,0,0,0-.32-1.008,1.106,1.106,0,0,0-.859-.352q-1.023,0-1.2,1.3a9.206,9.206,0,0,0-.055,1.141,3.616,3.616,0,0,0,.3,1.766A1.055,1.055,0,0,0,86.691,29.125ZM94.207,31H91.566V22.547h2.641Zm-2.8-10.633a1.175,1.175,0,0,1,.406-.922,1.727,1.727,0,0,1,2.109,0,1.249,1.249,0,0,1,0,1.844,1.727,1.727,0,0,1-2.109,0A1.175,1.175,0,0,1,91.41,20.367ZM95.5,26.7a4.989,4.989,0,0,1,.492-2.254,3.52,3.52,0,0,1,1.414-1.52,4.259,4.259,0,0,1,2.164-.531,3.887,3.887,0,0,1,2.992,1.176,4.512,4.512,0,0,1,1.094,3.2v.094a4.378,4.378,0,0,1-1.1,3.137,3.9,3.9,0,0,1-2.973,1.16,3.942,3.942,0,0,1-2.9-1.082,4.232,4.232,0,0,1-1.18-2.934Zm2.633.164a3.145,3.145,0,0,0,.367,1.719,1.223,1.223,0,0,0,1.086.547q1.406,0,1.438-2.164V26.7q0-2.273-1.453-2.273-1.32,0-1.43,1.961ZM99.926,19h2.781l-2.172,2.453-2.148,0Zm7.3,3.547.086.992a2.867,2.867,0,0,1,2.414-1.148,2.412,2.412,0,0,1,1.973.789,3.757,3.757,0,0,1,.676,2.375V31h-2.641V25.664a1.426,1.426,0,0,0-.258-.941,1.193,1.193,0,0,0-.937-.3,1.256,1.256,0,0,0-1.148.609V31h-2.633V22.547ZM121.2,27.313l1.406-4.766h2.82l-3.445,9.867-.148.359a2.617,2.617,0,0,1-2.594,1.641,4.126,4.126,0,0,1-1.086-.156V32.383h.344a1.8,1.8,0,0,0,.848-.16.973.973,0,0,0,.434-.575l.211-.563-2.937-8.538h2.813Zm12.469,1.813a1.171,1.171,0,0,0,.859-.3,1.1,1.1,0,0,0,.3-.84h2.469a2.922,2.922,0,0,1-1,2.281,3.705,3.705,0,0,1-2.566.891A3.751,3.751,0,0,1,130.824,30a4.556,4.556,0,0,1-1.062-3.2v-.109a5.149,5.149,0,0,1,.473-2.262,3.441,3.441,0,0,1,1.363-1.508,4.065,4.065,0,0,1,2.109-.527,3.658,3.658,0,0,1,2.617.914,3.242,3.242,0,0,1,.969,2.477h-2.469a1.445,1.445,0,0,0-.32-1.008,1.106,1.106,0,0,0-.859-.352q-1.023,0-1.2,1.3a9.207,9.207,0,0,0-.055,1.141,3.616,3.616,0,0,0,.3,1.766A1.055,1.055,0,0,0,133.668,29.125Zm9.5,1.875a2.973,2.973,0,0,1-.25-.758,2.448,2.448,0,0,1-2.031.914,3,3,0,0,1-2.031-.723,2.3,2.3,0,0,1-.836-1.816,2.364,2.364,0,0,1,1.016-2.078,5.174,5.174,0,0,1,2.953-.7h.813v-.448q0-1.17-1.008-1.17a.824.824,0,0,0-.937.926h-2.633a2.36,2.36,0,0,1,1.043-1.99,4.383,4.383,0,0,1,2.66-.765,3.843,3.843,0,0,1,2.555.789,2.743,2.743,0,0,1,.961,2.164v3.742a3.832,3.832,0,0,0,.359,1.781V31Zm-1.648-1.719a1.469,1.469,0,0,0,.816-.211,1.322,1.322,0,0,0,.465-.477V27.242h-.766q-1.375,0-1.375,1.234a.754.754,0,0,0,.242.582A.876.876,0,0,0,141.52,29.281Zm10.492-4.352-.867-.062a1.558,1.558,0,0,0-1.594.781V31h-2.633V22.547h2.469l.086,1.086a2.039,2.039,0,0,1,1.852-1.242,2.567,2.567,0,0,1,.734.094Zm.492,1.781a5.708,5.708,0,0,1,.422-2.266,3.4,3.4,0,0,1,1.211-1.52,3.192,3.192,0,0,1,1.836-.535,2.538,2.538,0,0,1,2.063.891l.094-.734h2.391V30.68a3.564,3.564,0,0,1-.52,1.941,3.334,3.334,0,0,1-1.5,1.266,5.528,5.528,0,0,1-2.281.441,4.769,4.769,0,0,1-1.8-.352,3.251,3.251,0,0,1-1.332-.914l1.1-1.547a2.414,2.414,0,0,0,1.938.867,1.568,1.568,0,0,0,1.75-1.8V30.32a2.472,2.472,0,0,1-1.914.836,3.055,3.055,0,0,1-2.5-1.184A4.9,4.9,0,0,1,152.5,26.8Zm2.641.164a3.007,3.007,0,0,0,.391,1.645,1.232,1.232,0,0,0,1.094.605,1.4,1.4,0,0,0,1.242-.57V25a1.363,1.363,0,0,0-1.227-.578,1.241,1.241,0,0,0-1.1.629A3.429,3.429,0,0,0,155.145,26.875ZM166.777,31a2.973,2.973,0,0,1-.25-.758,2.448,2.448,0,0,1-2.031.914,3,3,0,0,1-2.031-.723,2.3,2.3,0,0,1-.836-1.816,2.364,2.364,0,0,1,1.016-2.078,5.174,5.174,0,0,1,2.953-.7h.813v-.448q0-1.17-1.008-1.17a.824.824,0,0,0-.937.926h-2.633a2.36,2.36,0,0,1,1.043-1.99,4.383,4.383,0,0,1,2.66-.765,3.843,3.843,0,0,1,2.555.789,2.743,2.743,0,0,1,.961,2.164v3.742a3.832,3.832,0,0,0,.359,1.781V31Zm-1.648-1.719a1.469,1.469,0,0,0,.816-.211,1.322,1.322,0,0,0,.465-.477V27.242h-.766q-1.375,0-1.375,1.234a.754.754,0,0,0,.242.582A.876.876,0,0,0,165.129,29.281Z" transform="translate(854 2829.76)" fill="#12263f"/>
    <g transform="matrix(1, 0, 0, 1, 282, 2695)" filter="url(#Rectangle_44963)">
      <rect id="Rectangle_44963-2" data-name="Rectangle 44963" width="190" height="188" rx="10" transform="translate(843 1)" fill="#fff"/>
    </g>
    <path id="Path_206283" data-name="Path 206283" d="M36.2,15V3.625h4.086a5.786,5.786,0,0,1,3.34.8,2.677,2.677,0,0,1,1.145,2.336,2.707,2.707,0,0,1-.406,1.508,2.367,2.367,0,0,1-1.2.922,2.4,2.4,0,0,1,1.367.875,2.544,2.544,0,0,1,.477,1.563,3.012,3.012,0,0,1-1.059,2.512A5.038,5.038,0,0,1,40.813,15Zm2.742-4.836v2.727h1.8a1.709,1.709,0,0,0,1.141-.34,1.189,1.189,0,0,0,.4-.957,1.261,1.261,0,0,0-1.414-1.43Zm0-1.8h1.43a2.031,2.031,0,0,0,1.281-.329,1.168,1.168,0,0,0,.383-.948,1.226,1.226,0,0,0-.414-1.038,2.216,2.216,0,0,0-1.336-.317H38.938ZM51.156,15a2.973,2.973,0,0,1-.25-.758,2.448,2.448,0,0,1-2.031.914,3,3,0,0,1-2.031-.723,2.3,2.3,0,0,1-.836-1.816,2.364,2.364,0,0,1,1.016-2.078,5.174,5.174,0,0,1,2.953-.7h.813V9.388q0-1.17-1.008-1.17a.824.824,0,0,0-.937.926H46.211a2.36,2.36,0,0,1,1.043-1.99,4.383,4.383,0,0,1,2.66-.765,3.843,3.843,0,0,1,2.555.789,2.743,2.743,0,0,1,.961,2.164v3.742a3.832,3.832,0,0,0,.359,1.781V15Zm-1.648-1.719a1.469,1.469,0,0,0,.816-.211,1.322,1.322,0,0,0,.465-.477V11.242h-.766q-1.375,0-1.375,1.234a.754.754,0,0,0,.242.582A.876.876,0,0,0,49.508,13.281Zm9.8-.656a.608.608,0,0,0-.352-.539,5.348,5.348,0,0,0-1.336-.422A6.092,6.092,0,0,1,56,11.09a2.722,2.722,0,0,1-.977-.863,2.061,2.061,0,0,1-.336-1.164,2.336,2.336,0,0,1,.961-1.918,3.958,3.958,0,0,1,2.516-.754,4.386,4.386,0,0,1,2.688.758,2.37,2.37,0,0,1,1.016,1.992H59.227q0-1.016-1.07-1.016a1.061,1.061,0,0,0-.7.23.714.714,0,0,0-.281.574.655.655,0,0,0,.344.57,3.248,3.248,0,0,0,1.1.359,9.485,9.485,0,0,1,1.324.336,2.406,2.406,0,0,1,1.906,2.352,2.214,2.214,0,0,1-1.027,1.883,4.505,4.505,0,0,1-2.66.727,4.6,4.6,0,0,1-1.937-.391A3.24,3.24,0,0,1,54.9,13.7a2.406,2.406,0,0,1-.477-1.414h2.461a1.017,1.017,0,0,0,.391.855,1.607,1.607,0,0,0,.961.27,1.264,1.264,0,0,0,.809-.219A.7.7,0,0,0,59.313,12.625Zm7.859,2.531A4.345,4.345,0,0,1,64.023,14a4.006,4.006,0,0,1-1.2-3.02v-.219a5.191,5.191,0,0,1,.48-2.289,3.516,3.516,0,0,1,1.4-1.535,4.233,4.233,0,0,1,2.188-.543A3.659,3.659,0,0,1,69.7,7.5a4.344,4.344,0,0,1,1.031,3.082V11.6H65.5a1.9,1.9,0,0,0,.617,1.117,1.836,1.836,0,0,0,1.234.406A2.366,2.366,0,0,0,69.3,12.25l1.2,1.422a3.363,3.363,0,0,1-1.395,1.082A4.713,4.713,0,0,1,67.172,15.156Zm-.3-6.734q-1.156,0-1.375,1.531h2.656v-.2a1.3,1.3,0,0,0-.32-.98A1.275,1.275,0,0,0,66.875,8.422Zm8.57,2.289a5.164,5.164,0,0,1,.867-3.164,2.854,2.854,0,0,1,2.422-1.156,2.428,2.428,0,0,1,1.906.891V3h2.641V15H80.914l-.133-.906a2.493,2.493,0,0,1-2.062,1.063A2.849,2.849,0,0,1,76.328,14,5.327,5.327,0,0,1,75.445,10.711Zm2.633.164q0,2.25,1.313,2.25a1.3,1.3,0,0,0,1.25-.734V9.172a1.261,1.261,0,0,0-1.234-.75q-1.219,0-1.32,1.969Zm10.789,4.281A4.345,4.345,0,0,1,85.719,14a4.006,4.006,0,0,1-1.2-3.02v-.219A5.191,5.191,0,0,1,85,8.469a3.516,3.516,0,0,1,1.4-1.535,4.233,4.233,0,0,1,2.188-.543A3.659,3.659,0,0,1,91.4,7.5a4.344,4.344,0,0,1,1.031,3.082V11.6H87.2a1.9,1.9,0,0,0,.617,1.117,1.836,1.836,0,0,0,1.234.406A2.366,2.366,0,0,0,91,12.25l1.2,1.422a3.363,3.363,0,0,1-1.395,1.082A4.713,4.713,0,0,1,88.867,15.156Zm-.3-6.734q-1.156,0-1.375,1.531h2.656v-.2a1.3,1.3,0,0,0-.32-.98A1.275,1.275,0,0,0,88.57,8.422Zm8.57,2.289a5.164,5.164,0,0,1,.867-3.164,2.854,2.854,0,0,1,2.422-1.156,2.428,2.428,0,0,1,1.906.891V3h2.641V15h-2.367l-.133-.906a2.493,2.493,0,0,1-2.062,1.063A2.849,2.849,0,0,1,98.023,14,5.327,5.327,0,0,1,97.141,10.711Zm2.633.164q0,2.25,1.313,2.25a1.3,1.3,0,0,0,1.25-.734V9.172a1.261,1.261,0,0,0-1.234-.75q-1.219,0-1.32,1.969ZM111.234,15a2.973,2.973,0,0,1-.25-.758,2.448,2.448,0,0,1-2.031.914,3,3,0,0,1-2.031-.723,2.3,2.3,0,0,1-.836-1.816,2.364,2.364,0,0,1,1.016-2.078,5.174,5.174,0,0,1,2.953-.7h.813V9.388q0-1.17-1.008-1.17a.824.824,0,0,0-.937.926h-2.633a2.36,2.36,0,0,1,1.043-1.99,4.383,4.383,0,0,1,2.66-.765,3.843,3.843,0,0,1,2.555.789,2.743,2.743,0,0,1,.961,2.164v3.742a3.832,3.832,0,0,0,.359,1.781V15Zm-1.648-1.719a1.469,1.469,0,0,0,.816-.211,1.322,1.322,0,0,0,.465-.477V11.242H110.1q-1.375,0-1.375,1.234a.754.754,0,0,0,.242.582A.876.876,0,0,0,109.586,13.281Zm8.445-8.836v2.1h1.391V8.375h-1.391v3.867a.987.987,0,0,0,.172.664.922.922,0,0,0,.68.188,3.862,3.862,0,0,0,.656-.047V14.93a4.859,4.859,0,0,1-1.484.227,2.758,2.758,0,0,1-2.008-.641,2.626,2.626,0,0,1-.648-1.945v-4.2H114.32V6.547H115.4v-2.1Zm1.859,6.25a4.989,4.989,0,0,1,.492-2.254,3.52,3.52,0,0,1,1.414-1.52,4.259,4.259,0,0,1,2.164-.531,3.887,3.887,0,0,1,2.992,1.176,4.512,4.512,0,0,1,1.094,3.2v.094a4.378,4.378,0,0,1-1.1,3.137,3.9,3.9,0,0,1-2.973,1.16,3.942,3.942,0,0,1-2.9-1.082,4.232,4.232,0,0,1-1.18-2.934Zm2.633.164a3.145,3.145,0,0,0,.367,1.719,1.223,1.223,0,0,0,1.086.547q1.406,0,1.438-2.164V10.7q0-2.273-1.453-2.273-1.32,0-1.43,1.961Zm11.109,1.766a.608.608,0,0,0-.352-.539,5.348,5.348,0,0,0-1.336-.422,6.092,6.092,0,0,1-1.625-.574,2.722,2.722,0,0,1-.977-.863,2.061,2.061,0,0,1-.336-1.164,2.336,2.336,0,0,1,.961-1.918,3.958,3.958,0,0,1,2.516-.754,4.386,4.386,0,0,1,2.688.758,2.37,2.37,0,0,1,1.016,1.992h-2.641q0-1.016-1.07-1.016a1.061,1.061,0,0,0-.7.23.714.714,0,0,0-.281.574.655.655,0,0,0,.344.57,3.248,3.248,0,0,0,1.1.359,9.485,9.485,0,0,1,1.324.336,2.406,2.406,0,0,1,1.906,2.352,2.214,2.214,0,0,1-1.027,1.883,4.505,4.505,0,0,1-2.66.727,4.6,4.6,0,0,1-1.937-.391,3.24,3.24,0,0,1-1.328-1.062,2.406,2.406,0,0,1-.477-1.414H131.2a1.017,1.017,0,0,0,.391.855,1.607,1.607,0,0,0,.961.27,1.264,1.264,0,0,0,.809-.219A.7.7,0,0,0,133.633,12.625ZM60.75,31a2.973,2.973,0,0,1-.25-.758,2.448,2.448,0,0,1-2.031.914,3,3,0,0,1-2.031-.723,2.3,2.3,0,0,1-.836-1.816,2.364,2.364,0,0,1,1.016-2.078,5.174,5.174,0,0,1,2.953-.7h.813v-.448q0-1.17-1.008-1.17a.824.824,0,0,0-.937.926H55.8a2.36,2.36,0,0,1,1.043-1.99,4.383,4.383,0,0,1,2.66-.765,3.843,3.843,0,0,1,2.555.789,2.743,2.743,0,0,1,.961,2.164v3.742a3.832,3.832,0,0,0,.359,1.781V31ZM59.1,29.281a1.469,1.469,0,0,0,.816-.211,1.322,1.322,0,0,0,.465-.477V27.242h-.766q-1.375,0-1.375,1.234a.754.754,0,0,0,.242.582A.876.876,0,0,0,59.1,29.281Zm7.8-6.734.086.992A2.867,2.867,0,0,1,69.4,22.391a2.412,2.412,0,0,1,1.973.789,3.757,3.757,0,0,1,.676,2.375V31H69.406V25.664a1.426,1.426,0,0,0-.258-.941,1.193,1.193,0,0,0-.937-.3,1.256,1.256,0,0,0-1.148.609V31H64.43V22.547ZM78.266,31a2.973,2.973,0,0,1-.25-.758,2.448,2.448,0,0,1-2.031.914,3,3,0,0,1-2.031-.723,2.3,2.3,0,0,1-.836-1.816,2.364,2.364,0,0,1,1.016-2.078,5.174,5.174,0,0,1,2.953-.7H77.9v-.448q0-1.17-1.008-1.17a.824.824,0,0,0-.937.926H73.32a2.36,2.36,0,0,1,1.043-1.99,4.383,4.383,0,0,1,2.66-.765,3.843,3.843,0,0,1,2.555.789,2.743,2.743,0,0,1,.961,2.164v3.742a3.832,3.832,0,0,0,.359,1.781V31Zm-1.648-1.719a1.469,1.469,0,0,0,.816-.211,1.322,1.322,0,0,0,.465-.477V27.242h-.766q-1.375,0-1.375,1.234a.754.754,0,0,0,.242.582A.876.876,0,0,0,76.617,29.281ZM84.773,31H82.133V19h2.641Zm4.4,0H86.531V22.547h2.641Zm-2.8-10.633a1.175,1.175,0,0,1,.406-.922,1.727,1.727,0,0,1,2.109,0,1.249,1.249,0,0,1,0,1.844,1.727,1.727,0,0,1-2.109,0A1.175,1.175,0,0,1,86.375,20.367Zm7.484.078v2.1H95.25v1.828H93.859v3.867a.987.987,0,0,0,.172.664.922.922,0,0,0,.68.188,3.862,3.862,0,0,0,.656-.047V30.93a4.859,4.859,0,0,1-1.484.227,2.758,2.758,0,0,1-2.008-.641,2.626,2.626,0,0,1-.648-1.945v-4.2H90.148V22.547h1.078v-2.1ZM99.063,31H96.422V22.547h2.641Zm-2.8-10.633a1.175,1.175,0,0,1,.406-.922,1.727,1.727,0,0,1,2.109,0,1.249,1.249,0,0,1,0,1.844,1.727,1.727,0,0,1-2.109,0A1.175,1.175,0,0,1,96.266,20.367Zm7.992,8.758a1.171,1.171,0,0,0,.859-.3,1.1,1.1,0,0,0,.3-.84h2.469a2.922,2.922,0,0,1-1,2.281,3.705,3.705,0,0,1-2.566.891A3.751,3.751,0,0,1,101.414,30a4.556,4.556,0,0,1-1.062-3.2v-.109a5.149,5.149,0,0,1,.473-2.262,3.441,3.441,0,0,1,1.363-1.508,4.065,4.065,0,0,1,2.109-.527,3.658,3.658,0,0,1,2.617.914,3.242,3.242,0,0,1,.969,2.477h-2.469a1.445,1.445,0,0,0-.32-1.008,1.106,1.106,0,0,0-.859-.352q-1.023,0-1.2,1.3a9.206,9.206,0,0,0-.055,1.141,3.616,3.616,0,0,0,.3,1.766A1.055,1.055,0,0,0,104.258,29.125Zm9.5,1.875a2.973,2.973,0,0,1-.25-.758,2.448,2.448,0,0,1-2.031.914,3,3,0,0,1-2.031-.723,2.3,2.3,0,0,1-.836-1.816,2.364,2.364,0,0,1,1.016-2.078,5.174,5.174,0,0,1,2.953-.7h.813v-.448q0-1.17-1.008-1.17a.824.824,0,0,0-.937.926h-2.633a2.36,2.36,0,0,1,1.043-1.99,4.383,4.383,0,0,1,2.66-.765,3.843,3.843,0,0,1,2.555.789,2.743,2.743,0,0,1,.961,2.164v3.742a3.832,3.832,0,0,0,.359,1.781V31Zm-1.648-1.719a1.469,1.469,0,0,0,.816-.211,1.322,1.322,0,0,0,.465-.477V27.242h-.766q-1.375,0-1.375,1.234a.754.754,0,0,0,.242.582A.876.876,0,0,0,112.109,29.281Z" transform="translate(1133 2829.76)" fill="#12263f"/>
    <g id="Group_146916" data-name="Group 146916" transform="translate(600 2752)">
      <g id="Group_146915" data-name="Group 146915" clip-path="url(#clip-path)">
        <path id="Path_203796" data-name="Path 203796" d="M93.368,172.034h9.315l1.153-5.249c2.658,0,5.4.017,8.061.017a6.085,6.085,0,0,0,3.469-1.093,5.954,5.954,0,0,0,2.5-3.683q.877-3.994,1.76-7.987c.335-1.52.772-3.236-.318-4.609-1-1.263-2.333-1.361-3.793-1.361q-15.775.017-31.55,0a6.109,6.109,0,0,0-2.879.822,4.3,4.3,0,0,0-2.724-.822H63.925l1.182-5.32H55.778l-1.154,5.191h-8.2a5.869,5.869,0,0,0-3.172.966,4.623,4.623,0,0,0-2.723-.822H13.445l1.24-5.393-9.315-.014L0,166.7l9.306,0,2.8-12.292h3.149c.375,0,.3.214.238.5l-2.647,11.8H74.537a5.77,5.77,0,0,0,2.808-.7,4.645,4.645,0,0,0,2.884.817l14.289-.12-1.15,5.336M53.075,154.423H50.329c-.482,0-.612.22-.707.652L48.59,159.7c-.1.443.126.516.514.516h2.673Zm15.753.112h2.933c.565,0,.534.3.432.753l-1.008,4.532c-.117.527-.446.519-.9.519H67.3c-.439,0-.442-.259-.364-.614q.5-2.265,1-4.531c.124-.56.344-.659.887-.659m19.309,0H91.07c.564,0,.534.3.432.753l-1.008,4.532c-.117.527-.446.519-.9.519H86.61c-.439,0-.442-.259-.364-.614q.5-2.265,1-4.531C87.373,154.634,87.594,154.535,88.137,154.535Zm17.219,5.847H108.1c.482,0,.612-.22.707-.652l1.031-4.626c.1-.443-.126-.516-.514-.516h-2.673l-1.3,5.794" transform="translate(0 -107.447)" fill-rule="evenodd"/>
        <path id="Path_203797" data-name="Path 203797" d="M251.077,169.983h11.7a2.587,2.587,0,0,1,2.584,3.319l-2.085,9.409a4.391,4.391,0,0,1-4.055,3.32h-11.7a2.588,2.588,0,0,1-2.584-3.32l2.085-9.409A4.391,4.391,0,0,1,251.077,169.983Zm2.121,3.778h5.785a1.369,1.369,0,0,1,1.368,1.756l-1.1,4.98a2.324,2.324,0,0,1-2.146,1.756h-5.785a1.369,1.369,0,0,1-1.368-1.756l1.1-4.98a2.323,2.323,0,0,1,2.146-1.756" transform="translate(-184.397 -128.011)" fill="#1f1917" fill-rule="evenodd"/>
        <path id="Path_203798" data-name="Path 203798" d="M329.182,169.983h11.7a2.587,2.587,0,0,1,2.584,3.319l-2.084,9.409a4.392,4.392,0,0,1-4.055,3.32h-11.7a2.588,2.588,0,0,1-2.584-3.32l2.085-9.409a4.391,4.391,0,0,1,4.055-3.319m2.121,3.778h5.785a1.369,1.369,0,0,1,1.367,1.756l-1.1,4.98a2.324,2.324,0,0,1-2.146,1.756h-5.785a1.369,1.369,0,0,1-1.368-1.756l1.1-4.98a2.324,2.324,0,0,1,2.146-1.756" transform="translate(-243.216 -128.011)" fill="#1f1917" fill-rule="evenodd"/>
        <path id="Path_203799" data-name="Path 203799" d="M402.014,169.983h14.042a2.587,2.587,0,0,1,2.584,3.319l-2.084,9.409a4.392,4.392,0,0,1-4.055,3.32l-14.042-.007Zm3.671,3.778h6.577a1.369,1.369,0,0,1,1.368,1.756l-1.1,4.98a2.325,2.325,0,0,1-2.146,1.756H403.8" transform="translate(-300.071 -128.011)" fill="#1f1917" fill-rule="evenodd"/>
        <path id="Path_203800" data-name="Path 203800" d="M187.356,185.52H173.314a2.588,2.588,0,0,1-2.584-3.32l2.085-9.409a4.391,4.391,0,0,1,4.055-3.319l14.042.006Zm-3.671-3.778h-6.577a1.369,1.369,0,0,1-1.368-1.756l1.1-4.98a2.325,2.325,0,0,1,2.146-1.756h6.583" transform="translate(-128.513 -127.626)" fill="#1f1917" fill-rule="evenodd"/>
        <path id="Path_203801" data-name="Path 203801" d="M26.589,169.983H37.322a2.587,2.587,0,0,1,2.584,3.319l-1.524,6.879h-4.52l1.033-4.664a1.369,1.369,0,0,0-1.368-1.756h-6.65c-.966,0-.1.791-.314,1.756l-1.02,4.6h-4.52l1.51-6.816a4.391,4.391,0,0,1,4.055-3.319" transform="translate(-15.833 -128.011)" fill="#1f1917" fill-rule="evenodd"/>
        <path id="Path_203802" data-name="Path 203802" d="M15.861,192.112l3.085-13.887h4.508l-3.09,13.887" transform="translate(-11.945 -134.217)" fill="#1f1917" fill-rule="evenodd"/>
        <path id="Path_203803" data-name="Path 203803" d="M110.217,185.525H95.209a2.588,2.588,0,0,1-2.584-3.32l.6-2.73h0l.116-.525a4.39,4.39,0,0,1,4.055-3.319l10.5,0,.155-.7a1.36,1.36,0,0,0-1.311-1.684H94.592l.837-3.776,15.086,0a2.585,2.585,0,0,1,2.519,3.318l-.284,1.282h0l-.344,1.555h0l-1.77,7.988h0Zm-11.666-3.778h8l.52-2.339H99.208a1.122,1.122,0,0,0-.117-.006,1.546,1.546,0,0,0-1.428,1.17.912.912,0,0,0,.889,1.17v0" transform="translate(-69.693 -127.63)" fill="#1f1917" fill-rule="evenodd"/>
        <path id="Path_203804" data-name="Path 203804" d="M251.077,169.983h11.7a2.587,2.587,0,0,1,2.584,3.319l-2.085,9.409a4.391,4.391,0,0,1-4.055,3.32h-11.7a2.588,2.588,0,0,1-2.584-3.32l2.085-9.409A4.391,4.391,0,0,1,251.077,169.983Zm2.121,3.778h5.785a1.369,1.369,0,0,1,1.368,1.756l-1.1,4.98a2.324,2.324,0,0,1-2.146,1.756h-5.785a1.369,1.369,0,0,1-1.368-1.756l1.1-4.98a2.323,2.323,0,0,1,2.146-1.756" transform="translate(-184.397 -128.011)" fill="#6cf" fill-rule="evenodd"/>
        <path id="Path_203805" data-name="Path 203805" d="M329.182,169.983h11.7a2.587,2.587,0,0,1,2.584,3.319l-2.084,9.409a4.392,4.392,0,0,1-4.055,3.32h-11.7a2.588,2.588,0,0,1-2.584-3.32l2.085-9.409a4.391,4.391,0,0,1,4.055-3.319m2.121,3.778h5.785a1.369,1.369,0,0,1,1.367,1.756l-1.1,4.98a2.324,2.324,0,0,1-2.146,1.756h-5.785a1.369,1.369,0,0,1-1.368-1.756l1.1-4.98a2.324,2.324,0,0,1,2.146-1.756" transform="translate(-243.216 -128.011)" fill="#6cf" fill-rule="evenodd"/>
        <path id="Path_203806" data-name="Path 203806" d="M398.393,169.97l-2.932,13.211-.625,2.832-1.189,5.378h4.5l1.2-5.378,9.537.008a4.385,4.385,0,0,0,4.051-3.318l2.084-9.406a2.593,2.593,0,0,0-2.585-3.326Zm3.666,3.781h6.582a1.37,1.37,0,0,1,1.366,1.759l-1.1,4.977a2.327,2.327,0,0,1-2.145,1.759h-6.582Z" transform="translate(-296.447 -128.001)" fill="#6cf" fill-rule="evenodd"/>
        <path id="Path_203807" data-name="Path 203807" d="M187.591,147.72l-1.2,5.378-9.537-.008a4.385,4.385,0,0,0-4.051,3.318l-2.091,9.414a2.587,2.587,0,0,0,2.585,3.318h14.044L190.9,153.1l1.188-5.378h-4.5Zm-8.611,9.152h6.582l-1.89,8.488H177.1a1.364,1.364,0,0,1-1.366-1.752l1.1-4.985a2.319,2.319,0,0,1,2.145-1.752" transform="translate(-128.501 -111.245)" fill="#6cf" fill-rule="evenodd"/>
        <path id="Path_203808" data-name="Path 203808" d="M20.6,147.721l-1.821,8.21h.023l-.077.324c-.029.094-.056.189-.077.285l-1.512,6.814h.015l-1.289,5.787h4.5l1.289-5.787h.008l1.019-4.6c0-.007,0-.016,0-.023L23.073,157H29.64a1.375,1.375,0,0,1,1.373,1.759l-1.034,4.661-1.265,5.725H33.22l1.273-5.725H34.5l1.52-6.875a2.593,2.593,0,0,0-2.585-3.326H23.891l1.219-5.494Z" transform="translate(-11.948 -111.246)" fill="#6cf" fill-rule="evenodd"/>
        <path id="Path_203809" data-name="Path 203809" d="M110.217,185.525H95.209a2.588,2.588,0,0,1-2.584-3.32l.6-2.73h0l.116-.525a4.39,4.39,0,0,1,4.055-3.319l10.5,0,.155-.7a1.36,1.36,0,0,0-1.311-1.684H94.592l.837-3.776,15.086,0a2.585,2.585,0,0,1,2.519,3.318l-.284,1.282h0l-.344,1.555h0l-1.77,7.988h0Zm-11.666-3.778h8l.52-2.339H99.208a1.122,1.122,0,0,0-.117-.006,1.546,1.546,0,0,0-1.428,1.17.912.912,0,0,0,.889,1.17v0" transform="translate(-69.693 -127.63)" fill="#6cf" fill-rule="evenodd"/>
        <path id="Path_203810" data-name="Path 203810" d="M177.233,22.2l-.554,1.508-1.372,1.358c-.5.5-.607.492-.49,1.192a4.43,4.43,0,0,0,1.262,2.4c.766.768,2.374,1.854,3.531,1.342a8.136,8.136,0,0,1-.432,1.2c-.776,1.7,1.115,2.035,2.439,2.392,1.1.3,3.8,1.09,4.189-.356a3.807,3.807,0,0,0,.14-1.621,6.243,6.243,0,0,1,.735-1.306,1.7,1.7,0,0,0,.276-1.512c-.017-.138-.037-.288-.06-.446a13.964,13.964,0,0,0,3.853.035c-.39.227-.781.426-1.3.691-1.223.629-.071,2.484.457,3.3,1.106,1.7,2.1,2.878,3.968,1.867.628-.34.676-.7,1.068-1.287.217-.119,1.332-1.067,2-1.6.251.3.733.357,1.463.41.367.027,1.808.018,2.189.02,1.145.007,1.833-.112,1.923-1.36a1.626,1.626,0,0,0-.274-1.235q-.026-.979-.052-1.959a4.593,4.593,0,0,0-.449-1.874c-.262-.624-.409-1.157-.716-1.762.042-.237.075-.482.1-.738l1.168,1.126a3.157,3.157,0,0,0,2.488,1.246,3.372,3.372,0,0,0,2.874-2.12L208,21.962a8.559,8.559,0,0,0,5.4-.567c2.277-1.215,3.342-3.657,3.6-6.241a16.012,16.012,0,0,0-1.193-7.512c-.293-.561-1.616-1.27-2.2-.683-.437.443-.737,1.118-1.209,1.521a4.285,4.285,0,0,1-1.215.63A6.98,6.98,0,0,0,209.9,6.993a5.2,5.2,0,0,0-1.4-1.122,29.08,29.08,0,0,1-3.008-2.427C202.409.9,199.761.98,195.919,2.6a8.639,8.639,0,0,0-3.841,3.323,2.644,2.644,0,0,0-1.864.8c-.53.468-1.024.949-1.5,1.448-3.591.572-5.822,1.257-8.181,3.348a9.567,9.567,0,0,0-2.2,2.855,4.764,4.764,0,0,1-1.675,1.388c-.47.181-.461.18-.627-.262.559-.42.55-1.21.6-1.925.352.017.484.412.724.715.141-.633.223-1.615-.442-1.96.108-.289.231-.581.343-.9-.982.17-4.348,2.439-2.552,4.17a5.618,5.618,0,0,0,.367,1.136,1.6,1.6,0,0,0,2.14.687,11.924,11.924,0,0,0-.133,3.658,10.926,10.926,0,0,0,.157,1.119" transform="translate(-131.173 -1.09)" fill-rule="evenodd"/>
        <path id="Path_203811" data-name="Path 203811" d="M176.753,21.581l-.223.606-.427-.157.223-.606Zm-.223.606-.331.9-.427-.156.331-.9.427.157m-.331.9-.053.083-.16-.161Zm-.053.083-.727.72-.32-.322.727-.72Zm-.727.72-.645.639-.32-.322.645-.639Zm-.645.639-.161.158-.315-.329.156-.151Zm-.161.158c-.291.28-.349.336-.265.836l-.448.075c-.124-.737-.038-.821.4-1.24Zm-.265.836a4.046,4.046,0,0,0,.412,1.214l-.4.212A4.5,4.5,0,0,1,173.9,25.6Zm.412,1.214a4.417,4.417,0,0,0,.787,1.064l-.321.32a4.872,4.872,0,0,1-.869-1.173Zm.787,1.064a5.638,5.638,0,0,0,1.839,1.227l-.16.425a6.128,6.128,0,0,1-2-1.332Zm1.839,1.227a1.909,1.909,0,0,0,1.44.067l.183.416a2.338,2.338,0,0,1-1.783-.058Zm1.44.067.439-.194-.128.463-.22-.06Zm.311.268c-.057.206-.124.418-.2.63l-.428-.155c.073-.2.136-.4.19-.6Zm-.2.63c-.072.2-.153.4-.244.6l-.414-.188c.085-.186.161-.375.23-.565l.428.155m-.244.6a1.052,1.052,0,0,0,.643,1.571l-.188.414a1.449,1.449,0,0,1-.869-2.174Zm.643,1.571a8.462,8.462,0,0,0,1.33.424l-.114.439a8.87,8.87,0,0,1-1.4-.449l.188-.414m1.33.424.316.083-.116.439-.314-.083Zm.316.083a12.324,12.324,0,0,0,2.317.468l-.029.455a12.687,12.687,0,0,1-2.4-.484Zm2.317.468c.76.048,1.437-.08,1.594-.662l.439.116c-.233.863-1.1,1.062-2.062,1Zm1.594-.662a4.37,4.37,0,0,0,.151-.782l.455.037a4.835,4.835,0,0,1-.167.861Zm.151-.782a4.013,4.013,0,0,0-.017-.76l.451-.043a4.45,4.45,0,0,1,.021.839l-.455-.037m-.017-.76.018-.114.208.092Zm.018-.114a6.054,6.054,0,0,1,.655-1.194l.375.256a5.686,5.686,0,0,0-.614,1.123l-.416-.185m.655-1.194.1-.147.377.254-.1.149Zm.1-.147a1.455,1.455,0,0,0,.279-.608l.45.062a1.858,1.858,0,0,1-.352.8l-.377-.254m.279-.608a3.141,3.141,0,0,0-.04-.751l.451-.052a3.362,3.362,0,0,1,.039.865l-.45-.062m-.04-.751c-.011-.093-.021-.167-.027-.215l.45-.057c.014.1.023.174.028.22Zm-.027-.215c0-.039-.016-.116-.032-.224l.45-.066c.007.048.018.124.032.233Zm-.032-.224-.044-.3.3.046-.034.225Zm.259-.258a13.309,13.309,0,0,0,1.9.149l0,.455a13.783,13.783,0,0,1-1.969-.154Zm1.9.149a14.491,14.491,0,0,0,1.889-.114l.053.451a14.921,14.921,0,0,1-1.944.118l0-.455m1.889-.114.141.423-.114-.2Zm.141.423c-.367.214-.734.4-1.2.643l-.208-.405c.461-.237.823-.423,1.182-.632Zm-1.2.643-.1.054-.208-.405.1-.054Zm-.1.054c-.481.247-.485.766-.315,1.309l-.434.135c-.233-.744-.2-1.468.541-1.849Zm-.315,1.309a7.348,7.348,0,0,0,.858,1.661l-.381.247a7.77,7.77,0,0,1-.911-1.773Zm.858,1.661a6.033,6.033,0,0,0,1.626,1.882l-.237.387a6.381,6.381,0,0,1-1.77-2.022Zm1.626,1.882a1.905,1.905,0,0,0,2.044-.093l.215.4a2.317,2.317,0,0,1-2.5.078l.237-.387m2.044-.093a1.653,1.653,0,0,0,.72-.773l.4.224a2.026,2.026,0,0,1-.9.951Zm.72-.773c.072-.127.152-.266.268-.44l.377.252c-.093.139-.174.281-.248.411l-.4-.224m.268-.44.079-.074.109.2-.188-.126m.079-.074c.133-.073.7-.542,1.252-1l.29.35c-.571.472-1.158.956-1.323,1.047l-.219-.4m1.252-1c.284-.235.564-.466.71-.584l.286.355c-.266.215-.485.4-.706.579Zm.71-.584.174-.141.144.173-.175.146Zm.318.032a.767.767,0,0,0,.429.223l-.1.442a1.19,1.19,0,0,1-.675-.374Zm.429.223a5.875,5.875,0,0,0,.874.105l-.032.455a6.121,6.121,0,0,1-.947-.118Zm.874.105c.28.02,1.172.02,1.749.02v.455c-.589,0-1.5,0-1.781-.02Zm1.749.02h.426l0,.455h-.424Zm.426,0a2.652,2.652,0,0,0,1.244-.18l.224.4a2.98,2.98,0,0,1-1.47.239l0-.455Zm1.244-.18c.257-.145.411-.432.45-.969l.455.032a1.488,1.488,0,0,1-.681,1.333Zm.45-.969a2.089,2.089,0,0,0-.007-.581l.444-.1a2.409,2.409,0,0,1,.018.711Zm-.007-.581a2.019,2.019,0,0,0-.239-.528l.4-.222a2.341,2.341,0,0,1,.285.652Zm-.239-.528-.028-.106.227-.005Zm-.028-.106q-.013-.49-.026-.98l.455-.011q.013.49.026.98Zm-.026-.98q-.013-.49-.026-.98l.455-.011q.013.489.026.98Zm-.026-.98a4.006,4.006,0,0,0-.117-.905l.441-.11a4.444,4.444,0,0,1,.131,1Zm-.117-.905a6.291,6.291,0,0,0-.315-.886l.419-.176a6.663,6.663,0,0,1,.336.952Zm-.315-.886c-.1-.237-.185-.467-.268-.692l.426-.156c.08.215.161.434.261.673Zm.158-.85h0l-.213.078Zm-.426.158a9.7,9.7,0,0,0-.441-1.056l.407-.2a10.021,10.021,0,0,1,.461,1.1Zm-.441-1.056-.02-.141.224.039Zm-.02-.141c.022-.127.041-.244.056-.351l.45.057c-.019.139-.038.262-.057.373l-.448-.078Zm.056-.351c.013-.1.026-.218.039-.366l.455.037c-.01.108-.025.237-.044.386Zm.039-.366.042-.476.342.33-.157.164Zm.385-.146.668.644-.315.329-.668-.644Zm.668.644.5.481-.315.329-.5-.482Zm.5.481a6.027,6.027,0,0,0,1.056.879l-.231.393a6.367,6.367,0,0,1-1.14-.943Zm1.056.879a2.176,2.176,0,0,0,1.264.3l.022.455a2.612,2.612,0,0,1-1.516-.366Zm1.264.3a3.144,3.144,0,0,0,1.656-.633l.27.366a3.61,3.61,0,0,1-1.9.722Zm1.656-.633a2.7,2.7,0,0,0,1.011-1.325l.436.132A3.158,3.158,0,0,1,206,24.029Zm1.011-1.325.16-.526.435.132-.159.526Zm.16-.526.186-.612.436.132-.186.612Zm.186-.612.059-.2.2.038-.042.223Zm.26-.157a10.112,10.112,0,0,0,2.888.134l.044.452a10.559,10.559,0,0,1-3.016-.14Zm2.888.134A6.473,6.473,0,0,0,212.6,20.5l.213.4a6.936,6.936,0,0,1-2.535.728ZM212.6,20.5a5.944,5.944,0,0,0,2.357-2.323l.395.226a6.4,6.4,0,0,1-2.539,2.5Zm2.357-2.323h0l.2.114Zm0,0a9.388,9.388,0,0,0,1.127-3.738l.451.043a9.846,9.846,0,0,1-1.184,3.922Zm1.127-3.738a16.666,16.666,0,0,0-.179-4.016l.448-.071a17.123,17.123,0,0,1,.182,4.13Zm-.179-4.016a11.561,11.561,0,0,0-.989-3.37l.4-.21a12.007,12.007,0,0,1,1.034,3.509Zm-.989-3.37a.939.939,0,0,0-.172-.219l.318-.325a1.39,1.39,0,0,1,.257.334l-.4.21Zm-.172-.219a2.176,2.176,0,0,0-.785-.478l.147-.43a2.646,2.646,0,0,1,.956.583Zm-.785-.478a1,1,0,0,0-.759-.018l-.21-.4a1.43,1.43,0,0,1,1.117-.009Zm-.759-.018a.466.466,0,0,0-.116.086l-.325-.318a.921.921,0,0,1,.231-.171Zm-.116.086a4.862,4.862,0,0,0-.513.666l-.375-.256a5.249,5.249,0,0,1,.563-.728Zm-.513.666a4.325,4.325,0,0,1-.711.869l-.3-.347a3.964,3.964,0,0,0,.631-.779Zm-.711.869a3.812,3.812,0,0,1-1.109.6l-.169-.423a3.463,3.463,0,0,0,.982-.524Zm-1.109.6-.167.067-.172-.421.171-.069Zm-.167.067-.217.09-.082-.222.213-.078Zm-.3-.132a5.869,5.869,0,0,0-.537-1.085l.386-.242a6.318,6.318,0,0,1,.578,1.171Zm-.537-1.085a8.584,8.584,0,0,0-.713-.964l.348-.292a9.062,9.062,0,0,1,.751,1.014Zm-.713-.964a3.7,3.7,0,0,0-.613-.585L208.7,5.5a4.167,4.167,0,0,1,.686.654Zm-.613-.585c-.212-.162-.454-.314-.735-.49l.241-.386c.285.179.53.332.769.514Zm-.735-.49a16.608,16.608,0,0,1-2.136-1.675l.3-.343a16.243,16.243,0,0,0,2.079,1.632ZM205.55,3.693c-.285-.25-.574-.5-.9-.769l.29-.352c.3.246.6.513.9.778Zm-.9-.769A7.489,7.489,0,0,0,200.283.993l.029-.455a7.92,7.92,0,0,1,4.633,2.035l-.29.352ZM200.283.993a11.16,11.16,0,0,0-4.969,1.118l-.176-.42A11.579,11.579,0,0,1,200.311.538Zm-4.969,1.118a7.025,7.025,0,0,0-2.121,1.344l-.307-.334a7.467,7.467,0,0,1,2.252-1.429Zm-2.121,1.344a13.755,13.755,0,0,0-1.626,1.9l-.364-.272a14.093,14.093,0,0,1,1.683-1.967l.307.334m-1.626,1.9-.064.086-.106.005-.011-.227Zm-.171.092a2.558,2.558,0,0,0-.845.16l-.169-.423A2.977,2.977,0,0,1,191.373,5Zm-.845.16a3.073,3.073,0,0,0-.881.584l-.3-.341a3.5,3.5,0,0,1,1.012-.666Zm-.881.584q-.39.344-.763.705l-.316-.327q.374-.363.778-.72l.3.341m-.763.705h0l-.157-.164Zm0,0q-.37.357-.724.728l-.329-.315q.361-.377.738-.742Zm-.724.728-.129.067-.036-.224Zm-.129.067a22,22,0,0,0-4.506,1.093l-.163-.425a22.475,22.475,0,0,1,4.6-1.116l.071.448M183.548,8.79a11.432,11.432,0,0,0-3.56,2.2l-.3-.341a11.869,11.869,0,0,1,3.7-2.286Zm-3.56,2.2a9.281,9.281,0,0,0-1.227,1.316l-.361-.276a9.731,9.731,0,0,1,1.287-1.382Zm-1.227,1.316a9.745,9.745,0,0,0-.923,1.471l-.405-.206a10.2,10.2,0,0,1,.968-1.541Zm-.923,1.471-.034.049-.169-.152Zm-.034.049a11.406,11.406,0,0,1-.794.825l-.3-.339a10.913,10.913,0,0,0,.76-.789Zm-.794.825a3.146,3.146,0,0,1-.969.624l-.163-.425a2.716,2.716,0,0,0,.828-.538Zm-.969.624h0l-.081-.212Zm0,0c-.292.112-.435.168-.6.1l.176-.42c.007,0,.081-.037.259-.105Zm-.6.1h0l.089-.209Zm0,0c-.171-.072-.218-.212-.324-.494l.427-.158c.06.16.059.228.075.235l-.178.418m-.324-.494-.059-.159.137-.1.136.182-.213.079m.077-.261c.418-.314.458-.94.5-1.542l.455.028a2.326,2.326,0,0,1-.679,1.878l-.272-.364m.5-1.542c0-.079.01-.157.014-.217l.455.032c-.006.082-.01.148-.014.213Zm.014-.217.016-.222.222.01-.011.228Zm.238-.212c.375.018.546.283.731.568l-.382.245c-.118-.182-.227-.352-.37-.359Zm.731.568c.052.08.1.162.16.233l-.355.283c-.071-.089-.13-.181-.187-.27Zm.2.423-.1.465-.3-.373.178-.141Zm-.444-.1a2.834,2.834,0,0,0,.053-1.163l.442-.1a3.261,3.261,0,0,1-.051,1.36Zm.053-1.163a.766.766,0,0,0-.377-.545l.208-.405a1.2,1.2,0,0,1,.611.851Zm-.377-.545-.18-.093.071-.188.213.079ZM176,11.554c.034-.09.082-.215.133-.343l.423.165c-.039.1-.079.2-.129.336L176,11.554m.133-.343c.067-.171.136-.347.208-.553l.43.149c-.065.184-.141.379-.216.569Zm.385-.7.382-.066-.128.365-.215-.075Zm.077.448a5.06,5.06,0,0,0-2.115,1.352l-.329-.315a5.576,5.576,0,0,1,2.367-1.485Zm-2.115,1.352a3.241,3.241,0,0,0-.608.843l-.412-.19a3.688,3.688,0,0,1,.692-.967Zm-.608.843a1.408,1.408,0,0,0-.142.839l-.448.076a1.843,1.843,0,0,1,.178-1.105Zm-.142.839a1.367,1.367,0,0,0,.432.748l-.315.329a1.811,1.811,0,0,1-.565-1Zm.432.748.063.11-.221.054Zm.063.11c.058.235.11.434.166.613l-.434.135c-.059-.187-.113-.395-.173-.64Zm.166.613a3.509,3.509,0,0,0,.186.48l-.411.2a3.954,3.954,0,0,1-.209-.54l.434-.135m.186.48a1.192,1.192,0,0,0,.721.643l-.139.434a1.638,1.638,0,0,1-.993-.882Zm.721.643a1.714,1.714,0,0,0,1.131-.07l.165.423a2.168,2.168,0,0,1-1.435.08l.139-.434m1.131-.07.4-.154-.09.413-.222-.048Zm.3.259a8.954,8.954,0,0,0-.193,1.589l-.455-.016a9.366,9.366,0,0,1,.2-1.669Zm-.193,1.589a16.4,16.4,0,0,0,.066,2l-.455.037a16.768,16.768,0,0,1-.066-2.055Zm.066,2q.025.293.06.54l-.45.06c-.029-.2-.051-.392-.065-.562l.455-.038m.06.54q.039.272.093.555l-.446.085c-.037-.191-.069-.384-.1-.581Zm.093.555-.01.121-.213-.078" transform="translate(-130.479 -0.394)"/>
        <path id="Path_203812" data-name="Path 203812" d="M189.733,9.693l-3,.487-2.733,1.2-2.321,1.46-2.209,2.7-1.248,1.322-1.206.445-.319-.78.558-.805.125-1.136.374.015.409.372-.11-1.157-.453-.3.014-.441-1.072.607-.971,1.146-.2,1.024.415.82.387,1.393.788.373.829-.041.786-.457-.524,2.658.524,2.958L178,24.911l-1.89,2.036.336,1.216.9,1.41,1.688,1.188.9.123,1,.034-.621,2.549,2.284.936,2.845.374.973-.636.075-1.722,1.086-1.8.075-1.423,2.621.187,2.433-.225-2.433,1.46.412,1.76,1.535,2.4,1.5.637,1.2-.487.487-.973,2.508-1.909.487.412,3.931.15.786-.636.075-1.123-.262-.487-.187-3.032-1.31-2.621.225-1.161.786.412,2.209,2.059,1.086.075,1.2-.487,1.2-.9.6-1.947,3.519.225,2.134-.824,1.722-1.61,1.236-2.321.3-2.733-.262-3.182-.674-2.846-.674-.9-.936-.3-1.647,1.8-1.5.524-1.31-2.171-1.31-1.2-.711-.449-2.845-2.359-2.284-1.235-2.284-.187-2.658.449L196.21,4.3l-1.61,1.31-1.273,1.535-1.31.374Z" transform="translate(-132.069 -2.253)" fill="#ff0" fill-rule="evenodd"/>
        <path id="Path_203813" data-name="Path 203813" d="M189.733,9.693l-3,.487-2.733,1.2-2.321,1.46-2.209,2.7-1.248,1.322-1.206.445-.319-.78.558-.805.125-1.136.374.015.409.372-.11-1.157-.453-.3.014-.441-1.072.607-.971,1.146-.2,1.024.415.82.387,1.393.788.373.829-.041.786-.457-.524,2.658.524,2.958L178,24.911l-1.89,2.036.336,1.216.9,1.41,1.688,1.188.9.123,1,.034-.621,2.549,2.284.936,2.845.374.973-.636.075-1.722,1.086-1.8.075-1.423,2.621.187,2.433-.225-2.433,1.46.412,1.76,1.535,2.4,1.5.637,1.2-.487.487-.973,2.508-1.909.487.412,3.931.15.786-.636.075-1.123-.262-.487-.187-3.032-1.31-2.621.225-1.161.786.412,2.209,2.059,1.086.075,1.2-.487,1.2-.9.6-1.947,3.519.225,2.134-.824,1.722-1.61,1.236-2.321.3-2.733-.262-3.182-.674-2.846-.674-.9-.936-.3-1.647,1.8-1.5.524-1.31-2.171-1.31-1.2-.711-.449-2.845-2.359-2.284-1.235-2.284-.187-2.658.449L196.21,4.3l-1.61,1.31-1.273,1.535-1.31.374Z" transform="translate(-132.069 -2.253)" fill="none" stroke="#1f1917" stroke-miterlimit="12.5" stroke-width="0.27"/>
        <path id="Path_203814" data-name="Path 203814" d="M189.685,37.183c-2.566,2.992-2,6.622-1.285,10.177l-1.138-2.876-.42-2.636.12-2.7,1.078-2.576,1.618-2.4,2.517-2.1,2.756-1.139,3.236-.42-3,3.415c-2.406.781-3.824,1.306-5.486,3.245" transform="translate(-140.707 -22.986)" fill="#ffc" fill-rule="evenodd"/>
        <path id="Path_203815" data-name="Path 203815" d="M221.865,20.574a19.8,19.8,0,0,0-3.893,5.09c-.812,1.458-1.723,2.861-2.576,4.3a5.342,5.342,0,0,0-.6,2.176l-1.258-1.5.6-1.8,2.037-3.655,4.314-4.254,1.378-.36" transform="translate(-160.809 -15.494)" fill="#ffc" fill-rule="evenodd"/>
        <path id="Path_203816" data-name="Path 203816" d="M256.44,3.1c-1.428.536-3.8.712-3.965,2.352a4.222,4.222,0,0,0,.789,2.981c-1.733-1.794-2.162-1.516-5.513-.959l1.438-2.037,2.517-1.558,3.236-.719,1.5-.06" transform="translate(-186.577 -2.336)" fill="#ffc" fill-rule="evenodd"/>
        <path id="Path_203817" data-name="Path 203817" d="M295.373,84.879c.476.294.465.506.386.707l1.125-.45.729-.979.541-1.395-.692-.52-3.022.386-.225.611.064.868.289.514.45.225.354.032" transform="translate(-221.567 -61.935)" fill="#cc0" fill-rule="evenodd"/>
        <path id="Path_203818" data-name="Path 203818" d="M291.814,71.986c-1.515.437-1.5.558-1.951,2.061a5.971,5.971,0,0,1,1.951-2.061" transform="translate(-218.29 -54.211)" fill="#cc0" fill-rule="evenodd"/>
        <path id="Path_203819" data-name="Path 203819" d="M327.711,26.433a1.464,1.464,0,0,0-.7.431,4.13,4.13,0,0,1-1.273,1.349,3.961,3.961,0,0,1-.934.409c-.266.082-.425.009-.651.171l.4.07h.887l1.093-.675.643-.675.532-1.079" transform="translate(-244.113 -19.906)" fill="#cc0" fill-rule="evenodd"/>
        <path id="Path_203820" data-name="Path 203820" d="M234.664,29.263a23.748,23.748,0,0,1-2.02,4.506,13.517,13.517,0,0,0,2.521-3.716c.257-.547.306-1.19,1.023-.951.032.547.148,1.093.18,1.64.387-2.777,1.48-3.938,4.019-5.016l-2.154.257-2.026.45-1,1.447-.547,1.382" transform="translate(-175.199 -19.374)" fill="#cc0" fill-rule="evenodd"/>
        <path id="Path_203821" data-name="Path 203821" d="M231.932,39.789c.548,2.578,1.336,5.051,1.679,7.67A5.128,5.128,0,0,1,233,51.445a5.64,5.64,0,0,0-2.421.341c-3.6,1.181-5.669,2.917-8.1-.581l2.325,1.1,1.657-.326,2.926-1.7,2.283-.45.74-3.087-.546-4.084-.064-1.929q.064-.466.129-.933" transform="translate(-167.548 -29.964)" fill="#cc0" fill-rule="evenodd"/>
        <path id="Path_203822" data-name="Path 203822" d="M271.661,95.455c-.3,2.094.7,3.22.283,3.8-.117.164-.276.449-.453.528-.633.28-1.5-.052-1.566.112h-2.09L267,99.539l1.286-1.511,1.254-2.733.8-2.765h.418l.9,2.926" transform="translate(-201.071 -69.682)" fill="#cc0" fill-rule="evenodd"/>
        <path id="Path_203823" data-name="Path 203823" d="M245.366,79.724a6.581,6.581,0,0,0,.912,2.1,24.422,24.422,0,0,1-1.351,4.612,3.66,3.66,0,0,1-.867,1.3,22.236,22.236,0,0,1-2.272,2c-.59.455-1,.227-1.729.124-.309.561-.4.873-.964,1.157-.876.438-1.66-.506-2.347-1.061l1.489,2.326,1.029.965.868.129,1.158-.707L241.9,91.5l1.286-.965,1.576-1.35,1-1.415.9-1.672,1.158-3.473q.048-.659.1-1.318l-1.447-.643c-.354-.332-.747-.611-1.1-.943" transform="translate(-178.289 -60.038)" fill="#cc0" fill-rule="evenodd"/>
        <path id="Path_203824" data-name="Path 203824" d="M224.839,99.3a11.581,11.581,0,0,0,4.823-.772,13.237,13.237,0,0,1,1.351-1.7,5.8,5.8,0,0,0-.74,2.38l-.482.707-3.666.1-1.19-.129-.128-.129q.016-.225.032-.45" transform="translate(-169.297 -72.918)" fill="#cc0" fill-rule="evenodd"/>
        <path id="Path_203825" data-name="Path 203825" d="M204.691,98.814l-.126-1.141c-.277,1.669-.211,2.787-.979,4.282a5.636,5.636,0,0,1-2.089,1.594,3.054,3.054,0,0,1,.049.966c-.143,1.081-2.3.6-3.194.561l4.281,1.1.965-.386.322-1.865.9-1.672.161-1.029-.289-2.412" transform="translate(-149.375 -73.555)" fill="#cc0" fill-rule="evenodd"/>
        <path id="Path_203826" data-name="Path 203826" d="M214.161,64.141a2.95,2.95,0,0,0,.26,1.866c.455.911,1.014,1.767,1.508,2.667q.08-.9.16-1.8l-1.929-2.733" transform="translate(-161.256 -48.303)" fill="#cc0" fill-rule="evenodd"/>
        <path id="Path_203827" data-name="Path 203827" d="M183.436,88.967l-.418.889a11.018,11.018,0,0,0,1.453,3.235,2.413,2.413,0,0,1-.515,1.029,11.509,11.509,0,0,0-1.863-.125l2.154,1.672,1.061-.193,1.061-1.061-1.511-2.347-1.424-3.1" transform="translate(-137.131 -66.999)" fill="#cc0" fill-rule="evenodd"/>
        <path id="Path_203828" data-name="Path 203828" d="M307.229,24.7a23.544,23.544,0,0,1,.949,5.8c-.064,2.472-.546,5.6-2.837,7.086-2.565,1.67-5.577.88-8.392.165l3.441,1.415,3.215.161,2.186-.643,1.7-1.415,1.286-2.7.482-3.119-.386-3.055-.708-3.022-.942-.67" transform="translate(-223.626 -18.604)" fill="#cc0" fill-rule="evenodd"/>
        <path id="Path_203829" data-name="Path 203829" d="M178.91,46.375c-1.165.758-1.622,1.091-1.494,2.5l.348,1.262.493.334.609.2,1.1-.261.566-1.756-1.567.769h-.363L178.2,48.8l.493-.725.261-1.378.334.1.406.319q-.029-.363-.058-.725l-.276-.464-.276-.232-.174.682" transform="translate(-133.592 -34.41)" fill="#cc0" fill-rule="evenodd"/>
        <path id="Path_203830" data-name="Path 203830" d="M289.352,3.621a20.924,20.924,0,0,1,3.129,2.967c.32.454.676.686-.005,1.328a3.128,3.128,0,0,1,1.563-.113c1.048.127,2.03,1.616,2.092,2.684-.012.1-.291.326-1.1.55-.016.031-.457-.06-.446-.031.084.23.2.266.368.374a2.439,2.439,0,0,0,.236.931,7.082,7.082,0,0,1,1.507.145,1.359,1.359,0,0,1,.129.836l.579-.1-.161-1.318.514-.868-.74-1.672L295.6,7.986l-.136-.007L293.874,7l-2.6-2.123-1.927-1.258" transform="translate(-217.905 -2.727)" fill="#cc0" fill-rule="evenodd"/>
        <path id="Path_203831" data-name="Path 203831" d="M284.424,35.706a1.688,1.688,0,0,1-.242.354,2.333,2.333,0,0,1,.8,1.256l-1.46.725-1.236,1.184a1.832,1.832,0,0,1-.939-1.072,1.456,1.456,0,0,1-.847.066.7.7,0,0,0,.418-.138l.786-.817,1.389-1.052.909-.3c.116-.048.31-.163.426-.211" transform="translate(-211.236 -26.889)" fill="#cc0" fill-rule="evenodd"/>
        <path id="Path_203832" data-name="Path 203832" d="M290.184,41.589c-1.548.834-3.031,1.672-3.823,3.256,0-2.01,2.018-2.895,3.823-3.256" transform="translate(-215.652 -31.32)" fill="#cc0" fill-rule="evenodd"/>
        <path id="Path_203833" data-name="Path 203833" d="M278.871,25.577a4.559,4.559,0,0,0-1.861,3.908,3.083,3.083,0,0,1,.908-3.519l.582-.283.37-.106" transform="translate(-208.47 -19.261)" fill="#cc0" fill-rule="evenodd"/>
        <path id="Path_203834" data-name="Path 203834" d="M197.837,18.217c.238-.129.669-.307.907-.437-.244.041-.683.131-.927.172-.653.11-.73.267-.831.91-.048.3-.114.678-.161.981.128-.342.282-.74.431-1.067C197.413,18.432,197.5,18.4,197.837,18.217ZM185.722,1.66a4.149,4.149,0,0,1,1.6-1.508c-1.072.258-1.277.457-1.6,1.508m-.169,1.7A6.015,6.015,0,0,1,189.011,0c-2.126.521-2.751.892-3.458,3.356m-19.229,9.4a4.149,4.149,0,0,1,.938-1.987,1.679,1.679,0,0,0-.938,1.987m20.127,15.128-.082-.658a5.181,5.181,0,0,1-.016-1.121q.046-.58.091-1.162c-.113.394-.338.787-.451,1.181-.045.157-.082.285-.1.4a13.25,13.25,0,0,1-5.036.065c-.107-.623-.238-1.272-.348-1.738-.033.521-.012,1.963-.015,2.769a2.064,2.064,0,0,1-.351,1.371,13.248,13.248,0,0,0-.852,1.452,3.657,3.657,0,0,1-.105,1.385c-.235.837-2.6.189-3.225.018-.768-.21-2.357-.523-1.958-1.548a13.181,13.181,0,0,0,.746-3.114,16.878,16.878,0,0,1-2.969-7.271,9.138,9.138,0,0,1,.336-4.259,10.9,10.9,0,0,1,3.045-4.75,11.809,11.809,0,0,1,6.748-2.885c-.7.782-1.39,1.61-2.144,2.5a12.676,12.676,0,0,0-1.7,2.787c-.669,1.357-.655,1.873.232,3.064a7.969,7.969,0,0,1,1.511,2.492,5.2,5.2,0,0,0-.469,1.825,5.494,5.494,0,0,0,2.541,1.94,3.3,3.3,0,0,0,2.433-.237c1.772-.906,3.41-2.075,5.409-2.124a10.227,10.227,0,0,0,.387-6.371,31.834,31.834,0,0,1-.519-4.455,10.646,10.646,0,0,0-.167,4.534c.335,1.893.6,3.984-.337,5.647-1.807.139-3.355,1.238-4.984,2.081a2.731,2.731,0,0,1-2.061.173,3.9,3.9,0,0,1-1.851-1.465,3.6,3.6,0,0,1,.563-1.986c.619-1.22,1.3-2.356,2.052-3.556a34.519,34.519,0,0,0-2.51,3.148,7.606,7.606,0,0,0-1.325-2.072,1.721,1.721,0,0,1-.228-2.246,10.1,10.1,0,0,1,1.706-2.774C181.86,9.4,183.154,7.7,184.7,6.2a3.058,3.058,0,0,1,2.292-.956c1.006-.152,1.988-.345,3.013-.583-.992.092-1.951.126-2.917.15h-.03a6.763,6.763,0,0,1,3.045-2.56c3.8-1.65,6.214-1.829,9.2.68.773.65,1.449,1.282,2.233,1.843a2.829,2.829,0,0,0-.854.2,3.587,3.587,0,0,1,1.259.074c.115.075.233.147.354.219a3.324,3.324,0,0,1,1.242,1.028A11.112,11.112,0,0,1,204.554,8c-.19-.068-.35-.126-.493-.168a1.059,1.059,0,0,0-1,.062l-.023.011a4.667,4.667,0,0,1-1.1.371,1.309,1.309,0,0,0,.689.01.489.489,0,0,1,.069-.021,1.064,1.064,0,0,0-.028,1.025v0a.579.579,0,0,0,.112.175c-.145.053-.293.115-.446.181a7.013,7.013,0,0,1,2.038-.035c.045.218.091.449.134.683l-.257.02-.021,0a1.287,1.287,0,0,0-1.189-.1c-1.513.345-1.158,1.195-1.854,2.474.723-.884.669-1.808,1.847-2.087a1.9,1.9,0,0,1,.647-.118,1.474,1.474,0,0,0-.738.771c-.323.913-.123,1.683-.478,2.535.44-.762.466-1.506.86-2.309a1.611,1.611,0,0,1,.988-.757l.265-.006a6.73,6.73,0,0,1,.095,1.43,15.988,15.988,0,0,1-.372,2.328,7.113,7.113,0,0,0,.755-2.362,6.684,6.684,0,0,0-.023-2.6c-.219-1.173.988-.982,1.69-1.534.515-.406.87-1.055,1.342-1.515s1.206.214,1.391.66a16.424,16.424,0,0,1,.952,6.925c-.237,2.187-1.294,4.575-3.223,5.652-2.459,1.373-5.359.534-7.8-.289a6.005,6.005,0,0,1-1.343-.721,3.439,3.439,0,0,1,.016,1.718c-.264.891-.689,2.348.52,2.617a1.563,1.563,0,0,0,1.319-.248,2.431,2.431,0,0,1-1.152.023.75.75,0,0,1-.593-.514,1.952,1.952,0,0,0,.62.2,1.561,1.561,0,0,0,1.918-.837,5.558,5.558,0,0,1,.287-1.049c.185.057.377.109.574.157l-.333,1.086a2.635,2.635,0,0,1-2.4,1.68,3.29,3.29,0,0,1-2.129-1.153c-.436-.388-.855-.759-1.271-1.126a9.807,9.807,0,0,1-3.112-1.564,5.507,5.507,0,0,0,2.314,1.816,19.974,19.974,0,0,1-1.156,4.185,14.484,14.484,0,0,1-2.316,3.64c-.326.188-2.368,1.908-2.752,2.134-.286.38-.537.9-.967,1.132-1.31.693-2.152-.634-2.858-1.755-.321-.51-1.213-1.981-.436-2.393a20.647,20.647,0,0,0,1.9-1.16C186.139,27.485,186.328,27.679,186.452,27.879Zm4.556,2.376c-.663.536-1.779,1.485-2,1.6-.392.585-.44.947-1.068,1.287-1.869,1.011-2.861-.161-3.968-1.867-.527-.813-1.68-2.668-.457-3.3.515-.265.906-.463,1.3-.69a13.962,13.962,0,0,1-3.852-.036c.023.158.043.308.06.446a1.694,1.694,0,0,1-.276,1.512,6.243,6.243,0,0,0-.735,1.306,3.815,3.815,0,0,1-.14,1.621c-.39,1.445-3.089.653-4.189.356-1.323-.358-3.214-.691-2.438-2.392a8.129,8.129,0,0,0,.432-1.2c-1.157.512-2.765-.574-3.531-1.342a4.43,4.43,0,0,1-1.262-2.4c-.118-.7-.01-.7.49-1.192l1.372-1.358.554-1.507a10.873,10.873,0,0,1-.157-1.12,11.913,11.913,0,0,1,.133-3.657,1.6,1.6,0,0,1-2.14-.687,5.619,5.619,0,0,1-.367-1.136c-1.8-1.731,1.57-4,2.552-4.17-.112.319-.235.611-.343.9.666.345.584,1.327.443,1.959-.239-.3-.372-.7-.724-.714-.052.715-.043,1.505-.6,1.925.165.442.157.442.627.262a4.766,4.766,0,0,0,1.676-1.388,9.571,9.571,0,0,1,2.2-2.855c2.36-2.092,4.59-2.776,8.181-3.348.478-.5.972-.98,1.5-1.448a2.643,2.643,0,0,1,1.864-.8,8.642,8.642,0,0,1,3.842-3.323c3.842-1.617,6.49-1.7,9.573.847a29.07,29.07,0,0,0,3.008,2.427,5.2,5.2,0,0,1,1.4,1.122,6.986,6.986,0,0,1,1.289,2.117,4.274,4.274,0,0,0,1.215-.63c.472-.4.772-1.078,1.209-1.521.58-.588,1.9.122,2.2.682a16.009,16.009,0,0,1,1.192,7.512c-.262,2.584-1.327,5.026-3.6,6.241a8.559,8.559,0,0,1-5.4.567l-.345,1.137a3.373,3.373,0,0,1-2.874,2.12,3.156,3.156,0,0,1-2.487-1.246l-1.168-1.125c-.023.256-.056.5-.1.738.307.605.454,1.138.716,1.762a4.588,4.588,0,0,1,.449,1.874l.053,1.959a1.626,1.626,0,0,1,.274,1.236c-.09,1.248-.777,1.367-1.923,1.36-.381,0-1.822.007-2.189-.02-.73-.053-1.211-.108-1.463-.41m3.863-6.808c-.23.823-.54,1.6-.823,2.49a12.01,12.01,0,0,1-2.448,3.884,2.084,2.084,0,0,0,.96.207c.364.031,1.8.038,2.158.044.793.014,1.093-.046,1.174-.948a1.151,1.151,0,0,0-.217-.912l-.059-2.073a3.972,3.972,0,0,0-.4-1.643,10.406,10.406,0,0,1-.344-1.05M170.726,12.142c.178-.02.288.073.426.211-.025-.329-.086-.572-.317-.707q-.024.08-.046.161A2.657,2.657,0,0,0,170.726,12.142Zm1.118,2.374c-.128.331-.247.673-.359,1.026-.019.058-.036.117-.054.176-.677.287-1.567.469-1.907-.242a6.519,6.519,0,0,1-.38-1.12c-1.115-1.155.552-2.679,1.459-3.226a5,5,0,0,0-.288.716c-.276.954.125,1.8-.741,2.5.407.821.388,1.148,1.334.769a3.093,3.093,0,0,0,.935-.594m-.261,7.771a18.726,18.726,0,0,0,2.355,4.983c0,.008,0,.017,0,.025a1.874,1.874,0,0,1-.278.695c-.692.926-2.453-.434-2.963-.954a3.508,3.508,0,0,1-1.019-1.875c-.064-.461,0-.472.32-.8l1.3-1.317.285-.76M204.367,8.046a1.083,1.083,0,0,1,.233.342,1.143,1.143,0,0,1,.1-.078q-.061-.137-.124-.27l-.2.006m-8.481,3.192a1.382,1.382,0,0,1-.135-.586,4.258,4.258,0,0,1-1.068.662c.518-.462,1.221-1.552,1.73-1.9.578-.391,1.363-.315,2.037-.626a4.1,4.1,0,0,1-.825.538,1.388,1.388,0,0,1,.906,1.154,4,4,0,0,1,1.273-.214,7.926,7.926,0,0,0-3.758,2.427,3.133,3.133,0,0,1,.452-.825A1.386,1.386,0,0,1,195.886,11.237Zm-6.231-4.861a17.411,17.411,0,0,1-2.142.688A4.443,4.443,0,0,0,186.3,9.544c-.178-1.143-.216-1.356.293-2.21a2.483,2.483,0,0,0-.481.346c-.711.608-1.638,3-2.009,3.852.235-1.028.971-3.6,1.729-4.348a1.52,1.52,0,0,1,1.314-.548Q188.4,6.518,189.656,6.377ZM205.142,8.87a2.319,2.319,0,0,0,1.485-.117,4.913,4.913,0,0,0,2.223-2.279,3.36,3.36,0,0,1-2.107,2.579c-.6.214-.989-.007-1.6-.182m-11.551.113a3.559,3.559,0,0,1,2.189-2.72c-2.067.518-2.455,1.386-2.189,2.72m-26.8,5.408A6.014,6.014,0,0,1,168.781,10c-1.79,1.261-2.236,1.834-1.995,4.387" transform="translate(-125.239 0.001)" fill-rule="evenodd"/>
        <path id="Path_203835" data-name="Path 203835" d="M287.034,44.287a.582.582,0,0,1,1.051-.5.594.594,0,0,1,.032.084,3.679,3.679,0,0,0-.743.727.632.632,0,0,1-.341-.311" transform="translate(-216.116 -32.726)" fill="#ffc" fill-rule="evenodd"/>
        <path id="Path_203836" data-name="Path 203836" d="M313.411,35.479a.428.428,0,0,1,.466-.393.438.438,0,0,1,.393.476.431.431,0,0,1-.04.143,3.75,3.75,0,0,0-.664.184.58.58,0,0,1-.156-.411" transform="translate(-236.022 -26.422)" fill="#ffc" fill-rule="evenodd"/>
      </g>
    </g>
    <g id="Group_146919" data-name="Group 146919" transform="translate(330 2717)">
      <rect id="Rectangle_44965" data-name="Rectangle 44965" width="25.806" height="6.452" transform="translate(67.742 69.355)" fill="#ffeaa7"/>
      <rect id="Rectangle_44966" data-name="Rectangle 44966" width="25.806" height="6.452" transform="translate(67.742 50)" fill="#ffeaa7"/>
      <g id="Group_146918" data-name="Group 146918">
        <g id="Group_146917" data-name="Group 146917" clip-path="url(#clip-path-2)">
          <path id="Path_203837" data-name="Path 203837" d="M67.742,75.806H95.161a3.236,3.236,0,0,1,3.226,3.227v6.45a3.235,3.235,0,0,1-3.226,3.226H66.129A3.235,3.235,0,0,1,62.9,85.483v-6.45a3.237,3.237,0,0,1,3.226-3.227Z" fill="#feca2e"/>
          <path id="Path_203838" data-name="Path 203838" d="M67.742,56.452H95.161a3.235,3.235,0,0,1,3.226,3.226v6.451a3.235,3.235,0,0,1-3.226,3.226H66.129A3.235,3.235,0,0,1,62.9,66.129V59.678a3.236,3.236,0,0,1,3.226-3.226Z" fill="#feca2e"/>
          <path id="Path_203839" data-name="Path 203839" d="M62.9,46.774V40.322A3.235,3.235,0,0,1,66.129,37.1H95.161a3.235,3.235,0,0,1,3.226,3.225v6.452A3.236,3.236,0,0,1,95.161,50H66.129A3.236,3.236,0,0,1,62.9,46.774" fill="#feca2e"/>
          <rect id="Rectangle_44967" data-name="Rectangle 44967" width="16.129" height="6.452" transform="translate(20.968 91.935)" fill="#aab2bd"/>
          <path id="Path_203840" data-name="Path 203840" d="M56.452,82.258V88.71a3.235,3.235,0,0,1-3.226,3.225H4.839A3.235,3.235,0,0,1,1.613,88.71V82.258Z" fill="#ccd1d9"/>
          <path id="Path_203841" data-name="Path 203841" d="M1.613,82.258V59.677a3.235,3.235,0,0,1,3.226-3.225H53.226a3.235,3.235,0,0,1,3.226,3.225V82.258Z" fill="#4dd0e1"/>
          <rect id="Rectangle_44968" data-name="Rectangle 44968" width="16.129" height="12.903" transform="translate(33.871 62.903)" fill="#bddcf6"/>
          <path id="Path_203842" data-name="Path 203842" d="M38.71,37.1a6.451,6.451,0,1,1,0,12.9H16.129a6.451,6.451,0,0,1,0-12.9,6.57,6.57,0,0,1,2.049.355,9.678,9.678,0,0,1,18.484,0A6.564,6.564,0,0,1,38.71,37.1" fill="#e6e9ed"/>
          <path id="Path_203843" data-name="Path 203843" d="M38.71,8.064a6.451,6.451,0,1,1,0,12.9H16.129a6.451,6.451,0,0,1,0-12.9,6.57,6.57,0,0,1,2.049.356,9.678,9.678,0,0,1,18.484,0,6.564,6.564,0,0,1,2.048-.356" fill="#e6e9ed"/>
          <path id="Path_203844" data-name="Path 203844" d="M53.226,54.839H4.839A4.845,4.845,0,0,0,0,59.678V88.71a4.845,4.845,0,0,0,4.839,4.839H19.355v3.226H14.516V100H43.549V96.775H38.71V93.549H53.226a4.845,4.845,0,0,0,4.839-4.839V59.678a4.845,4.845,0,0,0-4.839-4.839M4.839,58.065H53.226a1.615,1.615,0,0,1,1.613,1.613V80.646H3.226V59.678a1.615,1.615,0,0,1,1.613-1.613m30.645,38.71h-12.9V93.549h12.9Zm17.742-6.452H4.839A1.615,1.615,0,0,1,3.226,88.71V83.871H54.839V88.71a1.615,1.615,0,0,1-1.613,1.613"/>
          <path id="Path_203845" data-name="Path 203845" d="M51.613,61.29H32.258V77.419H51.613Zm-3.226,12.9h-12.9V64.517h12.9Z"/>
          <rect id="Rectangle_44969" data-name="Rectangle 44969" width="3.226" height="3.226" transform="translate(6.452 61.29)"/>
          <rect id="Rectangle_44970" data-name="Rectangle 44970" width="16.129" height="3.226" transform="translate(12.903 61.29)"/>
          <rect id="Rectangle_44971" data-name="Rectangle 44971" width="22.581" height="3.226" transform="translate(6.452 67.742)"/>
          <rect id="Rectangle_44972" data-name="Rectangle 44972" width="22.581" height="3.226" transform="translate(6.452 74.194)"/>
          <rect id="Rectangle_44973" data-name="Rectangle 44973" width="3.226" height="3.226" transform="translate(67.742 80.645)"/>
          <rect id="Rectangle_44974" data-name="Rectangle 44974" width="3.226" height="3.226" transform="translate(74.194 80.645)"/>
          <rect id="Rectangle_44975" data-name="Rectangle 44975" width="3.226" height="3.226" transform="translate(67.742 61.29)"/>
          <rect id="Rectangle_44976" data-name="Rectangle 44976" width="3.226" height="3.226" transform="translate(74.194 61.29)"/>
          <path id="Path_203846" data-name="Path 203846" d="M100,46.774V40.323a4.845,4.845,0,0,0-4.839-4.839h-12.9V17.742A4.845,4.845,0,0,0,77.419,12.9H46.606a7.988,7.988,0,0,0-8.945-6.374,11.3,11.3,0,0,0-20.484,0,8.06,8.06,0,1,0-1.048,16.052h9.677v6.567a11.216,11.216,0,0,0-8.629,6.413,8.06,8.06,0,1,0-1.048,16.052H38.71a8.061,8.061,0,1,0-1.049-16.052,11.208,11.208,0,0,0-8.629-6.413V22.581H38.71a8.08,8.08,0,0,0,7.9-6.452H77.419a1.614,1.614,0,0,1,1.613,1.613V35.484h-12.9a4.845,4.845,0,0,0-4.839,4.839v6.451a4.845,4.845,0,0,0,4.839,4.839v3.226a4.845,4.845,0,0,0-4.839,4.838v6.452a4.845,4.845,0,0,0,4.839,4.839v3.226a4.845,4.845,0,0,0-4.839,4.838v6.452a4.845,4.845,0,0,0,4.839,4.839H95.161A4.845,4.845,0,0,0,100,85.484V79.032a4.845,4.845,0,0,0-4.839-4.838V70.968A4.845,4.845,0,0,0,100,66.129V59.677a4.845,4.845,0,0,0-4.839-4.838V51.613A4.845,4.845,0,0,0,100,46.774M35.124,37.935l.489,1.581,1.568-.527a4.707,4.707,0,0,1,1.529-.279,4.839,4.839,0,0,1,0,9.677H16.129a4.839,4.839,0,1,1,0-9.677,4.764,4.764,0,0,1,1.529.277l1.568.529.489-1.579a8.066,8.066,0,0,1,15.409,0m3.586-18.58H16.129a4.839,4.839,0,0,1,0-9.678,4.767,4.767,0,0,1,1.529.278l1.568.529L19.715,8.9a8.066,8.066,0,0,1,15.409,0l.489,1.581,1.568-.528a4.734,4.734,0,0,1,1.529-.279,4.839,4.839,0,0,1,0,9.678M64.516,46.774V40.323a1.615,1.615,0,0,1,1.613-1.613H95.161a1.614,1.614,0,0,1,1.613,1.613v6.451a1.614,1.614,0,0,1-1.613,1.613H66.129a1.615,1.615,0,0,1-1.613-1.613M96.774,79.032v6.452A1.614,1.614,0,0,1,95.161,87.1H66.129a1.615,1.615,0,0,1-1.613-1.613V79.032a1.615,1.615,0,0,1,1.613-1.613H95.161a1.615,1.615,0,0,1,1.613,1.613m-4.839-4.838H69.354V70.968H91.935Zm4.839-14.517v6.452a1.614,1.614,0,0,1-1.613,1.613H66.129a1.615,1.615,0,0,1-1.613-1.613V59.677a1.615,1.615,0,0,1,1.613-1.612H95.161a1.614,1.614,0,0,1,1.613,1.612m-4.839-4.838H69.354V51.613H91.935Z"/>
          <rect id="Rectangle_44977" data-name="Rectangle 44977" width="3.226" height="3.226" transform="translate(67.742 41.935)"/>
          <rect id="Rectangle_44978" data-name="Rectangle 44978" width="3.226" height="3.226" transform="translate(74.194 41.935)"/>
        </g>
      </g>
    </g>
    <g id="Group_146920" data-name="Group 146920" transform="translate(115.379 2674.11)">
      <g id="Group_101366" data-name="Group 101366" transform="translate(379.621 110.89)">
        <rect id="Rectangle_24563" data-name="Rectangle 24563" width="28.517" height="11.366" transform="translate(0)" fill="#4dd0e1"/>
      </g>
      <g id="Group_101368" data-name="Group 101368" transform="translate(397.984 102.889)">
        <g id="Group_101367" data-name="Group 101367">
          <path id="Path_162571" data-name="Path 162571" d="M527.44,129.906l5.688-13.387-5.687-13.387,31.735,13.387Z" transform="translate(-527.44 -103.131)" fill="#4dd0e1"/>
        </g>
      </g>
    </g>
    <g id="Group_146921" data-name="Group 146921" transform="translate(395.379 2674.11)">
      <g id="Group_101366-2" data-name="Group 101366" transform="translate(379.621 110.89)">
        <rect id="Rectangle_24563-2" data-name="Rectangle 24563" width="28.517" height="11.366" transform="translate(0)" fill="#4dd0e1"/>
      </g>
      <g id="Group_101368-2" data-name="Group 101368" transform="translate(397.984 102.889)">
        <g id="Group_101367-2" data-name="Group 101367">
          <path id="Path_162571-2" data-name="Path 162571" d="M527.44,129.906l5.688-13.387-5.687-13.387,31.735,13.387Z" transform="translate(-527.44 -103.131)" fill="#4dd0e1"/>
        </g>
      </g>
    </g>
    <g id="Group_146922" data-name="Group 146922" transform="translate(675.379 2674.11)">
      <g id="Group_101366-3" data-name="Group 101366" transform="translate(379.621 110.89)">
        <rect id="Rectangle_24563-3" data-name="Rectangle 24563" width="28.517" height="11.366" transform="translate(0)" fill="#4dd0e1"/>
      </g>
      <g id="Group_101368-3" data-name="Group 101368" transform="translate(397.984 102.889)">
        <g id="Group_101367-3" data-name="Group 101367">
          <path id="Path_162571-3" data-name="Path 162571" d="M527.44,129.906l5.688-13.387-5.687-13.387,31.735,13.387Z" transform="translate(-527.44 -103.131)" fill="#4dd0e1"/>
        </g>
      </g>
    </g>
    <g id="Group_146923" data-name="Group 146923" transform="translate(989.994 2817) rotate(180)">
      <g id="Group_146923-2" data-name="Group 146923" clip-path="url(#clip-path-3)">
        <path id="Path_203847" data-name="Path 203847" d="M49.972,29.9a20.13,20.13,0,1,1-20.129,20.13A20.13,20.13,0,0,1,49.972,29.9" fill="#edf2fa"/>
        <path id="Path_203848" data-name="Path 203848" d="M49.972,37.135a12.89,12.89,0,1,1-12.89,12.89,12.89,12.89,0,0,1,12.89-12.89" fill="#feca2e"/>
        <path id="Path_203849" data-name="Path 203849" d="M49.994,70.155a20.148,20.148,0,0,1,0-40.3V1.961H41.237V9.554a41.129,41.129,0,0,0-13.7,5.675L22.189,9.878,9.844,22.231l5.347,5.347a41.15,41.15,0,0,0-5.675,13.7H1.953V58.739H9.516a41.159,41.159,0,0,0,5.675,13.7L9.844,77.783,22.188,90.136l5.352-5.351a41.15,41.15,0,0,0,13.7,5.675v7.583l8.757,0Z" fill="#feca2e"/>
        <path id="Path_203850" data-name="Path 203850" d="M93.355,17.864a4.688,4.688,0,1,1-4.687,4.687,4.687,4.687,0,0,1,4.687-4.687" fill="#4dd0e1"/>
        <path id="Path_203851" data-name="Path 203851" d="M93.355,72.767a4.688,4.688,0,1,1-4.687,4.687,4.687,4.687,0,0,1,4.687-4.687" fill="#4dd0e1"/>
        <path id="Path_203852" data-name="Path 203852" d="M82.809,88.673a4.688,4.688,0,1,1-4.688,4.687,4.687,4.687,0,0,1,4.688-4.687" fill="#4dd0e1"/>
        <path id="Path_203853" data-name="Path 203853" d="M82.809,1.953A4.688,4.688,0,1,1,78.121,6.64a4.687,4.687,0,0,1,4.688-4.687" fill="#4dd0e1"/>
        <path id="Path_203854" data-name="Path 203854" d="M93.355,45.343a4.688,4.688,0,1,1-4.687,4.687,4.687,4.687,0,0,1,4.687-4.687" fill="#4dd0e1"/>
        <path id="Path_203855" data-name="Path 203855" d="M40.164,25.079a1.953,1.953,0,1,0-1.434-3.633A30.706,30.706,0,0,0,19.3,50.007a1.953,1.953,0,0,0,3.906,0A26.652,26.652,0,0,1,40.164,25.079"/>
        <path id="Path_203856" data-name="Path 203856" d="M62.862,48.072a1.953,1.953,0,0,0-1.953,1.953A10.937,10.937,0,1,1,49.972,39.088a1.953,1.953,0,0,0,0-3.906A14.843,14.843,0,1,0,64.815,50.025a1.953,1.953,0,0,0-1.953-1.953"/>
        <path id="Path_203857" data-name="Path 203857" d="M68.149,49.951v.074a1.953,1.953,0,1,0,3.906,0v-.074a1.953,1.953,0,1,0-3.906,0"/>
        <path id="Path_203858" data-name="Path 203858" d="M59.438,65.81a1.953,1.953,0,1,0,1.381-.572,1.965,1.965,0,0,0-1.381.572"/>
        <path id="Path_203859" data-name="Path 203859" d="M93.354,70.815a6.591,6.591,0,0,0-3.107.774l-5.779-5.78a1.955,1.955,0,0,0-1.381-.572H68.846a1.953,1.953,0,1,0,0,3.906H82.277l5.209,5.208a6.639,6.639,0,1,0,5.868-3.536m0,9.374a2.734,2.734,0,1,1,2.734-2.734,2.737,2.737,0,0,1-2.734,2.734"/>
        <path id="Path_203860" data-name="Path 203860" d="M82.808,86.72a6.6,6.6,0,0,0-2.617.538L74.253,76.427a1.951,1.951,0,0,0-1.712-1.015h-20.6V70.154A1.953,1.953,0,0,0,49.993,68.2a18.194,18.194,0,0,1-.363-36.385,1.925,1.925,0,0,0,.342.032A18.258,18.258,0,0,1,67.014,43.687a1.953,1.953,0,1,0,3.661-1.362,21.946,21.946,0,0,0-4.757-7.555H83.087a1.955,1.955,0,0,0,1.381-.572l5.779-5.78a6.646,6.646,0,1,0-2.761-2.763l-5.208,5.209H60.907a22.064,22.064,0,0,0-8.96-2.829V24.5H72.541a1.954,1.954,0,0,0,1.71-1.01L80.186,12.74a6.65,6.65,0,1,0-3.023-2.608L71.388,20.6H51.947V1.961A1.953,1.953,0,0,0,49.994.008H41.236a1.953,1.953,0,0,0-1.953,1.953V8a42.932,42.932,0,0,0-11.457,4.749L23.569,8.5a1.954,1.954,0,0,0-2.763,0L8.462,20.85a1.953,1.953,0,0,0,0,2.761l4.252,4.253A42.962,42.962,0,0,0,7.966,39.321H1.953A1.953,1.953,0,0,0,0,41.274V58.738a1.953,1.953,0,0,0,1.953,1.953H7.967a42.917,42.917,0,0,0,4.748,11.458L8.463,76.4a1.952,1.952,0,0,0,0,2.761L20.807,91.516a1.951,1.951,0,0,0,2.762,0l4.257-4.256a42.911,42.911,0,0,0,11.457,4.748v6.034A1.954,1.954,0,0,0,41.235,100h8.758a1.946,1.946,0,0,0,1.954-1.948V79.318H71.384l5.782,10.546a6.638,6.638,0,1,0,5.642-3.144m10.546-66.9a2.734,2.734,0,1,1-2.734,2.734,2.737,2.737,0,0,1,2.734-2.734M82.808,3.906A2.734,2.734,0,1,1,80.074,6.64a2.736,2.736,0,0,1,2.734-2.734M48.04,96.093l-4.851,0V90.46a1.954,1.954,0,0,0-1.543-1.91A39.059,39.059,0,0,1,28.6,83.144a1.954,1.954,0,0,0-2.441.259l-3.971,3.971L12.6,77.783l3.967-3.967a1.952,1.952,0,0,0,.259-2.441,39.059,39.059,0,0,1-5.406-13.046,1.953,1.953,0,0,0-1.909-1.543H3.906V43.227H9.515a1.954,1.954,0,0,0,1.91-1.543,39.059,39.059,0,0,1,5.406-13.046,1.954,1.954,0,0,0-.26-2.441L12.6,22.23l9.583-9.591,3.97,3.971a1.954,1.954,0,0,0,2.441.259,39.064,39.064,0,0,1,13.047-5.406,1.954,1.954,0,0,0,1.543-1.91V3.914H48.04V27.991a22.1,22.1,0,0,0,0,44.031Zm34.768,0a2.734,2.734,0,1,1,2.734-2.734,2.737,2.737,0,0,1-2.734,2.734"/>
        <path id="Path_203861" data-name="Path 203861" d="M93.354,43.391a6.652,6.652,0,0,0-6.347,4.687H81.245a1.953,1.953,0,1,0,0,3.906h5.762a6.64,6.64,0,1,0,6.347-8.593m0,9.374a2.734,2.734,0,1,1,2.734-2.734,2.737,2.737,0,0,1-2.734,2.734"/>
      </g>
    </g>
    <g id="Group_146924" data-name="Group 146924" transform="translate(1168 2717)">
      <g id="Group_146924-2" data-name="Group 146924" clip-path="url(#clip-path-4)">
        <path id="Path_203862" data-name="Path 203862" d="M57.022,76.512c0,4.307-10.278,7.8-22.956,7.8S10,80.819,10,76.512V17.8C10,13.491,21.388,10,34.066,10s22.956,3.492,22.956,7.8Z" transform="translate(-7.976 -7.973)" fill="#ffd54f" fill-rule="evenodd"/>
        <path id="Path_203863" data-name="Path 203863" d="M34.066,70.961c12.671,0,22.943-3.487,22.956-7.791V48.483c0,4.307-10.278,7.8-22.956,7.8S10,52.79,10,48.483v14.7c.038,4.3,11.406,7.778,24.063,7.778" transform="translate(-7.976 -38.657)" fill="#ffc107" fill-rule="evenodd"/>
        <path id="Path_203864" data-name="Path 203864" d="M57.023,193.39c-.018,4.3-10.289,7.788-22.956,7.788-12.648,0-24.009-3.475-24.063-7.769v14.685c.065,4.29,11.421,7.762,24.063,7.762,12.665,0,22.934-3.484,22.956-7.785Z" transform="translate(-7.977 -154.196)" fill="#ffc107" fill-rule="evenodd"/>
        <path id="Path_203865" data-name="Path 203865" d="M338.815,315.285a25.2,25.2,0,0,1-4.953,4.953l8.389,8.389a3.19,3.19,0,0,1,.507-.661l3.785-3.785a3.184,3.184,0,0,1,.661-.507Z" transform="translate(-266.199 -251.387)" fill="#ccc" fill-rule="evenodd"/>
        <path id="Path_203866" data-name="Path 203866" d="M366.76,351.967l3.785-3.785a3.224,3.224,0,0,1,4.546,0l17.393,17.393a3.224,3.224,0,0,1,0,4.546l-3.785,3.785a3.224,3.224,0,0,1-4.546,0L366.76,356.513a3.224,3.224,0,0,1,0-4.546" transform="translate(-291.682 -276.87)" fill="#656565" fill-rule="evenodd"/>
        <path id="Path_203867" data-name="Path 203867" d="M165.317,128.441a18.3,18.3,0,1,1-18.3,18.3A18.3,18.3,0,0,1,165.317,128.441Zm0-6.765a25.064,25.064,0,1,0,25.064,25.064,25.064,25.064,0,0,0-25.064-25.064" transform="translate(-111.828 -97.016)" fill="#92d2fe" fill-rule="evenodd"/>
        <path id="Path_203868" data-name="Path 203868" d="M99.368,91.819,95.583,95.6a1.194,1.194,0,0,1-1.68,0L76.511,78.21a1.2,1.2,0,0,1,0-1.678l3.784-3.786a1.2,1.2,0,0,1,1.68,0L99.368,90.138A1.2,1.2,0,0,1,99.368,91.819ZM73.648,67.8a27.313,27.313,0,0,1-2.085,2.085l2.931,2.931,2.085-2.086ZM30.45,49.724A23.037,23.037,0,1,0,53.487,26.686,23.064,23.064,0,0,0,30.45,49.724M26.089,74.312A56.043,56.043,0,0,1,9.918,72.124C5.646,70.763,4.052,69.2,4.052,68.54v-9.2a23.591,23.591,0,0,0,4.636,1.97,60.186,60.186,0,0,0,17.4,2.381c1.384,0,2.764-.043,4.12-.124a27.3,27.3,0,0,0,9.136,9.256A55.421,55.421,0,0,1,26.089,74.312ZM9.919,6.243A56.008,56.008,0,0,1,26.089,4.055,50.4,50.4,0,0,1,41.67,6.23c4.231,1.437,5.35,2.982,5.35,3.6s-1.119,2.159-5.35,3.6A50.453,50.453,0,0,1,26.089,15.6,56.112,56.112,0,0,1,9.919,13.411C5.646,12.05,4.053,10.489,4.053,9.826S5.646,7.6,9.919,6.243m16.9,38.708c-.244,0-.488.006-.729.006A56.114,56.114,0,0,1,9.919,42.768c-4.267-1.36-5.861-2.917-5.866-3.582V29.979a23.584,23.584,0,0,0,4.636,1.972,60.289,60.289,0,0,0,17.4,2.378c1.792,0,3.549-.067,5.259-.2A26.941,26.941,0,0,0,26.819,44.95ZM28.259,59.6A26.954,26.954,0,0,1,26.4,49.724q0-.361.011-.717l-.318,0a60.259,60.259,0,0,1-17.4-2.38,23.569,23.569,0,0,1-4.636-1.971v9.207c.007.666,1.6,2.221,5.866,3.58a56.076,56.076,0,0,0,16.171,2.189C26.815,59.635,27.54,59.619,28.259,59.6Zm7.132-30.013a60.109,60.109,0,0,1-9.3.693A56.036,56.036,0,0,1,9.919,28.088c-4.27-1.36-5.863-2.919-5.866-3.581V15.3a23.591,23.591,0,0,0,4.636,1.97,60.221,60.221,0,0,0,17.4,2.381c8.082,0,16.227-1.431,20.931-4.209v7.97a27.069,27.069,0,0,0-11.629,6.169m66.842,57.689L84.842,69.88a5.244,5.244,0,0,0-4.8-1.419l-3.9-3.9A27.078,27.078,0,0,0,53.487,22.633c-.813,0-1.62.038-2.413.109V9.826C51.074,3.375,38.5,0,26.089,0a60.287,60.287,0,0,0-17.4,2.38C1.507,4.668,0,7.692,0,9.826V68.54c0,2.134,1.508,5.158,8.688,7.446a60.289,60.289,0,0,0,17.4,2.379c7.246,0,13.945-1.1,18.574-3.028a27.047,27.047,0,0,0,23.661-2.959l3.9,3.9a5.291,5.291,0,0,0-.113,1.091,5.206,5.206,0,0,0,1.532,3.706L91.038,98.469a5.251,5.251,0,0,0,7.411,0l3.784-3.786A5.244,5.244,0,0,0,102.233,87.272ZM53.487,64.523a14.776,14.776,0,0,1-2.413-.2v-29.2a14.8,14.8,0,1,1,2.413,29.4M38.824,47.749a27.768,27.768,0,0,0,8.2-2.942v9.053c0,.825-1.629,2.448-6.007,3.811a14.686,14.686,0,0,1-2.189-9.922m8.2,15.283a14.737,14.737,0,0,1-3.138-2.065,20.333,20.333,0,0,0,3.138-1.48Zm0-26.616v2.769c0,1-2.148,2.733-6.831,4.053A14.9,14.9,0,0,1,47.02,36.416Zm6.467-5.546A18.853,18.853,0,1,1,34.636,49.724,18.875,18.875,0,0,1,53.487,30.87" fill-rule="evenodd"/>
      </g>
    </g>
  </g>
</svg>
