<svg xmlns="http://www.w3.org/2000/svg" xmlns:xlink="http://www.w3.org/1999/xlink" width="93.475" height="69.315" viewBox="0 0 93.475 69.315">
  <defs>
    <linearGradient id="linear-gradient" x1="0.458" y1="1.974" x2="0.487" y2="1.974" gradientUnits="objectBoundingBox">
      <stop offset="0" stop-color="#cba124"/>
      <stop offset="1" stop-color="#cba124"/>
    </linearGradient>
    <clipPath id="clip-path">
      <path id="Path_204582" data-name="Path 204582" d="M1.375,0,4.358,69.314l84.044-.2L92.134,0Z" transform="translate(-1.375 0)" fill="none"/>
    </clipPath>
    <linearGradient id="linear-gradient-2" x1="-0.031" y1="0.828" x2="-0.009" y2="0.828" gradientUnits="objectBoundingBox">
      <stop offset="0" stop-color="#feca2e"/>
      <stop offset="1" stop-color="#feca2e"/>
    </linearGradient>
    <clipPath id="clip-path-2">
      <path id="Path_204583" data-name="Path 204583" d="M2.716,0,0,4.089,2.716,69.314H5.7Z" transform="translate(0 0)" fill="url(#linear-gradient)"/>
    </clipPath>
  </defs>
  <g id="a2" transform="translate(0 0)">
    <g id="Group_172556" data-name="Group 172556" transform="translate(2.716 0)">
      <g id="Group_172555" data-name="Group 172555" clip-path="url(#clip-path)">
        <rect id="Rectangle_53493" data-name="Rectangle 53493" width="90.528" height="105.659" transform="translate(-17.402 64.629) rotate(-74.93)" fill="url(#linear-gradient-2)"/>
      </g>
    </g>
    <g id="Group_172558" data-name="Group 172558" transform="translate(0 0)">
      <g id="Group_172557" data-name="Group 172557" clip-path="url(#clip-path-2)">
        <rect id="Rectangle_53494" data-name="Rectangle 53494" width="68.413" height="23.525" transform="translate(-17.402 64.629) rotate(-74.93)" fill="url(#linear-gradient)"/>
      </g>
    </g>
    <path id="Path_204584" data-name="Path 204584" d="M23.662,7.76,9.421,6.233l1.95,47.5,12.292-1.205V47.606l-7.122.17-.812-36.624,7.934.225Z" transform="translate(9.19 6.08)" fill="#0f2771"/>
    <path id="Path_204585" data-name="Path 204585" d="M31.394,7.76,45.635,6.233l-1.95,47.5L31.394,52.525V47.606l7.122.17.812-36.624-7.934.225Z" transform="translate(30.625 6.08)" fill="#0f2771"/>
  </g>
</svg>
